<svg width="162" height="64" viewBox="0 0 162 64" fill="none" xmlns="http://www.w3.org/2000/svg">
<g clip-path="url(#clip0_56_12)">
<path d="M0 28.9808L9.78593 61.2394L14.7441 44.282L11.2212 31.5836C10.8733 30.716 9.70764 28.9808 7.82875 28.9808H0Z" fill="#16BE8C"/>
<path d="M10.6993 63.9999L21.6595 26.7724L26.8787 44.282L21.9857 61.3183C21.5291 62.4225 20.5374 63.6214 18.6585 63.9999H10.6993Z" fill="#16BE8C"/>
<path d="M22.7686 23.933L33.9246 61.2394L38.8828 44.282L34.2508 27.1667C33.9681 26.4306 33.5984 24.564 31.1193 23.933L30.5483 23.933C28.7335 23.933 24.621 23.933 22.7686 23.933Z" fill="#0B5C45"/>
<path d="M34.9032 63.9999L52.5178 3.18972C52.8223 2.16438 53.9531 0.097937 56.0408 0.0348394C58.1284 -0.0282581 62.2168 0.00854878 64 0.0348394L46.5158 60.1353C46.1026 61.4235 44.7804 64 42.7971 64L34.9032 63.9999Z" fill="#0B5C45"/>
<path d="M70.1605 64.3707C68.1065 64.3707 66.3338 63.9659 64.8423 63.1562C63.3594 62.3381 62.2173 61.1747 61.4162 59.6662C60.6236 58.1491 60.2273 56.3466 60.2273 54.2585C60.2273 52.2301 60.6278 50.4574 61.429 48.9403C62.2301 47.4148 63.3594 46.2301 64.8168 45.3864C66.2741 44.5341 67.9915 44.108 69.9688 44.108C71.3665 44.108 72.6449 44.3253 73.804 44.7599C74.9631 45.1946 75.9645 45.8381 76.8082 46.6903C77.652 47.5426 78.3082 48.5952 78.777 49.848C79.2457 51.0923 79.4801 52.5199 79.4801 54.1307V55.6903H62.4134V52.0597H73.6634C73.6548 51.3949 73.4972 50.8026 73.1903 50.2827C72.8835 49.7628 72.4616 49.358 71.9247 49.0682C71.3963 48.7699 70.7869 48.6207 70.0966 48.6207C69.3977 48.6207 68.7713 48.7784 68.2173 49.0938C67.6634 49.4006 67.2244 49.8224 66.9006 50.3594C66.5767 50.8878 66.4063 51.4886 66.3892 52.1619V55.8565C66.3892 56.6577 66.5469 57.3608 66.8622 57.9659C67.1776 58.5625 67.625 59.027 68.2045 59.3594C68.7841 59.6918 69.4744 59.858 70.2756 59.858C70.8295 59.858 71.3324 59.7812 71.7841 59.6278C72.2358 59.4744 72.6236 59.2486 72.9474 58.9503C73.2713 58.652 73.5142 58.2855 73.6761 57.8509L79.4162 58.017C79.1776 59.304 78.6534 60.4247 77.8438 61.3793C77.0426 62.3253 75.9901 63.0625 74.6861 63.5909C73.3821 64.1108 71.8736 64.3707 70.1605 64.3707ZM103.455 46.3707C103.31 45.8338 103.097 45.3608 102.816 44.9517C102.534 44.5341 102.189 44.1804 101.78 43.8906C101.371 43.6009 100.902 43.3835 100.374 43.2386C99.8454 43.0852 99.2658 43.0085 98.6352 43.0085C97.3653 43.0085 96.2658 43.3153 95.3369 43.929C94.4164 44.5426 93.7048 45.4375 93.2019 46.6136C92.6991 47.7812 92.4477 49.2003 92.4477 50.8707C92.4477 52.5497 92.6906 53.9815 93.1764 55.1662C93.6621 56.3509 94.3653 57.2543 95.2857 57.8764C96.2062 58.4986 97.3227 58.8097 98.6352 58.8097C99.7942 58.8097 100.774 58.6222 101.575 58.2472C102.385 57.8636 102.999 57.3224 103.416 56.6236C103.834 55.9247 104.043 55.1023 104.043 54.1562L105.219 54.2969H98.8525V49.6818H110.141V53.1463C110.141 55.4901 109.642 57.4972 108.645 59.1676C107.656 60.8381 106.293 62.1207 104.554 63.0156C102.824 63.9105 100.834 64.358 98.584 64.358C96.0869 64.358 93.8923 63.8168 92.0002 62.7344C90.1082 61.652 88.6337 60.1094 87.5769 58.1065C86.5201 56.0952 85.9917 53.7088 85.9917 50.9474C85.9917 48.7997 86.3113 46.8949 86.9505 45.233C87.5897 43.5625 88.4803 42.1477 89.6224 40.9886C90.7729 39.8295 92.1025 38.9517 93.611 38.3551C95.1281 37.7585 96.7602 37.4602 98.5073 37.4602C100.024 37.4602 101.435 37.6776 102.739 38.1122C104.051 38.5469 105.21 39.1605 106.216 39.9531C107.23 40.7457 108.053 41.6875 108.683 42.7784C109.314 43.8693 109.706 45.0668 109.86 46.3707H103.455ZM123.006 64.3324C121.753 64.3324 120.641 64.1236 119.669 63.706C118.706 63.2798 117.944 62.6406 117.381 61.7884C116.827 60.9276 116.55 59.8494 116.55 58.554C116.55 57.4631 116.742 56.5426 117.125 55.7926C117.509 55.0426 118.037 54.4332 118.711 53.9645C119.384 53.4957 120.16 53.142 121.037 52.9034C121.915 52.6562 122.853 52.4901 123.85 52.4048C124.966 52.3026 125.865 52.196 126.547 52.0852C127.229 51.9659 127.723 51.7997 128.03 51.5866C128.346 51.3651 128.503 51.054 128.503 50.6534V50.5895C128.503 49.9332 128.277 49.4261 127.826 49.0682C127.374 48.7102 126.765 48.5312 125.998 48.5312C125.171 48.5312 124.506 48.7102 124.003 49.0682C123.5 49.4261 123.181 49.9205 123.044 50.5511L117.279 50.3466C117.449 49.1534 117.888 48.0881 118.596 47.1506C119.312 46.2045 120.292 45.4631 121.536 44.9261C122.789 44.3807 124.293 44.108 126.049 44.108C127.302 44.108 128.456 44.2571 129.513 44.5554C130.57 44.8452 131.49 45.2713 132.275 45.8338C133.059 46.3878 133.664 47.0696 134.09 47.8793C134.525 48.6889 134.742 49.6136 134.742 50.6534V64H128.861V61.2642H128.708C128.358 61.929 127.911 62.4915 127.365 62.9517C126.829 63.4119 126.194 63.7571 125.461 63.9872C124.736 64.2173 123.918 64.3324 123.006 64.3324ZM124.937 60.2415C125.61 60.2415 126.215 60.1051 126.752 59.8324C127.297 59.5597 127.732 59.1847 128.056 58.7074C128.38 58.2216 128.542 57.6591 128.542 57.0199V55.1534C128.363 55.2472 128.145 55.3324 127.89 55.4091C127.642 55.4858 127.37 55.5582 127.071 55.6264C126.773 55.6946 126.466 55.7543 126.151 55.8054C125.836 55.8565 125.533 55.9034 125.243 55.946C124.655 56.0398 124.152 56.1847 123.735 56.3807C123.326 56.5767 123.01 56.8324 122.789 57.1477C122.576 57.4545 122.469 57.821 122.469 58.2472C122.469 58.8949 122.699 59.3892 123.16 59.7301C123.628 60.071 124.221 60.2415 124.937 60.2415ZM156.316 45.6676C156.231 44.7301 155.852 44.0014 155.179 43.4815C154.514 42.9531 153.563 42.6889 152.328 42.6889C151.51 42.6889 150.828 42.7955 150.282 43.0085C149.737 43.2216 149.328 43.5156 149.055 43.8906C148.782 44.2571 148.642 44.679 148.633 45.1562C148.616 45.5483 148.693 45.8935 148.863 46.1918C149.042 46.4901 149.298 46.7543 149.63 46.9844C149.971 47.206 150.38 47.402 150.858 47.5724C151.335 47.7429 151.872 47.892 152.468 48.0199L154.718 48.5312C156.014 48.8125 157.156 49.1875 158.144 49.6562C159.142 50.125 159.977 50.6832 160.65 51.331C161.332 51.9787 161.848 52.7244 162.197 53.5682C162.546 54.4119 162.725 55.358 162.734 56.4062C162.725 58.0597 162.308 59.4787 161.481 60.6634C160.654 61.848 159.465 62.7557 157.914 63.3864C156.372 64.017 154.51 64.3324 152.328 64.3324C150.137 64.3324 148.228 64.0043 146.6 63.348C144.973 62.6918 143.707 61.6946 142.804 60.3565C141.9 59.0185 141.436 57.3267 141.41 55.2812H147.47C147.521 56.125 147.747 56.8281 148.147 57.3906C148.548 57.9531 149.098 58.3793 149.796 58.669C150.504 58.9588 151.322 59.1037 152.251 59.1037C153.103 59.1037 153.828 58.9886 154.424 58.7585C155.029 58.5284 155.494 58.2088 155.818 57.7997C156.142 57.3906 156.308 56.9219 156.316 56.3935C156.308 55.8991 156.154 55.4773 155.856 55.1278C155.558 54.7699 155.098 54.4631 154.475 54.2074C153.862 53.9432 153.078 53.7003 152.123 53.4787L149.387 52.8395C147.12 52.3196 145.335 51.4801 144.031 50.321C142.727 49.1534 142.079 47.5767 142.088 45.5909C142.079 43.9716 142.514 42.5526 143.392 41.3338C144.269 40.1151 145.484 39.1648 147.035 38.483C148.586 37.8011 150.355 37.4602 152.34 37.4602C154.369 37.4602 156.129 37.8054 157.62 38.4957C159.12 39.1776 160.284 40.1364 161.11 41.3722C161.937 42.608 162.359 44.0398 162.376 45.6676H156.316Z" fill="#0B5C45"/>
</g>
<defs>
<clipPath id="clip0_56_12">
<rect width="162" height="64" fill="white"/>
</clipPath>
</defs>
</svg>
