<svg width="64" height="64" viewBox="0 0 64 64" fill="none" xmlns="http://www.w3.org/2000/svg">
<path d="M0 28.9808L9.78593 61.2394L14.7441 44.282L11.2212 31.5836C10.8733 30.716 9.70764 28.9808 7.82875 28.9808H0Z" fill="#16BE8C"/>
<path d="M10.6993 63.9999L21.6595 26.7724L26.8787 44.282L21.9857 61.3183C21.5291 62.4225 20.5374 63.6214 18.6585 63.9999H10.6993Z" fill="#16BE8C"/>
<path d="M22.7686 23.933L33.9246 61.2394L38.8828 44.282L34.2508 27.1667C33.9681 26.4306 33.5984 24.564 31.1193 23.933L30.5483 23.933C28.7335 23.933 24.621 23.933 22.7686 23.933Z" fill="#0B5C45"/>
<path d="M34.9032 63.9999L52.5178 3.18972C52.8223 2.16438 53.9531 0.097937 56.0408 0.0348394C58.1284 -0.0282581 62.2168 0.00854878 64 0.0348394L46.5158 60.1353C46.1026 61.4235 44.7804 64 42.7971 64L34.9032 63.9999Z" fill="#0B5C45"/>
</svg>
