<svg width="64" height="64" viewBox="0 0 64 64" fill="none" xmlns="http://www.w3.org/2000/svg">
<g clip-path="url(#clip0_1_2)">
<rect width="64" height="64" fill="#DB183A"/>
<g clip-path="url(#clip1_1_2)">
<circle cx="32" cy="32" r="32" fill="white"/>
<path d="M30.6533 0.0162712C27.5887 0.172646 25.0214 0.629262 22.1945 1.5206C21.1813 1.84274 19.5833 2.4651 18.614 2.9186C15.0678 4.57304 12.0095 6.72164 9.29203 9.46446C7.90985 10.8625 6.92168 12.0321 5.86472 13.5271C3.60069 16.7297 1.91831 20.3794 0.980173 24.1137C0.733131 25.102 0.589284 25.7744 0.448564 26.6157C-0.273799 30.9411 -0.123697 35.3258 0.898868 39.5636C1.23973 40.9866 1.7682 42.6285 2.31232 43.9733C3.08784 45.8842 4.08852 47.8014 5.17676 49.4621C5.78341 50.3909 6.57145 51.4762 6.62148 51.4575C6.63712 51.4512 6.75282 51.348 6.8779 51.2291C7.00299 51.1072 7.38763 50.7412 7.73161 50.416C8.07559 50.0907 8.54153 49.6466 8.76356 49.4309C9.26076 48.9555 12.6099 45.6059 13.0633 45.1305C13.8201 44.3393 14.0234 44.1203 14.7676 43.3166C16.4656 41.4838 17.9041 39.8294 19.2894 38.1093C19.6334 37.6808 19.8148 37.4494 20.4714 36.5956C20.7216 36.2734 21.1594 35.6824 21.3345 35.4353L21.4878 35.2163L21.2908 35.3883C21.1126 35.5416 20.9374 35.6917 20.4777 36.0733C20.2682 36.2484 19.499 36.8051 19.1143 37.0585C17.7759 37.9498 16.3499 38.6315 14.9302 39.0601C12.391 39.8294 9.82677 39.8263 7.87232 39.0476C6.03984 38.3188 4.66079 37.0772 3.7852 35.3696C3.29737 34.4189 3.00967 33.4117 2.8971 32.2671C2.84393 31.7198 2.8752 30.4813 2.96276 29.8995C3.15664 28.561 3.52252 27.3069 4.12605 25.912C4.41062 25.2583 4.9516 24.2294 5.32686 23.6383C5.39253 23.5319 5.51761 23.335 5.60204 23.2005C5.85846 22.7876 6.37757 22.0683 6.83726 21.4866C7.42202 20.7422 8.5259 19.5695 9.2764 18.8907C12.0689 16.3731 15.2148 14.7999 18.567 14.2495C19.427 14.1088 19.8492 14.0776 20.9593 14.0744C22.1007 14.0744 22.4227 14.0994 23.2546 14.2652C25.331 14.6717 27.2073 15.782 28.4612 17.3458C28.8928 17.8837 29.1148 18.2152 29.4213 18.7875C30.6127 20.9956 31.0004 23.7915 30.4939 26.475C30.3125 27.4383 29.956 28.6517 29.587 29.5837C29.5119 29.7744 29.4494 29.9371 29.4494 29.9528C29.4494 29.9653 29.415 30.0497 29.3743 30.1404C29.3337 30.2311 29.2023 30.525 29.0866 30.791C28.6989 31.6823 27.9484 33.1178 27.301 34.2124C26.2973 35.9043 24.6586 38.2907 23.4234 39.845C23.3171 39.9826 23.1107 40.2453 22.97 40.4268C22.8262 40.6081 22.6542 40.8271 22.5853 40.9116C22.5166 40.9959 22.2726 41.2962 22.0382 41.5808C21.6504 42.0593 20.7966 43.0789 20.756 43.1133C20.7466 43.1226 20.6215 43.2696 20.4746 43.4417C19.7334 44.3174 17.8572 46.3877 16.8909 47.3979C16.7533 47.545 16.4719 47.8389 16.2655 48.0548C14.5612 49.8374 12.219 52.1549 10.0238 54.2284C9.73296 54.5005 9.49842 54.7351 9.49842 54.7476C9.49842 54.7758 10.1927 55.4325 10.6711 55.861C13.9295 58.7695 17.6383 60.9338 21.7098 62.3162C25.2309 63.5077 28.7427 64.0551 32.514 63.9956C34.2745 63.9675 35.4347 63.8674 37.2359 63.5828C40.2004 63.1199 43.4651 62.066 46.2576 60.668C48.0369 59.7767 49.9007 58.6225 51.2891 57.5499C51.4236 57.4435 51.5706 57.3309 51.6174 57.2965C52.0584 56.9712 52.9872 56.1863 53.6688 55.5576C55.0636 54.2754 56.3801 52.8273 57.5339 51.3074C60.6267 47.2353 62.7031 42.4284 63.563 37.3587C63.8382 35.7324 63.9633 34.3281 63.9946 32.5266C64.0227 30.8535 63.9415 29.396 63.7381 27.8198C63.5849 26.6501 63.3254 25.2458 63.2785 25.3303C63.2503 25.3803 63.0877 25.7525 62.6281 26.819C62.478 27.1724 62.1871 27.8386 61.9869 28.3046C61.1614 30.2123 60.0388 32.8019 59.2195 34.7003C58.2532 36.9427 58.1 37.2804 58.0562 37.2711C58.0343 37.2648 57.4589 36.999 56.7803 36.68C56.1018 36.361 55.445 36.0545 55.3231 35.9951C54.335 35.5385 54.2411 35.4853 54.2661 35.4133C54.2755 35.3727 54.36 35.1726 54.4507 34.9661C54.6039 34.6221 54.829 34.0967 55.2481 33.1209C55.3357 32.9144 55.4263 32.7018 55.4482 32.6517C55.492 32.5549 55.6014 32.3047 56.4989 30.228C56.7772 29.5837 57.165 28.6893 57.3588 28.242C58.0343 26.6814 58.2501 26.1716 58.2501 26.134C58.2501 26.0997 57.4121 25.1582 56.8117 24.5202C56.5146 24.2013 56.1393 23.7853 56.1299 23.754C56.1268 23.7415 57.2462 22.6156 58.6254 21.2489C60.0013 19.8853 61.1271 18.7531 61.1271 18.7375C61.1239 18.6187 60.3265 17.0486 59.7887 16.1073C57.7529 12.5419 54.951 9.30808 51.6988 6.77168C46.5359 2.74658 40.4787 0.457249 33.9055 0.0475462C33.18 0.000633613 31.3037 -0.015004 30.6533 0.0162712ZM46.1325 18.3997C46.3389 18.603 47.0519 19.3036 47.718 19.9573L48.9313 21.1488L48.8094 21.4272C48.7437 21.5804 48.5936 21.9245 48.4778 22.1903C48.3621 22.4561 48.187 22.8658 48.087 23.0973C47.9869 23.3287 47.7617 23.851 47.5866 24.2544C47.4115 24.6578 47.0957 25.3897 46.883 25.8807C46.6735 26.3717 46.2701 27.3007 45.9918 27.9449C45.7135 28.5892 45.2632 29.6306 44.9912 30.2592C44.7191 30.8878 44.3125 31.8293 44.0843 32.3547C43.856 32.8801 43.6309 33.3992 43.5839 33.5118C43.4557 33.8121 42.8991 35.1037 42.8334 35.2476C42.8022 35.3164 42.6427 35.6886 42.4738 36.0764C42.0485 37.0647 41.9547 37.2804 41.9453 37.2899C41.9391 37.293 41.7327 37.1992 41.4856 37.0835C41.2386 36.9646 40.9572 36.8333 40.8634 36.7864C40.7695 36.7425 40.5288 36.6299 40.3317 36.5362C40.1347 36.4423 39.5718 36.1796 39.0809 35.9513C38.59 35.7199 38.1678 35.5165 38.1396 35.5009C38.0802 35.4603 38.0271 35.5979 38.9246 33.5274C39.231 32.8207 39.6594 31.8293 39.8783 31.3226C40.0972 30.816 40.2942 30.3562 40.3192 30.3062C40.3662 30.1967 40.8196 29.1489 41.0822 28.5391C41.1823 28.3077 41.4544 27.6728 41.6889 27.1317C41.9234 26.5907 42.1142 26.1403 42.1142 26.1278C42.1142 26.1059 41.7452 25.6962 41.2229 25.1301C41.1511 25.052 40.9321 24.8143 40.7383 24.5985C40.5413 24.3826 40.2942 24.1137 40.1847 23.9948C40.0754 23.8791 39.9878 23.7696 39.9878 23.754C39.9878 23.7103 45.6947 18.0338 45.7417 18.0307C45.7479 18.0307 45.923 18.1965 46.1325 18.3997ZM35.7411 26.9379C35.9788 27.2599 36.476 27.9293 36.845 28.4297C37.214 28.927 37.5048 29.3429 37.4923 29.3554C37.4079 29.4274 34.5059 31.7635 34.334 31.898C34.3027 31.92 34.2839 31.9169 34.262 31.8793C34.2464 31.8511 34.0744 31.6166 33.8837 31.357C33.6897 31.0974 33.424 30.7409 33.2958 30.5658C33.1675 30.3906 32.9486 30.0966 32.811 29.912C32.1668 29.0458 32.0699 28.9081 32.095 28.8862C32.1106 28.8706 32.3482 28.6799 32.6234 28.4578C33.1675 28.023 34.359 27.063 34.9 26.6251C35.0876 26.475 35.2564 26.3499 35.2752 26.3499C35.2971 26.3499 35.5066 26.6157 35.7411 26.9379ZM52.1522 26.7127C52.2992 26.9128 52.5306 27.2256 52.6651 27.41C53.5595 28.611 54.0598 29.3023 54.0598 29.3335C54.0566 29.3523 53.8033 29.5712 53.4906 29.8214C53.181 30.0716 52.4774 30.6376 51.9271 31.0818C51.3767 31.5227 50.9139 31.8918 50.9014 31.9011C50.8858 31.9105 50.7451 31.7417 50.5825 31.5258C50.4229 31.3101 50.0946 30.866 49.8538 30.5439C49.613 30.2217 49.3316 29.8402 49.2283 29.6994C49.1252 29.5556 48.95 29.321 48.8406 29.174C48.7343 29.027 48.6561 28.8987 48.6687 28.8862C48.6843 28.8737 48.9845 28.6298 49.3378 28.3483C50.3698 27.5164 51.2735 26.7908 51.5549 26.5626C51.6988 26.4468 51.8333 26.3499 51.852 26.3499C51.8708 26.3499 52.0052 26.5125 52.1522 26.7127Z" fill="#DB183A"/>
<path d="M20.367 18.4756C18.6763 18.5944 17.2263 18.985 15.6951 19.7319C14.8732 20.135 14.017 20.66 13.2763 21.2163C13.117 21.3381 12.9451 21.4663 12.8982 21.5006C12.5607 21.7538 11.7295 22.5069 11.2701 22.9725C10.0201 24.2538 9.01384 25.66 8.24509 27.2038C6.96384 29.7819 6.74509 32.0475 7.63884 33.4819C7.97634 34.0256 8.41697 34.4131 9.03884 34.7163C9.46072 34.9225 9.79822 35.0319 10.2888 35.1163C10.617 35.1725 10.7513 35.1788 11.367 35.1631C12.1357 35.1475 12.6607 35.0756 13.3732 34.8913C15.092 34.4506 16.8013 33.5006 18.4295 32.0788C18.9076 31.66 19.8107 30.7538 20.2295 30.2663C21.042 29.3225 21.817 28.2444 22.2545 27.4444C22.3545 27.26 22.4451 27.11 22.4545 27.11C22.4732 27.11 23.3013 27.5444 23.9763 27.9069C24.8201 28.3631 25.3138 28.6131 25.342 28.6038C25.4326 28.5725 25.9795 27.0225 26.1763 26.2381C26.3857 25.4006 26.4451 24.9538 26.442 24.1413C26.442 23.5163 26.4326 23.385 26.3576 22.9444C26.2013 22.0506 25.9638 21.3725 25.592 20.7506C24.6795 19.2288 23.0607 18.4319 20.9295 18.46C20.6982 18.4631 20.4451 18.4694 20.367 18.4756Z" fill="#DB183A"/>
</g>
</g>
<defs>
<clipPath id="clip0_1_2">
<rect width="64" height="64" fill="white"/>
</clipPath>
<clipPath id="clip1_1_2">
<rect width="64" height="64" fill="white"/>
</clipPath>
</defs>
</svg>
