<svg width="64" height="64" viewBox="0 0 64 64" fill="none" xmlns="http://www.w3.org/2000/svg">
<g clip-path="url(#clip0_1_2)">
<rect width="64" height="64" fill="#00A94F"/>
<g clip-path="url(#clip1_1_2)">
<path d="M9.22085 0.65096C5.37882 2.01951 3.07361 4.03209 0.970616 7.97675L0 9.78807V31.9263V54.0649L1.13238 56.198C2.62875 59.0159 5.0553 61.3503 7.84582 62.6786L10.1106 63.7253H31.9493H53.7882L56.0531 62.6786C58.8436 61.3503 61.2701 59.0159 62.7664 56.198L63.899 54.0649V31.9263V9.78807L62.7664 7.65473C61.2701 4.83713 58.8436 2.50253 56.0531 1.17423L53.7882 0.127689L32.556 0.0471861C12.9416 -0.0735686 11.1621 0.00693447 9.22085 0.65096ZM54.5972 5.03837C56.7001 6.16543 58.1966 7.77549 59.2076 9.98931C60.0165 11.7201 60.0569 12.5654 60.0569 31.9263V52.0522L59.0863 54.0649C57.9943 56.4395 55.9721 58.3315 53.5456 59.2574C51.9683 59.8611 49.5824 59.9013 31.3427 59.8207C11.2834 59.6999 10.879 59.6999 9.30175 58.8145C7.19873 57.6875 5.70237 56.0773 4.69132 53.8635C3.88246 52.1328 3.84203 51.3277 3.84203 31.9263C3.84203 12.5252 3.88246 11.7201 4.69132 9.98931C5.98546 7.13147 8.08848 5.23964 11.1217 4.31384C11.6878 4.15284 21.3131 4.03209 32.556 4.07233C52.6559 4.15284 53.0199 4.15284 54.5972 5.03837Z" fill="#00A94F"/>
<path d="M29.6038 5.6019C27.4199 6.1252 26.0853 6.88996 24.3867 8.66104C22.2028 10.9151 21.5558 12.8069 21.3131 17.4761L21.1109 21.5818L16.824 21.7428C12.0518 21.9038 10.3128 22.5478 8.00758 24.9629C4.24644 28.8271 4.12512 34.7442 7.68403 38.8498C9.74659 41.2649 12.4967 42.3112 17.3093 42.5126L21.2322 42.6735V45.773C21.2322 51.4485 23.2544 55.4735 27.0155 57.446C32.3943 60.1829 38.663 58.1301 41.2915 52.8169C42.1815 50.9654 42.4241 49.8786 42.5858 46.5781L42.7881 42.5932H45.9019C47.6005 42.5932 49.9057 42.3112 51.0787 41.9894C58.6413 39.7352 61.2701 30.9202 56.0934 25.2044C53.7075 22.5881 52.0089 21.9441 47.0749 21.7428L42.7881 21.5818L42.5858 17.4761C42.3835 12.7264 41.5748 10.5931 39.1886 8.29878C36.6004 5.88369 32.8393 4.79689 29.6038 5.6019ZM34.2142 11.8007C36.2768 12.8875 37.0047 14.578 37.0047 18.3214V21.6623H31.9493H26.8942V18.4422C26.8942 14.6988 27.5008 13.1692 29.442 12.0019C31.0194 11.0359 32.5966 10.9956 34.2142 11.8007ZM21.2322 31.9263V36.9579H17.9968C13.0629 36.9579 11.1217 35.5088 11.1217 31.8056C11.1217 28.5856 13.5886 26.9352 18.3204 26.895H21.2322V31.9263ZM37.0047 31.9263V36.9579H31.9493H26.8942V31.9263V26.895H31.9493H37.0047V31.9263ZM49.7037 27.4585C52.4943 28.6258 53.5862 31.7654 52.1706 34.5428C51.2403 36.3541 49.6631 36.9579 45.9019 36.9579H42.6668V31.9263V26.895H45.4976C47.0749 26.895 48.9351 27.1365 49.7037 27.4585ZM37.0047 45.6522C37.0047 50.5226 35.4678 52.656 31.9493 52.656C28.431 52.656 26.8942 50.5226 26.8942 45.6522V42.5932H31.9493H37.0047V45.6522Z" fill="white"/>
</g>
</g>
<defs>
<clipPath id="clip0_1_2">
<rect width="64" height="64" fill="white"/>
</clipPath>
<clipPath id="clip1_1_2">
<rect width="64" height="64" fill="white"/>
</clipPath>
</defs>
</svg>
