<svg width="64" height="64" viewBox="0 0 64 64" fill="none" xmlns="http://www.w3.org/2000/svg">
<rect width="64" height="64" fill="#F7971D" fill-opacity="0.2"/>
<g clip-path="url(#clip0_1_2)">
<path d="M32.6154 54.6211L28.9231 44.5158H8.98462L5.29231 54.6211H0L16 12.3053H21.7846L37.6615 54.6211H32.6154ZM18.7077 18.3684L11.2 39.3369H26.8308L18.7077 18.3684Z" fill="#F7971D"/>
<path d="M40.9846 54.6211V12.3053H46.1538V54.6211H40.9846Z" fill="#F7971D"/>
<path d="M53.9077 54.621V24.6842H59.0769V54.621H53.9077Z" fill="#F7971D"/>
<path d="M64 14.9579C64 14.8316 64 14.8316 64 14.7053C64 14.5789 64 14.5789 64 14.4526C60.0615 14.3263 56.8615 11.0421 56.7385 7C56.6154 7 56.4923 7 56.3692 7C56.2462 7 56.1231 7 56 7C55.8769 11.0421 52.6769 14.3263 48.7385 14.4526C48.7385 14.5789 48.7385 14.5789 48.7385 14.7053C48.7385 14.8316 48.7385 14.8316 48.7385 14.9579C52.6769 15.0842 55.8769 18.3684 56 22.4105C56.1231 22.4105 56.2462 22.4105 56.3692 22.4105C56.4923 22.4105 56.6154 22.4105 56.7385 22.4105C56.8615 18.3684 60.0615 15.0842 64 14.9579Z" fill="#F7971D"/>
</g>
<defs>
<clipPath id="clip0_1_2">
<rect width="64" height="48" fill="white" transform="translate(0 7)"/>
</clipPath>
</defs>
</svg>
