<svg width="64" height="64" viewBox="0 0 64 64" fill="none" xmlns="http://www.w3.org/2000/svg">
<rect width="64" height="64" fill="white"/>
<g clip-path="url(#clip0_1_2)">
<path d="M31.9341 61C15.8897 61 2.86799 48.008 2.86799 32C2.86799 15.992 15.8897 3 31.9341 3C47.9778 3 61 15.992 61 32C61 48.008 47.8618 61 31.9341 61ZM31.9341 14.368C22.2841 14.368 14.3782 22.256 14.3782 32C14.3782 41.744 22.2841 49.632 31.9341 49.632C41.5839 49.632 49.4905 41.744 49.4905 32C49.4905 22.256 41.5839 14.368 31.9341 14.368Z" fill="#E00028"/>
<path d="M31.9336 40.7C27.0505 40.7 23.2139 36.872 23.2139 32C23.2139 27.244 27.0505 23.3 31.9336 23.3C36.7005 23.3 40.6536 27.128 40.6536 32C40.5376 36.756 36.7005 40.7 31.9336 40.7Z" fill="#E00028"/>
<path d="M31.9341 61C15.8897 61 2.86799 48.008 2.86799 32C2.86799 15.992 15.8897 3 31.9341 3C47.9778 3 61 15.992 61 32C61 48.008 47.8618 61 31.9341 61ZM31.9341 14.368C22.2841 14.368 14.3782 22.256 14.3782 32C14.3782 41.744 22.2841 49.632 31.9341 49.632C41.5839 49.632 49.4905 41.744 49.4905 32C49.4905 22.256 41.5839 14.368 31.9341 14.368Z" fill="#E00028"/>
<path d="M31.9336 40.7C27.0505 40.7 23.2139 36.872 23.2139 32C23.2139 27.244 27.0505 23.3 31.9336 23.3C36.7005 23.3 40.6536 27.128 40.6536 32C40.5376 36.756 36.7005 40.7 31.9336 40.7Z" fill="#E00028"/>
</g>
<defs>
<clipPath id="clip0_1_2">
<rect width="58" height="58" fill="white" transform="translate(3 3)"/>
</clipPath>
</defs>
</svg>
