<svg width="64" height="64" viewBox="0 0 64 64" fill="none" xmlns="http://www.w3.org/2000/svg">
<rect width="64" height="64" fill="#F7DA3F"/>
<path d="M36.3239 48.718C35.1476 46.4774 32.6856 45.7357 32.6856 45.7357C31.1738 45.2492 25.7076 45.7043 24.3733 45.4257C23.0381 45.1471 21.8812 45.0765 21.4633 45.4454C21.0453 45.8142 21.5263 46.393 22.1401 46.6697C23.9825 47.5035 28.2172 48.2255 28.2172 48.2255C28.2172 48.2255 22.687 50.8468 16.7476 43.8914C15.0516 41.9098 13.887 42.9104 14.4116 43.7659C16.0058 46.4322 21.5699 54.1018 33.2257 54.1018C41.3207 54.1018 47.8575 49.1222 51.2116 43.5677C51.711 42.7397 51.2446 42.3375 50.2943 43.3303C47.4376 46.3126 42.3079 50.2209 36.3239 48.718Z" fill="#008AD2"/>
<path d="M29.8153 15.5444C30.9925 17.7831 33.4526 18.5247 33.4526 18.5247C34.9644 19.0113 40.4296 18.5561 41.7648 18.8347C43.1001 19.1133 44.257 19.1839 44.6749 18.8151C45.0928 18.4462 44.6119 17.8694 43.9981 17.5927C42.1556 16.7589 37.9181 16.0486 37.9181 16.0486C37.9181 16.0486 43.4424 13.4176 49.3847 20.3651C51.0807 22.3467 52.2453 21.3461 51.7207 20.4887C50.1304 17.8302 44.5663 10.1626 32.9105 10.1626C24.8155 10.1626 18.2807 15.1402 14.9256 20.6967C14.4262 21.5227 14.8916 21.9249 15.841 20.9341C18.6996 17.9498 23.8313 14.0395 29.8153 15.5444Z" fill="#008AD2"/>
<path fill-rule="evenodd" clip-rule="evenodd" d="M19.2048 35.8939H13.9704L13.0269 38.7761C12.9842 38.9035 12.9038 39.014 12.7971 39.0921C12.6904 39.1702 12.5624 39.212 12.4315 39.2117H9.33819C9.24025 39.2123 9.14425 39.1891 9.05601 39.144C8.96874 39.0988 8.89309 39.033 8.83491 38.9519C8.77673 38.8708 8.73795 38.7767 8.72146 38.6773C8.70498 38.5778 8.71273 38.4759 8.74182 38.3798L12.7709 25.5972C12.8126 25.468 12.8921 25.3556 12.9998 25.276C13.1064 25.1963 13.2354 25.1536 13.3682 25.1538H19.8274C19.9593 25.1535 20.0873 25.1959 20.1949 25.2752C20.3016 25.3544 20.3821 25.4664 20.4238 25.5953L24.5013 38.3778C24.5304 38.4741 24.5382 38.5762 24.5217 38.6759C24.5062 38.7756 24.4674 38.87 24.4092 38.9514C24.351 39.0327 24.2744 39.0987 24.1872 39.144C24.0989 39.1892 24.0019 39.2124 23.904 39.2117H20.6798C20.5459 39.2123 20.416 39.1693 20.3084 39.0889C20.2007 39.0084 20.1212 38.8947 20.0805 38.7643L19.2048 35.8939ZM14.8441 32.8822L18.2497 32.9018L16.5847 27.3905L14.8441 32.8822Z" fill="#008AD2"/>
<path fill-rule="evenodd" clip-rule="evenodd" d="M41.215 38.5101V25.8276C41.216 25.6568 41.2829 25.4933 41.4012 25.373C41.5195 25.2528 41.6785 25.1855 41.8444 25.186H45.0773C45.1588 25.1858 45.2402 25.2022 45.3168 25.2343C45.3925 25.2664 45.4613 25.3136 45.5195 25.3731C45.5777 25.4327 45.6242 25.5035 45.6562 25.5815C45.6882 25.6595 45.7038 25.7431 45.7047 25.8276V35.5592H48.9464V25.8276C48.9474 25.6568 49.0143 25.4933 49.1316 25.373C49.2499 25.2528 49.4099 25.1855 49.5758 25.186H52.8175C52.9833 25.1855 53.1433 25.2528 53.2606 25.373C53.3789 25.4933 53.4458 25.6568 53.4468 25.8276V35.5592H54.5794C54.6618 35.5587 54.7433 35.5748 54.8189 35.6067C54.8955 35.6386 54.9644 35.6855 55.0225 35.7449C55.0817 35.8043 55.1282 35.875 55.1593 35.9528C55.1913 36.0307 55.2087 36.1143 55.2087 36.1988V41.1294C55.2087 41.2139 55.1913 41.2975 55.1593 41.3753C55.1282 41.4532 55.0817 41.5239 55.0225 41.5833C54.9644 41.6427 54.8955 41.6896 54.8189 41.7215C54.7433 41.7534 54.6618 41.7695 54.5794 41.769H53.1607C53.0085 41.7699 52.8611 41.7139 52.7467 41.6113C52.6322 41.5088 52.5576 41.3667 52.5372 41.2118L52.2318 39.1497H41.8444C41.7629 39.1502 41.6815 39.1341 41.6048 39.1022C41.5292 39.0704 41.4594 39.0234 41.4012 38.964C41.343 38.9046 41.2965 38.8339 41.2645 38.7561C41.2325 38.6782 41.216 38.5946 41.215 38.5101Z" fill="#008AD2"/>
<path fill-rule="evenodd" clip-rule="evenodd" d="M39.5103 25.7954V38.5053C39.5103 38.59 39.4938 38.6738 39.4618 38.7519C39.4308 38.83 39.3842 38.9009 39.3251 38.9605C39.2669 39.0201 39.1981 39.0672 39.1215 39.0992C39.0449 39.1312 38.9634 39.1474 38.881 39.1469H35.4773C35.3949 39.1474 35.3135 39.1312 35.2378 39.0992C35.1612 39.0672 35.0914 39.0201 35.0332 38.9605C34.975 38.9009 34.9285 38.83 34.8965 38.7519C34.8645 38.6738 34.848 38.59 34.848 38.5053V33.9927H31.0128V38.5053C31.0128 38.59 30.9964 38.6738 30.9644 38.7519C30.9333 38.83 30.8868 38.9009 30.8276 38.9605C30.7695 39.0201 30.7006 39.0672 30.624 39.0992C30.5474 39.1312 30.4659 39.1474 30.3835 39.1469H26.9818C26.8994 39.1474 26.8179 39.1312 26.7413 39.0992C26.6657 39.0672 26.5959 39.0201 26.5377 38.9605C26.4795 38.9009 26.433 38.83 26.401 38.7519C26.369 38.6738 26.3525 38.59 26.3525 38.5053V25.7954C26.3525 25.7107 26.369 25.6269 26.401 25.5488C26.433 25.4707 26.4795 25.3998 26.5377 25.3402C26.5959 25.2806 26.6657 25.2335 26.7413 25.2015C26.8179 25.1695 26.8994 25.1533 26.9818 25.1538H30.3835C30.4659 25.1533 30.5474 25.1695 30.624 25.2015C30.7006 25.2335 30.7695 25.2806 30.8276 25.3402C30.8868 25.3998 30.9333 25.4707 30.9644 25.5488C30.9964 25.6269 31.0128 25.7107 31.0128 25.7954V30.308H34.848V25.7954C34.848 25.7107 34.8645 25.6269 34.8965 25.5488C34.9285 25.4707 34.975 25.3998 35.0332 25.3402C35.0914 25.2806 35.1612 25.2335 35.2378 25.2015C35.3135 25.1695 35.3949 25.1533 35.4773 25.1538H38.881C38.9634 25.1533 39.0449 25.1695 39.1215 25.2015C39.1981 25.2335 39.2669 25.2806 39.3251 25.3402C39.3842 25.3998 39.4308 25.4707 39.4618 25.5488C39.4938 25.6269 39.5103 25.7107 39.5103 25.7954Z" fill="#008AD2"/>
</svg>
