<svg width="64" height="64" viewBox="0 0 64 64" fill="none" xmlns="http://www.w3.org/2000/svg">
<rect width="64" height="64" fill="black"/>
<path d="M8.9826 22.8424C7.93251 22.8424 7.3112 23.5403 6.87367 24.784L4.5343 31.3905H6.28445L6.94076 29.514H10.8815L11.5378 31.3905H13.428L11.0944 24.784C10.6569 23.5371 10.0327 22.8424 8.9826 22.8424ZM7.46872 28.0004L8.51881 25.0073C8.58881 24.8026 8.72883 24.7003 8.91259 24.7003C9.09636 24.7003 9.23637 24.8026 9.30638 25.0073L10.3565 28.0004H7.46872Z" fill="white"/>
<path d="M19.7606 23.0254H15.9453C15.0615 23.0254 14.3701 23.7605 14.3701 24.6972V31.3905H16.059V28.7696H19.7635C21.2774 28.7696 22.4704 27.5042 22.4704 25.8975C22.4675 24.2908 21.2774 23.0254 19.7606 23.0254ZM19.5331 27.2095H16.059V25.0818C16.059 24.8771 16.2166 24.7096 16.4091 24.7096H19.536C20.1748 24.7096 20.6736 25.2586 20.6736 25.9471C20.6736 26.6512 20.1748 27.2095 19.5331 27.2095Z" fill="white"/>
<path d="M30.0777 22.8951C26.6533 22.8951 22.7592 26.0557 22.7592 28.8534C22.7592 30.4507 23.783 31.5208 25.7024 31.5208C29.1268 31.5208 33.0209 28.3602 33.0209 25.5625C33.018 23.9652 31.9942 22.8951 30.0777 22.8951ZM25.8395 29.849C24.9031 29.849 24.5269 29.4582 24.5269 28.7696C24.5269 26.9769 27.6188 24.5793 29.9377 24.5793C30.8741 24.5793 31.2504 24.9701 31.2504 25.6587C31.2504 27.4514 28.1584 29.849 25.8395 29.849Z" fill="white"/>
<path d="M34.8498 28.9743L38.7381 23.0254H36.6816L32.9072 28.7975C32.1896 29.8955 32.9247 31.3905 34.1848 31.3905H41.1183V29.6257H35.1736C34.7244 29.6257 34.6019 29.3558 34.8498 28.9743Z" fill="white"/>
<path d="M44.006 29.2535V23.0254H42.2559V29.7187C42.2559 30.6585 42.9472 31.3905 43.831 31.3905H50.3999V29.6257H44.359C44.1635 29.6257 44.006 29.4582 44.006 29.2535Z" fill="white"/>
<path d="M58.8823 23.4813C58.436 22.9975 57.9635 22.923 55.3703 22.923C52.7772 22.923 52.3047 22.9975 51.8496 23.4813C51.4033 23.9559 51.3333 24.4583 51.3333 27.2095C51.3333 29.9607 51.4033 30.4631 51.8496 30.9377C52.3047 31.4215 52.7772 31.496 55.3703 31.496C57.9635 31.496 58.436 31.4215 58.8823 30.9377C59.3286 30.4631 59.4074 29.9607 59.4074 27.2095C59.4074 24.4583 59.3286 23.9559 58.8823 23.4813ZM57.631 29.6071C57.5347 29.7094 57.4734 29.728 55.3733 29.728C53.2731 29.728 53.2118 29.7094 53.1156 29.6071C53.0193 29.5047 53.0018 29.4396 53.0018 27.2095C53.0018 24.9794 53.0193 24.9143 53.1156 24.8119C53.2118 24.7096 53.2731 24.691 55.3733 24.691C57.4764 24.691 57.5347 24.7096 57.631 24.8119C57.7272 24.9143 57.7447 24.9794 57.7447 27.2095C57.7447 29.4396 57.7272 29.5047 57.631 29.6071Z" fill="white"/>
<path d="M40.6312 33.8687V37.3426C40.6312 37.4729 40.5641 37.5194 40.4911 37.4667L37.8659 34.1479C37.7755 34.0331 37.6559 33.9432 37.5188 33.8967C36.9238 33.6982 36.2587 34.1262 36.2587 34.7992V39.0237H37.338V35.5498C37.338 35.3886 37.4371 35.3575 37.5334 35.4754L39.4731 37.9319L40.0332 38.6484C40.0536 38.6763 40.0769 38.7011 40.1003 38.7259L40.1236 38.7538V38.7507C40.4503 39.0702 40.9462 39.126 41.3196 38.8562C41.5529 38.6887 41.7133 38.4189 41.7133 38.0901V33.8687H40.6312Z" fill="white"/>
<path d="M44.0119 34.9264H47.7076V33.8501H43.6998C43.1368 33.8501 42.6963 34.3061 42.6963 34.883V36.989V37.9257V37.9629C42.6963 38.5429 43.1368 39.0237 43.6998 39.0237H47.7047V37.9195H44.009C43.8864 37.9195 43.7698 37.8513 43.7698 37.7241V36.989V36.9611H46.3833V35.8879H43.7698V35.1249C43.7727 34.9946 43.8894 34.9264 44.0119 34.9264Z" fill="white"/>
<path d="M53.7485 33.8501H52.4505L51.2779 35.4723C51.24 35.525 51.1846 35.5622 51.1233 35.5747C51.0941 35.5809 51.065 35.5809 51.0358 35.5778C50.9687 35.5685 50.9075 35.5312 50.8666 35.4723L49.6969 33.8501H48.3872L50.2628 36.4307L48.3872 39.0237H49.6853L50.8579 37.4015C50.8958 37.3488 50.9512 37.3116 51.0125 37.2992C51.0416 37.293 51.0708 37.293 51.1 37.2961C51.1671 37.3054 51.2283 37.3426 51.2692 37.4015L52.4388 39.0237H53.7485L51.873 36.4431L53.7485 33.8501Z" fill="white"/>
<path d="M57.8176 33.8501H57.3597H56.4525H55.9566H54.3961V34.9233H56.1783C56.2979 34.9233 56.3942 35.0257 56.3942 35.1559V39.0237H57.4209V35.1559C57.4209 35.0288 57.5172 34.9233 57.6368 34.9233H59.419V33.8501H57.8176Z" fill="white"/>
</svg>
