<svg width="64" height="64" viewBox="0 0 64 64" fill="none" xmlns="http://www.w3.org/2000/svg">
<rect width="64" height="64" fill="white"/>
<g clip-path="url(#clip0_1_2)">
<path d="M50.7273 24.045C50.4423 24.27 45.4103 27.155 45.4103 33.57C45.4103 40.99 51.8133 43.615 52.0049 43.68C51.9754 43.84 50.9877 47.275 48.629 50.775C46.5258 53.855 44.3292 56.93 40.9877 56.93C37.6462 56.93 36.7862 54.955 32.9287 54.955C29.1695 54.955 27.8329 56.995 24.7764 56.995C21.7199 56.995 19.5872 54.145 17.1351 50.645C14.2948 46.535 12 40.15 12 34.09C12 24.37 18.2113 19.215 24.3243 19.215C27.5725 19.215 30.2801 21.385 32.3194 21.385C34.2604 21.385 37.2875 19.085 40.9828 19.085C42.3833 19.085 47.4152 19.215 50.7273 24.045ZM39.2285 14.97C40.7568 13.125 41.8378 10.565 41.8378 8.005C41.8378 7.65 41.8084 7.29 41.7445 7C39.258 7.095 36.2998 8.685 34.516 10.79C33.1155 12.41 31.8084 14.97 31.8084 17.565C31.8084 17.955 31.8722 18.345 31.9017 18.47C32.059 18.5 32.3145 18.535 32.57 18.535C34.801 18.535 37.6069 17.015 39.2285 14.97Z" fill="black"/>
</g>
<defs>
<clipPath id="clip0_1_2">
<rect width="40" height="50" fill="white" transform="translate(12 7)"/>
</clipPath>
</defs>
</svg>
