<svg width="64" height="64" viewBox="0 0 64 64" fill="none" xmlns="http://www.w3.org/2000/svg">
<g clip-path="url(#clip0_1_2)">
<rect width="64" height="64" fill="white"/>
<rect width="64" height="64" fill="white"/>
<g clip-path="url(#clip1_1_2)">
<path d="M19.2945 21.1482H24.4407V41.1837H19.2945V38.4791H10.0883L15.2538 33.5779H19.2945V28.2557L5 41.6482V34.5794L19.2945 21.1482Z" fill="#EF3E33"/>
<path d="M19.2945 21.1482H24.4407V41.1837H19.2945V38.4791H10.0883L15.2538 33.5779H19.2945V28.2557L5 41.6482V34.5794L19.2945 21.1482Z" fill="url(#paint0_linear_1_2)"/>
<path d="M30.0697 26.6252H25.8455V21.3756H44.2966L38.7496 26.6252H35.6117V41.4111H30.0697V26.6252Z" fill="#EF3E33"/>
<path d="M30.0697 26.6252H25.8455V21.3756H44.2966L38.7496 26.6252H35.6117V41.4111H30.0697V26.6252Z" fill="url(#paint1_linear_1_2)"/>
<path d="M55.8925 26.2139H45.5855V36.5921H51.1662C51.4078 36.6002 51.6464 36.5362 51.8517 36.4083C52.0391 36.2912 52.1897 36.1235 52.2862 35.9244C52.3916 35.6972 52.4444 35.4492 52.4407 35.1987C52.4493 34.8457 52.3291 34.5016 52.1027 34.231C51.9841 34.1021 51.8389 34.0006 51.6772 33.9338C51.5154 33.8669 51.341 33.8363 51.1662 33.844H46.6959V28.9911H52.1752C52.8972 28.9835 53.6122 29.1338 54.2704 29.4314C54.9248 29.719 55.5105 30.1429 55.989 30.6749C56.493 31.2379 56.8805 31.8957 57.1285 32.6102C57.418 33.4217 57.5605 34.2787 57.5485 35.1406C57.546 35.9461 57.404 36.7452 57.1285 37.5018C56.8605 38.2291 56.4705 38.905 55.9745 39.5C55.5055 40.0756 54.926 40.551 54.2704 40.8983C53.6331 41.2346 52.9244 41.4122 52.2042 41.416H40.4731V26.2139L45.5855 21.3756H61L55.8925 26.2139Z" fill="#EF3E33"/>
<path d="M55.8925 26.2139H45.5855V36.5921H51.1662C51.4078 36.6002 51.6464 36.5362 51.8517 36.4083C52.0391 36.2912 52.1897 36.1235 52.2862 35.9244C52.3916 35.6972 52.4444 35.4492 52.4407 35.1987C52.4493 34.8457 52.3291 34.5016 52.1027 34.231C51.9841 34.1021 51.8389 34.0006 51.6772 33.9338C51.5154 33.8669 51.341 33.8363 51.1662 33.844H46.6959V28.9911H52.1752C52.8972 28.9835 53.6122 29.1338 54.2704 29.4314C54.9248 29.719 55.5105 30.1429 55.989 30.6749C56.493 31.2379 56.8805 31.8957 57.1285 32.6102C57.418 33.4217 57.5605 34.2787 57.5485 35.1406C57.546 35.9461 57.404 36.7452 57.1285 37.5018C56.8605 38.2291 56.4705 38.905 55.9745 39.5C55.5055 40.0756 54.926 40.551 54.2704 40.8983C53.6331 41.2346 52.9244 41.4122 52.2042 41.416H40.4731V26.2139L45.5855 21.3756H61L55.8925 26.2139Z" fill="url(#paint2_linear_1_2)"/>
</g>
</g>
<defs>
<linearGradient id="paint0_linear_1_2" x1="33" y1="21.1482" x2="33" y2="41.6482" gradientUnits="userSpaceOnUse">
<stop stop-color="#EF3E33"/>
<stop offset="1" stop-color="#A5251D"/>
</linearGradient>
<linearGradient id="paint1_linear_1_2" x1="33" y1="21.1482" x2="33" y2="41.6482" gradientUnits="userSpaceOnUse">
<stop stop-color="#EF3E33"/>
<stop offset="1" stop-color="#A5251D"/>
</linearGradient>
<linearGradient id="paint2_linear_1_2" x1="33" y1="21.1482" x2="33" y2="41.6482" gradientUnits="userSpaceOnUse">
<stop stop-color="#EF3E33"/>
<stop offset="1" stop-color="#A5251D"/>
</linearGradient>
<clipPath id="clip0_1_2">
<rect width="64" height="64" fill="white"/>
</clipPath>
<clipPath id="clip1_1_2">
<rect width="56" height="21" fill="white" transform="translate(5 21)"/>
</clipPath>
</defs>
</svg>
