<svg width="64" height="64" viewBox="0 0 64 64" fill="none" xmlns="http://www.w3.org/2000/svg">
<rect width="64" height="64" fill="#EC008C"/>
<path d="M15.7347 31.3833C15.7347 31.5911 15.9041 31.7589 16.1136 31.7589H17.3175C17.527 31.7589 17.6963 31.5911 17.6963 31.3839V29.9339H22.1707V31.3839C22.1707 31.5911 22.3406 31.7589 22.5496 31.7589H23.754C23.9629 31.7589 24.1329 31.5911 24.1329 31.3839V28.1911H23.0961V23.8356C23.0967 23.7916 23.0883 23.7479 23.0715 23.7071C23.0546 23.6663 23.0296 23.629 22.9979 23.5976C22.9662 23.5661 22.9284 23.541 22.8866 23.5237C22.8448 23.5063 22.7999 23.4972 22.7545 23.4967H17.7784C17.566 23.4967 17.395 23.6689 17.3996 23.88C17.4076 24.2133 17.4093 24.7494 17.376 25.4178C17.3341 26.2544 17.0781 27.2561 16.5396 28.1911H15.7347V31.3833ZM18.763 27.5706C19.0695 26.8861 19.1522 25.7861 19.1803 25.2467H21.1322L21.1345 28.1911H18.4289C18.5477 28.005 18.6596 27.8022 18.763 27.5706ZM40.5181 29.5444V23.8561C40.5191 23.7578 40.4798 23.6631 40.4088 23.5927C40.3377 23.5224 40.2408 23.4823 40.1392 23.4811H38.9348C38.8332 23.4823 38.7362 23.5224 38.6651 23.5927C38.5941 23.6631 38.5548 23.7578 38.5559 23.8561V25.7483H35.8061V23.8567C35.8071 23.7583 35.7678 23.6636 35.6968 23.5933C35.6258 23.523 35.5288 23.4828 35.4272 23.4817H34.2228C34.1212 23.4828 34.0242 23.523 33.9531 23.5933C33.8821 23.6636 33.8428 23.7583 33.8439 23.8567V29.5444C33.8439 29.7522 34.0138 29.92 34.2228 29.92H35.4272C35.6361 29.92 35.8061 29.7522 35.8061 29.5444V27.5483H38.5559V29.5444C38.5559 29.7522 38.7258 29.92 38.9348 29.92H40.1386C40.3481 29.92 40.5181 29.7522 40.5181 29.5444ZM30.4356 27.7117C30.4528 28.5072 30.4488 29.1561 30.4431 29.5394C30.4418 29.5886 30.4506 29.6375 30.469 29.6833C30.4874 29.729 30.515 29.7708 30.5503 29.8062C30.5856 29.8416 30.6277 29.8698 30.6744 29.8892C30.721 29.9087 30.7712 29.9189 30.822 29.9194H32.0189C32.2279 29.9194 32.3978 29.7517 32.3978 29.5439V23.8567C32.3989 23.7583 32.3596 23.6636 32.2885 23.5933C32.2175 23.523 32.1205 23.4828 32.0189 23.4817H30.6101C30.5551 23.4817 30.5008 23.4935 30.451 23.5162C30.4012 23.5388 30.3571 23.5718 30.3219 23.6128L27.2001 27.2239C27.2497 26.7802 27.2738 26.3341 27.2725 25.8878V23.8567C27.2735 23.7583 27.2342 23.6636 27.1632 23.5933C27.0922 23.523 26.9952 23.4828 26.8936 23.4817H25.6897C25.5881 23.4828 25.4912 23.523 25.4201 23.5933C25.3491 23.6636 25.3098 23.7583 25.3109 23.8567V29.5444C25.3109 29.7522 25.4802 29.92 25.6897 29.92H27.0985C27.1533 29.9198 27.2074 29.908 27.257 29.8855C27.3066 29.8629 27.3505 29.8302 27.3856 29.7894L30.4856 26.2172C30.45 26.4844 30.4195 26.9428 30.4356 27.7122V27.7117ZM56.3969 29.2989L54.2252 26.6472L56.3298 24.0811C56.5249 23.8339 56.347 23.4728 56.0301 23.4739L54.6718 23.4806C54.6142 23.481 54.5575 23.4943 54.5061 23.5193C54.4546 23.5444 54.4098 23.5805 54.375 23.625L52.6901 25.7572H51.7521V23.8572C51.7527 23.8085 51.7434 23.7601 51.7247 23.7149C51.706 23.6696 51.6782 23.6284 51.643 23.5935C51.6078 23.5586 51.5659 23.5308 51.5196 23.5116C51.4733 23.4924 51.4236 23.4822 51.3732 23.4817H50.1688C50.1184 23.4822 50.0687 23.4924 50.0224 23.5116C49.9761 23.5308 49.9342 23.5586 49.899 23.5935C49.8638 23.6284 49.8361 23.6696 49.8173 23.7149C49.7986 23.7601 49.7893 23.8085 49.7899 23.8572V29.5444C49.7899 29.7517 49.9598 29.9194 50.1688 29.9194H51.3732C51.5822 29.9194 51.7521 29.7517 51.7521 29.5444V27.5278H52.6919L54.4485 29.7611C54.5203 29.8528 54.6305 29.9056 54.747 29.9056H56.099C56.4147 29.9056 56.5915 29.545 56.3969 29.2989ZM11.1416 29.9561C10.6634 30.8611 10.1059 30.7022 9.59847 30.7533C9.37286 30.7756 9.2081 30.9744 9.2213 31.1983V32.2028C9.22991 32.5639 9.58412 32.7494 9.90215 32.7194C11.8023 32.5372 12.5911 31.2933 12.8781 30.8178C13.4717 29.8344 15.078 26.4461 15.9896 24.0661C16.1004 23.7772 15.9133 23.4661 15.6016 23.4678L14.4172 23.475C14.3089 23.4764 14.2036 23.5097 14.1154 23.5706C14.0272 23.6314 13.9602 23.7169 13.9235 23.8156L12.2903 28.3733L10.5951 23.785C10.5619 23.6954 10.5013 23.6177 10.4213 23.5624C10.3412 23.5071 10.2456 23.4768 10.1473 23.4756L8.88088 23.4678C8.59212 23.4661 8.39866 23.7622 8.51921 24.0222L11.1416 29.9561ZM62.919 40.6389L60.7518 37.9833L62.861 35.4211C63.0573 35.1744 62.8788 34.8128 62.5619 34.8133L61.2042 34.8178C61.1467 34.818 61.09 34.8311 61.0385 34.8559C60.9871 34.8808 60.9422 34.9168 60.9074 34.9611L59.1875 37.13H58.2805L58.2839 35.1889C58.2846 35.1401 58.2753 35.0917 58.2566 35.0464C58.238 35.001 58.2102 34.9597 58.175 34.9248C58.1398 34.8899 58.0979 34.862 58.0516 34.8428C58.0052 34.8235 57.9554 34.8134 57.905 34.8128L56.7012 34.8106C56.6508 34.8111 56.6011 34.8212 56.5547 34.8403C56.5084 34.8594 56.4664 34.8872 56.4312 34.922C56.396 34.9568 56.3681 34.998 56.3494 35.0432C56.3306 35.0885 56.3212 35.1368 56.3217 35.1856L56.3114 40.8728C56.3103 40.9712 56.3496 41.0661 56.4206 41.1365C56.4916 41.207 56.5886 41.2474 56.6903 41.2489L57.8941 41.2511C57.9957 41.2498 58.0927 41.2096 58.1638 41.1393C58.2349 41.0691 58.2743 40.9744 58.2736 40.8761L58.277 38.9006H59.2478L60.9694 41.0983C61.0412 41.1894 61.1514 41.2428 61.2679 41.2428L62.6193 41.245C62.9356 41.2456 63.1136 40.8856 62.919 40.6389ZM3.4025 34.8122H2.39213C2.33121 34.8129 2.27103 34.8251 2.21501 34.8483C2.15899 34.8715 2.10823 34.9051 2.06564 34.9472C2.02305 34.9894 1.98945 35.0392 1.96677 35.0939C1.94408 35.1487 1.93276 35.2072 1.93344 35.2661V40.7756C1.93344 41.0261 2.13896 41.2294 2.39155 41.2294H3.40192C3.46284 41.2288 3.52302 41.2165 3.57904 41.1934C3.63506 41.1702 3.68582 41.1366 3.72841 41.0944C3.771 41.0523 3.8046 41.0024 3.82728 40.9477C3.84997 40.893 3.86129 40.8345 3.86061 40.7756V35.2667C3.86199 35.1477 3.81451 35.0331 3.72861 34.948C3.64272 34.8629 3.52542 34.8137 3.4025 34.8122ZM9.81489 34.8122H5.96573C5.90482 34.8129 5.84463 34.8251 5.78861 34.8483C5.7326 34.8715 5.68184 34.9051 5.63925 34.9472C5.59665 34.9894 5.56306 35.0392 5.54037 35.0939C5.51769 35.1487 5.50637 35.2072 5.50705 35.2661V40.7756C5.50705 41.0261 5.71199 41.2294 5.96516 41.2294H6.97553C7.03644 41.2288 7.09663 41.2165 7.15265 41.1934C7.20867 41.1702 7.25942 41.1366 7.30202 41.0944C7.34461 41.0523 7.37821 41.0024 7.40089 40.9477C7.42357 40.893 7.4349 40.8345 7.43421 40.7756V36.7211H9.81489C10.0675 36.7211 10.273 36.5178 10.273 36.2672V35.2661C10.2744 35.1472 10.2269 35.0325 10.141 34.9474C10.0551 34.8623 9.93782 34.8137 9.81489 34.8122ZM15.3208 34.7017C14.5097 34.7017 13.8782 35.0478 13.3925 35.525V35.2661C13.3939 35.1472 13.3464 35.0325 13.2605 34.9474C13.1746 34.8623 13.0573 34.8137 12.9344 34.8122H11.924C11.8011 34.8137 11.6838 34.8623 11.5979 34.9474C11.512 35.0325 11.4646 35.1472 11.4659 35.2661V43.5461C11.4659 43.7967 11.6709 44 11.924 44H12.9344C13.0573 43.9985 13.1746 43.9499 13.2605 43.8648C13.3464 43.7797 13.3939 43.6651 13.3925 43.5461V40.5239C13.8811 40.9817 14.4947 41.3272 15.2353 41.3272C17.2595 41.3272 18.5247 39.8439 18.5247 38.0139C18.5247 36.1839 17.2715 34.7017 15.3214 34.7017H15.3208ZM15.0051 39.6094C14.0711 39.6094 13.3868 38.8583 13.3868 38.0139C13.3868 37.1694 14.0711 36.4178 15.0057 36.4178C15.9403 36.4178 16.5867 37.1689 16.5867 38.0139C16.5867 38.8583 15.9397 39.6094 15.0051 39.6094ZM3.3824 31.7144H2.41222C2.34862 31.7151 2.28577 31.7279 2.22728 31.7521C2.16878 31.7762 2.11579 31.8113 2.07132 31.8553C2.02685 31.8994 1.99179 31.9514 1.96813 32.0086C1.94447 32.0657 1.93269 32.1268 1.93344 32.1883V33.1494C1.93344 33.4117 2.14757 33.6239 2.41165 33.6239H3.38183C3.6459 33.6239 3.86061 33.4117 3.86061 33.15V32.1889C3.86144 32.1273 3.84973 32.0662 3.82614 32.0091C3.80255 31.9519 3.76755 31.8998 3.72314 31.8557C3.67872 31.8117 3.62577 31.7765 3.5673 31.7523C3.50884 31.728 3.44601 31.7152 3.3824 31.7144ZM26.2041 34.8089H25.1937C25.0708 34.8104 24.9535 34.859 24.8676 34.9441C24.7817 35.0292 24.7343 35.1438 24.7356 35.2628V35.6461C24.2149 35.1078 23.5462 34.7017 22.7115 34.7017C20.7607 34.7017 19.6034 36.1839 19.6034 38.0139C19.6034 39.8439 20.7728 41.3289 22.797 41.3272C23.5634 41.3278 24.2138 40.9494 24.7356 40.4606V40.7722C24.7356 41.0233 24.9406 41.2261 25.1937 41.2261H26.2041C26.265 41.2255 26.3252 41.2132 26.3811 41.19C26.4371 41.1669 26.4879 41.1332 26.5304 41.0911C26.5729 41.0489 26.6065 40.9991 26.6291 40.9443C26.6517 40.8896 26.663 40.8311 26.6622 40.7722V35.2628C26.6636 35.1438 26.6161 35.0292 26.5302 34.9441C26.4443 34.859 26.327 34.8104 26.2041 34.8089ZM23.1225 39.6094C22.1879 39.6094 21.5415 38.8583 21.5415 38.0139C21.5415 37.1694 22.1879 36.4178 23.1225 36.4178C24.0129 36.4178 24.6748 37.1 24.7356 37.8956V38.1322C24.6748 38.9272 24.0129 39.6094 23.1225 39.6094ZM37.6454 34.8089H36.635C36.5121 34.8104 36.3948 34.859 36.3089 34.9441C36.223 35.0292 36.1755 35.1438 36.1769 35.2628V39.3656H34.1401V35.2628C34.1415 35.1438 34.094 35.0292 34.0081 34.9441C33.9222 34.859 33.8049 34.8104 33.682 34.8089H32.6716C32.6107 34.8095 32.5505 34.8218 32.4945 34.845C32.4385 34.8681 32.3877 34.9017 32.3451 34.9439C32.3025 34.986 32.2689 35.0359 32.2463 35.0906C32.2236 35.1453 32.2123 35.2038 32.2129 35.2628V39.3656H30.1382V35.2628C30.1396 35.1438 30.0921 35.0292 30.0062 34.9441C29.9203 34.859 29.803 34.8104 29.6801 34.8089H28.6703C28.5474 34.8104 28.4301 34.859 28.3442 34.9441C28.2583 35.0292 28.2108 35.1438 28.2122 35.2628V40.8511C28.2122 41.0583 28.3816 41.2261 28.5911 41.2261H37.7252C37.9347 41.2261 38.1041 41.0583 38.1041 40.8511V35.2628C38.1055 35.1438 38.058 35.0292 37.9721 34.9441C37.8862 34.859 37.7683 34.8104 37.6454 34.8089ZM52.1516 34.5344C51.7462 34.5352 51.3454 34.6178 50.9748 34.7767C50.6041 34.9357 50.2718 35.1676 49.9989 35.4578C49.2514 36.1428 48.3013 36.5356 47.2502 36.5356C46.1135 36.5356 45.1858 36.1044 44.0463 35.255C44.0121 35.2283 43.9772 35.2024 43.9418 35.1772L43.9332 35.1706L43.8815 35.1361C43.8276 35.0995 43.7721 35.0652 43.7151 35.0333C43.2656 34.7723 42.7513 34.634 42.2271 34.6333C40.5979 34.6333 39.2729 35.9461 39.2729 37.56C39.2733 38.3465 39.5953 39.1008 40.1684 39.6583C40.1931 39.6828 42.9504 42.5083 47.2984 42.5083C49.2744 42.5083 52.2378 41.71 54.3067 39.4611C54.6052 39.1453 54.8286 38.77 54.9612 38.3617L54.9635 38.3561L54.9652 38.3506C55.0043 38.2292 55.035 38.1054 55.057 37.98L55.0593 37.9689L55.0616 37.9544C55.0674 37.9189 55.0731 37.8856 55.0777 37.8522C55.0958 37.7224 55.105 37.5916 55.1053 37.4606C55.1053 35.8472 53.7803 34.5344 52.1516 34.5344ZM53.2217 37.6089L53.216 37.6506L53.2079 37.69C53.2022 37.715 53.1965 37.7394 53.189 37.7633L53.1821 37.7872C53.1321 37.9429 53.0461 38.0856 52.9307 38.2044C51.3766 39.8983 49.023 40.6533 47.299 40.6533C43.8775 40.6533 41.6318 38.485 41.4848 38.3406L41.4768 38.3317C41.3712 38.2307 41.2875 38.1105 41.2305 37.9779C41.1735 37.8453 41.1445 37.703 41.1449 37.5594C41.1449 36.9678 41.6295 36.4878 42.2271 36.4878C42.4403 36.4877 42.6485 36.5499 42.8247 36.6661L42.8276 36.6683C42.8534 36.685 42.8781 36.7039 42.9022 36.7233C44.4935 37.9139 45.8368 38.39 47.2502 38.39C48.9363 38.39 50.3232 37.7122 51.3284 36.7644L51.333 36.7606C51.5311 36.5328 51.8239 36.3883 52.1511 36.3883C52.7487 36.3883 53.2332 36.8683 53.2332 37.4606C53.2332 37.5106 53.2286 37.5606 53.2217 37.6089ZM8.06799 26.9144C8.18568 25.7872 7.77636 24.5156 6.81536 23.4678C6.13509 22.7261 5.04377 21.8289 5.04377 21.8289C5.04377 21.8289 5.25101 21.93 6.8366 21.93C7.07809 21.932 7.3196 21.9318 7.56108 21.9294C7.64256 21.9325 7.72383 21.9196 7.79995 21.8913C7.87608 21.863 7.94547 21.8201 8.0039 21.765C8.06232 21.71 8.10857 21.644 8.13982 21.5712C8.17107 21.4983 8.18667 21.42 8.18568 21.3411V20.4939C8.18721 20.3645 8.13558 20.2398 8.04215 20.1471C7.94872 20.0545 7.82111 20.0016 7.68738 20H2.15274C1.71817 20 1.33468 20.8978 1.83126 21.3844C2.32783 21.8711 4.41459 23.5872 4.41459 23.5872C4.08564 23.4272 3.4622 23.4794 3.12752 23.5706C1.89096 23.9072 1 25.1622 1 26.5356C1 28.4533 2.4082 29.9394 4.30551 30.0594C6.18905 30.1789 7.87338 28.7744 8.06799 26.9144ZM4.62929 28.1711C3.73144 28.2172 2.98744 27.4778 2.96218 26.5872C2.93692 25.6878 3.5707 24.945 4.4565 24.8994C5.35492 24.8533 6.09892 25.5928 6.12418 26.4833C6.14944 27.3828 5.51509 28.1256 4.62929 28.1711ZM45.0946 23.3922C43.1169 23.3922 41.5812 24.8756 41.5812 26.7056C41.5812 28.5356 43.1169 30.0194 45.0946 30.0194C47.0722 30.0194 48.6079 28.5361 48.6079 26.7056C48.6079 24.8756 47.0722 23.3922 45.0946 23.3922ZM45.09 28.2972C44.1772 28.2972 43.509 27.5461 43.509 26.7011C43.509 25.8567 44.1772 25.1056 45.09 25.1056C46.0028 25.1056 46.6715 25.8567 46.6715 26.7011C46.6715 27.5456 46.0028 28.2972 45.09 28.2972Z" fill="white"/>
</svg>
