<svg width="64" height="64" viewBox="0 0 64 64" fill="none" xmlns="http://www.w3.org/2000/svg">
<rect width="64" height="64" fill="#2DBEFF"/>
<path d="M58.7981 36.4829C57.4463 29.213 49.7376 24.3229 41.627 25.5617L44.0018 13.3855L35.2884 12C34.5577 13.467 31.2696 20.1501 29.6804 27.6482C32.9136 29.6042 35.2884 32.7012 36.0008 36.4503C36.7315 40.4112 35.4528 44.2743 32.7858 47.1432C33.4434 47.8604 34.1923 48.5124 35.0326 49.0992C38.412 51.479 42.5221 52.4081 46.5409 51.805C54.7063 50.5988 60.1864 43.7201 58.7798 36.4829H58.7981Z" fill="#054752"/>
<path d="M29.5342 28.4958L29.7169 27.6808C26.6115 25.7899 22.7754 24.9423 18.7932 25.5291L21.1679 13.3692L12.4728 12C11.7055 13.5159 8.19833 20.6391 6.70043 28.4632C5.4948 34.7876 5.5496 41.5685 9.25782 46.3445C10.0798 47.3714 11.0479 48.3005 12.217 49.1155C15.6147 51.4953 19.7431 52.4244 23.7618 51.8213C27.4518 51.2834 30.5754 49.5393 32.7858 47.1758L32.0916 46.3608C28.3651 41.6011 28.3103 34.8202 29.5342 28.5121V28.4958Z" fill="white"/>
<path d="M36.019 36.4829C35.2884 32.7338 32.9136 29.6368 29.6986 27.6808L29.516 28.4958C28.3286 34.8202 28.3834 41.6011 32.1099 46.3771L32.7858 47.1921C35.4528 44.258 36.768 40.4112 36.0008 36.434L36.019 36.4829Z" fill="#9EF769"/>
</svg>
