<svg width="64" height="64" viewBox="0 0 64 64" fill="none" xmlns="http://www.w3.org/2000/svg">
<rect width="64" height="64" fill="#34D186"/>
<g clip-path="url(#clip0_1_2)">
<path fill-rule="evenodd" clip-rule="evenodd" d="M38.0642 15V29.4779H34.4813V15.7238L38.0642 15ZM27.8628 26.0714C28.8532 26.0714 29.6545 25.3095 29.6545 24.3681C29.6545 23.4264 28.8532 22.6648 27.8628 22.6648C26.8727 22.6648 26.0714 23.4264 26.0714 24.3681C26.0714 25.3095 26.8727 26.0714 27.8628 26.0714ZM27.8628 19.1115C30.9135 19.1115 33.3915 21.4629 33.3915 24.3681C33.3915 27.273 30.9132 29.6247 27.8628 29.6247C24.8075 29.6247 22.3341 27.273 22.3341 24.3681C22.3341 21.4629 24.8124 19.1115 27.8628 19.1115ZM27.8628 30.8501C28.8523 30.8501 29.6545 31.6126 29.6545 32.5534C29.6545 33.4941 28.8523 34.2566 27.8628 34.2566C26.8736 34.2566 26.0714 33.4941 26.0714 32.5534C26.0714 31.6126 26.8736 30.8501 27.8628 30.8501ZM19.8909 21.8227C20.7568 22.6364 21.2942 23.7625 21.289 25.0067C21.289 27.4765 19.1842 29.4779 16.5866 29.4779H10.3165V15H15.89C18.4876 15 20.5924 17.0014 20.5924 19.471C20.5924 20.3322 20.3388 21.1413 19.8909 21.8227ZM16.5915 26.0714C17.2086 26.0714 17.7113 25.5934 17.7113 25.0067C17.7113 24.4202 17.2086 23.9422 16.5915 23.9422H13.9046V26.0714H16.5915ZM13.9046 18.4066V20.5357H15.8951C16.512 20.5357 17.0144 20.0578 17.0144 19.471C17.0144 18.8845 16.512 18.4066 15.8951 18.4066H13.9046ZM44.8319 22.712H43.0454V25.3853C43.0454 26.1944 43.3193 26.7905 44.0357 26.7905C44.4985 26.7905 44.8368 26.6912 44.8368 26.6912V29.1989C44.8368 29.1989 44.0954 29.6247 43.0901 29.6247H43.0454C43.0008 29.6247 42.961 29.6198 42.916 29.6198H42.8812C42.8614 29.6198 42.8362 29.6152 42.8164 29.6152C40.8158 29.5157 39.4576 28.3187 39.4576 26.2416V17.4271L43.0405 16.7033V19.3055H44.8319V22.712Z" fill="white"/>
<path fill-rule="evenodd" clip-rule="evenodd" d="M25.009 45.3283C26.0011 45.3283 26.804 44.5664 26.804 43.625C26.804 42.6833 26.0011 41.9216 25.009 41.9216C24.0167 41.9216 23.2139 42.6833 23.2139 43.625C23.2139 44.5664 24.0167 45.3283 25.009 45.3283ZM25.009 38.3683C28.0654 38.3683 30.5485 40.7197 30.5485 43.625C30.5485 46.53 28.0654 48.8817 25.009 48.8817C21.9478 48.8817 19.4696 46.53 19.4696 43.625C19.4696 40.7197 21.9527 38.3683 25.009 38.3683ZM36.7318 45.3283C37.7239 45.3283 38.5267 44.5664 38.5267 43.625C38.5267 42.6833 37.7239 41.9216 36.7318 41.9216C35.7395 41.9216 34.9366 42.6833 34.9366 43.625C34.9366 44.5664 35.7395 45.3283 36.7318 45.3283ZM36.7318 38.3683C39.7881 38.3683 42.2712 40.7197 42.2712 43.625C42.2712 46.53 39.7881 48.8817 36.7318 48.8817C33.6706 48.8817 31.1924 46.53 31.1924 43.625C31.1924 40.7197 33.6755 38.3683 36.7318 38.3683ZM13.5899 43.2015V48.7349H10V34.2566H19.5827V37.6679H13.5899V39.79H18.496V43.2015H13.5899ZM50.3541 47.8605C49.745 48.3979 48.9637 48.7349 47.9974 48.7349C45.191 48.7349 42.9163 46.4144 42.9163 43.5515C42.9163 40.6889 45.191 38.3682 47.9974 38.3682C48.9637 38.3682 49.745 38.699 50.3541 39.2306V34.2566H53.944V48.7349H50.3541V47.8605ZM48.4064 45.2706C49.4069 45.2706 50.218 44.5009 50.218 43.5515C50.218 42.6021 49.4069 41.8327 48.4064 41.8327C47.406 41.8327 46.5949 42.6021 46.5949 43.5515C46.5949 44.5009 47.406 45.2706 48.4064 45.2706Z" fill="white"/>
</g>
<defs>
<clipPath id="clip0_1_2">
<rect width="44" height="34" fill="white" transform="translate(10 15)"/>
</clipPath>
</defs>
</svg>
