<svg width="64" height="64" viewBox="0 0 64 64" fill="none" xmlns="http://www.w3.org/2000/svg">
<rect width="64" height="64" fill="#2A9761"/>
<g clip-path="url(#clip0_1_2)">
<path fill-rule="evenodd" clip-rule="evenodd" d="M49.4518 17V39.5553H43.4537V18.1278L49.4518 17ZM32.3739 41.6929C34.0303 41.6929 35.3729 42.8809 35.3729 44.3464C35.3729 45.8119 34.0303 47 32.3739 47C30.7176 47 29.3749 45.8119 29.3749 44.3464C29.3749 42.8809 30.7176 41.6929 32.3739 41.6929ZM32.3739 23.4054C37.4807 23.4054 41.6293 27.0688 41.6293 31.5946C41.6293 36.1204 37.4806 39.7838 32.3739 39.7838C27.2589 39.7838 23.1185 36.1204 23.1185 31.5946C23.1185 27.0688 27.2672 23.4054 32.3739 23.4054ZM32.3739 34.2481C34.0317 34.2481 35.3729 33.0614 35.3729 31.5946C35.3729 30.1278 34.0317 28.9411 32.3739 28.9411C30.7161 28.9411 29.3749 30.1278 29.3749 31.5946C29.3749 33.0614 30.7161 34.2481 32.3739 34.2481ZM13.505 34.2481C14.538 34.2481 15.3794 33.5037 15.3794 32.5896C15.3794 31.6757 14.538 30.9312 13.505 30.9312H9.0064V34.2481H13.505ZM9.0064 22.3071V25.6241H12.3387C13.3717 25.6241 14.2131 24.8796 14.2131 23.9656C14.2131 23.0516 13.3717 22.3071 12.3387 22.3071H9.0064ZM19.0282 27.629C20.4778 28.8968 21.3774 30.6511 21.3691 32.5896C21.3691 36.4374 17.8453 39.5553 13.4967 39.5553H3V17H12.3304C16.679 17 20.2028 20.1179 20.2028 23.9656C20.2028 25.3071 19.778 26.5676 19.0282 27.629ZM60.7815 29.0148H57.7908V33.1794C57.7908 34.4398 58.249 35.3685 59.4485 35.3685C60.2234 35.3685 60.7899 35.2137 60.7899 35.2137V39.1204C60.7899 39.1204 59.5485 39.7838 57.8657 39.7838H57.7908C57.7158 39.7838 57.6491 39.7765 57.5741 39.7765H57.5158C57.4825 39.7765 57.4408 39.769 57.4075 39.769C54.0586 39.6142 51.7843 37.7494 51.7843 34.5136V20.7813L57.7824 19.6536V23.7076H60.7815V29.0148Z" fill="white"/>
</g>
<defs>
<clipPath id="clip0_1_2">
<rect width="58" height="30" fill="white" transform="translate(3 17)"/>
</clipPath>
</defs>
</svg>
