<svg width="64" height="64" viewBox="0 0 64 64" fill="none" xmlns="http://www.w3.org/2000/svg">
<rect width="64" height="64" fill="white"/>
<g clip-path="url(#clip0_1_2)">
<g filter="url(#filter0_iii_1_2)">
<path d="M7 31C7 16.6406 18.6406 5 33 5C47.3595 5 59 16.6406 59 31C59 45.3595 47.3595 57 33 57H7V31Z" fill="url(#paint0_linear_1_2)"/>
<path d="M7 31C7 16.6406 18.6406 5 33 5C47.3595 5 59 16.6406 59 31C59 45.3595 47.3595 57 33 57H7V31Z" fill="url(#paint1_linear_1_2)" fill-opacity="0.4"/>
</g>
<path d="M33 5.94104C46.84 5.94104 58.059 17.1601 58.059 31C58.059 44.84 46.84 56.059 33 56.059H7.94104V31C7.94104 17.1601 19.1601 5.94104 33 5.94104Z" stroke="url(#paint2_linear_1_2)" stroke-width="1.1576"/>
<g filter="url(#filter1_d_1_2)">
<path fill-rule="evenodd" clip-rule="evenodd" d="M44.0373 38.577C45.1739 38.577 46.1211 39.4768 46.1685 40.6135C46.1685 40.6608 46.1685 40.7555 46.1685 40.803V45.5862H42.0956V42.3185H22.347C21.163 42.3185 20.2158 41.3712 20.2158 40.1873V21.8594H24.5255V38.577H37.928V21.8594H42.2376V38.577H44.0373Z" fill="white"/>
</g>
</g>
<defs>
<filter id="filter0_iii_1_2" x="7" y="2.6848" width="52" height="56.6304" filterUnits="userSpaceOnUse" color-interpolation-filters="sRGB">
<feFlood flood-opacity="0" result="BackgroundImageFix"/>
<feBlend mode="normal" in="SourceGraphic" in2="BackgroundImageFix" result="shape"/>
<feColorMatrix in="SourceAlpha" type="matrix" values="0 0 0 0 0 0 0 0 0 0 0 0 0 0 0 0 0 0 127 0" result="hardAlpha"/>
<feOffset dy="2.3152"/>
<feGaussianBlur stdDeviation="1.1576"/>
<feComposite in2="hardAlpha" operator="arithmetic" k2="-1" k3="1"/>
<feColorMatrix type="matrix" values="0 0 0 0 1 0 0 0 0 0.831373 0 0 0 0 0 0 0 0 1 0"/>
<feBlend mode="hard-light" in2="shape" result="effect1_innerShadow_1_2"/>
<feColorMatrix in="SourceAlpha" type="matrix" values="0 0 0 0 0 0 0 0 0 0 0 0 0 0 0 0 0 0 127 0" result="hardAlpha"/>
<feOffset dy="-2.3152"/>
<feGaussianBlur stdDeviation="4.0516"/>
<feComposite in2="hardAlpha" operator="arithmetic" k2="-1" k3="1"/>
<feColorMatrix type="matrix" values="0 0 0 0 0 0 0 0 0 0 0 0 0 0 0 0 0 0 0.15 0"/>
<feBlend mode="multiply" in2="effect1_innerShadow_1_2" result="effect2_innerShadow_1_2"/>
<feColorMatrix in="SourceAlpha" type="matrix" values="0 0 0 0 0 0 0 0 0 0 0 0 0 0 0 0 0 0 127 0" result="hardAlpha"/>
<feOffset dy="1.1576"/>
<feGaussianBlur stdDeviation="1.1576"/>
<feComposite in2="hardAlpha" operator="arithmetic" k2="-1" k3="1"/>
<feColorMatrix type="matrix" values="0 0 0 0 1 0 0 0 0 1 0 0 0 0 1 0 0 0 1 0"/>
<feBlend mode="screen" in2="effect2_innerShadow_1_2" result="effect3_innerShadow_1_2"/>
</filter>
<filter id="filter1_d_1_2" x="15.5854" y="20.859" width="35.2135" height="32.9876" filterUnits="userSpaceOnUse" color-interpolation-filters="sRGB">
<feFlood flood-opacity="0" result="BackgroundImageFix"/>
<feColorMatrix in="SourceAlpha" type="matrix" values="0 0 0 0 0 0 0 0 0 0 0 0 0 0 0 0 0 0 127 0" result="hardAlpha"/>
<feOffset dy="3.63"/>
<feGaussianBlur stdDeviation="2.3152"/>
<feComposite in2="hardAlpha" operator="out"/>
<feColorMatrix type="matrix" values="0 0 0 0 0 0 0 0 0 0 0 0 0 0 0 0 0 0 0.28 0"/>
<feBlend mode="normal" in2="BackgroundImageFix" result="effect1_dropShadow_1_2"/>
<feBlend mode="normal" in="SourceGraphic" in2="effect1_dropShadow_1_2" result="shape"/>
</filter>
<linearGradient id="paint0_linear_1_2" x1="42.7235" y1="29.2271" x2="42.7235" y2="56.5804" gradientUnits="userSpaceOnUse">
<stop stop-color="#FF6800"/>
<stop offset="1" stop-color="#E43D00"/>
</linearGradient>
<linearGradient id="paint1_linear_1_2" x1="20.9512" y1="31.5718" x2="10.1891" y2="14.1065" gradientUnits="userSpaceOnUse">
<stop stop-color="white" stop-opacity="0"/>
<stop offset="1" stop-color="white"/>
</linearGradient>
<linearGradient id="paint2_linear_1_2" x1="27.5041" y1="3.43695" x2="47.2111" y2="48.7442" gradientUnits="userSpaceOnUse">
<stop stop-color="white"/>
<stop offset="1" stop-color="#FF9C5A"/>
</linearGradient>
<clipPath id="clip0_1_2">
<rect width="52" height="52" fill="white" transform="translate(7 5)"/>
</clipPath>
</defs>
</svg>
