<svg width="64" height="64" viewBox="0 0 64 64" fill="none" xmlns="http://www.w3.org/2000/svg">
<rect width="64" height="64" fill="#43B02A"/>
<path d="M29.2738 20.4481C34.9687 18.7851 41.4938 21.9 43.8647 27.3233C45.5947 30.9987 45.3291 35.5056 43.1939 38.9648C40.9027 42.8398 36.3783 45.2929 31.8756 44.9719C26.0396 44.8272 20.8179 39.9693 20.1338 34.1818C19.1874 28.1565 23.3681 21.9083 29.2755 20.4515L29.2738 20.4481Z" fill="#FF671F"/>
<path d="M54.2566 20.5974C49.4329 13.1414 39.581 8.85049 30.4026 10.2696L30.4056 10.2514C23.9774 11.1792 17.9962 14.6156 14.2959 19.6384C7.60755 28.2195 8.87488 41.1513 17.0813 48.4817C25.0944 56.2388 39.1701 57.2221 48.2865 50.6257C51.0701 48.4943 54.6972 45.8556 54.2555 42.0568C53.9993 37.758 47.7914 35.0728 44.3559 38.1337C41.7687 40.7708 38.6035 43.5231 34.4988 43.3213C29.4046 43.7511 24.3821 40.3341 22.9712 35.7644C21.0905 31.0445 23.7734 25.3444 28.4486 23.0436C33.078 20.557 39.4557 21.6269 42.7844 25.5676C44.1494 27.3239 45.9453 29.2379 48.5209 28.9462C53.0873 29.5986 56.5898 24.2293 54.2566 20.5974Z" fill="white"/>
<path d="M54.2566 20.5974C49.4329 13.1414 39.581 8.85049 30.4026 10.2696L30.4056 10.2514C23.9774 11.1792 17.9962 14.6156 14.2959 19.6384C7.60755 28.2195 8.87488 41.1513 17.0813 48.4817C25.0944 56.2388 39.1701 57.2221 48.2865 50.6257C51.0701 48.4943 54.6972 45.8556 54.2555 42.0568C53.9993 37.758 47.7914 35.0728 44.3559 38.1337C41.7687 40.7708 38.6035 43.5231 34.4988 43.3213C29.4046 43.7511 24.3821 40.3341 22.9712 35.7644C21.0905 31.0445 23.7734 25.3444 28.4486 23.0436C33.078 20.557 39.4557 21.6269 42.7844 25.5676C44.1494 27.3239 45.9453 29.2379 48.5209 28.9462C53.0873 29.5986 56.5898 24.2293 54.2566 20.5974Z" fill="white"/>
</svg>
