<svg width="64" height="64" viewBox="0 0 64 64" fill="none" xmlns="http://www.w3.org/2000/svg">
<rect width="64" height="64" fill="white"/>
<mask id="mask0_1_2" style="mask-type:luminance" maskUnits="userSpaceOnUse" x="4" y="20" width="56" height="25">
<path d="M60 20H4V45H60V20Z" fill="white"/>
</mask>
<g mask="url(#mask0_1_2)">
<path fill-rule="evenodd" clip-rule="evenodd" d="M27.0143 24.168C26.9847 23.6962 26.8613 23.2452 26.6837 22.8125C26.3556 22.0175 25.8425 21.4024 25.0999 21.0166C24.6386 20.7742 24.1452 20.6621 23.6321 20.6204C22.9512 20.5656 22.2777 20.6204 21.619 20.7976C21.0788 20.941 20.5459 21.1156 20.0106 21.2877C19.3322 21.5066 18.6562 21.7334 17.9433 21.8064C17.5559 21.8455 17.1686 21.8533 16.7863 21.7881C16.3792 21.7204 15.9796 21.6109 15.5922 21.4571C14.9928 21.2173 14.3982 20.9697 13.8012 20.7272C13.1722 20.4692 12.5381 20.245 11.8622 20.1512C11.3688 20.0834 10.873 20.0391 10.3746 20.0052C9.96264 20.0469 9.54819 20.0782 9.13868 20.1303C8.55401 20.2059 7.99154 20.3806 7.45374 20.6308C6.57797 21.04 5.84035 21.6396 5.26061 22.4476C4.49092 23.5163 4.12828 24.7466 4.02467 26.0734C3.97039 26.785 4.0074 27.4966 4.10854 28.2004C4.19982 28.8312 4.33797 29.4542 4.53533 30.0589C4.63894 30.3743 4.73022 30.6975 4.87083 30.9921C5.4629 32.2432 6.23753 33.3667 7.11084 34.4119C7.88546 35.3373 8.73656 36.1818 9.64194 36.9638C10.7027 37.8787 11.8252 38.7024 12.9945 39.4505C14.4722 40.3967 16.0116 41.21 17.5979 41.9268C17.7484 41.9946 17.9112 42.0389 18.0715 42.0702C18.2319 42.1014 18.3651 41.9998 18.2862 41.8043C18.2566 41.7287 18.2294 41.6505 18.1875 41.5827C18.0814 41.4133 17.9679 41.2465 17.852 41.0823C17.1785 40.1335 16.5322 39.1638 15.9771 38.1316C15.5922 37.4148 15.2543 36.6745 15.0026 35.8925C14.793 35.2435 14.6499 34.5762 14.6079 33.8932C14.5734 33.3432 14.5956 32.7932 14.7115 32.2537C14.8768 31.4847 15.1852 30.7862 15.6786 30.1918C16.431 29.2874 17.3907 28.7895 18.5181 28.6539C18.972 28.5992 19.4259 28.6305 19.8774 28.7295C20.9776 28.9746 21.8682 29.5767 22.5787 30.4916C22.6798 30.6245 22.7884 30.7523 22.9018 30.8722C23.0375 31.0155 23.2102 31.0781 23.3952 31.0051C23.5531 30.9425 23.711 30.867 23.8492 30.7679C24.4388 30.3404 24.947 29.8165 25.3885 29.2248C25.9979 28.4063 26.4543 27.4966 26.7577 26.5061C26.8909 26.0682 26.9995 25.6199 27.0291 25.1611C27.0513 24.8327 27.0315 24.499 27.0118 24.1706L27.0143 24.168Z" fill="#5E0421"/>
<path fill-rule="evenodd" clip-rule="evenodd" d="M30.7443 34.0053H25.9239C25.9387 33.8932 25.9436 33.802 25.9633 33.7134C26.0349 33.4084 26.1928 33.1842 26.5011 33.1243C26.6492 33.0956 26.8021 33.0669 26.9526 33.0669C28.1663 33.0617 29.3801 33.0643 30.5938 33.0643H30.7443V31.6985H30.6654C29.2025 31.6985 27.7396 31.6959 26.2767 31.6985C25.9461 31.6985 25.613 31.7115 25.2899 31.8027C25.021 31.8783 24.7693 31.9878 24.5769 32.2172C24.313 32.5326 24.2241 32.9184 24.2192 33.3224C24.2093 34.1956 24.2118 35.0688 24.2192 35.942C24.2192 36.1453 24.2365 36.3513 24.2759 36.5494C24.3648 37.0029 24.5991 37.347 25.0185 37.5268C25.3195 37.6546 25.6377 37.7145 25.9609 37.7145C27.5299 37.7223 29.0989 37.7197 30.6678 37.7197C30.695 37.7197 30.7196 37.7171 30.7443 37.7145V36.3669H30.5815C29.496 36.3669 28.413 36.3669 27.3276 36.3669C27.1055 36.3669 26.886 36.3591 26.664 36.3382C26.4691 36.32 26.2791 36.2652 26.1459 36.101C25.9806 35.8977 25.9313 35.6501 25.9337 35.3738H30.7443V34.0053Z" fill="#5E0421"/>
<path fill-rule="evenodd" clip-rule="evenodd" d="M52.6337 32.8793C52.53 32.3814 52.2611 32.0269 51.7875 31.8601C51.3977 31.7219 50.9931 31.7037 50.5885 31.7011C49.809 31.6933 49.0294 31.6933 48.2499 31.7011C47.9045 31.7037 47.5591 31.7141 47.2236 31.8079C46.9103 31.894 46.6266 32.0321 46.4342 32.3241C46.2467 32.6082 46.1603 32.9288 46.1603 33.2676C46.1554 34.7221 46.1603 36.174 46.1603 37.6259V37.7119H47.8774V35.3842H50.9808V37.7145H52.6879V37.5503C52.6904 36.2053 52.6953 34.8577 52.6929 33.5127C52.6929 33.2989 52.6781 33.0826 52.6361 32.8767L52.6337 32.8793ZM47.8848 34.0027C47.8305 33.5335 48.1018 33.1556 48.541 33.0982C48.6914 33.08 48.8444 33.0695 48.9949 33.0695C49.3279 33.0643 49.6585 33.0643 49.9915 33.0695C50.1272 33.0722 50.2654 33.0982 50.4011 33.1243C50.7168 33.1842 50.8747 33.4162 50.9463 33.7238C50.966 33.8072 50.9685 33.8958 50.9833 34.0001H47.8872L47.8848 34.0027Z" fill="#5E0421"/>
<path fill-rule="evenodd" clip-rule="evenodd" d="M23.4396 33.3849C23.4396 33.2077 23.4199 33.0252 23.3829 32.8506C23.2743 32.3553 23.0005 32.0165 22.5318 31.8549C22.1445 31.7219 21.7448 31.7011 21.3476 31.7011C19.9217 31.6959 18.4958 31.7011 17.0699 31.7011H16.9219V37.7197C16.9614 37.7197 16.9935 37.7249 17.0255 37.7249C18.5304 37.7249 20.0352 37.7249 21.5376 37.7249C21.8114 37.7249 22.0803 37.6989 22.3443 37.6337C22.6107 37.5686 22.8599 37.4617 23.0548 37.2453C23.3286 36.943 23.4322 36.5676 23.4372 36.1688C23.4495 35.2409 23.4446 34.3155 23.4372 33.3902L23.4396 33.3849ZM21.7201 35.4494C21.7201 35.5745 21.6979 35.7022 21.6634 35.8221C21.5721 36.1427 21.3279 36.333 20.9751 36.3434C20.2745 36.3617 19.5739 36.3643 18.8733 36.3721C18.7943 36.3721 18.7179 36.3721 18.6266 36.3721V33.0722C18.6537 33.0722 18.6759 33.0669 18.6981 33.0669C19.3815 33.0669 20.0648 33.0643 20.7482 33.0695C20.8888 33.0695 21.0319 33.0982 21.17 33.1269C21.4735 33.1894 21.6289 33.411 21.693 33.7134C21.7152 33.8202 21.7226 33.9349 21.7226 34.047C21.7251 34.5162 21.7275 34.9828 21.7226 35.452L21.7201 35.4494Z" fill="#5E0421"/>
<path fill-rule="evenodd" clip-rule="evenodd" d="M38.0638 33.4319C38.0638 33.2442 38.0465 33.0513 38.0071 32.8688C37.8985 32.3658 37.6271 32.0087 37.1461 31.847C36.7711 31.7219 36.3863 31.7037 35.9989 31.7011C35.2046 31.6933 34.4102 31.6933 33.6159 31.7011C33.2754 31.7037 32.935 31.7115 32.6019 31.8053C32.3133 31.8861 32.0493 32.0087 31.8545 32.2615C31.6226 32.5639 31.5337 32.9184 31.5313 33.2911C31.5239 34.73 31.5263 36.1688 31.5263 37.6077C31.5263 37.6441 31.5313 37.6806 31.5337 37.7119H33.2458V37.5425C33.2458 36.393 33.2458 35.2409 33.2458 34.0887C33.2458 33.9688 33.2532 33.8437 33.2754 33.7264C33.3322 33.4293 33.4826 33.2103 33.7737 33.1295C33.8798 33.1008 33.9908 33.0722 34.0994 33.0722C34.6347 33.0722 35.17 33.0669 35.7029 33.1034C36.0039 33.1243 36.2432 33.2233 36.3196 33.703C36.3344 33.802 36.3443 33.9063 36.3443 34.0079C36.3443 35.1939 36.3443 36.3773 36.3443 37.5633V37.7197H38.0638V37.6024C38.0638 36.2131 38.0638 34.8238 38.0613 33.4319H38.0638Z" fill="#5E0421"/>
<path fill-rule="evenodd" clip-rule="evenodd" d="M38.8508 31.7089V33.0643H41.2166V37.7171H42.9163V33.0591H45.3709V31.7089H38.8508Z" fill="#5E0421"/>
<path fill-rule="evenodd" clip-rule="evenodd" d="M59.8323 36.3695C58.6555 36.3695 57.4788 36.3721 56.302 36.3695C56.1195 36.3695 55.9345 36.3487 55.7544 36.3122C55.4879 36.26 55.3078 36.0906 55.2388 35.8091C55.2092 35.6892 55.187 35.5615 55.187 35.4363C55.182 34.2477 55.1845 33.0565 55.1845 31.8679V31.7063H53.47C53.47 31.7428 53.4626 31.7715 53.4626 31.7975C53.4626 33.2077 53.4626 34.6153 53.465 36.0254C53.465 36.2131 53.4848 36.406 53.5242 36.5885C53.6278 37.0681 53.8967 37.4043 54.3433 37.5659C54.6171 37.665 54.9057 37.7171 55.1944 37.7171C56.7732 37.7223 58.3521 37.7197 59.9285 37.7223C59.9507 37.7223 59.9704 37.7223 59.9975 37.7171V36.3695H59.8298H59.8323Z" fill="#5E0421"/>
<path fill-rule="evenodd" clip-rule="evenodd" d="M22.0582 40.3863C22.1963 40.3524 22.3394 40.3342 22.4825 40.3316C22.8476 40.3237 23.2127 40.3237 23.5754 40.3316C23.7258 40.3342 23.8788 40.3576 24.0268 40.3863C24.3303 40.4436 24.4955 40.6235 24.5473 40.9441C24.5671 41.0562 24.5745 41.1709 24.5893 41.2882H26.294C26.2866 40.8972 26.3236 40.5166 26.2372 40.1413C26.1262 39.6617 25.882 39.3046 25.428 39.1351C25.1517 39.0335 24.8656 38.9813 24.5769 38.9813C23.6074 38.9761 22.6379 38.9813 21.6684 38.9761C21.3946 38.9761 21.1257 39.0022 20.8592 39.0674C20.6027 39.1299 20.3609 39.229 20.166 39.4323C19.8675 39.7425 19.7639 40.1387 19.759 40.5583C19.7466 41.4654 19.7516 42.3725 19.759 43.2796C19.759 43.4673 19.7762 43.6602 19.8157 43.8427C19.9243 44.3353 20.1956 44.6794 20.6643 44.841C21.0467 44.9739 21.4414 44.9922 21.8362 44.9974C22.6404 45.0052 23.4421 45.0052 24.2464 44.9974C24.5819 44.9974 24.9174 44.9765 25.248 44.8931C25.729 44.768 26.0547 44.4683 26.2027 43.9652C26.2421 43.8322 26.2717 43.6915 26.2767 43.5533C26.289 43.264 26.2791 42.9721 26.2791 42.6801H24.5967C24.5695 42.8365 24.5523 42.9851 24.5202 43.1311C24.4635 43.3709 24.3105 43.5168 24.086 43.569C23.9355 43.6029 23.7777 43.6263 23.6222 43.6289C23.2867 43.6393 22.9488 43.6341 22.6108 43.6289C22.4554 43.6289 22.2975 43.6211 22.1421 43.5976C21.8238 43.5507 21.5944 43.3813 21.5228 43.032C21.4982 42.9147 21.4784 42.7922 21.476 42.6723C21.471 42.2344 21.471 41.7939 21.476 41.356C21.476 41.2361 21.4784 41.1109 21.5056 40.9936C21.5919 40.6053 21.7523 40.4593 22.0582 40.3863Z" fill="#5E0421"/>
<path fill-rule="evenodd" clip-rule="evenodd" d="M48.9554 40.3837C49.096 40.355 49.2366 40.3316 49.3797 40.329C49.7498 40.3211 50.1174 40.3211 50.4874 40.329C50.633 40.3316 50.781 40.355 50.9265 40.3811C51.23 40.4385 51.3928 40.6157 51.447 40.9389C51.4668 41.051 51.4742 41.1657 51.489 41.283H53.1937C53.1838 40.892 53.2208 40.5114 53.1369 40.1361C53.0259 39.6512 52.7743 39.2916 52.3129 39.1247C52.0366 39.0257 51.7505 38.9761 51.4594 38.9735C50.4578 38.9683 49.4562 38.9709 48.4546 38.9735C48.1487 38.9735 47.8502 39.0205 47.5591 39.1221C47.194 39.2472 46.93 39.4922 46.7845 39.8754C46.6981 40.1048 46.6537 40.342 46.6513 40.5844C46.6463 41.4733 46.6463 42.3595 46.6513 43.2484C46.6513 43.4413 46.6685 43.6368 46.708 43.8271C46.8092 44.3223 47.0805 44.669 47.5468 44.8358C47.9316 44.9739 48.3313 44.9922 48.7309 44.9974C49.5352 45.0052 50.3369 45.0052 51.1411 44.9974C51.4766 44.9974 51.8122 44.9791 52.1403 44.8905C52.6139 44.7654 52.942 44.4735 53.09 43.9782C53.132 43.8348 53.1665 43.6863 53.1739 43.5377C53.1863 43.2536 53.1789 42.9668 53.1789 42.6775H51.4915C51.4643 42.8391 51.4495 42.9955 51.4125 43.1415C51.3582 43.3526 51.23 43.5012 51.0203 43.5481C50.8648 43.5846 50.7045 43.6185 50.5466 43.6237C50.2555 43.6367 49.9644 43.6315 49.6733 43.6263C49.4661 43.6237 49.2589 43.6237 49.0541 43.595C48.7655 43.5559 48.5212 43.4491 48.4201 43.0294C48.3929 42.9121 48.3757 42.7896 48.3732 42.6697C48.3683 42.2396 48.3683 41.8121 48.3732 41.382C48.3732 41.2569 48.3831 41.1292 48.4003 41.0041C48.4472 40.6757 48.6495 40.4463 48.9554 40.3811V40.3837Z" fill="#5E0421"/>
<path fill-rule="evenodd" clip-rule="evenodd" d="M43.3998 40.7903C43.3998 40.5531 43.39 40.3133 43.3308 40.0813C43.2099 39.62 42.9582 39.2837 42.5216 39.1273C42.2453 39.0283 41.9591 38.9787 41.668 38.9761C40.6664 38.9709 39.6648 38.9709 38.6633 38.9761C38.3623 38.9761 38.0687 39.0256 37.7826 39.1195C37.4002 39.2472 37.1313 39.5027 36.9857 39.9015C36.8821 40.183 36.8575 40.4775 36.8575 40.7747C36.855 42.1353 36.8575 43.496 36.8575 44.8566C36.8575 44.8983 36.8624 44.9427 36.8649 44.987H38.5893V44.8175C38.5893 43.6967 38.5893 42.5732 38.5893 41.4524C38.5893 41.3403 38.5893 41.2282 38.5967 41.1162C38.6411 40.6756 38.8458 40.441 39.1863 40.3837C39.3269 40.3602 39.4675 40.3342 39.6106 40.3316C39.9609 40.3237 40.3112 40.3211 40.664 40.3316C40.8465 40.3368 41.0291 40.3707 41.2092 40.4072C41.4534 40.4567 41.5915 40.6339 41.6409 40.8789C41.6754 41.0484 41.6927 41.2256 41.6927 41.4003C41.6976 42.5472 41.6927 43.6915 41.6927 44.8384V44.9922H43.3974C43.3974 44.94 43.4023 44.8931 43.4023 44.8436C43.4023 43.4934 43.4023 42.1405 43.4023 40.7903H43.3998Z" fill="#5E0421"/>
<path fill-rule="evenodd" clip-rule="evenodd" d="M33.4407 43.6315C32.2442 43.6315 31.0502 43.6315 29.8537 43.6315C29.7156 43.6315 29.5774 43.6211 29.4418 43.6003C29.1211 43.5507 28.904 43.363 28.8275 43.0216C28.8028 42.9043 28.788 42.7818 28.788 42.6619C28.7856 41.4863 28.788 40.3107 28.788 39.1351V38.9813H27.0685V39.0674C27.0685 40.4827 27.0685 41.8955 27.071 43.3109C27.071 43.4882 27.0908 43.6706 27.1278 43.8453C27.2363 44.3405 27.5101 44.682 27.9789 44.8436C28.3563 44.9739 28.7461 44.9974 29.1359 45C30.5889 45.0052 32.0444 45.0026 33.4974 45C33.532 45 33.5665 44.9948 33.5986 44.9922V43.6341H33.4407V43.6315Z" fill="#5E0421"/>
<path d="M36.0927 38.9813H34.393V44.9922H36.0927V38.9813Z" fill="#5E0421"/>
<path d="M45.8767 38.9787H44.1917V44.9922H45.8767V38.9787Z" fill="#5E0421"/>
<path fill-rule="evenodd" clip-rule="evenodd" d="M42.0233 26.4227C42.0233 26.3367 42.0134 26.248 41.9961 26.162C41.9493 25.9457 41.8358 25.7789 41.6335 25.7007C41.5373 25.6616 41.4287 25.6355 41.3251 25.6329C40.9896 25.6251 40.6516 25.6277 40.3137 25.6329C40.2248 25.6329 40.1336 25.659 40.0448 25.6798C39.7981 25.7371 39.6056 25.9952 39.6846 26.3549H40.1114C40.1114 26.3184 40.1114 26.2871 40.1114 26.2585C40.1163 26.1151 40.1286 26.0995 40.2619 26.0604C40.289 26.0525 40.3161 26.0421 40.3433 26.0421C40.6566 26.0421 40.9699 26.0343 41.2856 26.0421C41.4904 26.0473 41.5965 26.1985 41.5669 26.4149C41.4904 26.407 41.4139 26.3888 41.3374 26.3888C40.9452 26.3862 40.553 26.381 40.1607 26.3888C40.0546 26.3888 39.9436 26.4227 39.8425 26.467C39.6969 26.527 39.5982 26.6469 39.5834 26.8163C39.5711 26.9649 39.5612 27.1187 39.5785 27.2646C39.6106 27.5253 39.7635 27.6843 40.0053 27.7286C40.1089 27.7495 40.215 27.7547 40.3211 27.7599C40.4469 27.7651 40.5702 27.7599 40.696 27.7599C40.8219 27.7599 40.9353 27.7599 41.0562 27.7599C41.1796 27.7599 41.3152 27.7833 41.4263 27.7416C41.5521 27.6973 41.6508 27.7886 41.7692 27.7625C41.8432 27.7468 41.9246 27.7599 42.0183 27.7599C42.0183 27.726 42.0233 27.7077 42.0233 27.6895C42.0233 27.2646 42.0233 26.8397 42.0233 26.4149V26.4227ZM41.4041 27.3298C41.3424 27.3454 41.2758 27.3559 41.2141 27.3559C40.923 27.3585 40.6319 27.3559 40.3408 27.3559C40.3309 27.3559 40.3211 27.3559 40.3137 27.3559C40.0374 27.348 39.9461 27.2255 40.0127 26.944C40.0226 26.9023 40.067 26.8528 40.1064 26.8345C40.1582 26.8111 40.2224 26.8059 40.2816 26.8033C40.4469 26.798 40.6146 26.8033 40.7799 26.8033C40.9378 26.8033 41.0932 26.8006 41.2511 26.8033C41.3054 26.8033 41.3621 26.8137 41.4139 26.8293C41.5397 26.8684 41.5891 26.9466 41.5841 27.09C41.5792 27.2229 41.5274 27.2985 41.4041 27.3272V27.3298Z" fill="#5E0421"/>
<path fill-rule="evenodd" clip-rule="evenodd" d="M38.7299 25.6251C38.6435 25.6225 38.6016 25.6563 38.5572 25.7345C38.3204 26.162 38.0786 26.5869 37.8393 27.0118C37.8023 27.0769 37.7628 27.1395 37.7209 27.2125C37.4224 26.6781 37.1288 26.1568 36.8377 25.6381H36.2185V27.7573H36.6576V26.1229C36.9364 26.6182 37.2004 27.0848 37.4643 27.5514C37.5482 27.6991 37.6723 27.7712 37.8368 27.7677C37.8368 27.7677 37.8541 27.7625 37.864 27.7599C38.1699 27.2203 38.4758 26.6834 38.7792 26.1438L38.8088 26.1542V27.7625H39.2257V25.6303C39.0555 25.6303 38.8902 25.6355 38.7249 25.6303L38.7299 25.6251Z" fill="#5E0421"/>
<path fill-rule="evenodd" clip-rule="evenodd" d="M59.6028 25.6277C58.9984 25.6277 58.394 25.6277 57.7896 25.6329C57.6959 25.6329 57.5972 25.6616 57.5108 25.6981C57.3579 25.7632 57.2493 25.8857 57.2222 26.0604C57.2025 26.1881 57.2074 26.321 57.2074 26.454C57.2074 26.6964 57.3258 26.8684 57.5429 26.9466C57.5972 26.9649 57.6515 26.9779 57.7255 26.9987C57.4516 27.2568 57.1901 27.4992 56.904 27.7651C57.1013 27.7651 57.2641 27.7599 57.427 27.7651C57.5084 27.7677 57.5651 27.7416 57.6219 27.6817C57.8217 27.4732 58.0264 27.2672 58.2312 27.0639C58.2583 27.0352 58.3003 27.004 58.3348 27.004C58.6284 26.9987 58.9219 27.0014 59.2278 27.0014V27.7547H59.6645V25.6303C59.6374 25.6277 59.6201 25.6225 59.6028 25.6225V25.6277ZM59.2229 26.5843C58.7665 26.5843 58.3151 26.5843 57.8661 26.5843C57.834 26.5843 57.8019 26.5713 57.7723 26.5661C57.6959 26.5504 57.6465 26.5139 57.649 26.4201C57.649 26.3706 57.6441 26.3236 57.6465 26.2741C57.6515 26.1099 57.6934 26.0604 57.8488 26.0421C57.8587 26.0421 57.8661 26.0421 57.8759 26.0421C58.3225 26.0421 58.769 26.0421 59.2254 26.0421V26.5869L59.2229 26.5843Z" fill="#5E0421"/>
<path fill-rule="evenodd" clip-rule="evenodd" d="M47.495 26.4461C47.495 26.3367 47.4752 26.222 47.4407 26.1203C47.3297 25.7997 47.0879 25.6616 46.782 25.6329C46.5995 25.6172 46.4144 25.6303 46.2294 25.6303C46.0493 25.6303 45.8693 25.6199 45.6916 25.6303C45.2945 25.6616 44.9737 25.9248 44.9663 26.4331C44.9639 26.613 44.9663 26.7928 44.9663 26.9727C44.9713 27.3845 45.2155 27.6921 45.6053 27.7338C45.9013 27.7651 46.2023 27.7599 46.5008 27.7625C46.6192 27.7625 46.7401 27.7573 46.8585 27.7338C47.1743 27.6739 47.4111 27.4992 47.4678 27.1525C47.5048 26.9206 47.4999 26.6781 47.4999 26.4409L47.495 26.4461ZM47.046 27.03C47.0337 27.2021 46.9251 27.3037 46.7697 27.3272C46.5871 27.3532 46.4046 27.3559 46.2171 27.3689C46.0444 27.3559 45.8693 27.3532 45.6966 27.3272C45.5041 27.2959 45.4129 27.176 45.4055 26.9649C45.4005 26.7746 45.4005 26.5843 45.4055 26.394C45.4104 26.1855 45.5263 26.0499 45.7212 26.0421C46.0493 26.0317 46.3774 26.0317 46.7031 26.0421C46.8955 26.0473 47.0386 26.1855 47.0559 26.4018C47.0707 26.6078 47.0559 26.8189 47.0435 27.0274L47.046 27.03Z" fill="#5E0421"/>
<path fill-rule="evenodd" clip-rule="evenodd" d="M35.8337 26.1751C35.7522 25.8701 35.5253 25.6668 35.1577 25.6329C34.9752 25.6172 34.7901 25.6303 34.6051 25.6303V25.6172C34.499 25.6172 34.393 25.612 34.2869 25.6172C34.1537 25.6251 34.018 25.6277 33.8897 25.6642C33.5986 25.7424 33.4086 25.9405 33.3544 26.2585C33.31 26.5217 33.3198 26.7902 33.3445 27.0587C33.3766 27.4367 33.6356 27.7077 33.9859 27.7364C34.2844 27.7625 34.5829 27.7599 34.8814 27.7651C34.9998 27.7651 35.1207 27.7547 35.2391 27.7364C35.5623 27.6843 35.8016 27.4523 35.8435 27.1134C35.8756 26.8658 35.8657 26.6104 35.8682 26.3575C35.8682 26.295 35.8485 26.235 35.8312 26.1725L35.8337 26.1751ZM35.434 26.9518C35.4315 27.1551 35.3279 27.2855 35.1355 27.3272C35.064 27.3428 34.99 27.3532 34.9159 27.3532C34.7038 27.3559 34.4916 27.3559 34.2795 27.3532C34.2104 27.3532 34.1413 27.3428 34.0747 27.3272C33.8872 27.2855 33.7811 27.1656 33.7737 26.9675C33.7663 26.7772 33.7663 26.5869 33.7737 26.3966C33.7836 26.1803 33.9144 26.0473 34.1191 26.0395C34.277 26.0317 34.4324 26.0395 34.5903 26.0395C34.7482 26.0395 34.9036 26.0317 35.0615 26.0395C35.2959 26.0499 35.4315 26.2063 35.434 26.454C35.434 26.6208 35.434 26.785 35.434 26.9518Z" fill="#5E0421"/>
<path fill-rule="evenodd" clip-rule="evenodd" d="M53.3836 26.3732C53.3787 26.2689 53.3565 26.1594 53.3145 26.0656C53.1912 25.7815 52.9593 25.6537 52.6756 25.6303C52.493 25.6172 52.308 25.6277 52.123 25.6277C51.9429 25.6277 51.7628 25.6172 51.5827 25.6277C51.1757 25.6563 50.8673 25.9457 50.8624 26.407C50.8624 26.6025 50.8599 26.798 50.8624 26.9909C50.8698 27.3923 51.1115 27.6895 51.489 27.7312C51.7776 27.7625 52.0687 27.7573 52.3598 27.7625C52.493 27.7625 52.6263 27.7547 52.757 27.7338C53.0802 27.6791 53.3688 27.4393 53.3836 26.9857C53.391 26.7824 53.391 26.5765 53.3811 26.3706L53.3836 26.3732ZM52.9371 27.0613C52.9248 27.1968 52.8236 27.2803 52.7003 27.3194C52.6337 27.3402 52.5646 27.3506 52.4955 27.3532C52.2463 27.3585 51.9972 27.3585 51.748 27.3532C51.6765 27.3532 51.6025 27.335 51.5309 27.3115C51.4026 27.2672 51.3114 27.176 51.3064 27.03C51.299 26.7928 51.2941 26.553 51.3089 26.3158C51.3188 26.1542 51.4569 26.0473 51.6321 26.0395C51.7924 26.0317 51.9552 26.0395 52.1156 26.0395C52.2685 26.0395 52.419 26.0343 52.572 26.0395C52.7866 26.0499 52.9223 26.1646 52.9396 26.3914C52.9568 26.613 52.9494 26.8371 52.9297 27.0613H52.9371Z" fill="#5E0421"/>
<path fill-rule="evenodd" clip-rule="evenodd" d="M30.3175 26.9023H29.8982C29.8982 26.9258 29.8932 26.9414 29.8932 26.957C29.8858 27.1969 29.8192 27.3115 29.5947 27.3298C29.2518 27.3585 28.904 27.3637 28.5586 27.3428C28.3292 27.3298 28.2305 27.1708 28.2305 26.9232C28.2305 26.7485 28.228 26.5713 28.2305 26.3966C28.2354 26.1881 28.3637 26.0473 28.5611 26.0447C28.8793 26.0369 29.1975 26.0343 29.5158 26.0447C29.7847 26.0526 29.8833 26.1672 29.8932 26.4514C29.8932 26.4592 29.9006 26.467 29.908 26.48H30.3249C30.3545 26.0317 30.0733 25.659 29.6663 25.6381C29.2715 25.6172 28.8719 25.6146 28.4772 25.6381C28.1417 25.659 27.8555 25.8935 27.8136 26.2793C27.7865 26.5348 27.7791 26.7954 27.7939 27.0509C27.8111 27.3532 27.9468 27.5905 28.2305 27.6947C28.3415 27.7364 28.4624 27.7599 28.5808 27.7651C28.8842 27.7755 29.1901 27.7781 29.4936 27.7651C29.6342 27.7599 29.7773 27.7286 29.908 27.6791C30.2041 27.5618 30.3743 27.2255 30.3151 26.9049L30.3175 26.9023Z" fill="#5E0421"/>
<path fill-rule="evenodd" clip-rule="evenodd" d="M48.2622 25.6381V25.7919C48.2622 26.2011 48.2622 26.6104 48.2597 27.0196C48.2573 27.2438 48.1537 27.348 47.944 27.3532C47.8946 27.3532 47.8453 27.3532 47.7959 27.3532V27.7651C47.8379 27.7651 47.8749 27.7651 47.9119 27.7651C47.9538 27.7651 47.9958 27.7677 48.0377 27.7651C48.3732 27.7234 48.6298 27.5696 48.6841 27.1525C48.7063 26.9701 48.7013 26.785 48.7063 26.5999C48.7087 26.4149 48.7063 26.2324 48.7063 26.0473H50.0902V27.7573H50.5269V25.6355H48.2647L48.2622 25.6381Z" fill="#5E0421"/>
<path fill-rule="evenodd" clip-rule="evenodd" d="M30.6185 25.6355V26.0395H31.625V27.7599H32.0592V26.0369H33.0731V25.6355H30.6185Z" fill="#5E0421"/>
<path fill-rule="evenodd" clip-rule="evenodd" d="M42.2798 25.6355V26.0447H43.2863V27.7599H43.7255V26.0343H44.7345V25.6355H42.2798Z" fill="#5E0421"/>
<path fill-rule="evenodd" clip-rule="evenodd" d="M53.7512 25.6355V27.7573H54.1829V26.0395H55.6779V25.6355H53.7512Z" fill="#5E0421"/>
<path d="M56.4229 25.6329H55.9986V27.7573H56.4229V25.6329Z" fill="#5E0421"/>
<path d="M56.4204 24.8405H55.9986V25.2784H56.4204V24.8405Z" fill="#5E0421"/>
</g>
</svg>
