<svg width="64" height="64" viewBox="0 0 64 64" fill="none" xmlns="http://www.w3.org/2000/svg">
<rect width="64" height="64" fill="white"/>
<g clip-path="url(#clip0_1_2)">
<mask id="mask0_1_2" style="mask-type:luminance" maskUnits="userSpaceOnUse" x="7" y="18" width="54" height="25">
<path d="M61 18H7V43H61V18Z" fill="white"/>
</mask>
<g mask="url(#mask0_1_2)">
<path d="M58.462 23.439C58.462 23.25 58.5196 23.0671 58.6312 22.8994C58.7464 22.7348 58.9012 22.6067 59.0992 22.5061C59.2936 22.4116 59.506 22.3628 59.7328 22.3628C59.8984 22.3628 60.064 22.3902 60.2152 22.4451C60.37 22.497 60.5032 22.5762 60.6292 22.6738C60.7408 22.7744 60.838 22.8872 60.8992 23.0183C60.9712 23.1494 61 23.2866 61 23.4329C61 23.5793 60.9676 23.7226 60.8992 23.8506C60.838 23.9787 60.7444 24.0915 60.6292 24.1951C60.5032 24.2927 60.37 24.3719 60.2152 24.4238C60.0604 24.4726 59.8984 24.5031 59.7328 24.5031C59.5096 24.5031 59.2972 24.4542 59.0992 24.3597C58.9012 24.2652 58.7464 24.1372 58.6312 23.9665C58.5196 23.8018 58.462 23.622 58.462 23.4238M58.6492 23.439C58.6492 23.6006 58.6996 23.7531 58.7932 23.8963C58.8904 24.0366 59.02 24.1494 59.1856 24.2317C59.3512 24.3141 59.5312 24.3567 59.7292 24.3567C59.9272 24.3567 60.1036 24.3141 60.262 24.2348C60.4276 24.1524 60.5608 24.0457 60.658 23.9024C60.7516 23.7622 60.802 23.6098 60.802 23.4421C60.802 23.2744 60.7516 23.125 60.658 22.9817C60.5608 22.8415 60.4276 22.7317 60.262 22.6524C60.0964 22.5701 59.92 22.5305 59.7292 22.5305C59.5384 22.5305 59.3548 22.5732 59.1856 22.6555C59.02 22.7348 58.8868 22.8476 58.7932 22.9878C58.6996 23.1281 58.6492 23.2774 58.6492 23.439ZM59.2576 24.0701V22.811H59.8228C59.8804 22.811 59.9344 22.8171 59.9992 22.8323C60.0604 22.8476 60.1252 22.8811 60.172 22.9329C60.2224 22.9848 60.2476 23.0549 60.2476 23.1433C60.2476 23.2165 60.2296 23.2744 60.1864 23.3201C60.1504 23.3689 60.1 23.4116 60.0388 23.436C59.9812 23.4634 59.92 23.4726 59.8624 23.4726H59.83L60.3016 24.0579H60.0208L59.5672 23.4787H59.4988V24.0579H59.254V24.064L59.2576 24.0701ZM59.4988 22.9726V23.3232H59.704C59.8192 23.3232 59.8984 23.3049 59.9344 23.2774C59.9704 23.2409 59.992 23.2012 59.992 23.1463C59.992 23.0915 59.9776 23.0457 59.938 23.0152C59.902 22.9848 59.8408 22.9726 59.7364 22.9726H59.4952H59.4988Z" fill="#00528E"/>
<path d="M57.076 24.6463H49.768C49.66 24.6463 49.444 24.6463 49.336 24.6768C49.228 24.6768 49.012 24.7073 48.904 24.7073C48.796 24.7073 48.58 24.7378 48.472 24.7683C48.364 24.7987 48.184 24.8292 48.076 24.8597C47.968 24.8902 47.788 24.9207 47.68 24.9512C47.572 24.9817 47.392 25.0122 47.284 25.0427C47.176 25.0732 46.996 25.1341 46.888 25.1646C46.78 25.1951 46.636 25.2561 46.528 25.2866C46.42 25.3171 46.276 25.3781 46.168 25.439C46.06 25.4695 45.916 25.561 45.808 25.5914C45.7 25.6219 45.556 25.7134 45.448 25.7744C45.34 25.8354 45.196 25.9268 45.124 25.9573C45.052 26.0183 44.908 26.1097 44.8 26.1707C44.692 26.2317 44.548 26.3232 44.476 26.3841C44.404 26.4451 44.26 26.5366 44.188 26.6281C44.116 26.689 44.008 26.811 43.936 26.8719C43.864 26.9329 43.756 27.0549 43.648 27.1159C43.576 27.1768 43.468 27.2987 43.396 27.3902C43.324 27.4512 43.216 27.5732 43.144 27.6646C43.072 27.7561 43 27.8781 42.928 27.9695C42.892 28.061 42.784 28.1829 42.712 28.2744C42.64 28.3659 42.568 28.4878 42.532 28.5792C42.496 28.6707 42.424 28.7927 42.352 28.8841C42.316 28.9756 42.208 29.1281 42.172 29.2195C42.136 29.311 42.064 29.4634 42.028 29.5549C41.992 29.6463 41.956 29.7987 41.92 29.8902C41.884 29.9817 41.848 30.1341 41.812 30.1951C41.776 30.2866 41.668 30.0732 41.56 29.7378L40.12 25.439C40.012 25.1036 39.688 24.8292 39.436 24.8292H35.836C35.548 24.8292 35.224 25.1036 35.116 25.439L32.488 33.2439C32.38 33.5792 32.272 33.5792 32.272 33.2134V25.4085C32.272 25.0732 31.948 24.7683 31.516 24.7683H27.484C27.052 24.7683 26.728 24.9207 26.728 25.0732C26.728 25.2561 26.728 25.3476 26.692 25.3171C26.656 25.2866 26.584 25.1646 26.548 25.0427C26.476 24.9207 26.368 24.7378 26.296 24.6463C26.224 24.5244 26.116 24.3719 26.008 24.25C25.936 24.1585 25.828 23.9756 25.72 23.8841C25.648 23.7927 25.504 23.6097 25.432 23.5183C25.36 23.4268 25.216 23.2439 25.108 23.1524C25 23.061 24.856 22.9085 24.748 22.8171C24.64 22.7256 24.496 22.5732 24.388 22.5122C24.28 22.4207 24.1 22.2988 24.028 22.2073C23.92 22.1158 23.776 21.9939 23.632 21.9024C23.524 21.8415 23.344 21.7195 23.236 21.628C23.128 21.5671 22.948 21.4451 22.84 21.3536C22.732 21.2927 22.516 21.1707 22.408 21.1097C22.264 21.0488 22.084 20.9573 21.94 20.8963C21.796 20.8354 21.616 20.7439 21.472 20.7134C21.328 20.6524 21.148 20.5915 21.004 20.5305C20.86 20.5 20.644 20.4085 20.536 20.378C20.392 20.3476 20.176 20.2561 20.032 20.2256C19.888 20.1951 19.672 20.1341 19.528 20.1036C19.384 20.0732 19.168 20.0427 19.024 20.0122C18.88 19.9817 18.664 19.9512 18.52 19.9207C18.376 19.8902 18.124 19.8902 17.98 19.8597C17.836 19.8597 16.432 19.8293 16.396 19.8293C16.36 19.8293 16 19.8293 15.568 19.8293H7.86401C7.432 19.8293 7.072 20.1646 7.072 20.5V38.1524C7.072 38.4878 7.396 38.7927 7.82801 38.7927H15.64C16.036 38.7927 17.836 38.7927 17.98 38.7622C18.124 38.7622 18.376 38.7317 18.52 38.7012C18.664 38.6707 18.916 38.6402 19.024 38.6402C19.168 38.6097 19.384 38.5792 19.528 38.5487C19.672 38.5183 19.888 38.4573 20.032 38.4268C20.176 38.3963 20.392 38.3354 20.536 38.3049C20.68 38.2744 20.896 38.1829 21.004 38.1524C21.148 38.0914 21.328 38.0305 21.472 37.9695C21.616 37.939 21.796 37.8476 21.94 37.7866C22.048 37.7256 22.264 37.6341 22.408 37.5732C22.552 37.5122 22.732 37.4207 22.84 37.3292C22.948 37.2683 23.128 37.1463 23.236 37.0854C23.344 37.0244 23.524 36.9024 23.632 36.811C23.74 36.7195 23.92 36.5976 24.028 36.5061L24.388 36.2012C24.496 36.1097 24.64 35.9573 24.748 35.8659C24.856 35.7744 25 35.6219 25.108 35.5305C25.216 35.439 25.36 35.2866 25.432 35.1951C25.504 35.1036 25.648 34.9512 25.72 34.8292C25.792 34.7073 25.9 34.5549 26.008 34.4329C26.08 34.311 26.188 34.1585 26.296 34.0366C26.368 33.9146 26.476 33.7622 26.548 33.6402C26.62 33.5183 26.692 33.3963 26.692 33.3659C26.728 33.3354 26.728 33.5792 26.728 33.9451V38.2134C26.728 38.5792 27.052 38.8536 27.484 38.8536H35.332C35.764 38.8536 36.124 38.5487 36.196 38.1829L37.528 31.9634C37.6 31.6281 37.708 31.6281 37.78 31.9634L39.076 38.1829C39.148 38.5183 39.544 38.8232 39.976 38.8232L43.972 38.8536C44.404 38.8536 44.62 38.5792 44.512 38.2439L44.188 37.2378C44.08 36.9024 44.008 36.6585 44.044 36.689L44.26 36.8719C44.332 36.9329 44.476 37.0549 44.548 37.1159C44.62 37.1768 44.764 37.2683 44.872 37.3292C44.98 37.3902 45.124 37.4817 45.196 37.5122C45.268 37.5732 45.412 37.6646 45.52 37.6951C45.628 37.7561 45.772 37.8171 45.88 37.8781C45.988 37.9085 46.132 38 46.24 38.0305C46.348 38.0609 46.528 38.1524 46.6 38.1829C46.708 38.2134 46.852 38.2744 46.96 38.3049C47.068 38.3354 47.248 38.3963 47.356 38.4268C47.464 38.4573 47.644 38.5183 47.752 38.5487C47.86 38.5792 48.04 38.6097 48.148 38.6402C48.256 38.6707 48.436 38.7012 48.544 38.7012C48.652 38.7317 48.868 38.7317 48.976 38.7622C49.084 38.7622 49.3 38.7927 49.408 38.7927C49.516 38.7927 49.732 38.8232 49.876 38.8232H57.076C57.472 38.8232 57.832 38.5487 57.832 38.1829V25.2866C57.832 24.9207 57.508 24.6463 57.076 24.6463ZM21.904 30.8354C21.904 31.1707 21.58 31.4146 21.22 31.4146H19.168C18.772 31.4146 18.484 31.689 18.484 31.9939V33.7317C18.484 34.0671 18.16 34.311 17.8 34.311H14.38C13.984 34.311 13.696 34.0366 13.696 33.7317V31.9939C13.696 31.6585 13.372 31.4146 13.012 31.4146H10.924C10.528 31.4146 10.24 31.1402 10.24 30.8354V27.9085C10.24 27.5732 10.564 27.3292 10.924 27.3292H13.012C13.408 27.3292 13.696 27.0549 13.696 26.75V25.0122C13.696 24.6768 14.02 24.4329 14.38 24.4329H17.8C18.196 24.4329 18.484 24.7073 18.484 25.0122V26.75C18.484 27.0854 18.808 27.3292 19.168 27.3292H21.22C21.58 27.3292 21.904 27.6036 21.904 27.9085V30.8354ZM52.828 34.3719C52.828 34.6768 52.54 34.9207 52.144 34.9207H50.416C50.38 34.9207 50.308 34.8902 50.272 34.8902C50.236 34.8902 50.164 34.8597 50.164 34.8597H50.092C50.056 34.8597 49.984 34.8292 49.948 34.8292C49.912 34.7987 49.84 34.7987 49.804 34.7683C49.768 34.7378 49.696 34.7378 49.66 34.7073C49.624 34.6768 49.552 34.6463 49.516 34.6463C49.48 34.6159 49.408 34.5854 49.372 34.5854C49.336 34.5854 49.264 34.5549 49.228 34.5244C49.192 34.4939 49.12 34.4634 49.084 34.4329C49.048 34.4024 48.976 34.3719 48.94 34.3414C48.904 34.311 48.832 34.2805 48.832 34.25C48.796 34.2195 48.76 34.189 48.724 34.1585C48.688 34.1281 48.616 34.0976 48.616 34.0671C48.58 34.0366 48.544 34.0061 48.508 33.9756C48.472 33.9451 48.436 33.9146 48.4 33.8841C48.364 33.8536 48.328 33.8232 48.292 33.7927C48.256 33.7622 48.22 33.7012 48.22 33.6707C48.184 33.6402 48.148 33.5792 48.148 33.5487C48.112 33.5183 48.076 33.4573 48.076 33.4268C48.04 33.3963 48.004 33.3354 48.004 33.3049C47.968 33.2744 47.932 33.2134 47.932 33.1829C47.932 33.1524 47.896 33.0914 47.86 33.061C47.86 33.0305 47.824 32.9695 47.824 32.939C47.824 32.9085 47.788 32.8476 47.788 32.8171C47.752 32.7866 47.752 32.7256 47.752 32.6951C47.752 32.6646 47.716 32.6036 47.716 32.5732C47.716 32.5427 47.68 32.4817 47.68 32.4207C47.68 32.3902 47.644 32.3292 47.644 32.2987V32.0549C47.644 32.0244 47.608 31.9634 47.608 31.9024V31.75C47.608 31.689 47.608 31.6281 47.644 31.6281V31.3841C47.644 31.3536 47.68 31.2927 47.68 31.2622C47.68 31.2317 47.716 31.1707 47.716 31.1402C47.716 31.1097 47.752 31.0487 47.752 31.0183C47.752 30.9878 47.788 30.9268 47.788 30.8963C47.824 30.8659 47.824 30.8049 47.824 30.7744C47.824 30.7439 47.86 30.6829 47.86 30.6524C47.896 30.6219 47.896 30.561 47.932 30.5305C47.968 30.5 48.004 30.439 48.004 30.4085C48.04 30.3781 48.076 30.3171 48.076 30.2866C48.112 30.2561 48.148 30.1951 48.148 30.1646C48.184 30.1341 48.22 30.0732 48.22 30.0732C48.256 30.0427 48.292 30.0122 48.292 29.9817C48.328 29.9512 48.364 29.9207 48.4 29.8902C48.436 29.8597 48.472 29.7987 48.508 29.7683C48.544 29.7378 48.58 29.7073 48.616 29.6768C48.652 29.6463 48.688 29.6159 48.724 29.5854C48.76 29.5549 48.832 29.5244 48.832 29.4939C48.868 29.4634 48.904 29.4329 48.94 29.4024C48.976 29.3719 49.048 29.3414 49.084 29.311C49.12 29.2805 49.192 29.25 49.228 29.2195C49.264 29.189 49.336 29.1585 49.372 29.1585C49.408 29.1585 49.48 29.1281 49.516 29.0976C49.552 29.0671 49.624 29.0671 49.66 29.0366C49.696 29.0061 49.768 28.9756 49.804 28.9756C49.84 28.9756 49.912 28.9451 49.948 28.9451C49.984 28.9146 50.056 28.9146 50.092 28.8841C50.128 28.8841 50.164 28.8536 50.164 28.8536C50.164 28.8536 50.236 28.8536 50.272 28.8232C50.308 28.8232 50.38 28.7927 50.416 28.7927H52.144C52.504 28.7927 52.828 29.0366 52.828 29.311V34.3719Z" fill="#005092"/>
<path d="M7.14401 40.1341C7.14401 40.3476 7.36001 40.5305 7.61201 40.5305H57.76C58.012 40.5305 58.228 40.3476 58.228 40.1341C58.228 39.9208 58.012 39.7378 57.76 39.7378H7.61201C7.36001 39.7378 7.14401 39.9208 7.14401 40.1341Z" fill="#B30931"/>
<path d="M9.016 42.8476H8.368L8.044 41.9329L7.936 42.8476H7.18L7.468 41.1098H8.368L8.692 42.0854L9.016 41.0793H9.916L10.204 42.8171H9.412L9.304 41.9024L9.016 42.8476Z" fill="#005092"/>
<path d="M10.96 42.8476V41.1098H12.4V41.6281H11.788V41.7805H12.328V42.2073H11.788V42.3598H12.4V42.8781L10.96 42.8476Z" fill="#005092"/>
<path d="M13.444 41.1098H15.244V42.3598H15.496V43.2134H14.776V42.8781H13.696V43.2134H12.976V42.3598C13.084 42.3598 13.192 42.3292 13.264 42.2683C13.336 42.2073 13.372 42.1464 13.372 42.0549C13.372 41.9634 13.408 41.9024 13.408 41.811V41.1098H13.444ZM14.164 41.5976V41.8414C14.164 41.9634 14.164 42.0854 14.128 42.1464C14.092 42.2073 14.056 42.2683 13.984 42.3292H14.416V41.5976H14.164Z" fill="#005092"/>
<path d="M16.216 41.1098H17.008V41.9939L17.584 41.1098H18.34V42.8476H17.548V41.9939L16.972 42.8476H16.216V41.1098Z" fill="#005092"/>
<path d="M20.284 42.8476V42.2378C20.176 42.2378 20.104 42.2683 20.068 42.2683H19.888C19.708 42.2683 19.564 42.2378 19.456 42.2073C19.348 42.1768 19.276 42.1159 19.24 42.0854C19.204 42.0244 19.168 41.9634 19.168 41.9024V41.1098H19.96V41.5061C19.96 41.5671 19.96 41.6281 19.996 41.689C19.996 41.75 20.068 41.75 20.104 41.7805H20.32V41.1402H21.148V42.8781H20.284V42.8476Z" fill="#005092"/>
<path d="M21.976 42.8476V41.1098H22.804V41.7195H23.2V41.1098H24.028V42.8476H23.2V42.2073H22.804V42.8476H21.976Z" fill="#005092"/>
<path d="M24.712 42.8476L25.432 41.1098H26.332L27.052 42.8476H26.188L26.116 42.6037H25.612L25.54 42.8476H24.712ZM25.756 42.1464H26.044L25.9 41.689L25.756 42.1464Z" fill="#005092"/>
<path d="M29.5 41.1098H31.408V42.8476H30.58V41.5976H30.256V42.2378C30.256 42.3292 30.256 42.3903 30.22 42.4513C30.22 42.5122 30.184 42.5732 30.112 42.6341C30.076 42.6951 29.968 42.7561 29.86 42.7866C29.752 42.8171 29.572 42.8476 29.392 42.8476C29.284 42.8476 29.212 42.8476 29.068 42.8171V42.3292C29.104 42.3292 29.14 42.3598 29.212 42.3598C29.284 42.3598 29.356 42.3293 29.392 42.2988C29.428 42.2683 29.464 42.2073 29.464 42.1768V41.1098H29.5Z" fill="#005092"/>
<path d="M32.092 42.8476L32.812 41.1098H33.712L34.432 42.8476H33.568L33.496 42.6037H32.992L32.92 42.8476H32.092ZM33.136 42.1464H33.424L33.28 41.7195L33.136 42.1464Z" fill="#005092"/>
<path d="M35.116 42.8476V41.1098H36.844V41.6281H35.944V41.7805H36.232C36.448 41.7805 36.628 41.811 36.772 41.8719C36.952 41.9329 37.024 42.0854 37.024 42.2988C37.024 42.3903 36.988 42.4817 36.952 42.5427C36.916 42.6341 36.844 42.6951 36.7 42.7561C36.592 42.8171 36.412 42.8476 36.196 42.8476H35.116ZM35.944 42.4208H36.016C36.16 42.4208 36.232 42.3903 36.232 42.2988C36.232 42.2073 36.16 42.1768 36.016 42.1768H35.944V42.4208Z" fill="#005092"/>
<path d="M38.932 42.9085C38.752 42.9085 38.572 42.8781 38.428 42.8476C38.284 42.8171 38.14 42.7256 38.032 42.6646C37.924 42.5732 37.852 42.4817 37.78 42.3598C37.708 42.2378 37.708 42.1159 37.708 41.9939C37.708 41.8719 37.744 41.75 37.78 41.6281C37.852 41.5061 37.924 41.4146 38.032 41.3232C38.14 41.2317 38.248 41.1707 38.428 41.1402C38.572 41.1097 38.752 41.0793 38.932 41.0793C39.112 41.0793 39.292 41.1097 39.436 41.1402C39.58 41.2012 39.724 41.2622 39.832 41.3232C39.94 41.4146 40.012 41.5061 40.084 41.6281C40.156 41.75 40.156 41.8719 40.156 41.9939C40.156 42.1159 40.12 42.2378 40.084 42.3598C40.012 42.4817 39.94 42.5732 39.832 42.6646C39.724 42.7561 39.616 42.8171 39.436 42.8476C39.256 42.8781 39.112 42.9085 38.932 42.9085ZM38.932 42.3598C39.04 42.3598 39.148 42.3293 39.22 42.2683C39.292 42.2073 39.328 42.1159 39.328 41.9939C39.328 41.8719 39.292 41.7805 39.22 41.7195C39.148 41.6586 39.04 41.6281 38.932 41.6281C38.86 41.6281 38.788 41.6585 38.716 41.689C38.644 41.7195 38.608 41.75 38.572 41.811C38.536 41.8719 38.536 41.9329 38.536 41.9939C38.536 42.0549 38.572 42.1159 38.572 42.1768C38.608 42.2378 38.644 42.2683 38.716 42.2987C38.752 42.3292 38.824 42.3598 38.932 42.3598Z" fill="#005092"/>
<path d="M40.912 42.8476V41.1098H41.992C42.172 41.1098 42.352 41.1403 42.46 41.2013C42.568 41.2622 42.676 41.3232 42.712 41.4146C42.784 41.5061 42.784 41.5976 42.784 41.7195C42.784 41.8414 42.748 41.9329 42.712 42.0244C42.64 42.1159 42.568 42.1768 42.46 42.2378C42.352 42.2988 42.172 42.3292 41.992 42.3292H41.74V42.8781H40.912V42.8476ZM41.704 41.5671V41.8719H41.812C41.956 41.8719 41.992 41.811 41.992 41.7195C41.992 41.6281 41.92 41.5671 41.812 41.5671H41.704Z" fill="#005092"/>
<path d="M43.36 42.8476L44.08 41.1098H44.98L45.7 42.8476H44.872L44.8 42.6037H44.296L44.224 42.8476H43.36ZM44.404 42.1464H44.692L44.548 41.689L44.404 42.1464Z" fill="#005092"/>
<path d="M46.672 42.8476V41.5976H46.24V41.0793H47.932V41.5976H47.5V42.8476H46.672Z" fill="#005092"/>
<path d="M49.732 42.9085C49.552 42.9085 49.372 42.8781 49.228 42.8476C49.084 42.8171 48.94 42.7256 48.832 42.6646C48.724 42.5732 48.652 42.4817 48.58 42.3598C48.508 42.2378 48.508 42.1159 48.508 41.9939C48.508 41.8719 48.544 41.75 48.58 41.6281C48.652 41.5061 48.724 41.4146 48.832 41.3232C48.94 41.2317 49.048 41.1707 49.228 41.1402C49.372 41.1097 49.552 41.0793 49.732 41.0793C49.912 41.0793 50.092 41.1097 50.236 41.1402C50.38 41.2012 50.524 41.2622 50.632 41.3232C50.74 41.4146 50.812 41.5061 50.884 41.6281C50.956 41.75 50.956 41.8719 50.956 41.9939C50.956 42.1159 50.92 42.2378 50.884 42.3598C50.812 42.4817 50.74 42.5732 50.632 42.6646C50.524 42.7561 50.416 42.8171 50.236 42.8476C50.092 42.8781 49.912 42.9085 49.732 42.9085ZM49.732 42.3598C49.84 42.3598 49.948 42.3293 50.02 42.2683C50.092 42.2073 50.128 42.1159 50.128 41.9939C50.128 41.8719 50.092 41.7805 50.02 41.7195C49.948 41.6586 49.84 41.6281 49.732 41.6281C49.66 41.6281 49.588 41.6585 49.516 41.689C49.444 41.7195 49.408 41.75 49.372 41.811C49.336 41.8719 49.336 41.9329 49.336 41.9939C49.336 42.0549 49.336 42.1159 49.372 42.1768C49.408 42.2378 49.444 42.2683 49.516 42.2987C49.588 42.3292 49.66 42.3598 49.732 42.3598Z" fill="#005092"/>
<path d="M51.712 42.8476V41.1098H52.792C52.972 41.1098 53.152 41.1403 53.26 41.2013C53.368 41.2622 53.476 41.3232 53.512 41.4146C53.548 41.5061 53.584 41.5976 53.584 41.7195C53.584 41.8414 53.548 41.9329 53.512 42.0244C53.44 42.1159 53.368 42.1768 53.26 42.2378C53.152 42.2988 52.972 42.3292 52.792 42.3292H52.54V42.8781H51.712V42.8476ZM52.54 41.5671V41.8719H52.648C52.792 41.8719 52.828 41.811 52.828 41.7195C52.828 41.6281 52.756 41.5671 52.648 41.5671H52.54Z" fill="#005092"/>
<path d="M54.376 42.8476V41.1098H55.204V42.8476H54.376Z" fill="#005092"/>
<path d="M55.96 42.8476L56.428 42.2073L56.212 42.1159C56.14 42.0854 56.104 42.0244 56.068 41.9634C56.032 41.9024 55.996 41.811 55.996 41.7195C55.996 41.5366 56.068 41.4146 56.212 41.2927C56.356 41.1707 56.572 41.1098 56.896 41.1098H57.94V42.8476H57.112V42.3598L56.86 42.8476H55.96ZM57.112 41.9024V41.5671H57.04C56.896 41.5671 56.788 41.6281 56.788 41.7195C56.788 41.8414 56.86 41.8719 57.04 41.8719L57.112 41.9024Z" fill="#005092"/>
<path fill-rule="evenodd" clip-rule="evenodd" d="M32.812 21.0183C32.812 22.7256 31.156 24.1281 29.14 24.1281C27.124 24.1281 25.468 22.7256 25.468 21.0183C25.468 19.311 27.124 17.9085 29.14 17.9085C31.156 17.9085 32.812 19.311 32.812 21.0183Z" fill="#B30931"/>
</g>
</g>
<defs>
<clipPath id="clip0_1_2">
<rect width="54" height="25" fill="white" transform="translate(7 18)"/>
</clipPath>
</defs>
</svg>
