<svg width="64" height="64" viewBox="0 0 64 64" fill="none" xmlns="http://www.w3.org/2000/svg">
<g clip-path="url(#clip0_1_2)">
<rect width="64" height="64" fill="black"/>
<g clip-path="url(#clip1_1_2)">
<mask id="mask0_1_2" style="mask-type:alpha" maskUnits="userSpaceOnUse" x="0" y="0" width="64" height="64">
<path d="M32.4923 64C46.2986 64 53.9746 64 58.9873 58.9088C64 53.8177 64 46.0271 64 32C64 17.9729 64 10.1823 58.9873 5.09117C53.9746 0 46.2986 0 32.4923 0C18.6855 0 11.0103 0 5.99749 5.09117C0.984615 10.1823 0.984615 17.9775 0.984615 32C0.984615 46.0225 0.984615 53.8177 5.99749 58.9088C11.0103 64 18.6855 64 32.4923 64Z" fill="url(#paint0_linear_1_2)"/>
</mask>
<g mask="url(#mask0_1_2)">
<path d="M64.6265 -0.605957H0.39994V64.6242H64.6265V-0.605957Z" fill="black"/>
</g>
<path d="M44.3254 25.6729C41.9446 25.6729 40.1782 27.539 40.1782 29.8414C40.1782 31.7214 41.4799 33.1883 43.1281 33.6224L39.7499 38.8772H42.9046L45.7767 33.9868H47.9262V38.8772H50.56V25.6729H44.3254ZM44.6878 31.7528C43.6047 31.7528 42.9332 30.8894 42.9332 29.9052C42.9332 28.9211 43.5486 27.9834 44.6878 27.9834H47.9291V31.7528H44.6878Z" fill="white"/>
<path d="M29.9008 25.6729L29.0265 28.1169L32.6134 28.096L30.4896 36.0084C29.8841 38.3155 32.2511 40.0586 34.2715 38.7019L38.8667 35.5361L37.5138 33.5168L32.9246 36.7453L36.0172 25.6729H29.9008Z" fill="white"/>
<path d="M34.8495 23.975C35.8558 23.975 36.672 23.2283 36.672 22.3073C36.672 21.3863 35.8558 20.6396 34.8495 20.6396C33.8432 20.6396 33.027 21.3863 33.027 22.3073C33.027 23.2283 33.8432 23.975 34.8495 23.975Z" fill="white"/>
<path d="M25.5518 36.4401V22.6045H15.4452V29.9888C15.4452 33.4634 14.4545 35.6115 13.8706 36.4343H12.6731V42.469H15.236V38.9016H24.8182V42.4748H27.3802V36.4401H25.5518ZM17.9933 29.8368V25.059H22.9238V36.432H16.5593C17.1363 35.4734 17.9933 33.034 17.9933 29.8368Z" fill="white"/>
</g>
</g>
<defs>
<linearGradient id="paint0_linear_1_2" x1="0.984615" y1="19.5955" x2="64" y2="19.5955" gradientUnits="userSpaceOnUse">
<stop stop-color="#13C7FF"/>
<stop offset="1" stop-color="#FFFF36"/>
</linearGradient>
<clipPath id="clip0_1_2">
<rect width="64" height="64" fill="white"/>
</clipPath>
<clipPath id="clip1_1_2">
<rect width="64" height="64" fill="white"/>
</clipPath>
</defs>
</svg>
