<svg width="64" height="64" viewBox="0 0 64 64" fill="none" xmlns="http://www.w3.org/2000/svg">
<rect width="64" height="64" fill="white"/>
<path d="M19.715 11.3007H10V52.5629H19.715C30.2232 52.5629 38.7487 43.3219 38.7487 31.9318C38.6494 20.5418 30.1241 11.3007 19.715 11.3007Z" fill="#FFE300"/>
<path d="M18.7984 22.7188V44.4586H39.3145C42.5605 44.4586 45.1935 41.6045 45.1935 38.0861V25.9093C45.1935 22.391 42.5605 19.5369 39.3145 19.5369H21.6653C20.7984 19.5369 20.1008 18.7764 20.1008 17.8411V10.0088H20.2298V10H10V21.0229H17.2339C18.1008 21.0229 18.7984 21.7834 18.7984 22.7188Z" fill="#FFE500"/>
<path d="M39.3145 10L20.1008 10.0088V17.8411C20.1008 18.7807 20.8024 19.5369 21.6653 19.5369H39.3145C42.5605 19.5369 45.1935 22.391 45.1935 25.9093V38.0861C45.1935 41.6045 42.5605 44.4586 39.3145 44.4586H18.7984V22.7188C18.7984 21.779 18.0968 21.0229 17.2339 21.0229H10V54H39.3186C47.4274 54 54 46.8756 54 38.0861V25.9093C53.9959 17.1243 47.4234 10 39.3145 10Z" fill="black"/>
</svg>
