<svg width="64" height="64" viewBox="0 0 64 64" fill="none" xmlns="http://www.w3.org/2000/svg">
<rect width="64" height="64" fill="white"/>
<g clip-path="url(#clip0_1_2)">
<path fill-rule="evenodd" clip-rule="evenodd" d="M7.29034 33.1093C7.22887 33.4459 7.29034 34.1737 7.47475 34.5659C7.78211 35.2381 8.39681 35.5741 9.19539 35.5741C10.1175 35.5741 10.7936 35.2941 11.2234 35.0141L11.4078 36.0224C10.8546 36.359 9.93304 36.639 8.88804 36.639C6.86059 36.639 6 35.2376 6 33.5571C6 31.2044 7.72064 28.6273 10.1789 28.6273C11.6537 28.6273 12.4528 29.5234 12.4528 30.5883C12.3299 32.6049 10.1175 33.1649 7.29034 33.1088V33.1093ZM9.9325 29.6361C8.70363 29.6361 7.78157 30.8683 7.41328 32.101C9.44074 32.101 11.1004 31.821 11.1004 30.6444C11.1004 29.9722 10.6087 29.6361 9.9325 29.6361ZM18.8441 32.9415C18.5982 34.2859 18.4753 35.6302 18.5368 36.5268H17.3074C17.3074 36.0785 17.3694 35.3502 17.4923 34.5098H17.4308C16.5702 36.0785 15.5258 36.6951 14.4813 36.6951C13.129 36.6951 12.2684 35.6302 12.2684 34.1176C12.2684 31.4288 14.2349 28.6278 17.5538 28.6278C18.2909 28.6278 19.09 28.74 19.5812 28.9078L18.8441 32.9415ZM17.2475 29.6361C15.281 29.6361 13.6833 31.7088 13.6218 33.8376C13.6218 34.6781 13.9292 35.5181 14.9122 35.5181C16.0181 35.5181 17.309 34.0615 17.6778 32.0449L18.1075 29.6922C17.9846 29.6922 17.6778 29.6361 17.2475 29.6361ZM24.4342 29.9722C24.1883 29.8039 23.6971 29.6356 23.0824 29.6356C22.2832 29.6356 21.73 30.14 21.73 30.8122C21.73 31.3727 22.0988 31.7088 22.775 32.101C23.6356 32.6049 24.1883 33.2776 24.1883 34.1176C24.1883 35.742 22.8979 36.6385 21.2388 36.6385C20.4397 36.6385 19.702 36.3585 19.3337 36.1346L19.7025 35.182C20.0708 35.4063 20.747 35.6863 21.3617 35.6863C22.2218 35.6863 22.8365 35.1259 22.8365 34.4537C22.8365 33.8376 22.5906 33.5015 21.7915 33.0537C20.9314 32.5493 20.4397 31.8766 20.4397 31.0927C20.4397 29.7478 21.6076 28.6834 23.2053 28.6834C23.8809 28.6834 24.4956 28.8517 24.803 29.0756L24.4342 29.9722ZM28.9204 34.622C28.1213 36.3024 27.3222 37.6468 26.2777 38.6551C25.4172 39.5517 24.4951 39.8878 24.0653 40L23.758 38.8795C24.0653 38.7673 24.6186 38.5429 25.1713 38.1512C25.663 37.759 26.2163 37.1429 26.6466 36.3585C26.708 36.2463 26.708 36.1341 26.708 36.022L25.1713 28.7956H26.5236L27.2607 32.941C27.4451 33.8376 27.5066 34.3976 27.6296 34.9581H27.691C27.8754 34.4537 28.1213 33.9493 28.4901 33.0532L30.4567 28.7395H31.747L28.9204 34.622Z" fill="#252525"/>
<path fill-rule="evenodd" clip-rule="evenodd" d="M28.7414 38.1512C28.7414 38.1512 32.1827 32.9971 32.7974 30.5883C33.4121 28.1795 33.473 26.8907 31.0768 26.6663C28.6179 26.4424 25.8528 26.6663 25.8528 26.6663C25.8528 26.6663 29.7244 24.4259 34.8254 24.5941C39.9873 24.7063 42.9368 26.6668 42.9368 26.6668C42.9368 26.6668 41.8314 27.059 40.0488 27.1707C38.2667 27.339 37.5905 27.6751 37.714 29.5239C37.8364 31.3727 38.574 32.661 38.574 32.661C38.574 32.661 35.6854 30.9244 33.9033 32.661C32.1212 34.3976 31.7524 35.182 30.7079 36.3024C29.7244 37.4229 28.7414 38.1512 28.7414 38.1512Z" fill="#136BB5"/>
<path fill-rule="evenodd" clip-rule="evenodd" d="M34.6879 19.9981C34.9854 19.9969 35.2803 20.0491 35.5555 20.1515C35.8306 20.254 36.0806 20.4048 36.291 20.5951C36.5014 20.7854 36.6681 21.0116 36.7813 21.2605C36.8946 21.5094 36.9523 21.7762 36.951 22.0454C36.9522 22.3145 36.8945 22.5812 36.7812 22.8301C36.6679 23.0789 36.5012 23.305 36.2908 23.4953C36.0804 23.6856 35.8304 23.8363 35.5553 23.9388C35.2802 24.0412 34.9854 24.0934 34.6879 24.0922C34.3904 24.0933 34.0957 24.0411 33.8206 23.9386C33.5456 23.8362 33.2957 23.6854 33.0853 23.4951C32.875 23.3049 32.7084 23.0788 32.5951 22.83C32.4818 22.5811 32.4241 22.3145 32.4253 22.0454C32.4253 20.9078 33.4935 19.9981 34.6879 19.9981Z" fill="#F8A81B"/>
<path fill-rule="evenodd" clip-rule="evenodd" d="M42.1361 36.639C41.337 36.639 40.7837 36.4707 40.4764 36.3024H40.4149L39.8002 39.6078H38.5104L40.0466 31.4849C40.231 30.5327 40.354 29.5239 40.4764 28.7395H41.6443L41.3984 30.1961H41.4599C42.1361 29.1878 43.1805 28.5717 44.1641 28.5717C45.8232 28.5717 46.4989 29.9161 46.4989 31.3727C46.5603 34.118 44.6553 36.639 42.1361 36.639ZM43.7322 29.6922C42.6877 29.6922 41.3974 30.8683 41.0285 33.0532L40.6597 35.182C40.9671 35.4624 41.5198 35.6307 42.1345 35.6307C43.7936 35.6307 45.2069 33.5015 45.2069 31.4844C45.2069 30.6444 44.8386 29.6922 43.7322 29.6922ZM53.2579 32.941C53.0121 34.2859 52.8897 35.6302 52.9506 36.5268H51.7217C51.7217 36.0785 51.7832 35.3502 51.9061 34.5102H51.8447C50.9841 36.0785 50.0011 36.6951 48.8951 36.6951C47.5428 36.6951 46.6827 35.6302 46.6827 34.118C46.6827 31.4288 48.6493 28.6278 51.9671 28.6278C52.7052 28.6278 53.5038 28.74 53.9956 28.9078L53.2579 32.9415V32.941ZM51.6597 29.6361C49.6932 29.6361 48.0955 31.7093 48.0955 33.8376C48.0955 34.678 48.4028 35.5185 49.3864 35.5185C50.4918 35.5185 51.7826 34.062 52.1515 32.0454L52.5818 29.6922C52.3974 29.6922 52.09 29.6361 51.6597 29.6361ZM58.1734 34.6215C57.3743 36.3024 56.5752 37.6468 55.5307 38.6556C54.6696 39.5512 53.7486 39.8878 53.3183 40L53.011 38.8795C53.3183 38.7673 53.8716 38.5434 54.4243 38.1512C54.916 37.759 55.4693 37.1429 55.8996 36.3585C55.961 36.2463 55.961 36.1341 55.961 36.0224L54.4243 28.7956H55.7766L56.5137 32.941C56.6981 33.8376 56.7596 34.3976 56.8825 34.958H56.944C57.1284 34.4537 57.3743 33.9498 57.7431 33.0532L59.6482 28.7395H61L58.1729 34.622L58.1734 34.6215Z" fill="#252525"/>
</g>
<defs>
<clipPath id="clip0_1_2">
<rect width="55" height="20" fill="white" transform="translate(6 20)"/>
</clipPath>
</defs>
</svg>
