<svg width="64" height="64" viewBox="0 0 64 64" fill="none" xmlns="http://www.w3.org/2000/svg">
<g clip-path="url(#clip0_1_2)">
<rect width="64" height="64" fill="white"/>
<g clip-path="url(#clip1_1_2)">
<path d="M36.6867 59.8063H34.2265V56.8356H36.3208V54.2451H34.2265V51.6846H36.454V48.967H30.9031V62.525H36.6867V59.8063Z" fill="#1B4A96"/>
<path d="M10.8074 51.6532H11.8386V62.525H15.1617V48.935H7.48401V62.525H10.8074V51.6532Z" fill="#1B4A96"/>
<path d="M6.34874 59.5541H3.65609V56.2672H5.94984V53.4233H3.65609V50.5786H6.11592V47.6078H0V62.525H6.34874V59.5541Z" fill="#1B4A96"/>
<path d="M41.1452 56.8356H42.1754V62.525H45.4996V48.967H42.1754V53.834H41.1452V48.967H37.8218V62.525H41.1452V56.8356Z" fill="#1B4A96"/>
<path d="M48.4019 62.525H51.7262V51.6846H53.7197V48.967H46.4405V51.6846H48.4019V62.525Z" fill="#1B4A96"/>
<path d="M19.6204 48.967H16.2967V62.525H19.6204V48.967Z" fill="#1B4A96"/>
<path d="M29.9621 59.5541H29.1975V47.6078H25.5416V59.5541H24.4113V47.6078H20.7555V62.525H27.4358V64H29.9621V59.5541Z" fill="#1B4A96"/>
<path d="M58.3095 54.4856C57.3399 54.4856 56.5496 53.6968 56.5496 52.7274C56.5496 51.7593 57.3399 50.9709 58.3095 50.9709C59.2808 50.9709 60.0713 51.7593 60.0713 52.7274C60.0713 53.6968 59.2808 54.4856 58.3095 54.4856ZM61.7123 50.879C61.6271 50.4744 61.4616 50.1296 61.2153 49.8456C60.9693 49.5612 60.6007 49.3435 60.1119 49.1934C59.6209 49.0424 58.9251 48.967 58.0217 48.967H54.6609V62.525H57.9843V57.0568H58.8848C59.6144 57.0568 60.2049 56.9511 60.6581 56.7394C61.1102 56.5277 61.4213 56.2234 61.5891 55.8274C61.7562 55.4315 61.8402 54.801 61.8402 53.9366V52.7569C61.8402 51.9096 61.7979 51.2834 61.7123 50.879Z" fill="#1B4A96"/>
<path d="M58.5576 53.6038L58.1783 52.8735V53.6038H57.6193V51.8525H58.1783V52.6038L58.5349 51.8525H59.1778L58.7 52.7172L59.2447 53.6038H58.5576ZM58.3095 51.3924C57.5721 51.3924 56.9712 51.9927 56.9712 52.7273C56.9712 53.4646 57.5721 54.0628 58.3095 54.0628C59.0487 54.0628 59.6488 53.4646 59.6488 52.7273C59.6488 51.9927 59.0487 51.3924 58.3095 51.3924Z" fill="#1B4A96"/>
<path d="M63.1318 49.761C63.1202 49.7784 63.104 49.7907 63.0813 49.7988C63.0528 49.8096 63.0109 49.8149 62.9563 49.8149H62.7233V49.595H62.9892C63.0485 49.595 63.0928 49.6058 63.1169 49.6265C63.139 49.6463 63.1495 49.6704 63.1495 49.7014C63.1495 49.7231 63.1439 49.7425 63.1318 49.761ZM63.4825 50.4141L63.3051 50.1356C63.271 50.084 63.2355 50.0416 63.1993 50.0054C63.2484 49.9856 63.29 49.9598 63.3222 49.9261C63.3795 49.8655 63.4085 49.7897 63.4085 49.7014C63.4085 49.634 63.3917 49.5714 63.3576 49.5159C63.3222 49.4578 63.2736 49.4167 63.2142 49.3935C63.1588 49.3722 63.0833 49.3622 62.9833 49.3622H62.4677V50.5059H62.7233V50.0511H62.8214C62.8621 50.0511 62.8782 50.0537 62.8847 50.0549C62.8974 50.0582 62.9124 50.0649 62.9273 50.0741C62.9363 50.0805 62.9542 50.0951 62.9812 50.129C63.0054 50.1598 63.0376 50.2059 63.0763 50.2657C63.0756 50.2655 63.2119 50.4783 63.2119 50.4783L63.2289 50.5058H63.5408L63.4825 50.4141Z" fill="#1B4A96"/>
<path d="M62.94 48.8811C62.3555 48.8811 61.8801 49.3557 61.8801 49.939C61.8801 50.5218 62.3555 50.9963 62.94 50.9963C63.5244 50.9963 64 50.5218 64 49.939C64 49.3557 63.5244 48.8811 62.94 48.8811ZM63.7842 49.939C63.7842 50.403 63.4053 50.7809 62.94 50.7809C62.4742 50.7809 62.0959 50.403 62.0959 49.939C62.0959 49.4742 62.4742 49.0966 62.94 49.0966C63.4053 49.0966 63.7842 49.4742 63.7842 49.939Z" fill="#1B4A96"/>
<path d="M30.3582 42.3023C21.3422 42.3023 14.0072 34.9842 14.0072 25.9888C14.0072 17.9752 19.8299 11.2977 27.4747 9.93419V13.5053C27.4747 14.464 27.9272 15.3458 28.6812 15.9044V18.9033H21.9446C21.1663 18.9033 20.4618 19.296 20.053 19.9645C19.6568 20.6296 19.6335 21.459 19.9906 22.126L28.5016 38.3362C28.8838 39.0638 29.6352 39.5166 30.4612 39.5166C31.2913 39.5166 32.0419 39.0629 32.4183 38.3362L40.9342 22.1287C41.2929 21.4514 41.2681 20.6208 40.8656 19.9545C40.4661 19.3066 39.744 18.9033 38.9808 18.9033H32.2416V15.9061C33.0002 15.3458 33.455 14.4631 33.455 13.5053V9.97229C40.9948 11.4204 46.7094 18.0497 46.7094 25.9888C46.7094 34.9842 39.3743 42.3023 30.3582 42.3023ZM33.455 6.27524V2.97905C33.455 1.3358 32.1121 6.39217e-07 30.4612 6.39217e-07C28.8145 6.39217e-07 27.4747 1.3358 27.4747 2.97905V6.24515C17.8089 7.64428 10.3591 15.9631 10.3591 25.9888C10.3591 36.9909 19.3307 45.9421 30.3582 45.9421C41.3858 45.9421 50.3575 36.9909 50.3575 25.9888C50.3575 16.0369 43.0173 7.76464 33.455 6.27524Z" fill="#1B4A96"/>
</g>
</g>
<defs>
<clipPath id="clip0_1_2">
<rect width="64" height="64" fill="white"/>
</clipPath>
<clipPath id="clip1_1_2">
<rect width="64" height="64" fill="white"/>
</clipPath>
</defs>
</svg>
