<svg width="64" height="64" viewBox="0 0 64 64" fill="none" xmlns="http://www.w3.org/2000/svg">
<rect width="64" height="64" fill="#72BF44" fill-opacity="0.15"/>
<g clip-path="url(#clip0_1_2)">
<path d="M15.4885 16.0738C11.865 14.1492 7.89388 15.395 7.89388 15.395C7.89388 15.395 8.47335 18.5486 12.256 20.1254C16.276 21.8014 20.4817 21.2246 20.4817 21.2246C20.4817 21.2246 19.2781 18.0849 15.4885 16.0738Z" fill="#72BF44"/>
<path d="M22.5024 36.757C21.2279 38.1468 19.5994 39.1636 17.7912 39.6983C14.8254 40.5936 12.0244 39.8994 10.5303 38.3115C9.81267 37.5988 9.35909 36.6628 9.24433 35.6578C14.8813 36.4469 20.7654 35.8045 23.2788 32.9078C24.9292 31.0182 25.3286 27.9763 23.4505 25.4623C21.8112 23.2751 18.023 21.8156 13.5213 22.2709C7.61482 22.8715 2.3088 26.9022 2.01278 33.4092C1.70838 40.0601 7.00323 45.0014 14.2529 45.0014C18.8943 45.0014 22.7384 43.4413 24.6695 41.4511C24.6695 41.433 24.6569 41.4106 24.65 41.3911C24.0422 39.8003 23.3246 38.2538 22.5024 36.7626V36.757ZM13.0228 27.0698C14.9679 26.3422 17.6474 26.426 18.2031 28.1648C18.6737 29.6299 17.3123 31.2849 14.4652 31.7765C13.006 32.0293 10.9157 32.0782 9.18848 31.6369C9.31415 30.5321 10.2413 28.1117 13.0228 27.0712V27.0698Z" fill="#F58220"/>
<path fill-rule="evenodd" clip-rule="evenodd" d="M37.3354 22.8268L31.2432 37.6201C30.4403 35.2919 28.7005 31.8352 26.6353 28.9511C26.1243 30.9916 25.1594 33.3953 23.6151 35.4553C25.1385 37.6997 26.7261 41.4483 27.6086 44.426H34.6251L44.1648 22.8268H37.3354Z" fill="#72BF44"/>
<path fill-rule="evenodd" clip-rule="evenodd" d="M58.9169 24.5168C56.7805 22.8198 54.418 22.2821 51.9995 22.1927C49.9583 22.1402 47.9211 22.4012 45.959 22.9665L43.5336 28.5531C43.5574 28.5778 43.5826 28.6011 43.609 28.6229C46.033 27.0866 49.0351 26.6299 51.4647 26.9679C54.0312 27.3254 55.2348 29.0405 55.2348 30.7151C51.7594 30.2123 48.0326 30.338 45.1436 31.176C40.7829 32.433 39.1464 35.9246 39.5764 39.1648C39.9828 42.2137 42.8718 45.0014 47.8957 45.0014C51.5262 45.0014 54.5185 42.5475 55.3772 40.9511V44.4148L62 44.405V31.933C62 28.1774 60.8355 26.0405 58.9169 24.5168ZM51.2665 39.2221C49.3214 39.9497 46.6418 39.8659 46.0847 38.1285C45.6155 36.6634 46.977 35.0084 49.8241 34.5154C51.2832 34.264 53.3721 34.2151 55.1008 34.655C54.9737 35.7626 54.0479 38.1816 51.2665 39.2221Z" fill="#72BF44"/>
</g>
<defs>
<clipPath id="clip0_1_2">
<rect width="60" height="30" fill="white" transform="translate(2 15)"/>
</clipPath>
</defs>
</svg>
