<svg width="64" height="64" viewBox="0 0 64 64" fill="none" xmlns="http://www.w3.org/2000/svg">
<g clip-path="url(#clip0_1_2)">
<rect width="64" height="64" fill="#E72F2A"/>
<g clip-path="url(#clip1_1_2)">
<path d="M44.1492 0H0V44.1492C0 55.2136 9.00339 64.3254 20.0678 64.3254H44.0407C55.1051 64.3254 64.217 55.2136 64.217 44.1492V20.1763C64.3254 9.11187 55.2136 0 44.1492 0Z" fill="#E72F2A"/>
<path d="M46.9695 26.1424H42.522H40.0271L35.4712 18.5492C35.1458 18.0068 34.3864 17.7898 33.7356 18.1153L33.1932 18.4407C32.6508 18.7661 32.4339 19.5254 32.7593 20.1763L34.8203 23.539L36.339 26.1424L38.5085 29.722C38.2915 29.5051 37.9661 29.2881 37.7492 29.0712L35.3627 26.1424H28.7458L26.3593 29.0712C26.1424 29.2881 25.9254 29.6136 25.6 29.722L27.7695 26.1424L29.2881 23.539L31.3492 20.1763C31.6746 19.6339 31.5661 18.7661 30.9153 18.4407L30.3729 18.1153C29.8305 17.7898 28.9627 17.8983 28.6373 18.5492L24.0814 26.1424H21.5864H17.139C16.5966 26.1424 16.0542 26.6847 16.0542 27.2271L16.1627 29.2881C16.1627 29.8305 16.7051 30.1559 17.2475 30.1559H17.7898L19.6339 41.9797C20.1763 44.2576 21.6949 44.2576 23.8644 44.2576H41.0034C43.0644 44.2576 44.0407 44.0407 44.6915 41.8712L46.5356 30.2644H47.078C47.6203 30.2644 48.1627 29.8305 48.1627 29.3966V27.1186C48.1627 26.5763 47.5119 26.1424 46.9695 26.1424ZM24.1898 27.878C24.4068 27.5525 24.8407 27.4441 25.1661 27.661C25.4915 27.878 25.6 28.3119 25.3831 28.6373C25.1661 28.9627 24.7322 29.0712 24.4068 28.8542C24.1898 28.5288 23.9729 28.2034 24.1898 27.878ZM24.9492 41.1119H24.4068C23.8644 41.1119 23.4305 40.7864 23.4305 40.461L22.0203 32.4339C21.9119 31.8915 22.3458 31.2407 22.9966 31.2407H23.539C24.1898 31.2407 24.7322 31.6746 24.8407 32.2169L25.9254 40.461C25.8169 40.8949 25.4915 41.1119 24.9492 41.1119ZM30.0475 41.1119H29.5051C28.9627 41.1119 28.5288 40.7864 28.5288 40.461L27.878 32.2169C27.878 31.6746 28.3119 31.2407 28.8542 31.2407H29.3966C30.0475 31.2407 30.5898 31.6746 30.5898 32.2169L30.9153 40.461C31.0237 40.8949 30.5898 41.1119 30.0475 41.1119ZM36.122 40.461C36.122 40.8949 35.5797 41.1119 35.1458 41.1119H34.6034C34.061 41.1119 33.6271 40.7864 33.6271 40.461L33.7356 32.2169C33.7356 31.6746 34.278 31.2407 34.9288 31.2407H35.4712C36.122 31.2407 36.5559 31.6746 36.5559 32.2169L36.122 40.461ZM40.0271 27.878C40.2441 28.2034 40.1356 28.6373 39.8102 28.8542C39.4847 29.0712 39.0508 28.8542 38.8339 28.6373C38.6169 28.3119 38.7254 27.878 39.0508 27.661C39.3763 27.3356 39.8102 27.4441 40.0271 27.878ZM42.4136 32.4339L41.2203 40.461C41.1119 40.8949 40.7864 41.1119 40.2441 41.1119H39.5932C39.0508 41.1119 38.617 40.7864 38.7254 40.461L39.5932 32.2169C39.7017 31.6746 40.2441 31.2407 40.8949 31.2407H41.4373C42.0881 31.2407 42.522 31.8915 42.4136 32.4339Z" fill="white"/>
</g>
</g>
<defs>
<clipPath id="clip0_1_2">
<rect width="64" height="64" fill="white"/>
</clipPath>
<clipPath id="clip1_1_2">
<rect width="64" height="64" fill="white"/>
</clipPath>
</defs>
</svg>
