<svg width="64" height="64" viewBox="0 0 64 64" fill="none" xmlns="http://www.w3.org/2000/svg">
<rect width="64" height="64" fill="#FDC500"/>
<g clip-path="url(#clip0_1_2)">
<path d="M52.9431 22.2844C55.251 20.0948 59.0085 21.2543 59.7151 24.3377C59.9528 25.3745 59.7692 26.446 59.2339 27.3475C59.1832 27.4327 59.1039 27.5525 58.9958 27.7071C58.3687 28.603 57.7395 29.4974 57.1081 30.3903C56.8362 30.7745 56.6299 31.1336 56.1393 31.1891C55.7921 31.2285 55.4217 31.2315 55.0992 31.1232C54.9064 31.0586 54.7784 30.9229 54.6496 30.7405C53.9582 29.7612 53.2666 28.782 52.5746 27.8028C52.3784 27.5249 52.1987 27.249 52.0617 26.9493C51.3443 25.3805 51.6862 23.477 52.9431 22.2844ZM57.4284 26.4069C58.3873 25.0322 57.3479 23.1423 55.7045 23.1933C54.6998 23.2242 53.8996 23.9338 53.7384 24.9297C53.7109 25.0987 53.7197 25.2686 53.7197 25.4397C53.7197 25.4706 53.7345 25.4948 53.7364 25.5272C53.7389 25.5664 53.7404 25.5882 53.7412 25.5927C53.8182 26.0212 53.996 26.2863 54.2517 26.6535C54.7459 27.3628 55.2392 28.0654 55.7318 28.7612C55.7459 28.7812 55.7601 28.7812 55.7743 28.7612C56.3417 27.9594 56.8931 27.1746 57.4284 26.4069Z" fill="#1FAA90"/>
<path d="M21.298 37.6657C21.298 38.2662 20.8561 38.7346 20.2556 38.7329C19.7613 38.7316 19.3725 38.4202 19.2378 37.9369C19.229 37.9055 19.2365 37.8617 19.2196 37.8249C19.2169 37.819 19.2155 37.8127 19.2155 37.8061V26.919C19.2155 26.9169 19.2161 26.9147 19.2174 26.9129C19.2186 26.9111 19.2203 26.9097 19.2224 26.9089C19.2323 26.9048 19.2363 26.8907 19.2344 26.8665C19.2333 26.851 19.2341 26.8371 19.237 26.8248C19.4914 25.7407 21.044 25.7556 21.2774 26.8436C21.2821 26.8657 21.277 26.9043 21.2928 26.9318C21.2964 26.9378 21.2982 26.9445 21.2982 26.9517C21.2984 30.523 21.2983 34.0943 21.298 37.6657Z" fill="#00A082"/>
<path d="M6.46807 30.6424C7.22364 28.3921 9.13994 26.7423 11.5005 26.4659C13.1673 26.271 14.8693 26.5763 16.2774 27.5386C16.6426 27.7881 16.8225 28.0636 16.8429 28.5196C16.8437 28.5364 16.8394 28.5647 16.8303 28.6043C16.8215 28.6428 16.8305 28.6836 16.8208 28.721C16.7299 29.0692 16.5325 29.3129 16.2284 29.4522C15.8645 29.619 15.4686 29.5665 15.1506 29.3208C15.0942 29.2773 14.9735 29.1973 14.7886 29.0808C13.9282 28.5393 12.9038 28.2968 11.8876 28.4023C10.6174 28.5341 9.55155 29.2748 8.94992 30.4002C8.44664 31.3417 8.27229 32.4085 8.4475 33.4736C8.80263 35.6342 10.4716 37.0088 12.6449 36.9167C13.5931 36.8765 14.4577 36.5897 15.2388 36.0563C15.2878 36.0228 15.3183 35.9884 15.3185 35.9234C15.3186 35.2206 15.3186 34.5189 15.3185 33.8182C15.3185 33.809 15.3149 33.8001 15.3084 33.7936C15.3019 33.787 15.2931 33.7833 15.2839 33.7832C14.5412 33.7809 13.794 33.7805 13.0425 33.7819C13.0105 33.7821 12.9869 33.7791 12.9719 33.7731C12.9653 33.7705 12.9585 33.7692 12.9515 33.7692C12.4439 33.7774 12.0255 33.4042 12.0248 32.8837C12.0248 32.8802 12.0227 32.8742 12.0186 32.8657C12.0156 32.8595 12.0154 32.8533 12.0182 32.8469C12.0405 32.7957 12.0218 32.7292 12.0381 32.6633C12.1296 32.294 12.4064 31.9858 12.7954 31.9463C12.8371 31.9422 12.8708 31.9286 12.9107 31.9286C14.0762 31.9286 15.2416 31.9286 16.4069 31.9286C16.4137 31.9286 16.42 31.9305 16.4258 31.9344C16.4522 31.9521 16.4814 31.9413 16.5082 31.9478C16.9353 32.0515 17.249 32.3387 17.3297 32.7856C17.3368 32.8242 17.3308 32.8908 17.3434 32.9409C17.3497 32.9656 17.3529 32.9862 17.3529 33.003C17.3529 34.1171 17.3529 35.2312 17.3529 36.3454C17.3529 36.397 17.3288 36.4459 17.3385 36.5055C17.3396 36.5127 17.3383 36.5193 17.3344 36.5254C17.3168 36.5537 17.3215 36.5824 17.3168 36.6051C17.1938 37.1814 16.7468 37.487 16.2789 37.7666C14.4957 38.8323 12.279 39.1718 10.2788 38.5497C7.07098 37.552 5.60171 34.2275 6.34998 31.0577C6.38348 30.9156 6.42284 30.7771 6.46807 30.6424Z" fill="#00A082"/>
<path d="M29.9578 29.9118C31.2765 30.5657 32.1701 31.8197 32.4261 33.2683C32.6906 34.7656 32.2483 36.2551 31.2282 37.3603C30.1491 38.5296 28.4904 39.0223 26.9402 38.8036C24.6834 38.4853 23.0196 36.7246 22.8851 34.4142C22.8177 33.2549 23.1778 32.1252 23.8705 31.212C24.4165 30.4922 25.1866 29.9609 26.0371 29.6648C27.3228 29.2169 28.7399 29.3081 29.9578 29.9118ZM25.2704 32.7171C24.4755 34.4136 25.2476 36.5973 27.2086 36.9794C27.3406 37.0052 27.4735 37.0183 27.6075 37.0189C27.6573 37.0191 27.7076 37.0414 27.7643 37.0327C27.8222 37.0238 27.8555 37.0193 27.8641 37.0191C28.0157 37.0155 28.1656 36.9968 28.3139 36.963C29.4424 36.7062 30.1828 35.8123 30.3764 34.6893C30.5871 33.4686 30.0707 32.1617 28.9718 31.553C28.4101 31.2418 27.723 31.1578 27.1004 31.2743C26.29 31.4255 25.6199 31.9714 25.2704 32.7171Z" fill="#00A082"/>
<path d="M52.238 33.2737C52.8256 36.7151 49.8566 39.3702 46.5414 38.774C43.8676 38.2934 42.2131 35.7373 42.8057 33.0777C43.383 30.4868 45.911 28.9792 48.4648 29.4738C50.4097 29.8507 51.9 31.2957 52.238 33.2737ZM45.6156 31.9586C44.4151 33.1492 44.4976 35.4019 45.849 36.4467C46.2549 36.7605 46.7117 36.9447 47.2193 36.9993C48.9501 37.1855 50.2126 35.8683 50.2244 34.1919C50.2321 33.1149 49.7494 32.109 48.8039 31.5709C47.7928 30.9959 46.4495 31.1314 45.6156 31.9586Z" fill="#00A082"/>
<path d="M37.5948 36.1712C37.6034 36.2028 37.6137 36.2033 37.6255 36.1729C38.3956 34.2017 39.1641 32.2273 39.9309 30.2498C40.1153 29.774 40.4402 29.4758 40.9632 29.465C40.9773 29.4647 40.9994 29.4688 41.0296 29.4773C41.0598 29.4857 41.0946 29.4799 41.1232 29.4851C41.7645 29.605 42.0986 30.2241 41.8889 30.8432C41.8732 30.889 41.8301 30.9934 41.7594 31.1565C40.7958 33.3794 39.8353 35.6038 38.8728 37.8271C38.674 38.2863 38.382 38.683 37.878 38.8018C37.7134 38.8407 37.446 38.8353 37.279 38.7971C36.759 38.6782 36.4972 38.2482 36.2997 37.7929C34.8548 34.4628 33.8781 32.2094 33.3695 31.0329C33.222 30.6921 33.1806 30.3421 33.3704 30.0041C33.7498 29.3295 34.7366 29.2837 35.1579 29.9352C35.2028 30.0048 35.2624 30.1352 35.3367 30.3265C36.0879 32.26 36.8359 34.1947 37.5807 36.1306C37.5878 36.1493 37.5925 36.1629 37.5948 36.1712Z" fill="#00A082"/>
<path d="M55.8439 34.1434C56.4735 34.0846 56.9376 33.5349 56.8805 32.9155C56.8234 32.2962 56.2668 31.8418 55.6372 31.9005C55.0076 31.9593 54.5435 32.509 54.6006 33.1284C54.6577 33.7477 55.2143 34.2022 55.8439 34.1434Z" fill="#1FAA90"/>
</g>
<defs>
<clipPath id="clip0_1_2">
<rect width="54" height="18" fill="white" transform="translate(6 21)"/>
</clipPath>
</defs>
</svg>
