<svg width="64" height="64" viewBox="0 0 64 64" fill="none" xmlns="http://www.w3.org/2000/svg">
<rect width="64" height="64" fill="white"/>
<path d="M57.52 32.6042C57.52 30.7192 57.3508 28.9067 57.0367 27.1667H32V37.4617H46.3067C45.6783 40.7725 43.7933 43.5758 40.9658 45.4608V52.155H49.5933C54.62 47.515 57.52 40.7 57.52 32.6042Z" fill="#4285F4"/>
<path d="M32 58.5833C39.1775 58.5833 45.195 56.215 49.5933 52.155L40.9658 45.4608C38.5975 47.0558 35.5767 48.0225 32 48.0225C25.0883 48.0225 19.2158 43.3583 17.1133 37.075H8.26833V43.9383C12.6425 52.6142 21.6083 58.5833 32 58.5833Z" fill="#34A853"/>
<path d="M17.1133 37.0508C16.5817 35.4558 16.2675 33.7642 16.2675 32C16.2675 30.2358 16.5817 28.5442 17.1133 26.9492V20.0858H8.26833C6.45583 23.6625 5.41667 27.6983 5.41667 32C5.41667 36.3017 6.45583 40.3375 8.26833 43.9142L15.1558 38.5492L17.1133 37.0508Z" fill="#FBBC05"/>
<path d="M32 16.0017C35.915 16.0017 39.395 17.355 42.1742 19.965L49.7867 12.3525C45.1708 8.05082 39.1775 5.41666 32 5.41666C21.6083 5.41666 12.6425 11.3858 8.26833 20.0858L17.1133 26.9492C19.2158 20.6658 25.0883 16.0017 32 16.0017Z" fill="#EA4335"/>
</svg>
