<svg width="64" height="64" viewBox="0 0 64 64" fill="none" xmlns="http://www.w3.org/2000/svg">
<rect width="64" height="64" fill="#183E33"/>
<g clip-path="url(#clip0_1_2)">
<rect width="57" height="10" transform="translate(4 27)" fill="#183E33"/>
<path d="M55.1876 36.9123V27.0877H57.9388C59.7213 27.0877 61 28.4035 61 30.1579C61 31.9123 59.7213 33.2281 57.9388 33.2281H57.0476V36.8684H55.1876V36.9123ZM57.8613 28.9298H57.0476V31.4298H57.8613C58.5588 31.4298 59.0625 30.9474 59.0625 30.2018C59.0625 29.4561 58.5975 28.9298 57.8613 28.9298Z" fill="#C0E5D2"/>
<path d="M44.9966 32C44.9966 29.0614 46.8953 27 49.4915 27C52.0877 27 53.9864 29.1053 53.9864 32C53.9864 34.8947 52.0877 37 49.4915 37C46.8953 37 44.9966 34.8947 44.9966 32ZM47.0116 32C47.0116 33.8421 48.019 35.0702 49.4915 35.0702C50.964 35.0702 52.0102 33.8421 52.0102 32C52.0102 30.1579 51.0027 28.9298 49.4915 28.9298C47.9803 28.9298 47.0116 30.1579 47.0116 32Z" fill="#C0E5D2"/>
<path d="M40.4242 36.9123V28.9298H37.9055V27.1316H44.8416V28.9298H42.3229V36.9123H40.4629H40.4242Z" fill="#C0E5D2"/>
<path d="M24.0721 36.9123V27.0877H29.6907V28.886H25.9708V30.9474H29.3032V32.7456H25.9708V34.9825H29.6907V36.8246H24.0721V36.9123Z" fill="#C0E5D2"/>
<path d="M18.6084 36.9123V28.9298H16.0897V27.1316H23.0258V28.9298H20.5071V36.9123H18.6472H18.6084Z" fill="#C0E5D2"/>
<path d="M7.56492 36.8684V27.1316H9.23114L13.1835 33.2719V27.1316H15.0823V36.8246H13.416L9.46363 30.6842V36.8246H7.56492V36.8684Z" fill="#C0E5D2"/>
<path d="M4 36.9123V27.1316H5.85996V32.0219V36.9123H4Z" fill="#C0E5D2"/>
<path d="M31.0857 27.0877V36.8684H32.9456V33.2281H33.7593C33.7593 33.3596 33.8368 33.4912 33.9143 33.7105C34.0693 34.1491 34.3406 34.7193 34.7281 35.3772C34.9993 35.8596 35.3481 36.386 35.8131 36.9123H38.603C37.4793 35.9912 36.743 35.0263 36.278 34.2368C35.968 33.7105 35.7743 33.2719 35.6581 32.9649C36.7043 32.4825 37.363 31.4737 37.363 30.2018C37.363 28.9298 36.0843 27.1316 34.3018 27.1316H31.1244L31.0857 27.0877ZM32.9456 28.9298H34.1468C34.8443 28.9298 35.3481 29.4561 35.3481 30.1579C35.3481 30.8596 34.8831 31.386 34.1468 31.386H32.9456V28.886V28.9298Z" fill="#C0E5D2"/>
</g>
<defs>
<clipPath id="clip0_1_2">
<rect width="57" height="10" fill="white" transform="translate(4 27)"/>
</clipPath>
</defs>
</svg>
