<svg width="64" height="64" viewBox="0 0 64 64" fill="none" xmlns="http://www.w3.org/2000/svg">
<g clip-path="url(#clip0_1_2)">
<rect width="64" height="64" fill="#034694"/>
<path d="M67 16H0V48H67V16Z" fill="#034694"/>
<path d="M22.6275 24.4065V34.2602C22.6275 37.1725 20.6373 39.263 17.7992 39.263C16.3368 39.263 14.7187 38.6019 13.5679 37.6728L15.3158 33.1524C15.5754 33.8492 15.8782 34.689 16.6829 34.689C17.5136 34.689 17.5828 33.7152 17.5828 33.0988V24.4065H22.6275Z" fill="white"/>
<path d="M29.2471 24.4065L30.8219 28.23H30.969C31.1161 27.7655 31.2546 27.301 31.4363 26.8543L32.4487 24.4065H38.2462L33.4005 32.7236V39.0307H28.3645V32.7236L23.4236 24.4065H29.2471Z" fill="white"/>
<path d="M38.7134 33.7957L38.973 34.0101C39.8902 34.7515 40.9978 35.3501 42.1833 35.3501C42.6938 35.3501 43.4985 35.1357 43.4985 34.4746C43.4985 33.8135 42.8236 33.7599 42.3563 33.6616L41.3266 33.4651C39.3191 33.0988 37.6231 31.8749 37.6231 29.5879C37.6231 26.1128 40.6863 24.1742 43.7668 24.1742C45.3849 24.1742 46.8645 24.5852 48.2577 25.4517L46.8645 29.1949C45.9819 28.5785 44.9868 28.0871 43.8792 28.0871C43.4293 28.0871 42.7717 28.2658 42.7717 28.8643C42.7717 29.4093 43.412 29.4807 43.8014 29.579L44.9695 29.847C47.1501 30.3473 48.7249 31.5533 48.7249 34.0369C48.7249 37.5299 45.6445 39.2541 42.5813 39.2541C40.7988 39.2541 38.7307 38.7538 37.1299 37.914L38.7134 33.7957Z" fill="white"/>
<path d="M50.2565 24.4065H55.2752L55.1627 30.7493H55.2752C55.3877 30.1508 55.7079 29.6237 55.9848 29.0966L58.4682 24.4065H64.0839L59.6536 31.5265L64.5599 39.0307H58.5893L56.1492 34.6086C55.8463 34.0458 55.3964 33.5008 55.2839 32.9023H55.1714L55.2839 39.0307H50.2651V24.4065H50.2565Z" fill="white"/>
<path d="M4.99277 21.3423C4.7851 21.3512 4.60339 21.4227 4.47359 21.5656C4.3438 21.6996 4.27457 21.8961 4.28323 22.1106C4.29188 22.4411 4.46494 22.8074 4.75049 23.0932C5.24371 23.5846 5.89268 23.6829 6.2388 23.3166C6.36859 23.1736 6.42916 22.995 6.42916 22.7895C6.42916 22.4679 6.26476 22.0927 5.9619 21.7889C5.67635 21.4941 5.31293 21.3333 4.99277 21.3423Z" fill="white"/>
<path d="M7.01756 47.9911C7.22524 47.2049 7.28581 46.383 7.28581 46.383C7.31177 46.1597 7.32907 45.9363 7.33772 45.7041C7.46752 42.9347 6.50704 39.4953 4.52551 36.7437C2.51802 33.9475 1.24603 31.9196 1.24603 30.2222C1.24603 28.5248 2.44879 27.7119 3.29678 27.5154C4.15343 27.3188 6.39455 27.3188 7.20793 26.6041C8.01266 25.9073 8.47126 24.9068 8.37608 23.6739C8.28955 22.4322 7.99535 19.7253 3.9371 19.5288C2.50936 19.4662 1.0124 20.0648 0 20.8688V18.6801C0.925869 18.2066 2.319 17.7063 4.09286 17.7063C7.44156 17.7063 8.98179 19.9218 8.98179 19.9218C8.98179 19.9218 10.972 20.7705 12.3565 21.8783C13.7496 22.986 14.8831 24.1921 14.9783 24.3529C15.0735 24.5137 15.3244 25.139 14.4764 25.4249C13.6198 25.7197 11.9238 26.0413 10.1846 26.0413C10.1846 26.0413 9.05101 28.1318 7.25119 28.775C5.45138 29.4271 3.36601 28.8018 3.27083 30.4992C3.21025 31.6695 4.214 33.072 4.59473 33.6259C4.97546 34.1798 9.2933 38.6198 9.04236 45.4271C8.99044 46.8922 8.76547 47.9821 8.76547 47.9821L7.01756 47.9911ZM10.2884 24.3261C10.2884 24.3261 11.2662 24.4601 12.0882 24.4869C12.9102 24.5226 12.7804 24.1295 12.7804 24.1295C12.3997 23.8079 10.1586 22.5036 10.1586 22.5036C9.84709 23.3434 10.2884 24.3261 10.2884 24.3261Z" fill="white"/>
</g>
<defs>
<clipPath id="clip0_1_2">
<rect width="64" height="64" fill="white"/>
</clipPath>
</defs>
</svg>
