<svg width="64" height="64" viewBox="0 0 64 64" fill="none" xmlns="http://www.w3.org/2000/svg">
<rect width="64" height="64" fill="white"/>
<path d="M43.5401 26.3429C45.2434 21.2795 45.2434 21.2795 45.2434 21.2795C44.7836 21.571 43.8972 21.5204 43.5216 21.5229C29.856 21.694 29.856 21.694 29.856 21.694C30.7708 22.3058 30.9221 23.152 30.4052 24.7699C25.8076 38.5274 25.8076 38.5274 25.8076 38.5274C24.8999 41.1802 24.243 42.3483 23.3365 42.3563C22.5825 42.3697 22.2715 41.8615 21.7354 40.594C18.2492 30.2986 18.2492 30.2986 18.2492 30.2986C29.0408 21.7145 29.0408 21.7145 29.0408 21.7145C20.3499 21.8193 20.3499 21.8193 20.3499 21.8193C21.4623 22.6481 21.4753 23.877 20.0647 24.9932C12.6757 31.3848 12.6757 31.3848 12.6757 31.3848C14.921 24.7588 14.921 24.7588 14.921 24.7588C15.5181 23.1215 16.581 22.2697 17.4913 21.8424C8.12453 21.9686 8.12453 21.9686 8.12453 21.9686C9.04791 22.5552 9.20661 23.4226 8.69712 25.0618C4.07781 38.8399 4.07781 38.8399 4.07781 38.8399C3.59387 40.2542 3.0655 41.9056 1.11182 42.8268C10.3845 42.6965 10.3845 42.6965 10.3845 42.6965C9.35682 41.878 9.50226 40.7874 9.95501 39.3999C11.9844 33.4478 11.9844 33.4478 11.9844 33.4478C14.6192 42.6671 14.6192 42.6671 14.6192 42.6671C18.9098 42.5819 18.9098 42.5819 18.9098 42.5819C32.0983 42.3879 32.0983 42.3879 32.0983 42.3879C31.2063 41.3446 31.3211 40.1501 31.9271 38.4224C33.614 33.4282 33.614 33.4282 33.614 33.4282C36.6139 33.3786 36.6139 33.3786 36.6139 33.3786C38.0315 33.3584 38.5005 33.7056 39.0276 34.484C40.6625 29.5561 40.6625 29.5561 40.6625 29.5561C40.2056 29.8393 39.2872 29.7964 38.9531 29.7851C34.8207 29.8589 34.8207 29.8589 34.8207 29.8589C36.4037 25.147 36.4037 25.147 36.4037 25.147C41.2042 25.0959 41.2042 25.0959 41.2042 25.0959C42.5812 25.1085 43.0885 25.5155 43.5372 26.3512L43.5401 26.3429Z" fill="#EE1832"/>
<path d="M52.8853 39.2479C49.0742 39.2633 47.3052 35.9949 47.7176 32.4064C48.1733 28.4122 51.2912 24.3463 55.7182 24.2704C57.1046 24.2769 58.569 24.5063 60.3629 25.512C61.7832 21.3613 61.7832 21.3613 61.7832 21.3613C60.5783 20.9963 58.9726 20.7933 57.0344 20.8319C48.1693 20.952 41.7463 27.2905 41.0494 33.4923C40.5171 38.1614 43.0607 42.8162 50.223 42.7124C52.3354 42.6585 54.4246 42.522 56.2077 42.0565C57.5449 38.1486 57.5449 38.1486 57.5449 38.1486C56.0994 38.7014 54.286 39.2126 52.8853 39.2479Z" fill="#EE1832"/>
<path d="M4.47765 39.6683C9.31623 25.2921 9.31623 25.2921 9.31623 25.2921C9.92214 23.5643 9.85057 22.9791 9.52129 22.3525C10.2695 22.5708 10.6728 23.2601 9.97411 25.3019C5.1315 39.7328 5.1315 39.7328 5.1315 39.7328C4.54448 41.4483 3.94386 42.0656 2.89068 42.0514C3.61566 41.6076 4.14973 40.7339 4.48423 39.6705L4.47765 39.6683Z" fill="white"/>
<path d="M26.1768 39.4667C31.0211 25.0737 31.0211 25.0737 31.0211 25.0737C31.6156 23.3795 31.5308 22.7897 31.215 22.1023C31.9649 22.3586 32.3531 23.0707 31.6601 25.0958C26.8146 39.5351 26.8146 39.5351 26.8146 39.5351C26.235 41.2718 25.7531 41.8642 24.7123 41.8356C25.4049 41.4648 25.7272 40.7805 26.1768 39.4667Z" fill="white"/>
<path d="M37.0175 23.5246C41.4265 23.4799 41.4265 23.4799 41.4265 23.4799C42.7179 23.4632 43.7527 23.7888 43.5791 25.0474C43.1675 24.5329 42.6796 24.1979 41.1762 24.2542C36.7315 24.2961 36.7315 24.2961 36.7315 24.2961L37.0175 23.5246Z" fill="white"/>
<path d="M33.9307 32.5455C34.1998 31.7589 34.1998 31.7589 34.1998 31.7589C36.8259 31.7498 36.8259 31.7498 36.8259 31.7498C38.1099 31.7119 39.1427 32.0649 38.9843 33.3006C38.5763 32.7967 38.0819 32.4594 36.5785 32.5158C33.9307 32.5455 33.9307 32.5455 33.9307 32.5455Z" fill="white"/>
<path d="M41.8449 33.4651C42.6409 26.5868 49.3788 22.7207 53.4023 22.1704C49.8419 23.2996 43.3832 26.6722 42.5754 33.4344C41.8244 39.9448 47.3353 41.7254 51.2873 41.9639C46.8236 42.4479 41.0373 40.3768 41.8449 33.4651Z" fill="white"/>
<path d="M16.9079 41.7761C16.0252 41.7361 15.5983 40.4499 15.5983 40.4499C15.6146 40.5957 15.6146 40.5957 15.6146 40.5957C13.3016 32.5614 13.3016 32.5614 13.3016 32.5614C20.9956 25.9656 20.9956 25.9656 20.9956 25.9656C22.5349 24.6877 23.2733 22.809 21.8992 22.2085C22.2878 23.2199 21.8548 24.3992 20.5375 25.5006C12.5346 32.3553 12.5346 32.3553 12.5346 32.3553C15.2351 41.8119 15.2351 41.8119 15.2351 41.8119C15.9883 41.7796 15.9883 41.7796 15.9883 41.7796L16.9079 41.7761Z" fill="white"/>
</svg>
