<svg width="64" height="64" viewBox="0 0 64 64" fill="none" xmlns="http://www.w3.org/2000/svg">
<g clip-path="url(#clip0_1_2)">
<rect width="64" height="64" fill="#FFD500"/>
<rect width="64" height="26" fill="black"/>
<g clip-path="url(#clip1_1_2)">
<path d="M5.00148 25.5976V38.3993C5.00148 52.5372 17.2905 64.0027 32.453 64.0027C47.6116 64.0027 59.9044 52.5411 59.9044 38.3993V25.5976H5.00552H5.00148Z" fill="#FFD500"/>
<path d="M60 0H5V26H60V0Z" fill="black"/>
<path d="M55.0026 47.3684C50.2323 47.6888 45.4214 45.7424 45.6798 45.1101C45.9017 44.5607 50.329 47.4287 55.0064 45.3662C50.2806 46.0171 46.2811 44.5191 46.2851 44.0411C46.2649 43.947 46.3577 43.7776 46.5717 43.7927C49.4329 44.5382 52.1815 44.8089 54.5664 43.405C51.9311 43.8153 50.668 43.8153 48.6544 43.4125C46.6241 43.0097 46.0389 41.6961 45.7806 40.9621C45.6959 41.6434 45.5385 42.3021 45.3084 42.9345C45.2963 42.9646 45.2842 42.9985 45.2721 43.0323C45.2399 43.1114 45.2116 43.1904 45.1793 43.2695C45.151 43.3448 45.1147 43.4276 45.0784 43.5104C44.3681 45.1252 43.2058 46.5253 41.7367 47.5682C41.4099 47.8615 41.4421 48.3285 41.5632 48.5319C42.3502 50.169 46.8985 53.4401 52.7182 52.5819C45.5142 52.1003 42.6448 48.6444 43.0847 48.2944C43.5206 47.9484 47.6532 52.1978 54.1349 51.099C48.4927 50.8203 43.4802 47.8992 44.029 47.3498C44.5376 46.8452 47.9398 50.6019 54.8409 49.36C49.183 49.36 44.4569 46.7211 44.9291 46.2772C45.2802 45.8292 48.7226 48.9422 55.0026 47.3573" fill="black"/>
<path d="M25.8679 43.6539C25.545 42.9838 24.7136 42.8897 24.3141 43.0252C22.7078 43.4506 17.885 47.053 17.2958 52.1344C20.2904 45.679 24.3262 43.8684 24.5764 44.3729C24.8266 44.8736 19.0999 47.5346 18.4864 53.8508C20.3388 48.6901 24.8871 44.8434 25.323 45.5058C25.7185 46.1194 20.7222 48.2386 20.1491 54.9837C21.7029 49.733 25.8759 46.0778 26.223 46.6387C26.6024 47.0866 22.2801 49.4207 22.2397 55.6878C23.2083 51.1708 26.6629 47.2484 27.2683 47.6591C27.793 48.0126 23.4585 51.3325 24.3746 56.2411C24.98 51.675 27.7364 48.3777 28.2449 48.5133C28.3499 48.5208 28.5073 48.6564 28.4306 48.8482C27.3854 50.6701 25.6863 53.99 26.3683 56.3049C26.7033 53.9789 27.5347 52.1419 28.4669 50.5385C28.4669 50.5385 29.4113 48.7844 31.3808 48.7729C28.9109 47.7942 26.9293 45.9537 25.8719 43.6539" fill="black"/>
<path d="M20.5608 31.2735C21.0572 30.803 20.6092 30.2158 20.1815 29.9937C20.1815 29.9937 19.2573 29.5157 18.7811 30.212C18.5268 30.66 18.5914 31.3563 18.8416 32.0075C18.8416 32.0075 20.0604 31.7214 20.5608 31.2735Z" fill="black"/>
<path d="M35.4409 31.1117C32.9427 31.1117 30.6746 32.0263 28.9997 33.5131C28.1603 34.1267 26.2231 35.3237 23.9549 35.2447C22.8653 35.1919 21.4568 34.5859 20.6375 33.8745C19.7375 33.0765 19.2775 32.5608 18.8416 32C18.3089 32.1769 17.4089 32.4479 16.3878 32.6286C14.4869 32.9598 11.7708 33.1631 11.339 33.2647C10.8507 33.3174 10.2494 33.3664 10.2494 33.7729C10.1969 34.2773 10.1969 35.2936 10.5278 35.5985C10.7417 35.8469 10.9597 35.8996 11.448 35.8996V36.2534C11.5045 36.7089 11.9888 36.9122 11.9888 36.9122C11.9888 36.9122 11.8314 36.5546 11.8839 36.2534C11.8839 36.1518 11.9323 35.9975 11.9888 35.8996C13.5668 35.8996 17.5905 35.798 17.6429 36.5583C17.6954 37.1681 14.4385 38.9937 14.2165 39.1443L14.1197 39.133C14.0309 39.1217 13.8695 39.1029 13.6879 38.9561C13.47 38.7528 13.3529 38.4818 13.3529 38.4818C13.3529 38.4818 13.139 38.9749 13.4659 39.3287L13.6354 39.4755C13.03 39.882 12.2632 40.5069 12.3116 40.8155C12.4247 41.5232 13.4618 41.8281 14.9753 41.7302C16.5049 41.6286 17.8569 41.0188 19.9838 39.8519C20.8514 39.3965 22.4294 38.6851 23.2971 38.7829C24.5482 38.8206 25.4523 39.2384 26.3038 41.6963C27.224 45.6112 30.9611 48.5434 35.4369 48.5434C40.5987 48.5434 44.7878 44.6401 44.7878 39.8218C44.7878 35.0037 40.6027 31.1004 35.4369 31.1004M13.5668 35.1355C13.1834 35.1355 12.8081 34.8306 12.8081 34.4241C12.8081 34.0702 13.1874 33.7691 13.5668 33.7691C14.0026 33.7691 14.3255 34.0702 14.3255 34.4241C14.3255 34.8343 13.9986 35.1355 13.5668 35.1355Z" fill="black"/>
<path d="M28.437 20.1544C28.437 20.433 28.6025 20.5873 28.9011 20.5873H42.9014C43.2 20.5873 43.3655 20.433 43.3655 20.1544V16.8458C43.3655 16.5521 43.2 16.3978 42.9014 16.3978H33.7723C33.6392 16.3978 33.5423 16.3037 33.5423 16.1833V5.59855C33.5423 5.32 33.3769 5.16568 33.062 5.16568H28.9052C28.6065 5.16568 28.441 5.32 28.441 5.59855V20.1544H28.437ZM9.71492 20.1544C9.71492 20.433 9.88035 20.5873 10.1952 20.5873H14.2552C14.5539 20.5873 14.7193 20.433 14.7193 20.1544V13.8796C14.7193 13.6801 14.8686 13.6312 15.0179 13.8006L20.7851 20.32C20.9344 20.4894 21.1483 20.5835 21.3501 20.5835H26.8994C27.2989 20.5835 27.4281 20.32 27.1658 20.0264L20.3734 12.7315C20.2887 12.6525 20.2887 12.517 20.3734 12.4229L26.7864 5.70019C27.0527 5.42164 26.9357 5.15815 26.52 5.15815H21.7497C21.4995 5.15815 21.3017 5.23719 21.1524 5.39155L15.022 12.0051C14.8726 12.1594 14.7233 12.0992 14.7233 11.8959V5.59855C14.7233 5.32 14.5579 5.16568 14.2592 5.16568H10.1992C9.88443 5.16568 9.7189 5.32 9.7189 5.59855V20.1544H9.71492ZM46.2147 20.5873H46.8928C52.2768 20.5873 56.022 17.2786 56.022 12.5208C56.022 7.76294 52.4095 4.62364 47.0259 4.62364C41.6422 4.62364 37.9777 7.88337 37.9777 13.123V13.8495C37.9777 14.128 38.1431 14.2824 38.4579 14.2824H42.8973C43.196 14.2824 43.3615 14.128 43.3615 13.8495V13.2322C43.3615 10.8043 44.7054 9.27612 46.9735 9.27612C49.2418 9.27612 50.4845 10.6651 50.4845 12.6299C50.4845 14.7642 48.7937 16.3075 46.4408 16.3075H46.2107C45.8959 16.3075 45.7305 16.4618 45.7305 16.7554V20.1544C45.7305 20.433 45.8959 20.5873 46.2107 20.5873H46.2147Z" fill="#FFD500"/>
</g>
</g>
<defs>
<clipPath id="clip0_1_2">
<rect width="64" height="64" fill="white"/>
</clipPath>
<clipPath id="clip1_1_2">
<rect width="55" height="64" fill="white" transform="translate(5)"/>
</clipPath>
</defs>
</svg>
