<svg width="64" height="64" viewBox="0 0 64 64" fill="none" xmlns="http://www.w3.org/2000/svg">
<rect width="64" height="64" fill="#2396FD"/>
<g clip-path="url(#clip0_1_2)">
<path fill-rule="evenodd" clip-rule="evenodd" d="M31.9483 7C30.0328 7 28.4812 8.49994 28.4812 10.351V22.6466C28.4812 24.4986 30.0328 26.0002 31.9483 26.0002C33.8628 26.0002 35.4129 24.4986 35.4129 22.6466V10.351C35.4129 8.49994 33.8628 7 31.9483 7ZM8.17074 23.5113C6.82482 23.623 5.61367 24.494 5.17018 25.8154C4.57986 27.5774 5.57434 29.4694 7.39482 30.0415L19.4821 33.8415C21.3027 34.4135 23.2592 33.4498 23.8514 31.6887C24.4429 29.9277 23.4468 28.0348 21.6242 27.4627L9.53696 23.6653C9.08183 23.522 8.61936 23.4741 8.17074 23.5113ZM55.7259 23.5139C55.2771 23.4765 54.815 23.5218 54.3596 23.6653L42.2723 27.4654C40.4518 28.0373 39.4564 29.9302 40.0477 31.6912C40.64 33.4523 42.5938 34.4144 44.4146 33.8415L56.5018 30.044C58.3223 29.4721 59.3188 27.5791 58.7264 25.8181C58.2836 24.4974 57.0719 23.6262 55.7259 23.5139ZM25.0192 40.269C23.9075 40.2323 22.796 40.7127 22.0934 41.6494L14.6255 51.5973C13.5003 53.0967 13.8446 55.195 15.3937 56.2825C16.9408 57.37 19.1106 57.035 20.2348 55.5383L27.7026 45.5879C28.8289 44.0904 28.4818 41.9962 26.932 40.9079C26.3518 40.4998 25.6862 40.2908 25.0192 40.269ZM38.88 40.269C38.2127 40.2908 37.5457 40.4998 36.9647 40.9079C35.4164 41.9962 35.0713 44.0904 36.1965 45.5879L43.6644 55.5383C44.7884 57.035 46.9584 57.37 48.5054 56.2825C50.0546 55.195 50.3987 53.0967 49.2737 51.5973L41.8058 41.6494C41.1032 40.7127 39.9922 40.2323 38.88 40.269Z" fill="#F5F5F5"/>
</g>
<defs>
<clipPath id="clip0_1_2">
<rect width="54" height="50" fill="white" transform="translate(5 7)"/>
</clipPath>
</defs>
</svg>
