<svg width="64" height="64" viewBox="0 0 64 64" fill="none" xmlns="http://www.w3.org/2000/svg">
<g clip-path="url(#clip0_1_2)">
<rect width="64" height="64" fill="white"/>
<g clip-path="url(#clip1_1_2)">
<path d="M64 0.0288305L0 0V32.9143V64H64V32.0144V0.0288305Z" fill="#004DA2"/>
<path fill-rule="evenodd" clip-rule="evenodd" d="M0 32C0 14.4079 14.439 0 32.1952 0C49.9513 0 64 14.4223 64 32.0144C64 49.6064 49.9513 63.9711 32.1952 63.9711C28.683 63.9711 25.3659 63.3715 22.2439 62.3718C24.5854 49.1778 32.7804 38.3826 43.9024 33.7847C45.2683 35.3841 47.2196 36.1838 49.3659 36.1838C53.2683 36.1838 56.3902 32.9851 56.3902 28.9869C56.3902 24.9887 53.2683 21.7902 49.3659 21.7902C45.4635 21.7902 42.3415 24.9887 42.3415 28.9869C28.2926 33.1851 16.9756 42.9806 11.122 55.575C9.36585 53.9756 7.60976 52.1765 6.24391 49.9774C6.63415 37.783 12.6829 26.9879 21.6585 20.5906C23.0244 22.1901 24.9756 22.9897 26.9268 22.9897C30.8293 22.9897 33.9513 19.791 33.9513 15.7929C33.9513 11.7947 30.8293 8.59613 26.9268 8.59613C23.0244 8.59613 19.9024 11.7947 19.9024 15.7929C19.9024 15.9928 19.9024 16.1927 19.9024 16.3926C11.5122 19.3913 4.09756 25.3177 0 32.9143C0 32.9997 0 32.3999 0 32Z" fill="#FCCF00"/>
</g>
</g>
<defs>
<clipPath id="clip0_1_2">
<rect width="64" height="64" fill="white"/>
</clipPath>
<clipPath id="clip1_1_2">
<rect width="64" height="64" fill="white"/>
</clipPath>
</defs>
</svg>
