<svg width="64" height="64" viewBox="0 0 64 64" fill="none" xmlns="http://www.w3.org/2000/svg">
<rect width="64" height="64" fill="white"/>
<g clip-path="url(#clip0_1_2)">
<path d="M9.85321 32.4319L7.56092 26.9484H5V34.5916H6.66549V28.6948L9.13688 34.5916H10.4979L12.9872 28.6948V34.5916H14.6348V26.9484H12.1097L9.85321 32.4319ZM19.5596 26.9484L15.9063 34.6103H17.7151L18.4851 32.9765H22.4966L23.2667 34.6103H25.1113L21.4759 26.9484H19.5596ZM19.1836 31.493L20.5088 28.6948L21.8161 31.493H19.1836ZM34.2625 26.9484H31.9165L28.102 30.4413V26.9484H26.4007V34.5916H28.102V32.4883L29.4451 31.2676L32.3105 34.5916H34.4954L30.6809 30.1596L34.2625 26.9484ZM35.6593 34.5916H42.7512V33.0704H37.325V31.4366H42.1603V29.9343H37.325V28.4695H42.7512V26.9484H35.6593V34.5916ZM58.1525 26.9484H53.55V34.6103H55.2513V31.9437H58.1525C59.8717 31.9437 61 31.0798 61 29.446C61 27.7934 59.8717 26.9484 58.1525 26.9484ZM58.0629 30.4413H55.2513V28.4507H58.0629C58.8689 28.4507 59.3166 28.8075 59.3166 29.446C59.3166 30.0657 58.8509 30.4413 58.0629 30.4413ZM50.1474 30.9296C50.1474 32.2817 49.5565 33.1643 48.0521 33.1643C46.5477 33.1643 45.9389 32.2817 45.9389 30.9296V26.9484H44.2376V31.0798C44.2376 33.2958 45.4911 34.723 48.0342 34.723C50.5594 34.723 51.8308 33.2958 51.8308 31.0798V26.9484H50.1295V30.9296H50.1474ZM48.0521 25.9531C48.249 25.9531 48.4461 25.9718 48.6251 26.0094L49.5207 24.5634C49.1267 24.2253 48.6968 24 48.0521 24C47.4075 24 46.9597 24.2066 46.5657 24.5634L47.4612 26.0094C47.6581 25.9718 47.8552 25.9531 48.0521 25.9531ZM14.2408 39.9624V38.0282H15.0646C15.3869 38.0282 15.584 38.2348 15.584 38.5164C15.584 38.7606 15.4228 38.9296 15.2616 38.9671C15.4586 39.0047 15.6198 39.2113 15.6198 39.4366C15.6198 39.7559 15.4228 39.9624 15.0825 39.9624H14.2408ZM15.3332 38.554C15.3332 38.385 15.2258 38.2348 15.0109 38.2348H14.4557V38.8545H15.0109C15.2258 38.8545 15.3332 38.723 15.3332 38.554ZM15.3691 39.4178C15.3691 39.2488 15.2437 39.0798 15.0288 39.0798H14.4557V39.7559H15.0288C15.2437 39.7559 15.3691 39.6244 15.3691 39.4178ZM16.2645 39.9624V38.0282H17.4822V38.2348H16.4973V38.8545H17.4643V39.061H16.4973V39.7371H17.4822V39.9437H16.2645V39.9624ZM19.4343 39.9624L19.2731 39.5305H18.3419L18.1807 39.9624H17.9121L18.6642 38.0282H18.9507L19.7029 39.9624H19.4343ZM18.8075 38.2723L18.4135 39.324H19.2015L18.8075 38.2723ZM20.1506 39.2113V38.0282H20.3834V39.2113C20.3834 39.5681 20.5625 39.7934 20.9028 39.7934C21.243 39.7934 21.4221 39.5681 21.4221 39.2113V38.0282H21.6549V39.2113C21.6549 39.6995 21.4042 40 20.9028 40C20.4013 40 20.1506 39.6808 20.1506 39.2113ZM22.8369 39.9624V38.2348H22.2459V38.0282H23.6428V38.2348H23.0518V39.9624H22.8369ZM24.771 39.9624V39.1361L24.0368 38.0094H24.3054L24.8785 38.9108L25.4516 38.0094H25.7202L24.9859 39.1361V39.9624H24.771ZM28.6571 39.9624L28.2454 38.4038L27.8334 39.9624H27.5826L27.0633 38.0282H27.3141L27.7259 39.6432L28.1558 38.0282H28.3527L28.7825 39.6432L29.1945 38.0282H29.4451L28.9259 39.9624H28.6571ZM29.9825 39.9624V38.0282H30.2152V39.9624H29.9825ZM31.3794 39.9624V38.2348H30.7882V38.0282H32.203V38.2348H31.6121V39.9624H31.3794ZM34.1014 39.9624V39.0798H33.009V39.9624H32.7762V38.0282H33.009V38.8732H34.1014V38.0282H34.3341V39.9624H34.1014ZM34.9609 38.9859C34.9609 38.4038 35.337 37.9718 35.8744 37.9718C36.4294 37.9718 36.7876 38.4038 36.7876 38.9859C36.7876 39.5681 36.4115 40 35.8744 40C35.337 40 34.9609 39.5681 34.9609 38.9859ZM36.5728 38.9859C36.5728 38.5352 36.3042 38.1972 35.8923 38.1972C35.4804 38.1972 35.2118 38.5352 35.2118 38.9859C35.2118 39.4366 35.4804 39.7746 35.8923 39.7746C36.3042 39.7746 36.5728 39.4366 36.5728 38.9859ZM37.4502 39.2113V38.0282H37.6832V39.2113C37.6832 39.5681 37.8621 39.7934 38.2024 39.7934C38.5427 39.7934 38.7219 39.5681 38.7219 39.2113V38.0282H38.9546V39.2113C38.9546 39.6995 38.7039 40 38.2024 40C37.7011 40 37.4502 39.6808 37.4502 39.2113ZM40.1187 39.9624V38.2348H39.5276V38.0282H40.9244V38.2348H40.3515V39.9624H40.1187ZM42.5184 39.9624V38.0282H42.7512V39.7559H43.6109V39.9624H42.5184ZM44.2197 39.9624V38.0282H44.4524V39.9624H44.2197ZM46.7449 39.9624V38.3662L46.1181 39.9624H46.0285L45.4018 38.3662V39.9624H45.1688V38.0282H45.4911L46.0644 39.493L46.6373 38.0282H46.9597V39.9624H46.7449ZM47.694 39.9624V38.0282H47.9267V39.9624H47.694ZM49.0908 39.9624V38.2348H48.4999V38.0282H49.8968V38.2348H49.3056V39.9624H49.0908ZM50.3622 39.6808L50.5056 39.493C50.631 39.6432 50.8279 39.7746 51.0965 39.7746C51.4188 39.7746 51.5264 39.5868 51.5264 39.4366C51.5264 38.9296 50.4339 39.2113 50.4339 38.5164C50.4339 38.1972 50.7025 37.9718 51.0786 37.9718C51.3653 37.9718 51.5801 38.0657 51.7412 38.2348L51.598 38.4038C51.4547 38.2348 51.2578 38.1784 51.0607 38.1784C50.8459 38.1784 50.6846 38.3099 50.6846 38.4789C50.6846 38.9108 51.777 38.6667 51.777 39.3991C51.777 39.6808 51.598 39.9624 51.0965 39.9624C50.7563 40 50.5235 39.8685 50.3622 39.6808Z" fill="black"/>
</g>
<defs>
<clipPath id="clip0_1_2">
<rect width="56" height="16" fill="white" transform="translate(5 24)"/>
</clipPath>
</defs>
</svg>
