<svg width="64" height="64" viewBox="0 0 64 64" fill="none" xmlns="http://www.w3.org/2000/svg">
<rect width="64" height="64" fill="white"/>
<g clip-path="url(#clip0_1_2)">
<path d="M47.392 30.58C46.076 30.09 45.6653 29.8 45.6653 29.27C45.6653 28.68 46.1227 28.33 46.9347 28.33C47.5973 28.33 48.26 28.53 48.7547 28.74L48.9693 26.18C48.3627 26 47.6253 25.86 46.8227 25.86C44.1627 25.86 42.4547 27.48 42.4547 29.62C42.436 30.98 43.2853 32.27 45.5067 33.08C46.7573 33.53 47.084 33.81 47.084 34.39C47.084 34.98 46.664 35.35 45.656 35.35C44.676 35.35 43.4067 34.88 42.7813 34.48L42.1933 37.04C43.0053 37.51 44.2467 37.84 45.6653 37.84C48.7453 37.84 50.3133 36.27 50.3133 34.12C50.2947 32.43 49.4453 31.33 47.392 30.58ZM55.4653 34.93C54.4573 34.93 54.1493 34.3 54.1493 32.91V23L50.8827 23.8V26.11H49.6413L49.4173 28.74H50.892V33.43C50.892 35.05 51.2 36.15 51.816 36.84C52.3387 37.43 53.2347 37.83 54.308 37.83C55.2507 37.83 56.0347 37.71 56.4733 37.52L56.4547 34.82C56.212 34.87 55.8853 34.92 55.4653 34.93ZM54.4107 28.75H56.4547V26.11H54.4107V28.75ZM17.3667 32.06C17.3013 30.3 17.2453 28.17 17.2453 26.04H17.18C16.7413 27.91 16.144 30 15.5933 31.71L13.8573 37.43H11.3467L9.82533 31.75C9.35867 30.03 8.87333 27.94 8.53733 26.03H8.5C8.416 28 8.35067 30.27 8.248 32.1L7.996 37.66H5L5.90533 23.01H10.1987L11.5893 27.9C12.028 29.59 12.476 31.43 12.7933 33.14H12.8587C13.26 31.45 13.7453 29.5 14.212 27.88L15.7333 23.01H19.9427L20.7267 37.66H17.572L17.3667 32.06ZM35.0347 33C35.1467 34.48 36.5 35.18 38.068 35.18C39.2067 35.18 40.1213 35.02 41.036 34.71L41.4747 37.13C40.3827 37.6 39.048 37.83 37.592 37.83C33.952 37.83 31.8707 35.58 31.8707 31.98C31.8707 29.07 33.56 25.85 37.284 25.85C40.756 25.85 42.0627 28.73 42.0627 31.58C42.0627 32.19 41.9973 32.73 41.9507 32.99L35.0347 33ZM38.964 30.55C38.964 29.68 38.6093 28.23 37.0787 28.23C35.6787 28.23 35.1093 29.59 35.0253 30.55H38.964Z" fill="#0862AF"/>
<path d="M58.7413 23.02L61 27.43L58.7413 31.86H56.4547L58.7133 27.43L56.4453 23.02H58.7413C58.7413 23.01 58.7413 23.01 58.7413 23.02ZM30.788 42H21.604V39.56H30.788V42ZM24.3013 32.99C24.4133 34.47 25.7667 35.17 27.3347 35.17C28.4733 35.17 29.388 35.01 30.3027 34.7L30.7413 37.12C29.6493 37.59 28.3147 37.82 26.8587 37.82C23.2187 37.82 21.1373 35.57 21.1373 31.97C21.1373 29.06 22.8267 25.84 26.5507 25.84C30.0227 25.84 31.3293 28.72 31.3293 31.57C31.3293 32.18 31.264 32.72 31.2173 32.98H24.3013V32.99ZM28.2307 30.54C28.2307 29.67 27.876 28.22 26.3453 28.22C24.9453 28.22 24.376 29.58 24.2827 30.54H28.2307Z" fill="#ED1C24"/>
</g>
<defs>
<clipPath id="clip0_1_2">
<rect width="56" height="19" fill="white" transform="translate(5 23)"/>
</clipPath>
</defs>
</svg>
