<svg width="64" height="64" viewBox="0 0 64 64" fill="none" xmlns="http://www.w3.org/2000/svg">
<rect width="64" height="64" fill="white"/>
<g clip-path="url(#clip0_1_2)">
<path d="M9.235 26.8614H8.90875V26H6.915V26.8614H6.5525C4.3775 26.8614 3 27.985 3 30.0075V30.382C3 32.367 4.34125 33.4906 6.58875 33.4906H6.915V34.3521H8.90875V33.4906H9.235C11.4463 33.4906 12.8238 32.367 12.8238 30.3446V29.97C12.8238 27.9101 11.4463 26.824 9.235 26.824V26.8614ZM6.48 32.03C5.50125 32.03 4.99375 31.3933 4.99375 30.2697V30.1199C4.99375 28.9963 5.50125 28.3596 6.48 28.3596H6.915V31.9925H6.48V32.03ZM10.83 30.2697C10.83 31.3933 10.2863 32.03 9.3075 32.03H8.90875V28.3596H9.3075C10.2863 28.3596 10.83 28.9588 10.83 30.1199V30.2697ZM16.8838 28.397C14.9625 28.397 13.6575 29.633 13.6575 31.3933C13.6575 33.191 14.9625 34.3895 16.8838 34.3895C18.805 34.3895 20.11 33.191 20.11 31.3933C20.11 29.633 18.805 28.397 16.8838 28.397ZM16.8838 32.8914C16.05 32.8914 15.5063 32.2921 15.5063 31.3933C15.5063 30.4944 16.05 29.8951 16.8838 29.8951C17.6813 29.8951 18.2612 30.4944 18.2612 31.3933C18.2612 32.2921 17.6813 32.8914 16.8838 32.8914ZM27.3963 28.5094H25.2938L23.1188 31.206V28.5094H21.3063V34.2772H23.1188V31.5805L25.2938 34.2772H27.5412L25.0038 31.2809L27.3963 28.5094ZM30.84 29.8951C31.4563 29.8951 31.8913 30.2697 32.0363 30.794H33.8488C33.7038 29.3708 32.58 28.397 30.8763 28.397C28.955 28.397 27.65 29.633 27.65 31.3933C27.65 33.191 28.955 34.3895 30.9125 34.3895C32.58 34.3895 33.7038 33.4157 33.8125 32.03H32.0363C31.9633 32.2967 31.8057 32.5303 31.5887 32.6933C31.3718 32.8563 31.1081 32.9393 30.84 32.9288C30.0425 32.9288 29.4988 32.2921 29.4988 31.4307C29.4988 30.4944 30.0425 29.8951 30.84 29.8951ZM34.32 28.5094V30.0449H36.35V34.2772H38.1625V30.0449H40.1563V28.5468H34.3563L34.32 28.5094ZM44.5788 28.4719C43.8538 28.4719 43.2013 28.7715 42.7663 29.3333V28.5094H41.0625V36H42.875V33.603C43.31 34.0524 43.89 34.3521 44.5788 34.3521C46.2463 34.3521 47.37 33.1161 47.37 31.3933C47.37 29.6704 46.2463 28.4719 44.5788 28.4719ZM44.1438 32.9288C43.3463 32.9288 42.7663 32.2921 42.7663 31.4307C42.7663 30.4944 43.3463 29.8951 44.1438 29.8951C44.9775 29.8951 45.5213 30.4944 45.5213 31.3933C45.5213 32.2921 44.9775 32.8914 44.1438 32.8914V32.9288ZM51.4663 28.397C49.545 28.397 48.24 29.633 48.24 31.3933C48.24 33.191 49.545 34.3895 51.4663 34.3895C53.3875 34.3895 54.6925 33.191 54.6925 31.3933C54.6925 29.633 53.3875 28.397 51.43 28.397H51.4663ZM51.4663 32.8914C50.6325 32.8914 50.0887 32.2921 50.0887 31.3933C50.0887 30.4944 50.6325 29.8951 51.4663 29.8951C52.2638 29.8951 52.8438 30.4944 52.8438 31.3933C52.8438 32.2921 52.2638 32.8914 51.4663 32.8914ZM55.2 28.5094V30.0449H57.1938V34.2772H59.0063V30.0449H61V28.5468H55.2V28.5094Z" fill="white"/>
</g>
<g clip-path="url(#clip1_1_2)">
<mask id="mask0_1_2" style="mask-type:luminance" maskUnits="userSpaceOnUse" x="3" y="3" width="58" height="58">
<path d="M61 3H3V61H61V3Z" fill="white"/>
</mask>
<g mask="url(#mask0_1_2)">
<mask id="mask1_1_2" style="mask-type:luminance" maskUnits="userSpaceOnUse" x="3" y="3" width="58" height="58">
<path d="M61 3H3V61H61V3Z" fill="white"/>
</mask>
<g mask="url(#mask1_1_2)">
<path d="M19.7833 3.38677L14.397 11.4402L9.08883 3.38677H3V26.2306H8.5424V12.6791L12.2113 18.332H16.5047L20.4078 12.4469V26.2306H25.9502V3.38677H19.7833Z" fill="#222D4A"/>
<path d="M18.6906 37.7693L14.3972 44.5837L10.1819 37.7693H3.62466L11.5088 50.5463V60.6905H17.1293V50.5463L25.3259 37.7693H18.6906Z" fill="#00B2F2"/>
<path d="M49.0573 37.3825C42.5002 37.3825 37.1139 42.6481 37.1139 49.2302C37.1139 55.7349 42.4221 61.0781 49.0573 61.0781C55.6926 61.0781 61.0008 55.8124 61.0008 49.2302C61.0008 42.7256 55.6145 37.3825 49.0573 37.3825ZM55.4584 49.2302C55.4584 52.7149 52.6482 55.5026 49.1354 55.5026C45.6226 55.5026 42.8124 52.7149 42.8124 49.2302C42.8124 45.7456 45.6226 42.9579 49.1354 42.9579C52.5701 42.9579 55.4584 45.7456 55.4584 49.2302Z" fill="#222D4A"/>
<path d="M49.0573 3C42.5002 3 37.1139 8.26569 37.1139 14.8478C37.1139 21.3524 42.4221 26.6956 49.0573 26.6956C55.6926 26.6956 61.0008 21.4299 61.0008 14.8478C61.0008 8.26569 55.6145 3 49.0573 3ZM55.4584 14.8478C55.4584 18.3325 52.6482 21.1202 49.1354 21.1202C45.6226 21.1202 42.8124 18.3325 42.8124 14.8478C42.8124 11.3632 45.6226 8.57543 49.1354 8.57543C52.5701 8.49799 55.4584 11.3632 55.4584 14.8478Z" fill="#00B2F2"/>
</g>
</g>
</g>
<defs>
<clipPath id="clip0_1_2">
<rect width="58" height="10" fill="white" transform="translate(3 26)"/>
</clipPath>
<clipPath id="clip1_1_2">
<rect width="58" height="58" fill="white" transform="translate(3 3)"/>
</clipPath>
</defs>
</svg>
