<svg width="64" height="64" viewBox="0 0 64 64" fill="none" xmlns="http://www.w3.org/2000/svg">
<rect width="64" height="64" fill="#FF0000"/>
<g clip-path="url(#clip0_1_2)">
<mask id="mask0_1_2" style="mask-type:luminance" maskUnits="userSpaceOnUse" x="7" y="21" width="50" height="22">
<path d="M7 21H56.7706V42.9455H7V21Z" fill="white"/>
</mask>
<g mask="url(#mask0_1_2)">
<path fill-rule="evenodd" clip-rule="evenodd" d="M56.7706 21C43.726 25.9257 20.0444 25.9257 7 21L11.1476 39.2875C21.7262 44.1553 41.2449 44.1745 52.623 39.2875L56.7706 21Z" fill="#FF0000"/>
</g>
<path fill-rule="evenodd" clip-rule="evenodd" d="M18.8317 29.2288L18.0483 33.2355L17.9957 33.5048H17.8937L17.8413 33.2378L17.0577 29.2288L15.4842 29.23V36.5443H16.7008L16.7059 34.3828L16.6012 31.9383H16.6994L17.6239 36.5443H18.2655L19.1898 31.9383H19.2879L19.1832 34.3828V36.5443H20.405V29.23L18.8317 29.2288ZM23.664 29.2288L23.6312 35.3405C23.6312 35.6615 23.3046 35.736 23.1408 35.736C22.9564 35.736 22.6504 35.6615 22.6504 35.3405L22.6176 29.2288H21.2884L21.3982 35.0613C21.3982 36.09 21.8133 36.6363 23.1408 36.6363C24.468 36.6363 24.8835 36.09 24.8835 35.0613L24.9932 29.2288H23.664ZM27.2064 35.631V29.2288H25.8773V36.5433H28.6742V35.631H27.2064ZM39.8309 35.631V29.2288H38.5017V36.5433H41.2288V35.631H39.8309ZM44.1787 30.141V29.2288H41.4044V36.5438H44.1598V35.6315H42.7336V32.903H43.797V31.9908H42.7336V30.1408L44.1787 30.141ZM31.733 29.2288H28.1191V30.1088H29.2616V36.5438H30.5908V30.1088H31.733V29.2288ZM32.2415 36.5433H33.5707V29.2288H32.2415V36.5433ZM36.612 32.1173C36.612 32.402 36.5419 32.6633 36.0125 32.6633H35.7805V30.1403H36.1077C36.6756 30.1403 36.612 30.4675 36.612 30.7523V32.1173ZM36.2342 29.2293L34.4511 29.2288V36.5433H35.7802V33.5818H36.278C37.3959 33.5818 37.9412 33.0775 37.9412 32.2923V30.5933C37.9412 29.8078 37.5379 29.2293 36.2342 29.2293ZM48.392 29.2298H47.0803L46.5209 31.9518H46.4191L45.8597 29.2298H44.5481L45.3758 32.379L44.4644 36.5435H45.8247L46.2992 34.03L46.4197 32.8315H46.5192L46.6408 34.03L47.1066 36.5435H48.4754L47.5639 32.379L48.392 29.2298Z" fill="white"/>
</g>
<defs>
<clipPath id="clip0_1_2">
<rect width="50" height="22" fill="white" transform="translate(7 21)"/>
</clipPath>
</defs>
</svg>
