<svg width="64" height="64" viewBox="0 0 64 64" fill="none" xmlns="http://www.w3.org/2000/svg">
<rect width="64" height="64" fill="white"/>
<g clip-path="url(#clip0_1_2)">
<path d="M31.7096 4.90306C22.56 5.10875 15.7985 9.95119 16.1223 18.8645C16.5302 29.6814 26.1867 32.8138 29.7135 34.1161C33.8639 35.6764 38.8065 37.8822 41.1936 41.9298C42.1126 43.4648 42.6627 45.1841 42.8022 46.9577C42.9418 48.7313 42.6671 50.5127 41.999 52.1672C41.3309 53.8216 40.2869 55.3059 38.9459 56.5076C37.605 57.7093 36.0021 58.5971 34.2587 59.1038C37.4702 58.7394 40.5156 57.5116 43.0566 55.5567C45.5977 53.6018 47.535 50.9962 48.6534 48.0295C49.5394 45.6977 49.8289 43.1894 49.4965 40.7231C49.164 38.2569 48.2199 35.9076 46.7463 33.8801C44.9028 31.5588 42.8988 29.3639 40.7485 27.3106C36.8979 23.4743 33.8627 20.4474 33.8627 15.2854C33.8627 10.1233 37.7008 7.32003 41.4794 6.26416C38.0727 5.2816 34.7595 4.83451 31.7096 4.90306ZM43.5201 8.57617C41.6747 8.57307 39.9026 9.28225 38.5887 10.5496C37.2749 11.817 36.5254 13.5402 36.5031 15.345C36.5031 19.4629 38.7813 22.2322 42.6439 25.5875C54.1596 35.5479 55.1305 46.7041 46.9735 55.4444C51.2472 53.1518 54.6696 49.5954 56.7504 45.2844C58.2088 42.2487 58.8633 38.9031 58.6537 35.5553C58.4441 32.2075 57.3771 28.9649 55.5508 26.126C53.4156 22.5477 56.332 20.8241 59.091 22.9593H59.1143C57.6629 17.9849 52.3848 9.18623 43.5201 8.57617Z" fill="#00A1DF"/>
<path d="M39.3214 51.5493C37.7859 55.3974 33.0597 60.4069 24.9266 57.9784C19.2336 56.2692 14.2461 52.8291 10.6888 48.158C7.13158 43.4869 5.18989 37.8281 5.14591 32.0039C5.19404 28.0903 6.09652 24.2319 7.79291 20.687C9.48931 17.1422 11.9405 13.9927 14.9823 11.4495C13.6319 14.4356 13.1613 17.7312 13.6233 20.9649C14.0853 24.1985 15.4617 27.2417 17.5973 29.7513C20.9681 33.6229 24.9386 35.1246 28.7892 36.5793C28.7892 36.5793 43.6518 40.6855 39.3214 51.5493Z" fill="black"/>
</g>
<defs>
<clipPath id="clip0_1_2">
<rect width="54" height="54" fill="white" transform="translate(5 5)"/>
</clipPath>
</defs>
</svg>
