<svg width="64" height="64" viewBox="0 0 64 64" fill="none" xmlns="http://www.w3.org/2000/svg">
<rect width="64" height="64" fill="#221F1F"/>
<g clip-path="url(#clip0_1_2)">
<mask id="mask0_1_2" style="mask-type:luminance" maskUnits="userSpaceOnUse" x="19" y="8" width="26" height="48">
<path d="M45 8H19V56H45V8Z" fill="white"/>
</mask>
<g mask="url(#mask0_1_2)">
<path d="M18.9456 7.94468L19.1088 56.128C22.5656 55.4508 25.2839 55.5248 28.352 55.2432V8L18.9456 7.94468Z" fill="url(#paint0_linear_1_2)"/>
<path d="M35.6921 8H45.0984L45.2072 56.0176L35.6378 54.4132L35.6921 8Z" fill="url(#paint1_linear_1_2)"/>
<path d="M19.0544 8C19.2718 8.5532 35.3659 55.1324 35.3659 55.1324C38.0104 55.1132 41.5565 55.5524 45.044 55.9624L28.2976 8H19.0544Z" fill="#E50914"/>
</g>
</g>
<defs>
<linearGradient id="paint0_linear_1_2" x1="22.6909" y1="28.3408" x2="29.4906" y2="25.6068" gradientUnits="userSpaceOnUse">
<stop stop-color="#B1060F"/>
<stop offset="0.546072" stop-color="#7B010C"/>
<stop offset="1" stop-color="#E50914" stop-opacity="0"/>
</linearGradient>
<linearGradient id="paint1_linear_1_2" x1="40.5301" y1="33.0349" x2="33.574" y2="35.9216" gradientUnits="userSpaceOnUse">
<stop stop-color="#B1060F"/>
<stop offset="0.625007" stop-color="#7B010C"/>
<stop offset="1" stop-color="#B1060F" stop-opacity="0"/>
</linearGradient>
<clipPath id="clip0_1_2">
<rect width="26" height="48" fill="white" transform="translate(19 8)"/>
</clipPath>
</defs>
</svg>
