<svg width="64" height="64" viewBox="0 0 64 64" fill="none" xmlns="http://www.w3.org/2000/svg">
<rect width="64" height="64" fill="#ED1C24"/>
<g clip-path="url(#clip0_1_2)">
<path fill-rule="evenodd" clip-rule="evenodd" d="M47.1435 21.3953C47.2987 21.3452 47.5031 21.4455 47.7074 21.7211C47.7074 21.7211 47.7074 21.7211 56.9421 30.96C57.4815 31.5113 57.4815 32.3467 56.9421 32.756C56.9421 32.756 56.9421 32.756 47.7074 42.1369C47.5031 42.4125 47.2987 42.4794 47.1435 42.3958C46.9882 42.3123 46.8902 42.07 46.8902 41.7192V21.9968C46.8902 21.6543 46.9882 21.4455 47.1435 21.3953Z" fill="white"/>
<path fill-rule="evenodd" clip-rule="evenodd" d="M31.3464 6H32.0002L32.6295 6.26731C32.6295 6.26731 32.6295 6.26731 42.1339 15.9239C42.5425 16.4752 42.4036 16.8928 41.7253 16.8928C41.7253 16.8928 41.7253 16.8928 37.7862 16.8928C37.1079 16.8928 36.5685 17.4442 36.5685 18.1375C36.5685 18.1375 36.5685 18.1375 36.5685 25.3048C36.5685 25.9981 36.021 26.5494 35.2037 26.5494C35.2037 26.5494 35.2037 26.5494 28.2818 26.5494C27.6035 26.5494 27.0559 25.9981 27.0559 25.3048C27.0559 25.3048 27.0559 25.3048 27.0559 18.1375C27.0559 17.4442 26.5166 16.8928 25.8301 16.8928H21.6213C20.943 16.8928 20.8041 16.4752 21.2128 15.9239C21.2128 15.9239 21.2128 15.9239 30.7253 6.26731L31.3464 6Z" fill="white"/>
<path fill-rule="evenodd" clip-rule="evenodd" d="M16.4565 21.1865C16.6281 21.27 16.7344 21.5123 16.7344 21.8631V41.9949C16.7344 42.3457 16.6281 42.5545 16.4565 42.6214C16.293 42.6882 16.0561 42.6214 15.7782 42.4126C15.7782 42.4126 15.7782 42.4126 6.40453 32.756C5.86516 32.3467 5.86516 31.5113 6.40453 30.96C6.40453 30.96 6.40453 30.96 15.7782 21.4455C16.0561 21.1698 16.293 21.103 16.4565 21.1865Z" fill="white"/>
<path fill-rule="evenodd" clip-rule="evenodd" d="M28.2818 37.0329C28.2818 37.0329 28.2818 37.0329 35.2037 37.0329C36.0209 37.0329 36.5685 37.5842 36.5685 38.2776C36.5685 38.2776 36.5685 38.2776 36.5685 45.8625C36.5685 46.6894 37.1079 47.2408 37.7862 47.2408H41.4556C42.1339 47.2408 42.4036 47.6501 41.8642 48.0678C41.8642 48.0678 41.8642 48.0678 32.6295 57.5823C32.3516 57.858 32.0165 58 31.6733 58C31.3382 58 30.995 57.858 30.7253 57.5823C30.7253 57.5823 30.7253 57.5823 21.4906 48.0678C20.943 47.6501 21.2128 47.2408 21.8911 47.2408C21.8911 47.2408 21.8911 47.2408 25.8301 47.2408C26.5166 47.2408 27.0559 46.6894 27.0559 45.8625C27.0559 45.8625 27.0559 45.8625 27.0559 38.2776C27.0559 37.5842 27.6035 37.0329 28.2818 37.0329Z" fill="white"/>
</g>
<defs>
<clipPath id="clip0_1_2">
<rect width="52" height="52" fill="white" transform="translate(6 6)"/>
</clipPath>
</defs>
</svg>
