<svg width="64" height="64" viewBox="0 0 64 64" fill="none" xmlns="http://www.w3.org/2000/svg">
<rect width="64" height="64" fill="#75D941"/>
<g clip-path="url(#clip0_1_2)">
<mask id="mask0_1_2" style="mask-type:luminance" maskUnits="userSpaceOnUse" x="9" y="3" width="47" height="59">
<path d="M56 3H9V62H56V3Z" fill="white"/>
</mask>
<g mask="url(#mask0_1_2)">
<path d="M46.1447 35.6307C45.6851 36.4865 45.8116 37.5488 46.5251 38.2465C48.0619 39.7367 49.8526 40.5461 51.0405 42.4484C51.7381 43.5581 52.4033 45.4614 50.66 45.667C49.06 45.8577 46.5884 44.24 45.2572 43.2577C45.8116 44.0502 46.0814 45.0809 46.4293 45.9684C46.5567 46.2847 46.7623 46.5079 47.0637 46.6502C48.6637 47.3944 51.2144 48.1088 52.5772 46.5386C53.7493 45.2074 53.354 43.32 52.2758 41.64C50.9772 39.626 49.0916 38.9284 47.5549 37.2958C47.3326 37.0577 47.1902 36.7721 47.3167 36.4233C47.5707 35.7414 48.1726 35.7098 48.807 35.614C49.5354 35.5033 50.6767 35.2819 51.2144 34.9163C51.7214 34.5842 52.1019 33.934 52.2284 33.4112L52.4823 32.3647C51.0088 32.6809 49.5195 33.0781 48.1884 33.7916C47.4284 34.2195 46.5726 34.8381 46.1447 35.6307Z" fill="white"/>
<path d="M55.7781 60.6502L53.3688 54.3246C51.8036 53.7857 50.183 53.4238 48.5372 53.2456L45.1307 44.2874C44.5288 42.7181 42.6116 41.7823 41.0907 41.3386C39.4433 40.8623 37.5419 40.72 35.7353 40.9572L35.6879 40.9739L25.1363 41.5758L25.1521 41.5442C24.914 41.5916 24.9298 41.3544 25.0721 41.2428C25.247 41.0846 25.4535 40.8307 25.6433 40.6567C27.4805 38.9442 27.7177 36.027 26.5456 33.8074C24.9953 30.8633 22.8153 28.297 20.1605 26.2912C19.6702 27.2744 19.2107 28.3051 17.5465 29.2726C16.4851 29.8912 14.3149 31.5237 12.54 34.0763C13.3009 35.2186 14.1558 36.1377 15.2814 36.9302C15.7242 36.5339 16.1837 36.1219 16.6433 35.7414C16.8264 35.5886 17.0626 35.5146 17.3002 35.5356C17.5378 35.5565 17.7575 35.6706 17.9112 35.853C18.0637 36.0363 18.1375 36.2725 18.1166 36.51C18.0957 36.7475 17.9817 36.9671 17.7995 37.1209L17.4358 37.4372C17.2527 37.5901 17.0166 37.6642 16.779 37.6435C16.5414 37.6227 16.3217 37.5088 16.1679 37.3265C16.122 37.2747 16.0847 37.216 16.0572 37.1526L15.566 37.5488C15.9149 38.4046 16.6433 39.8 16.8656 39.8C16.9763 39.8 17.1502 39.7051 17.3251 39.547L18.8461 38.1981C18.9409 38.0884 19.0358 38.2633 18.9726 38.3898C17.3884 41.3702 15.5186 45.0967 14.6312 48.2986C14.5507 48.5824 14.5303 48.8799 14.5713 49.1721C14.6123 49.4643 14.7138 49.7446 14.8693 49.9953C15.7084 51.3433 17.0395 52.8651 17.5465 53.2456C16.1225 55.0866 14.881 57.0618 13.8395 59.1433C13.6172 59.5721 13.2051 59.8409 12.7298 59.8409H10.9093C10.5875 59.8415 10.2695 59.9104 9.97636 60.0431C9.68321 60.1758 9.4216 60.3692 9.20885 60.6107C8.9961 60.8521 8.83707 61.136 8.74229 61.4435C8.64751 61.751 8.61914 62.0751 8.65907 62.3944H15.9316C18.5061 58.6545 21.8985 55.55 25.8516 53.3166C29.8047 51.0831 34.2145 49.7794 38.7465 49.5042C39.5782 52.1737 40.8941 54.6673 42.6284 56.8605C45.5955 56.29 48.6567 56.448 51.5493 57.3209L52.34 59.4298C52.3594 59.4767 52.3669 59.5277 52.3619 59.5782C52.357 59.6287 52.3397 59.6772 52.3116 59.7195C52.2834 59.7617 52.2454 59.7964 52.2007 59.8205C52.156 59.8446 52.1061 59.8574 52.0553 59.8577H51.3112C50.9895 59.8582 50.6716 59.9271 50.3785 60.0598C50.0854 60.1924 49.8238 60.3858 49.6111 60.6271C49.3984 60.8684 49.2393 61.1522 49.1445 61.4596C49.0496 61.767 49.0211 62.091 49.0609 62.4102H54.606C55.5093 62.347 56.0953 61.507 55.7781 60.6502Z" fill="white"/>
<path d="M35.6879 40.974L35.7353 40.9581H35.7037C37.6975 39.8921 39.7497 38.9393 41.8507 38.1042C43.0395 37.6437 43.8628 36.7721 44.2907 35.5674C44.6261 34.6135 44.9378 33.6513 45.2256 32.6819C43.3242 33.5219 41.5186 34.347 39.7121 35.3609C40.9029 34.4792 42.1234 33.6384 43.3716 32.84C44.8926 31.8726 45.7809 30.7628 46.1288 29.1293C46.3828 27.9572 46.6042 26.8465 46.7781 25.6577C44.6395 26.5135 42.1363 27.7023 40.0609 28.7647C41.2487 27.9166 42.453 27.092 43.673 26.2912C45.9074 24.8326 47.1902 22.6605 47.2851 19.9814C47.3335 18.8084 47.3335 17.6344 47.3009 16.4772C44.2197 18.2564 41.256 20.232 38.4284 22.3916L38.7772 22.0428L27.607 30.4456C28.193 31.4288 28.7009 32.4595 28.9856 33.5526C30.1112 38.1358 27.8451 39.5619 25.4526 41.386C25.3596 41.4574 25.2513 41.5061 25.1363 41.5284L25.1205 41.56L35.6879 40.974Z" fill="white"/>
<path d="M46.4619 8.56558C46.1291 6.68567 45.6849 4.8272 45.1316 3C41.7259 6.33989 38.5248 9.88213 35.5456 13.6074C32.252 17.7153 29.2348 22.0374 26.514 26.5451C26.297 26.8957 26.1887 27.3027 26.2028 27.7148C26.2169 28.1268 26.3527 28.5255 26.593 28.8605C26.7363 29.066 26.8628 29.2726 27.0051 29.4791C27.2116 29.7953 27.4172 30.1284 27.6079 30.4465L38.7772 22.0428C39.8233 20.9961 40.8851 19.9653 41.9623 18.9507L43.3874 17.6186C45.9865 15.2726 47.0953 12.0056 46.4619 8.56558Z" fill="white"/>
<path d="M37.8116 50.4716C36.0487 50.6472 34.3045 50.9759 32.5986 51.454C32.0758 51.5972 31.7902 52.1516 31.9642 52.6595C32.4722 54.1085 33.0866 55.5179 33.8023 56.8763C32.6491 57.6561 31.5676 58.5371 30.5707 59.5088C30.4839 59.5968 30.3801 59.6661 30.2655 59.7125C30.151 59.7589 30.0282 59.7814 29.9047 59.7786H28.7009C28.3792 59.7792 28.0613 59.8481 27.7682 59.9807C27.4752 60.1133 27.2136 60.3067 27.0009 60.548C26.7881 60.7894 26.6291 61.0731 26.5342 61.3805C26.4394 61.6879 26.4109 62.0119 26.4507 62.3312H32.4879C34.2094 60.5191 36.2714 59.0644 38.5558 58.0502C37.9271 55.5757 37.6762 53.0212 37.8116 50.4716Z" fill="white"/>
<path d="M25.4051 26.973C28.0463 22.2964 30.9779 17.7899 34.1828 13.48C34.7056 11.5144 34.4042 9.75442 33.6758 8.15349L31.9791 4.42698C28.6367 10.0242 25.4516 16.0967 22.8535 22.0586C22.4888 22.9144 22.6479 23.8502 23.2814 24.5163C24.0256 25.293 24.7391 26.1014 25.4042 26.974L25.4051 26.973Z" fill="white"/>
</g>
</g>
<defs>
<clipPath id="clip0_1_2">
<rect width="47" height="59" fill="white" transform="translate(9 3)"/>
</clipPath>
</defs>
</svg>
