<svg width="64" height="64" viewBox="0 0 64 64" fill="none" xmlns="http://www.w3.org/2000/svg">
<rect width="64" height="64" fill="white"/>
<g clip-path="url(#clip0_1_2)">
<mask id="mask0_1_2" style="mask-type:luminance" maskUnits="userSpaceOnUse" x="4" y="4" width="56" height="56">
<path d="M60 4H4V60H60V4Z" fill="white"/>
</mask>
<g mask="url(#mask0_1_2)">
<path d="M56.3125 26.9197C57.591 23.1065 57.1507 18.9292 55.1062 15.4607C52.0315 10.1407 45.8503 7.4037 39.8136 8.6917C37.128 5.6852 33.2697 3.97545 29.2247 3.99995C23.0541 3.98595 17.5791 7.93395 15.6807 13.7685C11.7167 14.5752 8.2951 17.041 6.29284 20.5357C3.19523 25.8417 3.90139 32.5302 8.03976 37.0802C6.76126 40.8935 7.20152 45.0707 9.24604 48.5392C12.3208 53.8592 18.5019 56.5962 24.5386 55.3082C27.2224 58.3147 31.0826 60.0245 35.1276 59.9982C41.3017 60.014 46.7784 56.0625 48.6767 50.2227C52.6407 49.416 56.0624 46.9502 58.0647 43.4555C61.1588 38.1495 60.4508 31.4662 56.3142 26.9162L56.3125 26.9197ZM35.1311 56.339C32.6604 56.3425 30.2672 55.4832 28.3706 53.91C28.4569 53.8645 28.6066 53.7822 28.7034 53.7227L39.9245 47.2827C40.4986 46.959 40.8508 46.3517 40.8473 45.6955V29.9752L45.5897 32.6965C45.6407 32.721 45.6742 32.77 45.6812 32.826V45.8442C45.6742 51.6332 40.9565 56.3267 35.1311 56.339ZM12.4423 46.7087C11.2043 44.5842 10.7588 42.094 11.1832 39.6772C11.2659 39.7262 11.4121 39.8155 11.516 39.875L22.7371 46.315C23.3059 46.6457 24.0103 46.6457 24.5809 46.315L38.2798 38.454V43.8965C38.2833 43.9525 38.2569 44.0067 38.2128 44.0417L26.8702 50.55C21.8179 53.441 15.3655 51.7225 12.444 46.7087H12.4423ZM9.48907 22.368C10.7218 20.24 12.6677 18.6125 14.9852 17.7672C14.9852 17.8635 14.9798 18.0332 14.9798 18.1522V31.034C14.9763 31.6885 15.3285 32.2957 15.9009 32.6195L29.5998 40.4787L24.8574 43.2C24.8099 43.2315 24.7499 43.2367 24.6971 43.214L13.3527 36.7005C8.31095 33.799 6.58164 27.3887 9.48731 22.3697L9.48907 22.368ZM48.4531 31.3787L34.7542 23.5177L39.4967 20.7982C39.5442 20.7667 39.604 20.7615 39.6569 20.7842L51.0012 27.2925C56.0518 30.1922 57.7829 36.613 54.8649 41.632C53.6304 43.7565 51.6863 45.384 49.3706 46.231V32.9642C49.3758 32.3097 49.0254 31.7042 48.4548 31.3787H48.4531ZM53.1726 24.3192C53.0899 24.2685 52.9436 24.181 52.8398 24.1215L41.6186 17.6815C41.0499 17.3507 40.3454 17.3507 39.7748 17.6815L26.076 25.5425V20.1C26.0725 20.044 26.0989 19.9897 26.1429 19.9547L37.4855 13.4517C42.5379 10.5555 48.9972 12.2792 51.9099 17.3017C53.1409 19.4227 53.5864 21.906 53.169 24.3192H53.1726ZM23.4979 34.0195L18.7537 31.2982C18.7026 31.2737 18.6692 31.2247 18.6621 31.1687V18.1505C18.6657 12.3545 23.3975 7.65745 29.2299 7.66095C31.6972 7.66095 34.085 8.52195 35.9817 10.09C35.8953 10.1355 35.7475 10.2177 35.6488 10.2772L24.4277 16.7172C23.8536 17.041 23.5014 17.6465 23.5049 18.3027L23.4979 34.016V34.0195ZM26.0742 28.5L32.1761 24.9982L38.278 28.4982V35.5L32.1761 39L26.0742 35.5V28.5Z" fill="black"/>
</g>
</g>
<defs>
<clipPath id="clip0_1_2">
<rect width="56" height="56" fill="white" transform="translate(4 4)"/>
</clipPath>
</defs>
</svg>
