<svg width="64" height="64" viewBox="0 0 64 64" fill="none" xmlns="http://www.w3.org/2000/svg">
<rect width="64" height="64" fill="#FFD600"/>
<g clip-path="url(#clip0_1_2)">
<mask id="mask0_1_2" style="mask-type:luminance" maskUnits="userSpaceOnUse" x="3" y="5" width="58" height="54">
<path d="M61 5H3V59H61V5Z" fill="white"/>
</mask>
<g mask="url(#mask0_1_2)">
<path d="M60.9284 5H3V58.9965H60.9284V5Z" fill="#FFD600"/>
<path d="M41.989 7.56378C41.5453 8.28212 41.3307 9.10513 41.3242 9.92269V9.99016C41.3333 11.2711 41.8586 12.5277 42.8364 13.3293C44.4598 14.65 46.7006 14.2164 47.8532 12.3555C48.2969 11.6387 48.5098 10.8127 48.5193 9.99512V9.93311C48.5089 8.65221 47.9849 7.38866 47.0059 6.58846C46.3735 6.07451 45.6435 5.82696 44.9248 5.82696C43.7995 5.82696 42.6927 6.4307 41.989 7.56378Z" fill="#17193E"/>
<path d="M32.3598 35.2139C37.8295 34.9624 42.2031 29.8006 42.2182 23.4482C42.2368 16.924 37.6486 11.6184 31.9731 11.599H31.9403C26.3674 11.599 21.8259 16.6999 21.6674 23.0681V23.7533C21.822 29.9549 26.1365 34.9654 31.5232 35.2134L32.3598 35.2139Z" fill="#17193E"/>
<path d="M29.7172 51.008H28.9497C28.8167 51.008 28.7761 51.1191 28.7761 51.2094V57.2215C28.7761 57.3113 28.8167 57.4224 28.9497 57.4224H29.7172C29.8198 57.4224 29.8907 57.3515 29.8907 57.2215V51.2094C29.8907 51.0789 29.8198 51.008 29.7172 51.008Z" fill="#17193E"/>
<path d="M43.4355 41.75H40.5814C40.5045 41.75 40.4066 41.7986 40.4066 41.9514V42.8413C40.4066 42.9594 40.4695 43.0427 40.5814 43.0427H41.4395V47.9635C41.4395 48.0934 41.512 48.1644 41.6117 48.1644H42.406C42.5355 48.1644 42.5782 48.0518 42.5782 47.9635V43.0427H43.4355C43.5473 43.0427 43.6099 42.9599 43.6099 42.8413V41.9514C43.6095 41.7991 43.5111 41.75 43.4355 41.75Z" fill="#17193E"/>
<path d="M31.9916 47.9639V45.605H33.1304V47.9634C33.1304 48.0934 33.2041 48.1644 33.3052 48.1644H34.0727C34.2056 48.1644 34.2462 48.0533 34.2462 47.9634V41.9518C34.2462 41.863 34.2056 41.7519 34.0727 41.7519H33.3052C33.2041 41.7519 33.1304 41.8234 33.1304 41.9518V44.3117H31.9916V41.9518C31.9916 41.8234 31.9186 41.7519 31.8194 41.7519H31.0488C30.9159 41.7519 30.8771 41.863 30.8771 41.9518V47.9639C30.8771 48.0538 30.9159 48.1649 31.0488 48.1649H31.8194C31.9186 48.1649 31.9916 48.0934 31.9916 47.9639Z" fill="#17193E"/>
<path d="M18.4904 41.75H17.8269H16.2824H15.6211C15.4877 41.75 15.4096 41.7985 15.4096 42V47.9635C15.4096 48.0518 15.4519 48.1644 15.5818 48.1644H16.3519C16.452 48.1644 16.5241 48.0934 16.5241 47.9635V43.0427H17.5873V47.9635C17.5873 48.0934 17.6594 48.1644 17.7608 48.1644H18.5283C18.6613 48.1644 18.7019 48.0518 18.7019 47.9635V42C18.7014 41.7991 18.6228 41.75 18.4904 41.75Z" fill="#17193E"/>
<path d="M23.9056 47.962V42C23.9056 41.797 23.8274 41.7479 23.6928 41.7479H23.0315H22.7901H22.1198C21.3393 41.7479 20.9159 42.1909 20.9159 43.1608V45.0648C20.9159 45.3997 20.9612 46.427 20.776 46.8751C20.6517 47.1702 20.4584 47.2585 20.3348 47.3364C20.2369 47.4038 20.2158 47.4892 20.2636 47.637C20.2939 47.7342 20.4117 48.0399 20.4475 48.147C20.4812 48.2408 20.5477 48.3222 20.6712 48.2948C20.8736 48.2442 21.174 48.1629 21.4338 47.8712C21.7227 47.5487 22.008 47.2153 22.008 45.2335V43.3414C22.008 42.9232 22.2605 42.9316 22.4807 42.9316H22.7901V47.9615C22.7901 48.0914 22.864 48.1629 22.9637 48.1629H23.7321C23.8633 48.1634 23.9056 48.0502 23.9056 47.962Z" fill="#17193E"/>
<path d="M34.8635 51.008H34.0947C33.9932 51.008 33.9212 51.0789 33.9212 51.2094V53.5693H32.7824V51.2094C32.7824 51.0789 32.7103 51.008 32.6089 51.008H31.84C31.7085 51.008 31.6679 51.1191 31.6679 51.2094V57.2215C31.6679 57.3113 31.7085 57.4224 31.84 57.4224H32.6089C32.7103 57.4224 32.7824 57.3515 32.7824 57.2215V54.8631H33.9212V57.2215C33.9212 57.3515 33.9932 57.4224 34.0947 57.4224H34.8635C34.9964 57.4224 35.0357 57.3113 35.0357 57.2215V51.2094C35.0357 51.1186 34.9964 51.008 34.8635 51.008Z" fill="#17193E"/>
<path d="M36.857 48.1668H38.9354C39.0649 48.1668 39.121 48.092 39.121 47.9377V47.0527C39.121 46.9157 39.0895 46.874 38.9661 46.874H37.175V45.6795H38.3795C38.5128 45.6795 38.5607 45.6174 38.5607 45.4627V44.6104C38.5607 44.4576 38.5037 44.3867 38.3734 44.3867H37.9599H37.4768H37.175V43.0427H38.7662C38.8996 43.0427 38.9384 42.9961 38.9384 42.8413V41.9841C38.9384 41.8278 38.8844 41.75 38.7511 41.75H36.9334H36.8578H36.2509C36.124 41.75 36.0601 41.8313 36.0601 41.9722V47.953C36.0601 48.0533 36.1145 48.1664 36.2219 48.1664H36.8457L36.857 48.1668Z" fill="#17193E"/>
<path d="M29.3865 47.896L27.9542 41.9657C27.918 41.8179 27.8424 41.7504 27.7094 41.7504H27.6629H27.0283H26.9804C26.8474 41.7504 26.7718 41.8179 26.737 41.9657L25.3034 47.896C25.2684 48.0438 25.3323 48.1649 25.4337 48.1649H26.1723C26.3191 48.1649 26.3683 48.1133 26.3972 47.9932L26.5755 47.1811H28.095L28.1161 47.1791L28.2943 47.9932C28.3212 48.1128 28.3712 48.1649 28.518 48.1649H29.2574C29.3576 48.1649 29.4205 48.0433 29.3865 47.896ZM26.8582 45.8864L27.2821 43.951L27.3451 43.4842L27.409 43.951L27.8333 45.8864H26.8582Z" fill="#17193E"/>
<path d="M47.0754 41.9657C47.0404 41.8179 46.9648 41.7504 46.8319 41.7504H46.7853H46.1507H46.1028C45.9698 41.7504 45.8944 41.8179 45.8594 41.9657L44.4258 47.896C44.3908 48.0438 44.4547 48.1649 44.5562 48.1649H45.2943C45.441 48.1649 45.4903 48.1133 45.5192 47.9932L45.6975 47.1811H47.2169L47.238 47.1791L47.4164 47.9932C47.4431 48.1128 47.4932 48.1649 47.64 48.1649H48.3794C48.4795 48.1649 48.5426 48.0438 48.5085 47.896L47.0754 41.9657ZM45.9785 45.8864L46.4046 43.951L46.4676 43.4842L46.5314 43.951L46.9554 45.8864H45.9785Z" fill="#17193E"/>
<path d="M38.464 50.9455C37.4172 50.9455 36.6355 51.6102 36.6355 53.0211C36.6355 53.9458 36.6242 54.0644 36.6242 55.2962C36.6242 56.7577 37.3616 57.4864 38.464 57.4864C39.5695 57.4864 40.2991 56.707 40.2991 55.2962C40.2991 54.3159 40.3051 54.3089 40.3051 53.1233C40.3051 51.7039 39.5121 50.9455 38.464 50.9455ZM39.1741 55.4108C39.1741 55.956 38.89 56.2839 38.464 56.2839C38.0402 56.2839 37.7543 55.9733 37.7543 55.4108C37.7543 54.9355 37.7604 53.3381 37.7604 52.9829C37.7604 52.4377 38.0608 52.1515 38.464 52.1515C38.8689 52.1515 39.1741 52.4744 39.1741 53.0211C39.1741 53.4775 39.1741 55.0308 39.1741 55.4108Z" fill="#17193E"/>
<path d="M26.9877 55.5274C26.7896 54.6026 26.3096 54.2291 25.8442 54.1145L25.8684 54.1075C26.4486 53.9061 26.6648 53.4254 26.8137 52.7939C26.9359 52.2805 27.2096 51.2565 27.2096 51.2565C27.2445 51.1156 27.2005 51.0065 27.0676 51.0065H26.3338C26.2305 51.0065 26.1705 51.0358 26.1373 51.1751C26.1373 51.1751 25.8309 52.4421 25.745 52.8063C25.6439 53.2453 25.4518 53.4432 25.1768 53.4432H24.8475V51.2098C24.8475 51.0794 24.7754 51.0084 24.674 51.0084H23.9056C23.774 51.0084 23.7334 51.1195 23.7334 51.2098V57.222C23.7334 57.3103 23.774 57.4214 23.9056 57.4214H24.674C24.7754 57.4214 24.8475 57.352 24.8475 57.222V54.8388H25.1199C25.3949 54.8388 25.8477 55.0471 25.9608 55.6544C26.0441 56.0973 26.2612 57.2478 26.2612 57.2478C26.2888 57.3797 26.3475 57.4249 26.48 57.4249H27.2191C27.3158 57.4249 27.3836 57.3361 27.352 57.1803C27.352 57.1803 27.0982 56.0373 26.9877 55.5274Z" fill="#17193E"/>
</g>
</g>
<defs>
<clipPath id="clip0_1_2">
<rect width="58" height="54" fill="white" transform="translate(3 5)"/>
</clipPath>
</defs>
</svg>
