<svg width="64" height="64" viewBox="0 0 64 64" fill="none" xmlns="http://www.w3.org/2000/svg">
<g clip-path="url(#clip0_1_2)">
<rect width="64" height="64" fill="white"/>
<g clip-path="url(#clip1_1_2)">
<mask id="mask0_1_2" style="mask-type:luminance" maskUnits="userSpaceOnUse" x="0" y="0" width="64" height="64">
<path d="M0 0H64V64H0V0Z" fill="white"/>
</mask>
<g mask="url(#mask0_1_2)">
<path d="M47.136 34.848H52.704V38.88H47.136V34.848Z" fill="#ED9C00"/>
<path d="M29.856 18.624H75.936V35.904H29.856V18.624Z" fill="#ED9C00"/>
<path d="M0 32V64H64V0H0V32ZM13.427 25.907C13.555 26.048 13.504 26.176 13.184 26.534C12.979 26.778 12.8 27.021 12.8 27.072C12.8 27.174 13.734 27.085 14.17 26.944C14.72 26.764 14.669 27.213 14.067 27.878C13.76 28.211 13.376 28.659 13.222 28.864C12.979 29.21 12.941 29.222 12.864 29.018C12.8 28.877 12.851 28.595 12.979 28.326C13.094 28.07 13.184 27.853 13.159 27.84C13.0079 27.7954 12.8538 27.7613 12.698 27.738C12.314 27.661 12.25 27.699 11.866 28.237C10.266 30.49 9.254 32.525 9.126 33.741C9.05 34.419 9.062 34.432 9.396 34.432C9.587 34.432 9.728 34.509 9.728 34.612C9.728 34.842 9.446 34.944 8.819 34.944C8.435 34.944 8.282 34.88 8.115 34.611C7.923 34.33 7.923 34.201 8.051 33.587C8.269 32.666 9.229 30.758 10.368 29.005C10.868 28.237 11.264 27.597 11.238 27.584C11.213 27.558 10.854 27.507 10.432 27.469L9.664 27.379L8.884 28.378C6.668 31.206 4.8 34.816 5.452 35.02C5.554 35.045 5.721 35.097 5.823 35.135C6.156 35.237 6.028 35.442 5.541 35.57C4.863 35.762 4.684 35.75 4.415 35.455C4.108 35.122 4.21 34.533 4.799 33.292C5.349 32.127 6.745 29.862 7.73 28.543C8.127 28.018 8.447 27.506 8.447 27.403C8.447 27.25 8.14 27.237 6.629 27.301C4.095 27.417 2.917 27.762 2.739 28.466C2.597 29.042 3.148 29.721 4.299 30.412C4.428 30.489 4.479 30.604 4.428 30.693C4.287 30.923 3.097 30.412 2.585 29.913C2.009 29.323 1.919 28.683 2.329 27.916C2.994 26.674 4.837 26.175 7.525 26.495C8.921 26.675 9.035 26.675 9.253 26.457C9.381 26.329 9.663 26.239 9.932 26.239C10.354 26.239 10.392 26.265 10.316 26.546C10.239 26.879 10.469 27.007 11.212 27.007C11.532 27.007 11.685 26.905 11.967 26.495C12.172 26.201 12.415 25.919 12.53 25.855C12.837 25.675 13.26 25.701 13.426 25.906M41.484 25.855C41.701 25.855 41.586 26.175 41.202 26.623L40.818 27.071L41.241 27.148C41.5066 27.1819 41.7765 27.1421 42.021 27.033C42.303 26.905 42.431 26.892 42.571 27.02C42.725 27.148 42.674 27.263 42.213 27.762C41.906 28.095 41.535 28.53 41.394 28.735C41.01 29.26 40.857 29.042 41.113 28.351C41.241 28.031 41.279 27.775 41.228 27.775C41.164 27.775 40.946 27.737 40.741 27.698C40.383 27.621 40.319 27.685 39.449 28.965C38.335 30.604 37.477 32.319 37.247 33.381C37.067 34.277 37.119 34.571 37.477 34.469C37.874 34.367 37.951 34.674 37.567 34.815C37.029 35.02 36.543 34.969 36.287 34.687C36.069 34.444 36.057 34.341 36.197 33.689C36.389 32.741 37.516 30.476 38.591 28.876C39.051 28.185 39.411 27.596 39.371 27.557C39.346 27.519 38.975 27.467 38.553 27.429L37.785 27.353L36.978 28.363C35.173 30.643 33.625 33.394 33.445 34.636C33.369 35.212 33.381 35.237 33.637 35.173C33.907 35.097 34.149 35.263 34.009 35.417C33.8279 35.4935 33.6387 35.5492 33.445 35.583C33.075 35.673 32.882 35.647 32.652 35.493C32.383 35.327 32.357 35.237 32.434 34.713C32.575 33.714 33.919 31.295 35.839 28.607C36.236 28.044 36.607 27.507 36.671 27.404C36.761 27.25 36.453 27.237 34.738 27.301C31.922 27.391 30.796 27.775 30.821 28.645C30.834 29.195 31.141 29.618 31.884 30.092C32.229 30.309 32.511 30.54 32.511 30.604C32.511 30.975 31.218 30.437 30.655 29.836C30.335 29.503 30.271 29.311 30.271 28.825C30.271 27.084 32.229 26.188 35.353 26.495C36.083 26.572 36.773 26.661 36.889 26.7C37.017 26.738 37.221 26.649 37.375 26.495C37.657 26.213 38.489 26.162 38.437 26.431C38.425 26.495 38.399 26.649 38.373 26.751C38.348 26.891 38.501 26.956 39.013 27.007L39.705 27.084L40.089 26.521C40.473 25.957 40.882 25.701 41.189 25.804C41.292 25.829 41.419 25.855 41.484 25.855ZM46.374 26.841C46.322 26.956 45.938 27.596 45.516 28.274C44.658 29.657 43.583 31.615 43.698 31.615C43.749 31.615 44.095 31.359 44.492 31.039C44.965 30.642 45.311 30.463 45.567 30.463C46.245 30.463 46.067 30.732 44.863 31.513C43.519 32.37 43.443 32.563 44.043 33.33C44.389 33.765 44.466 33.753 44.799 33.202C45.209 32.549 45.413 32.818 45.081 33.573C44.658 34.533 43.788 34.483 43.301 33.471C43.058 32.971 42.931 32.997 42.674 33.611C42.469 34.098 41.906 34.533 41.727 34.354C41.65 34.277 41.817 33.817 42.162 33.164C42.469 32.575 42.687 31.986 42.662 31.871C42.623 31.743 42.7 31.564 42.841 31.474C42.969 31.372 43.251 30.924 43.455 30.476C43.673 30.015 44.082 29.221 44.389 28.684C44.684 28.159 44.927 27.673 44.927 27.609C44.927 27.545 45.042 27.289 45.196 27.059C45.426 26.687 45.529 26.623 45.964 26.623C46.374 26.623 46.437 26.661 46.374 26.841ZM16.601 29.541C16.818 29.337 16.933 29.298 17.036 29.401C17.151 29.516 17.113 29.644 16.933 29.9L16.677 30.245L16.985 30.924C17.625 32.319 17.458 33.138 16.395 33.817C15.897 34.137 15.705 34.187 15.129 34.149L14.463 34.111L14.066 35.058C13.631 36.095 13.426 37.375 13.695 37.375C13.772 37.375 13.989 37.26 14.169 37.119C14.514 36.85 14.847 36.786 14.847 36.979C14.847 37.209 14.322 37.733 13.9 37.939C13.337 38.207 13.234 38.194 12.927 37.887C12.453 37.413 12.62 36.505 13.58 34.444C13.849 33.855 14.079 33.279 14.079 33.151C14.079 33.036 14.194 32.831 14.335 32.703C14.475 32.575 14.86 32.05 15.18 31.525L15.769 30.578L15.499 30.284C15.154 29.925 15.167 29.759 15.513 29.516C15.781 29.324 15.82 29.336 16.05 29.567C16.306 29.823 16.307 29.823 16.601 29.541ZM52.388 30.041C52.184 30.425 52.184 30.451 52.529 31.231C52.798 31.82 52.875 32.153 52.824 32.524C52.683 33.599 51.646 34.393 50.545 34.264L49.931 34.188L49.534 35.225C49.099 36.338 48.907 37.413 49.124 37.555C49.188 37.593 49.38 37.529 49.547 37.401C50.366 36.773 50.609 37.106 49.828 37.746C49.316 38.169 48.689 38.271 48.408 37.989C48.036 37.619 48.292 36.364 49.138 34.533C49.508 33.714 49.636 33.317 49.432 33.599C49.202 33.932 48.574 34.303 48.267 34.303C47.78 34.303 47.614 34.085 47.614 33.42V32.844L47.076 33.356C46.091 34.303 45.438 34.559 45.259 34.098C45.092 33.65 45.656 32.217 46.347 31.346C46.769 30.809 47.64 30.463 48.561 30.463C49.252 30.463 49.278 30.54 48.83 31.5C48.459 32.319 48.254 33.663 48.51 33.663C48.6 33.663 48.958 33.471 49.316 33.241C49.79 32.946 50.136 32.549 50.648 31.756L51.338 30.693L51.058 30.386C50.584 29.887 51.083 29.311 51.595 29.772C51.838 29.989 51.851 29.989 52.12 29.721C52.504 29.349 52.67 29.554 52.388 30.041ZM14.308 30.629C14.334 30.834 14.258 31.141 14.142 31.308C13.976 31.577 13.962 31.666 14.091 31.82C14.219 31.986 14.219 32.037 14.065 32.14C14.0088 32.1708 13.9471 32.19 13.8833 32.1965C13.8196 32.203 13.7552 32.1967 13.694 32.178C13.592 32.14 13.208 32.153 12.836 32.204C12.248 32.268 12.12 32.344 11.966 32.652C11.748 33.062 11.723 33.484 11.902 33.599C12.094 33.714 12.836 33.343 13.233 32.908C13.668 32.46 13.95 32.396 13.95 32.754C13.95 33.369 12.376 34.226 11.377 34.149L10.814 34.111L10.827 33.522C10.84 32.345 11.915 30.706 12.772 30.514C12.964 30.476 13.208 30.399 13.31 30.335C13.412 30.271 13.681 30.233 13.886 30.245C14.206 30.271 14.283 30.335 14.308 30.629ZM23.614 30.348C23.665 30.412 23.55 30.693 23.371 30.949C23 31.487 22.641 33.189 22.859 33.407C22.936 33.484 23.153 33.407 23.473 33.177C23.819 32.933 23.985 32.882 24.023 32.985C24.062 33.075 24.254 32.805 24.472 32.383C25.188 30.949 25.892 30.463 27.288 30.463C27.62 30.463 27.928 30.527 27.966 30.591C28.017 30.668 27.889 31.051 27.71 31.449C27.364 32.179 27.121 33.663 27.352 33.663C27.416 33.663 27.659 33.523 27.902 33.343C28.682 32.767 28.682 33.305 27.889 33.97C27.403 34.38 26.699 34.431 26.494 34.06C26.43 33.919 26.366 33.586 26.366 33.33V32.844L25.7 33.522C24.702 34.508 24.062 34.585 24.062 33.714V33.254L23.55 33.714C22.628 34.546 21.77 34.175 21.924 33.01L21.988 32.498L21.169 33.279C20.337 34.047 19.928 34.213 19.608 33.893C19.518 33.803 19.454 33.612 19.454 33.445C19.454 33.164 19.428 33.164 18.865 33.599C17.982 34.277 17.406 34.162 17.406 33.317C17.406 33.074 17.546 32.613 17.713 32.281C17.88 31.949 18.046 31.525 18.084 31.346C18.225 30.796 18.66 30.335 19.057 30.335C19.249 30.335 19.441 30.373 19.492 30.412C19.531 30.45 19.275 31.052 18.916 31.73C18.558 32.421 18.289 33.061 18.328 33.151C18.404 33.407 20.043 31.82 20.132 31.385C20.26 30.77 20.696 30.335 21.195 30.335C21.438 30.335 21.63 30.361 21.63 30.399C21.63 30.425 21.336 31.026 20.964 31.73C20.594 32.434 20.35 33.061 20.401 33.113C20.555 33.266 21.95 31.705 22.257 31.026C22.513 30.476 22.846 30.233 23.32 30.22C23.435 30.207 23.576 30.271 23.614 30.348ZM42.238 30.604C42.353 30.809 42.328 30.975 42.136 31.372C41.995 31.653 41.931 31.909 41.995 31.948C42.276 32.114 42.059 32.255 41.483 32.255C40.318 32.255 40.1 32.357 39.857 32.985C39.473 33.983 40.139 34.073 41.137 33.151C41.726 32.613 41.982 32.511 41.982 32.831C41.982 33.407 40.587 34.213 39.55 34.226C38.859 34.239 38.846 34.239 38.808 33.842C38.756 33.317 39.218 32.114 39.729 31.449C40.036 31.039 40.318 30.847 40.894 30.642C41.88 30.284 42.072 30.284 42.238 30.604ZM54.974 30.463C55.012 30.527 54.987 30.591 54.91 30.591C54.833 30.591 54.795 30.642 54.846 30.706C54.884 30.77 54.782 31.09 54.628 31.41C54.475 31.73 54.385 32.025 54.424 32.063C54.462 32.114 54.692 32.101 54.936 32.063C55.294 31.999 55.409 31.897 55.537 31.538C55.691 31.116 56.075 30.847 56.523 30.847C56.804 30.847 56.728 31.282 56.382 31.615C56.202 31.781 55.947 32.281 55.806 32.741C55.499 33.74 55.499 33.714 55.78 33.599C57.15 33.023 57.342 33.01 57.508 33.433C57.611 33.727 57.752 33.727 58.123 33.407L58.43 33.151L58.084 32.882C57.572 32.498 57.611 32.037 58.238 31.244C58.75 30.591 59.108 30.399 59.658 30.489C59.992 30.527 60.018 30.693 59.851 32.127C59.812 32.511 59.761 32.921 59.748 33.023C59.684 33.753 59.953 33.843 60.632 33.33C61.105 32.972 61.246 32.985 61.118 33.394C61.016 33.727 60.196 34.303 59.838 34.303C59.428 34.303 59.006 33.945 59.006 33.586C59.006 33.189 58.929 33.202 58.532 33.676C58.084 34.201 57.675 34.341 57.137 34.175C56.843 34.073 56.702 33.945 56.702 33.778C56.702 33.484 56.536 33.471 56.305 33.753C56.075 34.021 55.358 34.316 55.128 34.226C54.833 34.124 54.782 33.701 54.974 33.074C55.166 32.447 55.114 32.409 54.436 32.639C54.168 32.741 53.976 32.959 53.72 33.484C53.387 34.149 52.888 34.546 52.593 34.367C52.529 34.316 52.696 33.881 52.952 33.369C53.195 32.857 53.54 32.076 53.707 31.615C54.078 30.591 54.705 30.028 54.974 30.463ZM25.92 37.312C27.02 37.76 26.688 39.296 25.485 39.296C24.781 39.296 24.32 38.899 24.32 38.298C24.333 37.76 24.525 37.44 24.973 37.261C25.395 37.094 25.421 37.094 25.92 37.312ZM30.323 37.261C30.797 37.427 30.976 37.709 30.976 38.285C30.976 38.899 30.554 39.296 29.901 39.296C29.299 39.283 28.992 39.091 28.813 38.63C28.621 38.106 28.813 37.594 29.325 37.35C29.837 37.082 29.811 37.082 30.323 37.26M38.246 37.26C38.605 37.388 38.874 37.708 38.72 37.861C38.682 37.9 38.464 37.823 38.22 37.695C37.811 37.465 37.76 37.465 37.453 37.669C37.094 37.913 36.992 38.476 37.273 38.757C37.491 38.975 38.233 38.949 38.323 38.719C38.4 38.489 38.784 38.463 38.784 38.681C38.784 39.269 37.555 39.525 36.979 39.051C36.39 38.578 36.685 37.349 37.427 37.209C37.568 37.183 37.734 37.145 37.773 37.132C37.811 37.132 38.029 37.183 38.246 37.26ZM21.862 37.4C21.824 37.49 21.645 37.58 21.466 37.605C21.133 37.644 21.12 37.669 21.12 38.475C21.12 39.205 21.094 39.295 20.864 39.295C20.634 39.295 20.608 39.205 20.608 38.475C20.608 37.669 20.595 37.644 20.262 37.605C20.083 37.58 19.904 37.49 19.866 37.401C19.827 37.285 20.083 37.247 20.864 37.247C21.644 37.247 21.901 37.284 21.862 37.4ZM23.732 37.491C23.91 37.683 23.923 37.798 23.808 38.003C23.718 38.183 23.718 38.2727 23.808 38.272C23.872 38.272 23.936 38.438 23.936 38.656C23.936 39.142 23.642 39.296 22.733 39.296H22.016V37.248H22.758C23.334 37.248 23.566 37.299 23.732 37.491ZM28.543 37.44C28.543 37.58 28.389 37.632 27.967 37.632H27.391V38.464C27.391 39.117 27.353 39.296 27.199 39.296C27.045 39.296 27.007 39.091 27.007 38.272V37.248H27.775C28.377 37.248 28.543 37.286 28.543 37.44ZM33.663 37.965L33.957 38.682L34.239 38.003C34.482 37.453 34.597 37.299 34.866 37.273L35.199 37.235V38.259C35.199 39.206 35.173 39.296 34.943 39.296C34.725 39.296 34.687 39.206 34.687 38.682L34.674 38.08L34.405 38.682C34.265 39.027 34.06 39.296 33.957 39.296C33.855 39.296 33.65 39.027 33.497 38.682L33.215 38.08L33.177 38.682C33.151 39.117 33.087 39.296 32.947 39.296C32.805 39.296 32.767 39.078 32.767 38.272C32.767 37.286 32.78 37.248 33.061 37.248C33.305 37.248 33.42 37.388 33.663 37.965ZM36.223 38.272C36.223 39.206 36.197 39.296 35.967 39.296C35.737 39.296 35.711 39.206 35.711 38.272C35.711 37.338 35.737 37.248 35.967 37.248C36.197 37.248 36.223 37.338 36.223 38.272ZM40.959 37.44C40.959 37.568 40.831 37.632 40.575 37.632H40.191V38.464C40.191 39.206 40.165 39.296 39.935 39.296C39.795 39.296 39.692 39.258 39.692 39.194C39.705 39.142 39.705 38.771 39.692 38.362C39.679 37.67 39.666 37.632 39.359 37.632C39.154 37.632 39.039 37.555 39.039 37.44C39.039 37.286 39.231 37.248 39.999 37.248C40.767 37.248 40.959 37.286 40.959 37.44ZM42.239 37.594C42.981 39.194 43.019 39.296 42.764 39.296C42.636 39.296 42.469 39.156 42.393 38.976C42.277 38.733 42.149 38.656 41.855 38.656C41.561 38.656 41.433 38.733 41.343 38.976C41.279 39.156 41.138 39.296 41.023 39.296C40.767 39.296 40.767 39.296 41.228 38.196C41.663 37.158 41.945 36.979 42.239 37.594ZM19.199 37.811C19.276 37.914 19.327 38.131 19.301 38.298C19.276 38.541 19.186 38.592 18.815 38.592C18.444 38.592 18.355 38.541 18.329 38.298C18.277 37.939 18.508 37.632 18.815 37.632C18.943 37.632 19.109 37.721 19.199 37.811ZM44.594 37.915C44.786 38.222 44.556 38.58 44.121 38.631C43.698 38.683 43.442 38.273 43.647 37.876C43.827 37.556 44.389 37.582 44.594 37.915Z" fill="black"/>
<path d="M15.744 31.834C15.347 32.653 15.334 32.678 15.053 33.075C14.848 33.37 14.835 33.446 14.989 33.549C15.616 33.946 16.576 33.357 16.55 32.602C16.538 32.077 16.282 31.232 16.14 31.232C16.077 31.232 15.898 31.501 15.744 31.834ZM47.54 31.22C47.168 31.45 46.208 33.037 46.208 33.42C46.208 33.728 47.206 32.614 47.616 31.846C47.846 31.424 48 31.066 47.974 31.04C47.949 31.014 47.758 31.091 47.54 31.22ZM51.29 31.77C51.098 32.102 50.944 32.448 50.944 32.55C50.944 32.653 50.854 32.806 50.739 32.896C50.394 33.19 50.253 33.549 50.445 33.676C50.765 33.869 51.418 33.805 51.763 33.523C52.032 33.318 52.096 33.152 52.096 32.729C52.096 32.435 51.994 31.962 51.866 31.693L51.636 31.181L51.29 31.77ZM13.12 30.95C12.9594 31.0789 12.8135 31.2251 12.685 31.386C12.531 31.59 12.557 31.616 12.915 31.616C13.222 31.616 13.325 31.552 13.389 31.296C13.504 30.836 13.402 30.707 13.12 30.95ZM26.048 31.5C25.677 31.949 25.088 33.05 25.088 33.306C25.088 33.6 25.971 32.602 26.368 31.859C26.816 31.002 26.65 30.808 26.048 31.5ZM40.922 31.206C40.499 31.654 40.486 31.744 40.896 31.744C41.203 31.744 41.472 31.424 41.472 31.053C41.472 30.758 41.306 30.797 40.922 31.206ZM58.688 31.296C58.304 31.667 58.278 32.076 58.624 32.256C58.842 32.371 58.906 32.32 59.136 31.859C59.558 31.04 59.29 30.694 58.688 31.296ZM24.96 37.76C24.653 38.067 24.627 38.438 24.909 38.707C25.139 38.95 25.741 38.976 25.959 38.758C26.214 38.502 26.138 37.926 25.83 37.708C25.446 37.44 25.267 37.453 24.96 37.76ZM29.466 37.709C28.916 38.093 29.196 38.912 29.888 38.912C30.566 38.912 30.822 38.246 30.336 37.76C30.029 37.453 29.85 37.44 29.466 37.709ZM22.528 37.837C22.528 37.977 22.63 38.016 22.938 37.99C23.526 37.94 23.565 37.632 22.988 37.632C22.656 37.632 22.528 37.683 22.528 37.837ZM22.528 38.656C22.528 38.886 22.592 38.925 23.014 38.886C23.334 38.861 23.488 38.784 23.488 38.656C23.488 38.528 23.334 38.451 23.014 38.426C22.592 38.387 22.528 38.426 22.528 38.656ZM41.677 38.093C41.562 38.387 41.574 38.4 41.856 38.4C41.996 38.4 42.112 38.374 42.112 38.349C42.112 38.195 41.946 37.888 41.856 37.888C41.805 37.888 41.717 37.978 41.677 38.093Z" fill="black"/>
</g>
</g>
</g>
<defs>
<clipPath id="clip0_1_2">
<rect width="64" height="64" fill="white"/>
</clipPath>
<clipPath id="clip1_1_2">
<rect width="64" height="64" fill="white"/>
</clipPath>
</defs>
</svg>
