<svg width="64" height="64" viewBox="0 0 64 64" fill="none" xmlns="http://www.w3.org/2000/svg">
<rect width="64" height="64" fill="#E2057D"/>
<g clip-path="url(#clip0_1_2)">
<mask id="mask0_1_2" style="mask-type:luminance" maskUnits="userSpaceOnUse" x="4" y="27" width="58" height="10">
<path d="M61.9729 27H4V37H61.9729V27Z" fill="white"/>
</mask>
<g mask="url(#mask0_1_2)">
<path d="M7.56923 36.6875V27.3125H10.5918C10.9995 27.3125 11.381 27.3846 11.7373 27.5287C12.0926 27.6729 12.4028 27.8753 12.6669 28.1373C12.931 28.3993 13.1386 28.7116 13.2905 29.0731C13.4425 29.4357 13.5179 29.835 13.5179 30.2708C13.5179 30.7067 13.4414 31.1197 13.2905 31.4823C13.1386 31.845 12.931 32.1562 12.6669 32.4181C12.4028 32.6801 12.0926 32.8826 11.7373 33.0267C11.381 33.1709 10.9995 33.2429 10.5918 33.2429H9.18847V36.6863H7.56923V36.6875ZM10.6159 31.5682C11.0393 31.5682 11.36 31.4366 11.5759 31.1758C11.7918 30.9138 11.8997 30.6129 11.8997 30.272C11.8997 30.1061 11.8736 29.9448 11.8222 29.7881C11.7698 29.6314 11.6901 29.4929 11.5822 29.3751C11.4743 29.2573 11.3401 29.1635 11.1808 29.0937C11.0204 29.0239 10.8328 28.9884 10.617 28.9884H9.18951V31.5682H10.617H10.6159Z" fill="white"/>
<path d="M14.1128 27.3125H17.4306C17.8882 27.3125 18.3036 27.3869 18.6768 27.5356C19.05 27.6843 19.3699 27.889 19.6365 28.1509C19.9031 28.4129 20.1086 28.7252 20.253 29.0866C20.3974 29.4492 20.4696 29.8438 20.4696 30.2717C20.4696 30.5862 20.4185 30.8802 20.3174 31.1558C20.2152 31.4304 20.0764 31.6797 19.8975 31.9016C19.7198 32.1247 19.5121 32.3203 19.2744 32.4907C19.0367 32.6612 18.7868 32.7938 18.5247 32.8899L18.5124 32.9814L20.9538 36.5823V36.6875H18.9834L16.6309 33.1656L15.83 31.9726V36.6875H14.1139V27.3125H14.1128ZM17.4184 31.5413C17.8083 31.5413 18.1281 31.4189 18.3781 31.1753C18.628 30.9305 18.7535 30.6205 18.7535 30.2453C18.7535 30.0795 18.7257 29.9182 18.6713 29.7603C18.6157 29.6036 18.5336 29.4641 18.4236 29.3417C18.3136 29.2193 18.1759 29.1209 18.0104 29.0477C17.8449 28.9734 17.6561 28.9368 17.445 28.9368H15.83V31.5425H17.4195L17.4184 31.5413Z" fill="white"/>
<path d="M52.7795 27.3125H55.9531C56.3907 27.3125 56.788 27.3869 57.145 27.5356C57.5022 27.6843 57.8079 27.889 58.0631 28.1509C58.318 28.4129 58.5146 28.7252 58.6527 29.0866C58.7907 29.4492 58.86 29.8438 58.86 30.2717C58.86 30.5862 58.8109 30.8802 58.7142 31.1558C58.6167 31.4304 58.4837 31.6797 58.3127 31.9016C58.1425 32.1247 57.9442 32.3203 57.7166 32.4907C57.4894 32.6612 57.2502 32.7938 56.9995 32.8899L56.9879 32.9814L59.3231 36.5823V36.6875H57.4382L55.1881 33.1656L54.4219 31.9726V36.6875H52.7807V27.3125H52.7795ZM55.9412 31.5413C56.3142 31.5413 56.6203 31.4189 56.8594 31.1753C57.0983 30.9305 57.2184 30.6205 57.2184 30.2453C57.2184 30.0795 57.1919 29.9182 57.1399 29.7603C57.0867 29.6036 57.0081 29.4641 56.9028 29.3417C56.7975 29.2193 56.6658 29.1209 56.5075 29.0477C56.3493 28.9734 56.1688 28.9368 55.9668 28.9368H54.4219V31.5425H55.9424L55.9412 31.5413Z" fill="white"/>
<path d="M25.4159 36.6875C24.779 36.6875 24.1891 36.566 23.644 36.324C23.0989 36.082 22.6278 35.7491 22.2306 35.3276C21.8325 34.906 21.5208 34.4089 21.2936 33.8362C21.0675 33.2636 20.9538 32.6515 20.9538 32C20.9538 31.3485 21.0675 30.7364 21.2936 30.1637C21.5208 29.5911 21.8325 29.094 22.2306 28.6724C22.6278 28.2509 23.0999 27.918 23.644 27.676C24.1891 27.434 24.779 27.3125 25.4159 27.3125C26.0528 27.3125 26.6427 27.434 27.1878 27.676C27.7329 27.918 28.2041 28.2509 28.6012 28.6724C28.9983 29.094 29.311 29.5911 29.5371 30.1637C29.7643 30.7364 29.8769 31.3485 29.8769 32C29.8769 32.6515 29.7633 33.2636 29.5371 33.8362C29.311 34.4089 28.9983 34.906 28.6012 35.3276C28.203 35.7491 27.7319 36.082 27.1878 36.324C26.6427 36.566 26.0528 36.6875 25.4159 36.6875ZM25.4159 35.0834C25.813 35.0834 26.1851 35.0078 26.5312 34.8578C26.8772 34.7078 27.1795 34.4987 27.4379 34.2315C27.6965 33.9643 27.8986 33.6402 28.0466 33.2603C28.1936 32.8803 28.2676 32.4599 28.2676 32.0011C28.2676 31.5423 28.1936 31.1218 28.0466 30.7419C27.8997 30.3619 27.6965 30.0378 27.4379 29.7707C27.1795 29.5035 26.8772 29.2944 26.5312 29.1444C26.1851 28.9943 25.813 28.9188 25.4159 28.9188C25.0188 28.9188 24.6467 28.9943 24.3007 29.1444C23.9546 29.2944 23.6523 29.5035 23.3939 29.7707C23.1354 30.0378 22.9321 30.3619 22.7852 30.7419C22.6382 31.1218 22.5642 31.5423 22.5642 32.0011C22.5642 32.4599 22.6382 32.8803 22.7852 33.2603C22.9321 33.6402 23.1354 33.9643 23.3939 34.2315C23.6523 34.4987 23.9546 34.7078 24.3007 34.8578C24.6467 35.0078 25.0188 35.0834 25.4159 35.0834Z" fill="white"/>
<path d="M33.4312 36.6853C33.057 36.6853 32.6988 36.6306 32.3577 36.5222C32.0165 36.4137 31.7031 36.2506 31.4185 36.0338C31.1338 35.817 30.8854 35.5509 30.6743 35.2378C30.4622 34.9246 30.2959 34.5589 30.1744 34.1406L31.7244 33.5143C31.8385 33.9654 32.0379 34.3399 32.3225 34.6356C32.6071 34.9323 32.9813 35.0801 33.4451 35.0801C33.6157 35.0801 33.7808 35.0571 33.9399 35.0111C34.0987 34.9651 34.2403 34.8983 34.3673 34.8108C34.4931 34.7232 34.5934 34.6126 34.6656 34.479C34.7394 34.3454 34.7757 34.191 34.7757 34.0158C34.7757 33.8406 34.7468 33.6983 34.6903 33.5647C34.6338 33.4311 34.5377 33.3063 34.4036 33.1891C34.2692 33.072 34.0943 32.9592 33.8789 32.8508C33.6636 32.7424 33.3971 32.6296 33.0794 32.5124L32.5421 32.3121C32.3065 32.2288 32.0677 32.1161 31.8278 31.9737C31.588 31.8314 31.3705 31.6606 31.1754 31.4602C30.9803 31.2598 30.8193 31.0233 30.6935 30.7517C30.5677 30.4802 30.5048 30.1736 30.5048 29.8309C30.5048 29.4882 30.572 29.152 30.7063 28.8476C30.8406 28.5432 31.0315 28.275 31.2799 28.045C31.5283 27.8151 31.8247 27.6355 32.1711 27.5063C32.5165 27.3771 32.9014 27.3125 33.3246 27.3125C33.7478 27.3125 34.1445 27.3727 34.4655 27.4943C34.7861 27.6158 35.0591 27.7702 35.2831 27.9585C35.5068 28.1469 35.6882 28.3538 35.8256 28.5783C35.9642 28.8038 36.0654 29.0173 36.1305 29.2177L34.6784 29.844C34.5975 29.5933 34.4482 29.3677 34.2329 29.1674C34.0175 28.967 33.7223 28.8662 33.3481 28.8662C32.9739 28.8662 32.6935 28.9516 32.4568 29.1236C32.2212 29.2955 32.1029 29.5188 32.1029 29.7937C32.1029 30.0685 32.217 30.2886 32.444 30.4769C32.6722 30.6652 33.0336 30.847 33.5304 31.0222L34.0794 31.2105C34.4292 31.3354 34.7489 31.4799 35.0368 31.643C35.3257 31.8062 35.574 32 35.7807 32.2256C35.9886 32.4511 36.1466 32.7084 36.2563 32.9964C36.3661 33.2844 36.4205 33.6173 36.4205 33.9928C36.4205 34.4604 36.3289 34.8644 36.1466 35.2028C35.9631 35.5411 35.7296 35.8192 35.4449 36.036C35.1603 36.2539 34.8385 36.4159 34.4812 36.5243C34.1231 36.6327 33.7733 36.6875 33.4323 36.6875L33.4312 36.6853Z" fill="white"/>
<path d="M39.0531 36.6875V28.9884H36.7179V27.3125H42.9641V28.9884H40.6289V36.6875H39.0531Z" fill="white"/>
<path d="M47.575 36.6875C46.9167 36.6875 46.3073 36.566 45.7439 36.324C45.1806 36.082 44.6937 35.7491 44.2835 35.3276C43.8722 34.906 43.5501 34.4089 43.3151 33.8362C43.0816 33.2636 42.9641 32.6515 42.9641 32C42.9641 31.3485 43.0816 30.7364 43.3151 30.1637C43.5489 29.5911 43.8722 29.094 44.2835 28.6724C44.6937 28.2509 45.1818 27.918 45.7439 27.676C46.3073 27.434 46.9167 27.3125 47.575 27.3125C48.2329 27.3125 48.8426 27.434 49.406 27.676C49.969 27.918 50.4559 28.2509 50.8664 28.6724C51.2765 29.094 51.5999 29.5911 51.8336 30.1637C52.0671 30.7364 52.1846 31.3485 52.1846 32C52.1846 32.6515 52.0671 33.2636 51.8336 33.8362C51.5999 34.4089 51.2765 34.906 50.8664 35.3276C50.455 35.7491 49.9681 36.082 49.406 36.324C48.8426 36.566 48.2329 36.6875 47.575 36.6875ZM47.575 35.0834C47.9851 35.0834 48.3697 35.0078 48.7272 34.8578C49.085 34.7078 49.3973 34.4987 49.6644 34.2315C49.9315 33.9643 50.1415 33.6402 50.2932 33.2603C50.4452 32.8803 50.5217 32.4599 50.5217 32.0011C50.5217 31.5423 50.4452 31.1218 50.2932 30.7419C50.1415 30.3619 49.9315 30.0378 49.6644 29.7707C49.3973 29.5035 49.085 29.2944 48.7272 29.1444C48.3697 28.9943 47.9851 28.9188 47.575 28.9188C47.1645 28.9188 46.7799 28.9943 46.4224 29.1444C46.0649 29.2944 45.7526 29.5035 45.4855 29.7707C45.2184 30.0378 45.0084 30.3619 44.8564 30.7419C44.7047 31.1218 44.6283 31.5423 44.6283 32.0011C44.6283 32.4599 44.7047 32.8803 44.8564 33.2603C45.0084 33.6402 45.2184 33.9643 45.4855 34.2315C45.7526 34.4987 46.0649 34.7078 46.4224 34.8578C46.7799 35.0078 47.1645 35.0834 47.575 35.0834Z" fill="white"/>
<path d="M5.18974 36.6875C5.35597 36.6875 5.5107 36.6565 5.65498 36.5957C5.79925 36.5348 5.92575 36.4505 6.03344 36.3417C6.14112 36.2327 6.2258 36.1025 6.28749 35.9477C6.34917 35.794 6.37949 35.6232 6.37949 35.4375C6.37949 35.2518 6.34917 35.081 6.28749 34.9273C6.2258 34.7735 6.14112 34.6423 6.03344 34.5333C5.92575 34.4245 5.79925 34.3402 5.65498 34.2793C5.5107 34.2185 5.35597 34.1875 5.18974 34.1875C5.02351 34.1875 4.86878 34.2185 4.72451 34.2793C4.58023 34.3402 4.45373 34.4245 4.34605 34.5333C4.23837 34.6423 4.15368 34.7725 4.092 34.9273C4.03032 35.081 4 35.2518 4 35.4375C4 35.6232 4.03032 35.794 4.092 35.9477C4.15368 36.1015 4.23837 36.2327 4.34605 36.3417C4.45373 36.4505 4.58023 36.5348 4.72451 36.5957C4.86878 36.6565 5.02351 36.6875 5.18974 36.6875Z" fill="white"/>
</g>
</g>
<defs>
<clipPath id="clip0_1_2">
<rect width="56" height="10" fill="white" transform="translate(4 27)"/>
</clipPath>
</defs>
</svg>
