<svg width="64" height="64" viewBox="0 0 64 64" fill="none" xmlns="http://www.w3.org/2000/svg">
<rect width="64" height="64" fill="#EE2C23"/>
<g clip-path="url(#clip0_1_2)">
<path d="M52.4657 11.5343C47.2457 6.23143 40.0371 3 32 3C23.9629 3 16.7543 6.23143 11.5343 11.5343C6.31429 16.8371 3 23.9629 3 32C3 40.0371 6.23143 47.2457 11.5343 52.4657C16.7543 57.6857 24.0457 61 32 61C39.9543 61 47.2457 57.7686 52.4657 52.4657C57.6857 47.2457 61 39.9543 61 32C61 24.0457 57.7686 16.7543 52.4657 11.5343ZM51.3886 51.3886C46.4171 56.36 39.6229 59.4257 32 59.4257C24.3771 59.4257 17.5829 56.36 12.6114 51.3886C7.64 46.4171 4.57429 39.6229 4.57429 32C4.57429 24.3771 7.64 17.5829 12.6114 12.6114C17.5829 7.72286 24.46 4.65714 32 4.65714C39.54 4.65714 46.4171 7.72286 51.3886 12.6943C56.36 17.6657 59.4257 24.46 59.4257 32.0829C59.4257 39.7057 56.36 46.5 51.3886 51.4714V51.3886ZM24.3771 32.3314C24.3771 31.9171 24.1286 31.6686 23.7971 31.8343C23.6314 31.8343 23.5486 32 23.3829 32.0829C23.3 32.0829 23.1343 32.2486 22.9686 32.3314C22.72 32.58 22.4714 33.16 22.4714 33.4086V34.0714C22.4714 34.4029 22.72 34.4857 22.9686 34.32C23.1343 34.32 23.2171 34.32 23.3829 34.2371C23.5486 34.2371 23.6314 34.1543 23.7971 34.0714C24.0457 34.0714 24.3771 33.6571 24.3771 33.2429V32.3314ZM23.7971 34.6514C23.6314 34.6514 23.5486 34.6514 23.3829 34.7343C23.3 34.7343 23.1343 34.7343 22.9686 34.8171C22.72 34.9 22.4714 35.2314 22.4714 35.5629V36.3086C22.4714 36.5571 22.72 36.8886 22.9686 36.9714C23.1343 36.9714 23.2171 36.9714 23.3829 36.9714C23.5486 36.9714 23.6314 36.9714 23.7971 36.9714C24.0457 36.9714 24.3771 36.64 24.3771 36.2257V35.3143C24.3771 34.9829 24.1286 34.6514 23.7971 34.7343V34.6514ZM26.8629 31.9171C26.8629 31.5857 26.6971 31.2543 26.4486 31.2543H26.3657C26.1171 31.2543 25.8686 31.2543 25.62 31.3371C25.2886 31.3371 25.04 31.7514 25.04 32.0829V33.0771C25.04 33.4914 25.2886 33.74 25.62 33.74C25.8686 33.74 26.1171 33.74 26.3657 33.6571H26.4486C26.6971 33.5743 26.8629 33.2429 26.8629 32.9114V32V31.9171ZM26.4486 34.2371C26.4486 34.2371 26.4486 34.2371 26.3657 34.2371C26.1171 34.2371 25.8686 34.2371 25.62 34.2371C25.2886 34.2371 25.04 34.6514 25.04 35.0657V35.9771C25.04 36.3914 25.2886 36.64 25.62 36.64C25.8686 36.64 26.1171 36.64 26.3657 36.64C26.6143 36.64 26.3657 36.64 26.4486 36.64C26.6971 36.64 26.8629 36.3086 26.8629 35.9771V34.9829C26.8629 34.6514 26.6971 34.32 26.4486 34.32V34.2371ZM43.2686 40.8657C43.5171 40.6171 43.7657 40.2029 44.0143 39.7057C44.2629 39.8714 44.5114 39.9543 44.6771 40.12C44.8429 40.2029 45.0086 40.2857 45.1743 40.4514C45.0086 40.9486 44.8429 41.1971 44.76 41.4457L43.2686 40.9486V40.8657ZM44.5943 38.4629C44.5943 38.4629 44.6771 38.4629 44.76 38.4629C44.9257 38.5457 45.0914 38.7114 45.2571 38.7943C45.5057 38.96 45.6714 39.0429 45.8371 39.2086C45.6714 39.54 45.5886 39.8714 45.4229 40.12C45.4229 40.12 45.34 40.12 45.2571 40.0371C45.0914 39.8714 44.9257 39.7886 44.76 39.7057C44.5943 39.54 44.4286 39.4571 44.2629 39.2914C44.4286 39.0429 44.5114 38.7114 44.6771 38.4629H44.5943ZM46.9971 42.0257H46.8314L46.6657 41.86L45.2571 41.4457H45.0914C45.0914 41.3629 45.4229 40.7829 45.5057 40.5343C46.0857 40.9486 46.3343 41.1971 46.3343 41.1971C46.3343 41.1971 46.4171 41.1143 45.6714 40.3686C45.8371 40.0371 46.0029 39.7057 46.0857 39.4571C46.5 39.7886 46.6657 40.12 46.7486 40.12C46.7486 40.12 46.7486 40.12 46.8314 40.12C46.8314 40.12 46.7486 39.9543 46.5829 39.7886C46.4171 39.6229 46.3343 39.4571 46.1686 39.2914C46.4171 38.7943 46.5829 38.38 46.5829 38.38V38.1314C46.6657 38.1314 46.5 37.4686 46.2514 37.9657C46.1686 38.2971 46.0029 38.6286 45.92 38.96C45.6714 38.7943 45.5057 38.5457 45.2571 38.38C45.0914 38.2971 44.9257 38.1314 44.76 38.0486C45.0086 37.3029 45.1743 36.7229 45.0086 36.64C45.0086 36.64 44.8429 36.4743 44.76 36.4743C44.5943 36.3914 44.2629 36.3086 44.18 36.64C44.18 36.9714 44.0971 37.3857 44.0143 37.7171C43.6 37.4686 43.1857 37.3029 43.1857 37.3029C42.9371 37.22 42.7714 37.3029 42.7714 37.4686C42.7714 37.6343 42.7714 37.7171 42.7714 37.7171C43.1857 37.8829 43.5171 37.9657 43.8486 38.1314C43.8486 38.38 43.6829 38.7114 43.6 38.96C43.1857 38.7114 42.6886 38.5457 42.6057 38.6286C42.6057 38.6286 42.44 38.7943 42.5229 39.0429C42.5229 39.0429 42.6886 39.0429 42.7714 39.1257C43.02 39.1257 43.2686 39.2914 43.5171 39.3743C43.2686 40.12 43.02 40.6171 43.02 40.6171C41.1971 40.0371 39.3743 39.7057 39.2914 39.7057C40.4514 38.38 42.2743 36.06 42.44 34.2371C42.5229 33.4086 41.6943 32.9943 41.6114 32.9114C38.96 31.0057 38.2143 32.8286 38.2143 33.16C38.0486 35.9771 37.0543 38.2143 36.64 39.0429H36.4743C33.3257 38.5457 31.5029 38.6286 31.42 38.6286C26.2829 38.5457 22.8857 39.7886 22.3057 40.12C20.4 38.5457 18.9914 35.6457 21.2286 31.42C21.3114 31.1714 21.0629 31.0057 21.0629 31.0057L20.3171 30.5086L20.0686 30.3429C20.0686 30.3429 19.9029 30.3429 19.9857 30.0943C20.1514 29.3486 20.7314 26.9457 22.2229 24.7086C22.4714 24.3771 23.0514 23.6314 22.2229 25.04C21.3943 26.6971 21.2286 28.6857 21.2286 29.7629C21.2286 30.84 21.8914 30.5914 21.8914 30.5914C22.3057 30.3429 22.72 30.0943 23.2171 29.9286C24.2943 29.4314 25.2886 29.0171 26.2 28.6857C30.0114 27.4429 33.4914 27.5257 36.3086 28.1057C39.0429 28.6857 41.1143 29.68 42.5229 30.5086C43.7657 31.2543 44.4286 31.7514 44.4286 31.8343H44.9257L46.0029 31.5857C46.0029 31.5857 46.0857 31.5857 46.1686 31.5029V31.3371C46.0029 30.6743 45.6714 29.1 45.0086 27.36C44.8429 26.9457 44.6771 26.6143 44.5114 26.2829C44.0143 25.2057 43.3514 24.1286 42.6057 23.0514C41.1143 21.1457 39.1257 19.4057 36.3914 18.66C35.3971 18.4114 34.2371 18.2457 32.9943 18.2457V17.9971C32.9943 17.9971 32.9943 17.9971 32.8286 17.9143C32.9943 17.6657 33.0771 17.5 33.0771 17.2514C33.0771 17.0029 33.0771 17.0029 33.0771 17.0029C33.0771 17.0029 32.9943 16.8371 32.8286 16.8371L31.3371 17.0857C31.3371 17.0857 31.1714 17.1686 31.1714 17.2514C31.1714 17.3343 31.1714 17.2514 31.1714 17.4171C31.1714 17.5829 31.2543 17.8314 31.5029 17.9143C31.5029 17.9143 31.5857 18.08 31.6686 18.1629V18.4114C29.68 18.3286 27.8571 18.8257 26.3657 19.5714C25.1229 20.2343 24.0457 20.8971 23.3829 21.4771C22.72 21.9743 22.3057 22.3886 22.3886 22.3886C21.56 23.2171 20.8971 24.0457 20.4829 24.8743C18.3286 28.52 18.5771 31.9171 18.5771 32.4971C18.5771 32.6629 18.66 32.7457 18.8257 32.7457H19.7371C17.6657 37.5514 21.2286 40.2857 21.7257 40.6171C19.0743 41.86 20.6486 43.7657 21.9743 43.02C23.2171 42.6057 31.5857 37.9657 47.08 42.44C47.4114 42.0257 47.2457 42.0257 47.08 42.0257H46.9971ZM7.97143 27.6086L7.64 30.0114L7.39143 31.6686V32.4971C7.30857 32.4971 7.55714 32.4971 7.55714 32.4971V32.2486C7.64 31.9171 7.88857 31.7514 8.22 31.7514L14.1857 32.58L14.4343 31.0057L8.46857 30.1771C8.30286 30.1771 8.13714 30.0114 8.13714 29.7629L8.38571 27.8571C8.38571 27.6914 8.55143 27.5257 8.8 27.5257L14.7657 28.3543L15.0143 26.78L8.22 25.8686L7.97143 27.5257V27.6086ZM16.6714 13.1914C16.5057 13.7714 16.7543 14.2686 16.8371 14.5171C16.8371 14.6 17.3343 15.8429 17.7486 17.0029C16.6714 16.7543 14.6 16.34 14.4343 16.2571C14.1029 16.2571 13.6886 16.2571 13.44 16.5057C13.1914 16.7543 12.6114 17.4171 12.6114 17.4171L12.3629 17.6657L12.5286 17.8314C12.5286 17.8314 12.6114 17.7486 12.7771 17.6657C12.9429 17.5829 13.1914 17.5829 13.1914 17.6657C13.1914 17.6657 17.6657 18.66 18.3286 18.8257C18.3286 18.9914 18.4114 19.1571 18.4114 19.1571C18.4114 19.1571 18.66 19.9857 17.9971 20.4C17.4171 20.8143 16.7543 20.1514 16.5886 20.0686L16.7543 21.6429C17.0857 21.8086 17.9143 22.0571 18.5771 21.3943C19.4057 20.6486 19.1571 19.3229 18.9914 18.9914C18.8257 18.66 17.4171 14.6829 17.3343 14.5171C17.3343 14.3514 17.1686 14.1857 17.3343 13.9371C17.5 13.6886 17.7486 13.7714 17.7486 13.7714L17.5829 12.4457C17.4171 12.4457 16.6714 12.6943 16.5057 13.3571L16.6714 13.1914ZM36.9714 12.6943L38.5457 10.7057C38.5457 11.4514 38.6286 12.4457 38.7114 13.2743L36.9714 12.7771V12.6943ZM40.5343 16.0086C40.3686 15.9257 40.2857 15.6771 40.2857 15.6771C40.2857 15.6771 39.8714 9.87714 39.8714 9.62857C39.8714 9.21429 39.4571 8.88286 39.0429 8.71714C38.6286 8.55143 37.9657 8.38571 37.9657 8.38571V8.63429C37.8829 8.63429 38.1314 8.71714 38.1314 8.8C38.2971 8.88286 38.38 9.04857 38.38 9.13143C38.38 9.21429 38.38 9.38 38.38 9.71143L34.4029 14.5171L35.2314 14.7657L36.4743 13.1914L38.7114 13.8543C38.7114 14.6 38.7943 15.18 38.7943 15.2629C38.7943 15.5943 39.2086 15.9257 39.6229 16.0914C39.9543 16.1743 40.4514 16.34 40.4514 16.34H40.7829C40.7829 16.4229 40.8657 16.1743 40.8657 16.1743C40.8657 16.1743 40.7 16.1743 40.5343 16.0086ZM51.72 28.8514L54.2057 29.4314C53.5429 29.8457 52.7143 30.26 51.9686 30.6743L51.72 28.8514ZM50.1457 33.5743C50.1457 33.3257 50.3114 33.2429 50.3943 33.2429C50.3943 33.2429 55.4486 30.5086 55.78 30.3429C56.1943 30.0943 56.2771 29.68 56.2771 29.2657C56.2771 28.8514 56.1114 28.1057 56.1114 28.1057H55.8629V28.4371C55.8629 28.6857 55.6971 28.7686 55.6143 28.8514C55.6143 28.8514 55.4486 28.9343 55.1171 29.1L49.0686 27.4429V28.3543C49.1514 28.3543 51.14 28.8514 51.14 28.8514L51.4714 31.1714C50.8086 31.5857 50.3114 31.8343 50.2286 31.8343C49.98 32 49.7314 32.4143 49.8143 32.9114C49.8143 33.2429 49.8971 33.74 49.8971 33.74V34.0714H50.2286C50.2286 34.0714 50.2286 33.9057 50.2286 33.74L50.1457 33.5743ZM27.4429 11.12C28.0229 10.8714 28.6857 10.1257 28.4371 9.21429C28.1886 8.38571 26.78 7.80571 25.2886 8.30286C23.6314 8.8 22.8029 9.87714 23.3 11.6171L24.6257 11.2029C24.3771 10.3743 24.5429 9.13143 25.3714 8.88286C26.2829 8.63429 26.78 9.21429 26.9457 9.79429C27.1114 10.6229 26.9457 11.0371 26.2829 11.2857C26.0343 11.3686 25.62 11.4514 25.62 11.4514L25.7857 11.8657C25.7857 11.8657 26.1171 11.7829 26.3657 11.7C27.2771 11.5343 27.8571 11.7829 28.1886 12.9429C28.4371 13.7714 28.2714 14.5171 27.6086 14.7657C26.8629 15.0143 26.3657 14.5171 26.0343 14.2686C25.1229 13.6057 24.2114 13.5229 23.6314 14.2686L23.3 15.5943C24.7914 14.2686 25.5371 16.0086 27.6086 15.4286C29.1 15.0143 30.26 13.6886 29.9286 12.28C29.7629 11.4514 28.9343 10.7057 27.5257 11.0371L27.4429 11.12ZM53.5429 19.3229L49.6486 14.6C49.4829 14.4343 49.3171 14.5171 49.2343 14.6L48.4057 16.4229L48.6543 16.7543L49.4829 16.0086C49.7314 15.8429 49.98 15.8429 50.1457 16.0086L50.6429 16.5886L45.6714 20.6486L46.6657 21.8914L51.6371 17.8314L52.1343 18.4114C52.3 18.5771 52.3 18.9086 52.1343 19.0743L51.3057 19.82L51.5543 20.1514L53.46 19.6543C53.5429 19.5714 53.7086 19.4057 53.5429 19.24V19.3229ZM27.0286 53.3771L28.3543 51.2229C28.52 51.9686 28.6857 52.88 28.8514 53.7086L27.0286 53.3771ZM31.0057 56.36C30.84 56.2771 30.7571 56.1114 30.7571 56.0286C30.7571 56.0286 29.68 50.3943 29.5143 50.0629C29.4314 49.6486 29.0171 49.3171 28.6029 49.3171C28.1886 49.2343 27.4429 49.1514 27.4429 49.1514V49.4L27.6914 49.4829C27.8571 49.5657 27.94 49.7314 28.0229 49.8143C28.0229 49.8143 28.0229 50.0629 28.1057 50.3943L24.7086 55.6971L25.62 55.8629L26.6143 54.1229L28.9343 54.5371C29.1 55.2829 29.1829 55.8629 29.1829 55.9457C29.1829 56.2771 29.5971 56.6086 30.0943 56.6914C30.4257 56.6914 30.9229 56.8571 30.9229 56.8571H31.2543V56.6914C31.2543 56.6914 31.0886 56.6914 30.9229 56.5257L31.0057 56.36ZM46.6657 48.5714L45.5886 46.2514C46.3343 46.5829 47.1629 46.9143 47.9086 47.2457L46.6657 48.5714ZM51.3057 46.9143C51.14 46.9971 50.8914 46.9143 50.8914 46.9143C50.8914 46.9143 45.5886 44.6771 45.2571 44.5114C44.8429 44.3457 44.4286 44.5114 44.0971 44.8429C43.7657 45.1743 43.2686 45.6714 43.2686 45.6714L43.4343 45.8371L43.6829 45.6714C43.8486 45.5886 44.0971 45.6714 44.0971 45.6714C44.0971 45.6714 44.3457 45.7543 44.5943 45.92L46.9971 51.72L47.66 51.0571L46.8314 49.2343L48.4057 47.5771C49.1514 47.9086 49.6486 48.0743 49.7314 48.1571C50.0629 48.24 50.4771 48.1571 50.8086 47.8257C51.0571 47.5771 51.3886 47.2457 51.3886 47.2457L51.6371 46.9971L51.4714 46.8314C51.4714 46.8314 51.4714 46.9143 51.2229 46.9971L51.3057 46.9143ZM40.2029 48.0743L34.4029 49.8971C34.1543 49.8971 34.2371 50.1457 34.32 50.2286L35.6457 51.6371H36.06C36.06 51.5543 35.7286 50.4771 35.7286 50.4771C35.6457 50.2286 35.7286 49.98 36.06 49.8971L36.8057 49.6486L38.7114 55.78L40.2029 55.2829L38.2971 49.1514L39.0429 48.9029C39.2914 48.82 39.54 48.9029 39.6229 49.2343L39.9543 50.3114H40.3686C40.3686 50.2286 40.7 48.24 40.7 48.24C40.7 48.0743 40.6171 47.9914 40.3686 47.9914L40.2029 48.0743ZM18.9086 52.1343C18.9086 52.1343 19.24 49.98 19.5714 48.1571C20.4829 47.8257 21.1457 47.66 21.1457 47.5771C21.3114 47.5771 21.4771 47.4114 21.7257 47.5771C21.9743 47.7429 21.8914 47.9914 21.8914 47.9914L23.3 47.7429C23.3 47.5771 23.0514 46.9143 22.3057 46.8314C21.6429 46.6657 21.1457 46.9971 20.98 46.9971C20.98 46.9971 20.4 47.1629 19.7371 47.4114C19.9029 46.4171 20.0686 45.6714 20.0686 45.5057C20.0686 45.1743 19.9857 44.76 19.6543 44.5943C19.4057 44.3457 18.7429 43.8486 18.7429 43.8486L18.4943 43.6829L18.3286 43.8486C18.3286 43.8486 18.4114 43.9314 18.4943 44.0971C18.66 44.2629 18.5771 44.5114 18.5771 44.5114C18.5771 44.5114 18.2457 46.2514 17.9971 47.9086C17.0029 48.1571 15.4286 48.6543 14.1029 49.0686L14.8486 49.7314C15.8429 49.4 17.0857 48.9857 17.8314 48.7371C17.6657 49.98 17.4171 50.9743 17.4171 51.0571C17.4171 51.3886 17.5 51.8029 17.8314 51.9686C18.08 52.2171 18.7429 52.7143 18.7429 52.7143L18.9914 52.88L19.1571 52.7143C19.1571 52.7143 19.0743 52.6314 18.9914 52.4657C18.9086 52.3 18.9086 52.1343 18.9086 52.0514V52.1343ZM11.2029 39.8714C11.2029 39.1257 11.7829 38.5457 12.5286 38.5457C13.2743 38.5457 13.8543 39.1257 13.8543 39.8714C13.8543 40.6171 13.2743 41.1971 12.5286 41.1971C11.7829 41.1971 11.2029 40.6171 11.2029 39.8714ZM50.3943 39.8714C50.3943 39.1257 50.9743 38.5457 51.72 38.5457C52.4657 38.5457 53.0457 39.1257 53.0457 39.8714C53.0457 40.6171 52.4657 41.1971 51.72 41.1971C50.9743 41.1971 50.3943 40.6171 50.3943 39.8714Z" fill="white"/>
</g>
<defs>
<clipPath id="clip0_1_2">
<rect width="58" height="58" fill="white" transform="translate(3 3)"/>
</clipPath>
</defs>
</svg>
