<svg width="64" height="64" viewBox="0 0 64 64" fill="none" xmlns="http://www.w3.org/2000/svg">
<rect width="64" height="64" fill="#8C0A0D"/>
<path d="M10.1688 18H53.8484C54.0753 18.144 54.3078 18.2859 54.4933 18.4803C54.7931 18.7915 54.966 19.2118 54.9856 19.6368C55.0073 21.0015 54.9849 22.3668 54.987 23.732C54.9807 25.3471 55.0094 26.9621 54.9821 28.5771C54.9618 29.0766 55.0179 29.576 54.9898 30.0754C54.9548 31.1446 55.0158 32.2138 54.9891 33.283C55.0045 35.2392 54.9842 37.1953 54.9814 39.1508C54.9982 39.5984 55.0235 40.0501 54.9534 40.4949C54.8484 41.1124 54.3869 41.6522 53.7889 41.8759C53.3687 42.0465 52.9051 41.9892 52.4626 41.996C38.5971 41.9954 24.7317 41.9954 10.8669 41.996C9.87115 42.024 8.96569 41.1479 9.00352 40.1743C9.00281 33.5559 9.00421 26.9368 9.00281 20.3178C9.00771 19.8579 8.9524 19.3673 9.17227 18.9416C9.36767 18.5179 9.74582 18.2006 10.1688 18ZM10.5448 18.6502C10.0553 18.7949 9.7073 19.2773 9.72899 19.7754C9.72899 26.5513 9.72899 33.328 9.72899 40.1047C9.7108 40.5502 9.98109 40.9869 10.3964 41.1752C10.6933 41.3205 11.035 41.2789 11.3557 41.2844C25.2688 41.2816 39.1818 41.283 53.0956 41.2837C53.7041 41.2994 54.2539 40.7672 54.2511 40.1756C54.2518 33.3758 54.2497 26.5752 54.2518 19.7754C54.2833 19.2486 53.8827 18.7444 53.3582 18.6291C53.062 18.5738 52.7595 18.6025 52.4604 18.597C38.6188 18.5984 24.7772 18.5984 10.9363 18.597C10.8039 18.6004 10.6709 18.61 10.5448 18.6502ZM32.261 21.1857C32.5552 21.0929 32.9067 21.1331 33.1434 21.3372C33.469 21.6292 33.4879 22.1771 33.198 22.4991C32.8598 22.8635 32.1749 22.8382 31.8836 22.4309C31.5811 22.0236 31.7449 21.3406 32.261 21.1857ZM32.3927 21.372C31.9046 21.5876 31.9585 22.4636 32.5173 22.5482C32.9382 22.5912 33.1644 22.1007 33.0502 21.7568C33.0019 21.4716 32.6798 21.2457 32.3927 21.372ZM29.7197 21.2437C29.8423 21.2334 29.9655 21.2232 30.0888 21.2123C30.0734 21.4361 30.0853 21.6606 30.0958 21.8844C30.3451 21.8653 30.5965 21.8694 30.8451 21.8407C30.92 21.634 30.8493 21.3917 30.8101 21.1775C30.9326 21.1741 31.0552 21.1707 31.1777 21.1673C31.1616 21.6851 31.1945 22.2064 31.2645 22.7195C31.1427 22.7256 31.0216 22.7318 30.8997 22.7393C30.9235 22.5059 30.913 22.2712 30.892 22.0386C30.6301 22.0529 30.3689 22.0672 30.1077 22.0822C30.1203 22.3142 30.1343 22.5469 30.1763 22.7768C30.0517 22.783 29.927 22.7898 29.8031 22.7966C29.8486 22.5421 29.8143 22.2842 29.8017 22.0283C29.7863 21.7656 29.7926 21.4989 29.7197 21.2437ZM34.3388 21.3556C34.6357 21.1754 35.0047 21.2273 35.3093 21.3597C35.2778 21.4497 35.2463 21.5391 35.2155 21.6292C35.0628 21.518 34.8871 21.3979 34.6854 21.4531C34.1798 21.5937 34.1231 22.4227 34.6203 22.6117C34.8542 22.7086 35.0943 22.5906 35.2638 22.4336C35.2869 22.5244 35.31 22.6151 35.3338 22.7059C34.9739 22.9167 34.4585 22.9078 34.163 22.5946C33.8219 22.2453 33.9018 21.5957 34.3388 21.3556ZM28.0909 21.5418C28.3556 21.3092 28.7443 21.2928 29.0699 21.3958C29.0482 21.4859 29.0265 21.5753 29.0048 21.6653C28.8395 21.5807 28.6448 21.4709 28.4606 21.576C27.981 21.7943 28.0706 22.6069 28.5839 22.7297C28.8332 22.7959 29.0489 22.6267 29.1973 22.4514C29.2316 22.5366 29.266 22.6219 29.301 22.7065C29.002 22.9665 28.5356 23.0402 28.191 22.8225C27.7478 22.5585 27.6959 21.8687 28.0909 21.5418ZM36.3934 21.4579C36.7974 21.3522 37.3079 21.5412 37.4417 21.9512C37.5404 22.263 37.4571 22.6356 37.2071 22.8601C36.8359 23.1862 36.1693 23.0791 35.92 22.6574C35.6602 22.2323 35.885 21.5835 36.3934 21.4579ZM36.5306 21.6599C36.2477 21.767 36.1139 22.0904 36.1336 22.3688C36.1434 22.6431 36.42 22.8928 36.7043 22.8328C37.0754 22.7448 37.2379 22.2931 37.1286 21.9635C37.0621 21.7233 36.7694 21.5746 36.5306 21.6599ZM38.233 21.6763C38.3534 21.6995 38.4746 21.7227 38.5964 21.7452C38.4578 22.1784 38.3996 22.6315 38.2981 23.0736C38.5285 23.1241 38.7617 23.163 38.9984 23.1773C38.9536 23.2483 38.9094 23.3199 38.8653 23.3909C38.5523 23.3295 38.2393 23.2688 37.9263 23.2074C38.0677 22.7065 38.1896 22.1948 38.233 21.6763ZM24.9838 21.9103C25.3045 21.8468 25.6238 21.78 25.9446 21.7165C25.9397 21.7779 25.9292 21.8994 25.9243 21.9608C25.7331 21.9662 25.5447 21.9956 25.357 22.029C25.3913 22.1832 25.425 22.3374 25.4593 22.4909C25.6406 22.4548 25.8213 22.42 26.0034 22.3893C25.9943 22.4404 25.9761 22.5421 25.9677 22.5933C25.8101 22.6253 25.6532 22.6581 25.4964 22.6902C25.5335 22.8519 25.5692 23.0143 25.6042 23.1767C25.8339 23.1303 26.0643 23.0804 26.2807 22.9911C26.2709 23.0764 26.2611 23.1616 26.2513 23.2469C25.9425 23.3104 25.6322 23.3677 25.3262 23.4414C25.2324 22.9276 25.1505 22.407 24.9838 21.9103ZM23.9593 22.1436C24.0594 22.1184 24.1596 22.0931 24.2604 22.0672C24.3591 22.5933 24.5433 23.0989 24.6617 23.6201C24.1953 23.3684 23.7597 23.0661 23.308 22.7905C23.4173 23.1425 23.4901 23.5055 23.6274 23.8494C23.5265 23.876 23.4257 23.9026 23.3255 23.9299C23.287 23.5806 23.161 23.2497 23.079 22.9092C23.0405 22.7372 22.9796 22.5708 22.8781 22.4247C22.9796 22.4016 23.0818 22.3784 23.1848 22.3552C23.5335 22.5769 23.8823 22.7993 24.2331 23.0184C24.1491 22.725 24.0923 22.4213 23.9593 22.1436ZM40.2442 22.1559C40.3457 22.1832 40.4465 22.2105 40.5488 22.2378C40.6258 22.7959 40.6482 23.3616 40.7729 23.9129C40.6475 23.8815 40.5229 23.8501 40.3982 23.818C40.3975 23.6345 40.3842 23.4509 40.3618 23.2681C40.1804 23.2196 39.9991 23.1705 39.8177 23.1221C39.7029 23.266 39.5943 23.4148 39.5061 23.5758C39.4087 23.5478 39.3107 23.5199 39.2141 23.4926C39.4837 23.1903 39.7267 22.8662 39.99 22.5585C40.095 22.4377 40.1853 22.3047 40.2442 22.1559ZM39.9535 22.9515C40.0817 22.9863 40.2106 23.0204 40.3394 23.0552C40.3177 22.8826 40.296 22.7093 40.2736 22.5366C40.1671 22.6752 40.06 22.813 39.9535 22.9515ZM41.4122 22.495C41.8275 22.6206 42.2441 22.7454 42.6531 22.8901C42.595 22.9501 42.5376 23.0095 42.4801 23.0695C42.3457 23.0081 42.2084 22.9529 42.0705 22.9017C41.9395 23.3404 41.7666 23.7675 41.658 24.2124C41.5439 24.1742 41.4297 24.136 41.3156 24.0984C41.5299 23.6925 41.6181 23.2381 41.7806 22.8116C41.6076 22.7611 41.4332 22.7168 41.2561 22.6847C41.3079 22.6213 41.3597 22.5585 41.4122 22.495ZM21.7786 22.8178C21.8921 22.7782 22.0055 22.7386 22.119 22.6984C22.2716 23.1971 22.4453 23.6925 22.6638 24.1674C22.5482 24.2076 22.4334 24.2479 22.3185 24.2881C22.1855 23.7846 22.0104 23.2865 21.7786 22.8178ZM20.3907 23.3882C20.6883 23.2544 20.9852 23.118 21.2891 22.9993C21.2961 23.0572 21.3087 23.1739 21.315 23.2319C21.1316 23.2831 20.9558 23.3534 20.7835 23.4325C20.8508 23.5738 20.918 23.715 20.9852 23.8562C21.1526 23.7784 21.3207 23.7034 21.4915 23.6338C21.4936 23.687 21.4964 23.7941 21.4985 23.848C21.3557 23.9101 21.2128 23.9715 21.0707 24.0336C21.1596 24.2492 21.2604 24.4608 21.3795 24.6627C21.2688 24.7132 21.1596 24.7644 21.0503 24.8169C20.8802 24.3222 20.6505 23.8439 20.3907 23.3882ZM43.0509 23.0436C43.3576 23.1623 43.6636 23.2838 43.9682 23.4093C43.9129 23.4728 43.8583 23.5362 43.8037 23.599C43.644 23.498 43.4724 23.4182 43.2967 23.3486C43.2371 23.4939 43.1769 23.6399 43.1174 23.7853C43.2876 23.8521 43.4584 23.919 43.6279 23.9893C43.5943 24.0289 43.5257 24.1087 43.4913 24.1489C43.3408 24.0896 43.1895 24.0302 43.0397 23.9702C42.9766 24.123 42.9129 24.2752 42.8492 24.4273C43.067 24.5228 43.2911 24.6061 43.5256 24.6573C43.4563 24.7118 43.4045 24.7964 43.317 24.8224C43.0215 24.7337 42.7427 24.5986 42.4549 24.4894C42.6965 24.0275 42.9038 23.5424 43.0509 23.0436ZM44.4983 24.3645C44.6132 24.327 44.7693 24.4266 44.7609 24.5488C44.791 24.6941 44.6174 24.8231 44.4836 24.763C44.2819 24.7187 44.2953 24.398 44.4983 24.3645ZM19.4362 24.426C19.6071 24.2383 19.9327 24.4703 19.7857 24.6832C19.6281 24.9254 19.2415 24.6497 19.4362 24.426ZM21.9698 26.5049C23.0202 26.3282 24.1736 26.4886 25.0447 27.117C25.8003 27.6437 26.2828 28.4945 26.4053 29.3856C26.572 30.4575 26.3143 31.627 25.5629 32.4492C24.1862 33.9748 21.4719 33.996 20.0307 32.5468C19.3718 31.8733 19.0315 30.9317 19.0588 30.0065C19.0441 29.0684 19.397 28.1125 20.0798 27.4424C20.5896 26.9484 21.2632 26.625 21.9698 26.5049ZM22.4572 27.1872C21.8298 27.25 21.259 27.6171 20.9124 28.1241C20.3564 28.9251 20.217 29.9635 20.4488 30.8949C20.5987 31.5178 20.9411 32.121 21.4936 32.4867C22.3199 33.0489 23.5447 32.9705 24.2737 32.2841C24.967 31.6345 25.2079 30.6445 25.1448 29.7336C25.093 28.9701 24.7954 28.1868 24.1932 27.6744C23.7226 27.2732 23.0713 27.1108 22.4572 27.1872ZM27.6119 27.0856C28.2099 26.5206 29.1098 26.3657 29.9095 26.4974C30.3136 26.5602 30.6756 26.7622 30.9858 27.0139C30.8416 27.3592 30.6924 27.7017 30.5468 28.0463C30.5047 28.0313 30.42 27.9999 30.378 27.9849C30.1847 27.3032 29.3073 26.9778 28.6812 27.3053C28.1679 27.5502 27.948 28.2605 28.3073 28.7136C28.6651 29.1673 29.2681 29.3038 29.7835 29.5166C30.4102 29.7821 31.0517 30.1935 31.287 30.8505C31.5678 31.7109 31.1399 32.6996 30.3682 33.1752C29.7485 33.5791 28.9599 33.6514 28.2408 33.5245C27.6966 33.4276 27.1686 33.184 26.8052 32.7699C26.9228 32.398 27.0307 32.0227 27.1413 31.6488C27.2058 31.6673 27.2709 31.685 27.336 31.7041C27.5461 32.5932 28.642 33.0448 29.4922 32.8033C30.2232 32.5891 30.5244 31.5697 29.9858 31.03C29.2982 30.3654 28.2191 30.332 27.5279 29.6702C26.8213 28.9838 26.892 27.7385 27.6119 27.0856ZM13.5252 26.5643C14.2492 26.5363 14.974 26.5541 15.6981 26.5288C16.439 26.5118 17.2514 26.6189 17.8228 27.1204C18.4845 27.6806 18.57 28.7211 18.1015 29.4225C17.7913 29.9117 17.2472 30.2235 16.675 30.3293C17.175 30.899 17.6505 31.4885 18.1309 32.0746C18.7604 32.862 19.4677 33.6166 20.3508 34.1379C20.9222 34.4784 21.5896 34.6824 22.2639 34.6455C22.3059 34.7288 22.3487 34.8127 22.3914 34.8966C21.855 35.0467 21.294 35.1511 20.7345 35.089C20.0903 35.0297 19.4817 34.7677 18.9621 34.3992C18.1953 33.8568 17.5805 33.1451 16.9874 32.4335C16.3795 31.6925 15.7808 30.944 15.161 30.2119C15.2115 30.145 15.2276 30.0222 15.3382 30.0352C15.9229 29.997 16.556 29.8319 16.9348 29.3638C17.4103 28.7913 17.3207 27.7645 16.6099 27.411C16.1036 27.164 15.5161 27.162 14.9643 27.1982C14.9656 29.1127 14.9643 31.0279 14.9643 32.9425C14.9594 33.1424 15.0791 33.3137 15.161 33.4883C14.6022 33.4863 14.0441 33.4877 13.486 33.487C13.598 33.2959 13.7829 33.1165 13.757 32.879C13.7556 31.0129 13.7549 29.1461 13.7577 27.2794C13.7731 27.0201 13.6204 26.7956 13.5252 26.5643ZM31.9011 26.5609C32.4606 26.5588 33.0208 26.5609 33.5811 26.5588C33.4949 26.7451 33.3654 26.9273 33.3829 27.1408C33.385 27.9528 33.385 28.7654 33.3836 29.5774C34.6308 29.5787 35.878 29.5753 37.1244 29.5808C37.1237 28.7654 37.1251 27.9501 37.1258 27.1354C37.1476 26.9102 36.9732 26.741 36.8667 26.5595C37.4263 26.5609 37.9858 26.5602 38.5453 26.5602C38.4627 26.7472 38.331 26.9273 38.338 27.1388C38.3394 29.0506 38.3415 30.9631 38.3366 32.8749C38.3156 33.0994 38.4585 33.2884 38.5481 33.4836C37.9865 33.4979 37.4249 33.489 36.8639 33.4918C36.9599 33.3144 37.1349 33.1554 37.1251 32.9404C37.1265 32.061 37.1223 31.1808 37.1251 30.3013C35.878 30.304 34.6308 30.3033 33.3836 30.3027C33.3864 31.1815 33.3829 32.0603 33.3843 32.9391C33.3801 33.1417 33.5047 33.315 33.5867 33.4931C33.0208 33.4911 32.4564 33.4924 31.8913 33.4924C32.0033 33.2973 32.1973 33.1172 32.1735 32.8756C32.1693 30.9638 32.1721 29.0513 32.1721 27.1395C32.1826 26.915 32.0033 26.7458 31.9011 26.5609ZM39.2666 26.5616C40.7203 26.5582 42.1734 26.5643 43.6272 26.5602C43.5228 26.8734 43.408 27.1838 43.3002 27.4963C42.9983 27.4097 42.7049 27.2575 42.3821 27.278C41.8212 27.2821 41.261 27.2821 40.7007 27.28C40.7021 28.0524 40.7028 28.8255 40.7007 29.5978C41.539 29.5767 42.3807 29.6381 43.2168 29.5664C43.1195 29.8087 43.0306 30.0543 42.9437 30.2999C42.1958 30.2999 41.4486 30.302 40.7014 30.2999C40.7014 31.118 40.7028 31.9361 40.7014 32.7542C41.401 32.7542 42.1006 32.7515 42.8002 32.7562C43.1783 32.7658 43.5313 32.6136 43.8947 32.5324C43.7813 32.8497 43.6671 33.1663 43.5579 33.4849C42.1328 33.4911 40.7077 33.4883 39.2827 33.4911C39.3646 33.2693 39.4872 33.0503 39.4739 32.8074C39.4711 30.9645 39.4704 29.1216 39.4739 27.278C39.4907 27.0221 39.3562 26.7936 39.2666 26.5616ZM44.3863 26.5623C44.831 26.5609 45.2756 26.5643 45.721 26.5595C47.0564 27.9999 48.3828 29.4484 49.7161 30.8915C49.7168 29.6408 49.7154 28.3902 49.7182 27.1395C49.7385 26.915 49.5634 26.7458 49.4591 26.5629C49.943 26.5629 50.4269 26.5643 50.9114 26.5623C50.8127 26.7683 50.6741 26.973 50.6944 27.2111C50.7 29.3542 50.6923 31.4974 50.6986 33.6398C49.034 31.8692 47.3828 30.0857 45.7245 28.309C45.7224 29.8305 45.7259 31.3514 45.7231 32.8729C45.7049 33.0981 45.8429 33.2891 45.9318 33.4863C45.4486 33.4883 44.9661 33.487 44.4836 33.4877C44.5936 33.2932 44.7833 33.1151 44.7623 32.8763C44.7616 31.0341 44.7581 29.1919 44.7637 27.3496C44.8008 27.0358 44.5305 26.814 44.3863 26.5623ZM13.2115 34.9198C13.2136 34.7779 13.215 34.6367 13.2164 34.4954C14.7633 34.4968 16.3102 34.4947 17.8564 34.4947C18.0042 34.6182 18.2317 34.6981 18.2436 34.9178C16.5665 34.9239 14.8893 34.9198 13.2115 34.9198ZM23.3423 34.4954C32.4837 34.4879 41.6251 34.4927 50.7665 34.4975C50.7658 34.638 50.7658 34.7793 50.7665 34.9205C41.7428 34.9198 32.719 34.928 23.6953 34.9232C23.5496 34.8045 23.3444 34.7083 23.3423 34.4954ZM29.8472 37.2458C30.1392 36.9961 30.5678 37.0247 30.9004 37.1755C30.8661 37.2588 30.8325 37.3413 30.7989 37.4246C30.6553 37.2983 30.4662 37.1885 30.266 37.2554C29.759 37.415 29.7141 38.242 30.219 38.4344C30.4487 38.5306 30.6882 38.4139 30.8514 38.2563C30.8689 38.3191 30.9032 38.4439 30.92 38.5067C30.6049 38.6752 30.1931 38.708 29.892 38.4931C29.4732 38.2194 29.4487 37.5474 29.8472 37.2458ZM38.8695 38.4071C38.602 37.8531 39.0299 37.1633 39.6335 37.0677C39.7806 37.0984 39.6699 37.2185 39.5831 37.2444C39.3618 37.3475 39.2148 37.5419 39.1006 37.7466C39.2939 37.7064 39.511 37.6313 39.6994 37.7357C40.0089 37.8926 40.0012 38.3675 39.7316 38.5579C39.4725 38.7564 39.0201 38.7169 38.8695 38.4071ZM39.2561 37.8824C38.9928 38.0113 39.06 38.4924 39.3667 38.5115C39.7792 38.4808 39.686 37.6859 39.2561 37.8824ZM24.8262 37.1251C25.0321 37.0145 25.2737 37.0746 25.4754 37.1619C25.4397 37.2526 25.4047 37.3441 25.3696 37.4355C25.2779 37.3693 25.2128 37.2267 25.0825 37.239C24.9117 37.2192 24.7597 37.4294 24.8829 37.5658C25.0608 37.7282 25.3507 37.7364 25.4901 37.9452C25.6701 38.2079 25.4474 38.5784 25.1455 38.6254C24.9257 38.6834 24.7044 38.5968 24.5272 38.4726C24.5566 38.3757 24.5846 38.2781 24.6119 38.1806C24.7086 38.317 24.8269 38.4658 25.0139 38.4705C25.2072 38.4999 25.3829 38.2529 25.2499 38.0987C25.0909 37.939 24.8353 37.9179 24.675 37.7596C24.5118 37.5658 24.5846 37.226 24.8262 37.1251ZM26.3038 37.0841C26.4158 37.0841 26.5286 37.0841 26.6406 37.0841C26.6154 37.5965 26.6042 38.1123 26.6476 38.6248C26.5307 38.6241 26.4144 38.6248 26.2982 38.6254C26.3766 38.1185 26.3661 37.5924 26.3038 37.0841ZM27.5167 37.0793C27.6147 37.0828 27.7135 37.0855 27.8122 37.0882C28.0944 37.4014 28.3829 37.7091 28.6686 38.0195C28.67 37.7071 28.6931 37.3918 28.6294 37.0834C28.7275 37.0841 28.8255 37.0841 28.9235 37.0841C28.8731 37.6095 28.9165 38.1383 28.8969 38.665C28.53 38.2822 28.17 37.8926 27.8129 37.501C27.8185 37.8756 27.7947 38.2508 27.8381 38.6241C27.7366 38.6248 27.6357 38.6261 27.5342 38.6282C27.6168 38.3771 27.5797 38.1123 27.586 37.8544C27.579 37.5951 27.6231 37.325 27.5167 37.0793ZM31.5762 38.6254C31.6035 38.113 31.6147 37.5958 31.5678 37.0841C31.8906 37.0862 32.2141 37.0855 32.5369 37.0848C32.5096 37.155 32.4823 37.226 32.4557 37.297C32.2708 37.2649 32.0825 37.2568 31.8955 37.2547C31.8948 37.4205 31.8948 37.5863 31.8948 37.7528C32.0832 37.7507 32.2708 37.7501 32.4592 37.7514C32.3948 38.0134 32.0944 37.9029 31.8941 37.9267C31.8948 38.1021 31.8948 38.2774 31.8948 38.4535C32.1273 38.4555 32.3612 38.4514 32.5895 38.4023C32.5629 38.476 32.5369 38.5497 32.511 38.6234C32.1994 38.6248 31.8878 38.6234 31.5762 38.6254ZM34.0047 37.2724C34.1455 37.2069 34.2862 37.1394 34.427 37.0725C34.4228 37.5897 34.3815 38.1117 34.4501 38.6254C34.3338 38.6254 34.2176 38.6254 34.1014 38.6275C34.2008 38.2263 34.1273 37.8108 34.1546 37.4027C34.1042 37.3591 34.0544 37.3161 34.0047 37.2724ZM35.4543 37.9834C35.1448 37.7705 35.2393 37.2349 35.5922 37.1169C35.8485 37.0015 36.2029 37.0746 36.3289 37.3386C36.5285 37.7569 36.338 38.2945 35.9368 38.5299C35.7918 38.6132 35.6069 38.7305 35.4466 38.6084C35.7176 38.4699 35.9613 38.2795 36.0964 38.0052C35.8871 38.0441 35.6427 38.1192 35.4543 37.9834ZM35.7386 37.2554C35.5586 37.355 35.5278 37.5965 35.6104 37.7671C35.6784 37.9213 35.9228 37.9308 36.0215 37.8012C36.2134 37.6122 36.0502 37.1394 35.7386 37.2554ZM37.2085 37.1817C37.4592 37.0009 37.8821 37.0206 38.0446 37.3058C38.2764 37.72 38.0824 38.2815 37.6805 38.5245C37.5313 38.6098 37.3443 38.7278 37.177 38.6104C37.4473 38.4685 37.7057 38.2843 37.8261 37.9977C37.6237 38.0469 37.3884 38.1165 37.2001 37.9916C36.92 37.8115 36.9473 37.3659 37.2085 37.1817ZM37.4858 37.2533C37.2764 37.3529 37.2519 37.6484 37.3772 37.8203C37.5068 37.9513 37.7589 37.8899 37.8149 37.7193C37.9094 37.5181 37.7526 37.1585 37.4858 37.2533Z" fill="#FFE394"/>
<path d="M10.5448 18.6502C10.6709 18.61 10.8039 18.6004 10.9363 18.597C24.7772 18.5984 38.6188 18.5984 52.4604 18.597C52.7595 18.6025 53.062 18.5738 53.3582 18.6291C53.8827 18.7444 54.2833 19.2486 54.2517 19.7754C54.2496 26.5752 54.2517 33.3758 54.251 40.1756C54.2538 40.7672 53.7041 41.2994 53.0956 41.2837C39.1818 41.283 25.2688 41.2816 11.3557 41.2844C11.035 41.2789 10.6933 41.3205 10.3964 41.1752C9.98109 40.9869 9.7108 40.5502 9.72899 40.1047C9.72899 33.328 9.72899 26.5513 9.72899 19.7754C9.7073 19.2773 10.0553 18.7949 10.5448 18.6502ZM32.261 21.1857C31.7449 21.3406 31.5811 22.0236 31.8836 22.4309C32.1749 22.8382 32.8598 22.8635 33.198 22.4991C33.4879 22.1771 33.469 21.6292 33.1434 21.3372C32.9067 21.1331 32.5551 21.0929 32.261 21.1857ZM29.7197 21.2437C29.7926 21.4989 29.7863 21.7656 29.8017 22.0283C29.8143 22.2842 29.8486 22.5421 29.8031 22.7966C29.927 22.7898 30.0517 22.783 30.1763 22.7768C30.1343 22.5469 30.1203 22.3142 30.1077 22.0822C30.3689 22.0672 30.6301 22.0529 30.892 22.0386C30.913 22.2712 30.9235 22.5059 30.8997 22.7393C31.0215 22.7318 31.1427 22.7256 31.2645 22.7195C31.1945 22.2064 31.1616 21.6851 31.1777 21.1673C31.0552 21.1707 30.9326 21.1741 30.8101 21.1775C30.8493 21.3917 30.92 21.634 30.8451 21.8407C30.5965 21.8694 30.3451 21.8653 30.0958 21.8844C30.0853 21.6606 30.0734 21.4361 30.0888 21.2123C29.9655 21.2232 29.8423 21.2334 29.7197 21.2437ZM34.3387 21.3556C33.9018 21.5957 33.8219 22.2453 34.163 22.5946C34.4585 22.9078 34.9739 22.9167 35.3338 22.7059C35.31 22.6151 35.2869 22.5244 35.2638 22.4336C35.0943 22.5906 34.8542 22.7086 34.6203 22.6117C34.1231 22.4227 34.1798 21.5937 34.6854 21.4531C34.8871 21.3979 35.0628 21.518 35.2155 21.6292C35.2463 21.5391 35.2778 21.4497 35.3093 21.3597C35.0047 21.2273 34.6357 21.1754 34.3387 21.3556ZM28.0909 21.5418C27.6959 21.8687 27.7478 22.5585 28.191 22.8225C28.5356 23.0402 29.002 22.9665 29.301 22.7065C29.266 22.6219 29.2316 22.5366 29.1973 22.4514C29.0489 22.6267 28.8332 22.7959 28.5839 22.7297C28.0706 22.6069 27.981 21.7943 28.4606 21.576C28.6448 21.4709 28.8395 21.5807 29.0048 21.6653C29.0265 21.5753 29.0482 21.4859 29.0699 21.3958C28.7443 21.2928 28.3556 21.3092 28.0909 21.5418ZM36.3934 21.4579C35.885 21.5835 35.6602 22.2323 35.92 22.6574C36.1693 23.0791 36.8359 23.1862 37.2071 22.8601C37.4571 22.6356 37.5404 22.263 37.4417 21.9512C37.3079 21.5412 36.7974 21.3522 36.3934 21.4579ZM38.233 21.6763C38.1896 22.1948 38.0677 22.7065 37.9263 23.2074C38.2393 23.2688 38.5523 23.3295 38.8653 23.3909C38.9094 23.3199 38.9536 23.2483 38.9984 23.1773C38.7617 23.163 38.5285 23.1241 38.2981 23.0736C38.3996 22.6315 38.4578 22.1784 38.5964 21.7452C38.4746 21.7227 38.3534 21.6995 38.233 21.6763ZM24.9838 21.9103C25.1504 22.407 25.2324 22.9276 25.3262 23.4414C25.6322 23.3677 25.9425 23.3104 26.2513 23.2469C26.2611 23.1616 26.2709 23.0764 26.2807 22.9911C26.0643 23.0804 25.8339 23.1303 25.6042 23.1767C25.5692 23.0143 25.5335 22.8519 25.4964 22.6902C25.6532 22.6581 25.8101 22.6253 25.9677 22.5933C25.9761 22.5421 25.9943 22.4404 26.0034 22.3893C25.8213 22.42 25.6406 22.4548 25.4593 22.4909C25.425 22.3374 25.3913 22.1832 25.357 22.029C25.5447 21.9956 25.7331 21.9662 25.9243 21.9608C25.9292 21.8994 25.9397 21.7779 25.9446 21.7165C25.6238 21.78 25.3045 21.8468 24.9838 21.9103ZM23.9593 22.1436C24.0923 22.4213 24.1491 22.725 24.2331 23.0184C23.8823 22.7993 23.5335 22.5769 23.1848 22.3552C23.0818 22.3784 22.9796 22.4016 22.8781 22.4247C22.9796 22.5708 23.0405 22.7372 23.079 22.9092C23.161 23.2497 23.287 23.5806 23.3255 23.9299C23.4257 23.9026 23.5265 23.876 23.6274 23.8494C23.4901 23.5055 23.4173 23.1425 23.308 22.7905C23.7597 23.0661 24.1953 23.3684 24.6617 23.6201C24.5433 23.0989 24.3591 22.5933 24.2604 22.0672C24.1596 22.0931 24.0594 22.1184 23.9593 22.1436ZM40.2442 22.1559C40.1853 22.3047 40.095 22.4377 39.99 22.5585C39.7267 22.8662 39.4837 23.1903 39.2141 23.4926C39.3107 23.5199 39.4087 23.5478 39.5061 23.5758C39.5943 23.4148 39.7028 23.266 39.8177 23.1221C39.9991 23.1705 40.1804 23.2196 40.3618 23.2681C40.3842 23.4509 40.3975 23.6345 40.3982 23.818C40.5229 23.8501 40.6475 23.8815 40.7729 23.9129C40.6482 23.3616 40.6258 22.7959 40.5488 22.2378C40.4465 22.2105 40.3457 22.1832 40.2442 22.1559ZM41.4122 22.495C41.3597 22.5585 41.3079 22.6213 41.2561 22.6847C41.4332 22.7168 41.6076 22.7611 41.7806 22.8116C41.6181 23.2381 41.5299 23.6925 41.3156 24.0984C41.4297 24.136 41.5439 24.1742 41.658 24.2124C41.7666 23.7675 41.9395 23.3404 42.0705 22.9017C42.2084 22.9529 42.3457 23.0081 42.4801 23.0695C42.5376 23.0095 42.595 22.9501 42.6531 22.8901C42.2441 22.7454 41.8275 22.6206 41.4122 22.495ZM21.7786 22.8178C22.0104 23.2865 22.1855 23.7846 22.3185 24.2881C22.4334 24.2479 22.5482 24.2076 22.6638 24.1674C22.4453 23.6925 22.2716 23.1971 22.119 22.6984C22.0055 22.7386 21.8921 22.7782 21.7786 22.8178ZM20.3907 23.3882C20.6505 23.8439 20.8802 24.3222 21.0503 24.8169C21.1596 24.7644 21.2688 24.7132 21.3795 24.6627C21.2604 24.4608 21.1596 24.2492 21.0707 24.0336C21.2128 23.9715 21.3557 23.9101 21.4985 23.848C21.4964 23.7941 21.4936 23.687 21.4915 23.6338C21.3206 23.7034 21.1526 23.7784 20.9852 23.8562C20.918 23.715 20.8508 23.5738 20.7835 23.4325C20.9558 23.3534 21.1316 23.2831 21.315 23.2319C21.3087 23.1739 21.2961 23.0572 21.2891 22.9993C20.9852 23.118 20.6883 23.2544 20.3907 23.3882ZM43.0509 23.0436C42.9038 23.5424 42.6965 24.0275 42.4549 24.4894C42.7427 24.5986 43.0214 24.7337 43.317 24.8224C43.4045 24.7964 43.4563 24.7118 43.5256 24.6573C43.2911 24.6061 43.067 24.5228 42.8492 24.4273C42.9129 24.2752 42.9766 24.123 43.0397 23.9702C43.1895 24.0302 43.3408 24.0896 43.4913 24.1489C43.5256 24.1087 43.5943 24.0289 43.6279 23.9893C43.4584 23.919 43.2876 23.8521 43.1174 23.7853C43.1769 23.6399 43.2371 23.4939 43.2967 23.3486C43.4724 23.4182 43.644 23.498 43.8037 23.599C43.8583 23.5362 43.9129 23.4728 43.9682 23.4093C43.6636 23.2838 43.3576 23.1623 43.0509 23.0436ZM44.4983 24.3645C44.2952 24.398 44.2819 24.7187 44.4836 24.763C44.6174 24.8231 44.791 24.6941 44.7609 24.5488C44.7693 24.4266 44.6132 24.327 44.4983 24.3645ZM19.4362 24.426C19.2415 24.6498 19.6281 24.9254 19.7856 24.6832C19.9327 24.4703 19.6071 24.2383 19.4362 24.426ZM21.9698 26.5049C21.2632 26.625 20.5896 26.9484 20.0798 27.4424C19.397 28.1125 19.0441 29.0684 19.0588 30.0065C19.0315 30.9317 19.3718 31.8733 20.0307 32.5468C21.4719 33.996 24.1862 33.9748 25.5629 32.4492C26.3143 31.627 26.572 30.4575 26.4053 29.3856C26.2828 28.4945 25.8003 27.6437 25.0447 27.117C24.1736 26.4886 23.0202 26.3282 21.9698 26.5049ZM27.6119 27.0856C26.892 27.7385 26.8213 28.9838 27.5279 29.6702C28.2191 30.332 29.2982 30.3654 29.9858 31.03C30.5244 31.5697 30.2232 32.5891 29.4921 32.8033C28.642 33.0448 27.5461 32.5932 27.336 31.7041C27.2709 31.685 27.2058 31.6673 27.1413 31.6488C27.0307 32.0227 26.9228 32.398 26.8052 32.7699C27.1686 33.184 27.6966 33.4276 28.2408 33.5245C28.9599 33.6514 29.7485 33.5791 30.3682 33.1752C31.1399 32.6996 31.5678 31.7109 31.287 30.8505C31.0517 30.1935 30.4102 29.7821 29.7835 29.5166C29.2681 29.3038 28.6651 29.1673 28.3073 28.7136C27.948 28.2605 28.1679 27.5502 28.6812 27.3053C29.3073 26.9778 30.1847 27.3032 30.378 27.9849C30.42 27.9999 30.5047 28.0313 30.5468 28.0463C30.6924 27.7017 30.8416 27.3592 30.9858 27.0139C30.6756 26.7622 30.3136 26.5602 29.9095 26.4974C29.1098 26.3657 28.2099 26.5206 27.6119 27.0856ZM13.5252 26.5643C13.6204 26.7956 13.7731 27.0201 13.7577 27.2794C13.7549 29.1461 13.7556 31.0129 13.757 32.879C13.7829 33.1165 13.598 33.2959 13.486 33.487C14.0441 33.4877 14.6022 33.4863 15.161 33.4883C15.0791 33.3137 14.9594 33.1424 14.9643 32.9425C14.9643 31.0279 14.9656 29.1127 14.9643 27.1982C15.5161 27.162 16.1036 27.164 16.6099 27.411C17.3207 27.7645 17.4103 28.7913 16.9348 29.3638C16.556 29.8319 15.9229 29.997 15.3382 30.0352C15.2276 30.0222 15.2115 30.145 15.161 30.2119C15.7808 30.944 16.3795 31.6925 16.9874 32.4335C17.5805 33.1451 18.1953 33.8568 18.9621 34.3992C19.4817 34.7677 20.0903 35.0297 20.7345 35.089C21.294 35.1511 21.855 35.0467 22.3914 34.8966C22.3487 34.8127 22.3059 34.7288 22.2639 34.6455C21.5896 34.6824 20.9222 34.4784 20.3508 34.1379C19.4677 33.6166 18.7604 32.862 18.1309 32.0746C17.6505 31.4885 17.175 30.899 16.675 30.3293C17.2472 30.2235 17.7913 29.9117 18.1015 29.4225C18.57 28.7211 18.4845 27.6806 17.8228 27.1204C17.2514 26.6189 16.439 26.5118 15.6981 26.5288C14.974 26.5541 14.2492 26.5363 13.5252 26.5643ZM31.9011 26.5609C32.0033 26.7458 32.1826 26.915 32.1721 27.1395C32.1721 29.0513 32.1693 30.9638 32.1735 32.8756C32.1973 33.1172 32.0033 33.2973 31.8913 33.4924C32.4564 33.4924 33.0208 33.4911 33.5867 33.4931C33.5047 33.315 33.3801 33.1417 33.3843 32.9391C33.3829 32.0603 33.3864 31.1815 33.3836 30.3027C34.6308 30.3033 35.878 30.304 37.1251 30.3013C37.1223 31.1808 37.1265 32.061 37.1251 32.9404C37.1349 33.1554 36.9599 33.3144 36.8639 33.4918C37.4249 33.489 37.9865 33.4979 38.5481 33.4836C38.4585 33.2884 38.3156 33.0994 38.3366 32.8749C38.3415 30.9631 38.3394 29.0506 38.338 27.1388C38.331 26.9273 38.4627 26.7472 38.5453 26.5602C37.9858 26.5602 37.4263 26.5609 36.8667 26.5595C36.9732 26.741 37.1475 26.9102 37.1258 27.1354C37.1251 27.9501 37.1237 28.7654 37.1244 29.5808C35.878 29.5753 34.6308 29.5787 33.3836 29.5774C33.385 28.7654 33.385 27.9528 33.3829 27.1408C33.3654 26.9273 33.4949 26.7451 33.5811 26.5588C33.0208 26.5609 32.4606 26.5588 31.9011 26.5609ZM39.2666 26.5616C39.3562 26.7936 39.4907 27.0221 39.4739 27.278C39.4704 29.1216 39.4711 30.9645 39.4739 32.8074C39.4872 33.0503 39.3646 33.2693 39.2827 33.4911C40.7077 33.4883 42.1328 33.4911 43.5579 33.4849C43.6671 33.1663 43.7812 32.8497 43.8947 32.5324C43.5312 32.6136 43.1783 32.7658 42.8002 32.7562C42.1006 32.7515 41.401 32.7542 40.7014 32.7542C40.7028 31.9361 40.7014 31.118 40.7014 30.2999C41.4486 30.302 42.1958 30.2999 42.9437 30.2999C43.0306 30.0543 43.1195 29.8087 43.2168 29.5664C42.3807 29.6381 41.539 29.5767 40.7007 29.5978C40.7028 28.8255 40.7021 28.0524 40.7007 27.28C41.261 27.2821 41.8212 27.2821 42.3821 27.278C42.7049 27.2575 42.9983 27.4097 43.3002 27.4963C43.408 27.1838 43.5228 26.8734 43.6272 26.5602C42.1734 26.5643 40.7203 26.5582 39.2666 26.5616ZM44.3863 26.5623C44.5305 26.814 44.8008 27.0358 44.7637 27.3496C44.7581 29.1919 44.7616 31.0341 44.7623 32.8763C44.7833 33.1151 44.5936 33.2932 44.4836 33.4877C44.9661 33.487 45.4486 33.4883 45.9318 33.4863C45.8429 33.2891 45.7049 33.0981 45.7231 32.8729C45.7259 31.3514 45.7224 29.8305 45.7245 28.309C47.3828 30.0857 49.034 31.8692 50.6986 33.6398C50.6923 31.4974 50.7 29.3542 50.6944 27.2111C50.674 26.973 50.8127 26.7683 50.9114 26.5623C50.4268 26.5643 49.943 26.5629 49.4591 26.5629C49.5634 26.7458 49.7385 26.915 49.7182 27.1395C49.7154 28.3902 49.7168 29.6408 49.7161 30.8915C48.3827 29.4484 47.0564 27.9999 45.721 26.5595C45.2756 26.5643 44.831 26.5609 44.3863 26.5623ZM13.2115 34.9198C14.8893 34.9198 16.5665 34.9239 18.2436 34.9178C18.2317 34.6981 18.0041 34.6182 17.8564 34.4947C16.3102 34.4947 14.7633 34.4968 13.2164 34.4954C13.215 34.6367 13.2136 34.7779 13.2115 34.9198ZM23.3423 34.4954C23.3444 34.7083 23.5496 34.8045 23.6953 34.9232C32.719 34.928 41.7427 34.9198 50.7665 34.9205C50.7658 34.7793 50.7658 34.638 50.7665 34.4975C41.6251 34.4927 32.4837 34.4879 23.3423 34.4954ZM29.8472 37.2458C29.4487 37.5474 29.4732 38.2194 29.892 38.4931C30.1931 38.708 30.6049 38.6752 30.92 38.5067C30.9032 38.4439 30.8689 38.3191 30.8514 38.2563C30.6882 38.4139 30.4487 38.5306 30.219 38.4344C29.7141 38.242 29.759 37.415 30.266 37.2554C30.4662 37.1885 30.6553 37.2983 30.7989 37.4246C30.8325 37.3413 30.8661 37.2588 30.9004 37.1755C30.5678 37.0247 30.1392 36.9961 29.8472 37.2458ZM38.8695 38.4071C39.0201 38.7169 39.4725 38.7564 39.7316 38.5579C40.0012 38.3675 40.0089 37.8926 39.6993 37.7357C39.511 37.6313 39.2939 37.7064 39.1006 37.7466C39.2148 37.5419 39.3618 37.3475 39.5831 37.2444C39.6699 37.2185 39.7806 37.0984 39.6335 37.0677C39.0299 37.1633 38.602 37.8531 38.8695 38.4071ZM24.8262 37.1251C24.5846 37.226 24.5118 37.5658 24.675 37.7596C24.8353 37.9179 25.0909 37.939 25.2499 38.0987C25.3829 38.2529 25.2072 38.4999 25.0139 38.4705C24.8269 38.4658 24.7086 38.317 24.6119 38.1806C24.5846 38.2781 24.5566 38.3757 24.5272 38.4726C24.7044 38.5968 24.9257 38.6834 25.1455 38.6254C25.4474 38.5784 25.6701 38.2079 25.4901 37.9452C25.3507 37.7364 25.0608 37.7282 24.8829 37.5658C24.7597 37.4294 24.9117 37.2192 25.0825 37.239C25.2128 37.2267 25.2779 37.3693 25.3696 37.4355C25.4046 37.3441 25.4397 37.2526 25.4754 37.1619C25.2737 37.0746 25.0321 37.0145 24.8262 37.1251ZM26.3038 37.0841C26.3661 37.5924 26.3766 38.1185 26.2982 38.6254C26.4144 38.6248 26.5307 38.6241 26.6476 38.6248C26.6042 38.1123 26.6154 37.5965 26.6406 37.0841C26.5286 37.0841 26.4158 37.0841 26.3038 37.0841ZM27.5167 37.0793C27.6231 37.325 27.579 37.5951 27.586 37.8544C27.5797 38.1123 27.6168 38.3771 27.5342 38.6282C27.6357 38.6261 27.7366 38.6248 27.8381 38.6241C27.7947 38.2508 27.8185 37.8756 27.8129 37.501C28.17 37.8926 28.53 38.2822 28.8969 38.665C28.9165 38.1383 28.8731 37.6095 28.9235 37.0841C28.8255 37.0841 28.7275 37.0841 28.6294 37.0834C28.6931 37.3918 28.67 37.7071 28.6686 38.0195C28.3829 37.7091 28.0944 37.4014 27.8122 37.0882C27.7135 37.0855 27.6147 37.0828 27.5167 37.0793ZM31.5762 38.6254C31.8878 38.6234 32.1994 38.6248 32.511 38.6234C32.5369 38.5497 32.5629 38.476 32.5895 38.4023C32.3612 38.4514 32.1273 38.4555 31.8948 38.4535C31.8948 38.2774 31.8948 38.1021 31.8941 37.9267C32.0944 37.9029 32.3948 38.0134 32.4592 37.7514C32.2708 37.7501 32.0832 37.7507 31.8948 37.7528C31.8948 37.5863 31.8948 37.4205 31.8955 37.2547C32.0825 37.2568 32.2708 37.2649 32.4557 37.297C32.4823 37.226 32.5096 37.155 32.5369 37.0848C32.2141 37.0855 31.8906 37.0862 31.5678 37.0841C31.6147 37.5958 31.6035 38.113 31.5762 38.6254ZM34.0047 37.2724C34.0544 37.3161 34.1042 37.3591 34.1546 37.4027C34.1273 37.8108 34.2008 38.2263 34.1014 38.6275C34.2176 38.6254 34.3338 38.6254 34.4501 38.6254C34.3815 38.1117 34.4228 37.5897 34.427 37.0725C34.2862 37.1394 34.1455 37.2069 34.0047 37.2724ZM35.4543 37.9834C35.6427 38.1192 35.8871 38.0441 36.0964 38.0052C35.9613 38.2795 35.7176 38.4699 35.4466 38.6084C35.6069 38.7305 35.7918 38.6132 35.9368 38.5299C36.338 38.2945 36.5285 37.7569 36.3289 37.3386C36.2029 37.0746 35.8485 37.0015 35.5922 37.1169C35.2393 37.2349 35.1448 37.7705 35.4543 37.9834ZM37.2085 37.1817C36.9473 37.3659 36.92 37.8115 37.2001 37.9916C37.3884 38.1165 37.6237 38.0469 37.8261 37.9977C37.7057 38.2843 37.4473 38.4685 37.177 38.6104C37.3443 38.7278 37.5313 38.6098 37.6805 38.5245C38.0824 38.2815 38.2764 37.72 38.0446 37.3058C37.8821 37.0206 37.4592 37.0009 37.2085 37.1817ZM32.3927 21.372C32.6798 21.2457 33.0019 21.4716 33.0502 21.7568C33.1644 22.1007 32.9382 22.5912 32.5173 22.5482C31.9585 22.4636 31.9046 21.5876 32.3927 21.372ZM36.5306 21.6599C36.7694 21.5746 37.0621 21.7233 37.1286 21.9635C37.2379 22.2931 37.0754 22.7448 36.7043 22.8328C36.42 22.8928 36.1434 22.6431 36.1336 22.3688C36.1139 22.0904 36.2477 21.767 36.5306 21.6599ZM39.9535 22.9515C40.06 22.813 40.1671 22.6752 40.2736 22.5366C40.296 22.7093 40.3177 22.8826 40.3394 23.0552C40.2105 23.0204 40.0817 22.9863 39.9535 22.9515ZM22.4572 27.1872C23.0713 27.1108 23.7226 27.2732 24.1932 27.6744C24.7954 28.1868 25.093 28.9701 25.1448 29.7336C25.2079 30.6445 24.967 31.6345 24.2737 32.2841C23.5447 32.9705 22.3199 33.0489 21.4936 32.4867C20.9411 32.121 20.5987 31.5178 20.4488 30.8949C20.217 29.9635 20.3564 28.9251 20.9124 28.1241C21.259 27.6171 21.8297 27.25 22.4572 27.1872ZM35.7386 37.2554C36.0502 37.1394 36.2134 37.6122 36.0215 37.8012C35.9228 37.9308 35.6784 37.9213 35.6104 37.7671C35.5278 37.5965 35.5586 37.355 35.7386 37.2554ZM37.4858 37.2533C37.7526 37.1585 37.9094 37.5181 37.8149 37.7193C37.7589 37.8899 37.5068 37.9513 37.3772 37.8203C37.2519 37.6484 37.2764 37.3529 37.4858 37.2533ZM39.2561 37.8824C39.686 37.6859 39.7792 38.4808 39.3667 38.5115C39.06 38.4924 38.9928 38.0113 39.2561 37.8824Z" fill="#8C0A0D"/>
</svg>
