<svg width="64" height="64" viewBox="0 0 64 64" fill="none" xmlns="http://www.w3.org/2000/svg">
<rect width="64" height="64" fill="white"/>
<g clip-path="url(#clip0_1_2)">
<path d="M9.235 26.8614H8.90875V26H6.915V26.8614H6.5525C4.3775 26.8614 3 27.985 3 30.0075V30.382C3 32.367 4.34125 33.4906 6.58875 33.4906H6.915V34.3521H8.90875V33.4906H9.235C11.4463 33.4906 12.8238 32.367 12.8238 30.3446V29.97C12.8238 27.9101 11.4463 26.824 9.235 26.824V26.8614ZM6.48 32.03C5.50125 32.03 4.99375 31.3933 4.99375 30.2697V30.1199C4.99375 28.9963 5.50125 28.3596 6.48 28.3596H6.915V31.9925H6.48V32.03ZM10.83 30.2697C10.83 31.3933 10.2863 32.03 9.3075 32.03H8.90875V28.3596H9.3075C10.2863 28.3596 10.83 28.9588 10.83 30.1199V30.2697ZM16.8838 28.397C14.9625 28.397 13.6575 29.633 13.6575 31.3933C13.6575 33.191 14.9625 34.3895 16.8838 34.3895C18.805 34.3895 20.11 33.191 20.11 31.3933C20.11 29.633 18.805 28.397 16.8838 28.397ZM16.8838 32.8914C16.05 32.8914 15.5063 32.2921 15.5063 31.3933C15.5063 30.4944 16.05 29.8951 16.8838 29.8951C17.6813 29.8951 18.2612 30.4944 18.2612 31.3933C18.2612 32.2921 17.6813 32.8914 16.8838 32.8914ZM27.3963 28.5094H25.2938L23.1188 31.206V28.5094H21.3063V34.2772H23.1188V31.5805L25.2938 34.2772H27.5412L25.0038 31.2809L27.3963 28.5094ZM30.84 29.8951C31.4563 29.8951 31.8913 30.2697 32.0363 30.794H33.8488C33.7038 29.3708 32.58 28.397 30.8763 28.397C28.955 28.397 27.65 29.633 27.65 31.3933C27.65 33.191 28.955 34.3895 30.9125 34.3895C32.58 34.3895 33.7038 33.4157 33.8125 32.03H32.0363C31.9633 32.2967 31.8057 32.5303 31.5887 32.6933C31.3718 32.8563 31.1081 32.9393 30.84 32.9288C30.0425 32.9288 29.4988 32.2921 29.4988 31.4307C29.4988 30.4944 30.0425 29.8951 30.84 29.8951ZM34.32 28.5094V30.0449H36.35V34.2772H38.1625V30.0449H40.1563V28.5468H34.3563L34.32 28.5094ZM44.5788 28.4719C43.8538 28.4719 43.2013 28.7715 42.7663 29.3333V28.5094H41.0625V36H42.875V33.603C43.31 34.0524 43.89 34.3521 44.5788 34.3521C46.2463 34.3521 47.37 33.1161 47.37 31.3933C47.37 29.6704 46.2463 28.4719 44.5788 28.4719ZM44.1438 32.9288C43.3463 32.9288 42.7663 32.2921 42.7663 31.4307C42.7663 30.4944 43.3463 29.8951 44.1438 29.8951C44.9775 29.8951 45.5213 30.4944 45.5213 31.3933C45.5213 32.2921 44.9775 32.8914 44.1438 32.8914V32.9288ZM51.4663 28.397C49.545 28.397 48.24 29.633 48.24 31.3933C48.24 33.191 49.545 34.3895 51.4663 34.3895C53.3875 34.3895 54.6925 33.191 54.6925 31.3933C54.6925 29.633 53.3875 28.397 51.43 28.397H51.4663ZM51.4663 32.8914C50.6325 32.8914 50.0887 32.2921 50.0887 31.3933C50.0887 30.4944 50.6325 29.8951 51.4663 29.8951C52.2638 29.8951 52.8438 30.4944 52.8438 31.3933C52.8438 32.2921 52.2638 32.8914 51.4663 32.8914ZM55.2 28.5094V30.0449H57.1938V34.2772H59.0063V30.0449H61V28.5468H55.2V28.5094Z" fill="white"/>
</g>
<g clip-path="url(#clip1_1_2)">
<path d="M61.0361 32.1279C60.9721 48.1465 47.9013 61.0637 31.8904 60.9997C15.8793 60.9358 2.93632 47.8907 3.00024 31.8721C3.06415 15.8535 16.135 2.93629 32.146 3.00024C48.1889 3.06418 61.1 16.1093 61.0361 32.1279Z" fill="#221F1F"/>
<path d="M42.469 46.356C39.4009 51.8554 35.598 56.3636 31.3476 56.2678C28.695 56.2037 26.1703 55.2126 23.8694 53.6459C24.6044 52.303 29.2383 45.5887 42.469 46.356ZM60.2696 32.1279C60.2057 47.6989 47.4864 60.2963 31.8908 60.2005C16.2953 60.1365 3.76776 47.4431 3.76776 31.8721C3.76776 21.7685 8.81713 14.5106 13.6108 10.6099C19.4911 5.84584 23.4859 9.4908 24.892 12.2725C24.7322 11.0895 24.2529 7.70029 22.9425 5.27032C25.8188 4.27915 28.9188 3.73561 32.1466 3.76758C47.742 3.8635 60.3334 16.5249 60.2696 32.1279ZM30.5166 15.8855C34.6073 13.1038 41.67 11.5691 45.409 17.3882C43.1401 4.08731 33.3289 11.7289 30.5166 15.8855ZM24.8281 28.451C25.691 27.4918 26.6817 26.5325 27.8322 25.6693C32.9454 21.7366 38.5382 20.7454 40.3598 23.495C41.0629 24.5502 41.0947 26.0209 40.5515 27.6197C42.3731 24.6141 42.9483 21.8325 41.8297 20.2978C39.9443 17.7398 34.0959 19.4984 28.7589 24.2305C27.1929 25.5414 25.8827 27.0121 24.8281 28.451ZM15.9118 30.8169C18.5004 31.2966 21.3127 28.0034 22.1756 23.3992C23.0384 18.795 21.6643 14.7024 19.0756 14.1909C16.4871 13.7113 13.6747 17.0045 12.8119 21.6087C11.949 26.1809 13.3232 30.3054 15.9118 30.8169ZM51.8965 25.2536C27.1291 41.8478 10.0315 33.4388 10.0315 33.4388C9.77587 39.194 19.651 56.8752 31.4115 57.0991C43.204 57.3228 51.8965 25.2536 51.8965 25.2536ZM13.515 21.7046C14.3139 17.4841 16.7427 14.4147 18.9479 14.8623C21.1529 15.278 22.3034 19.0508 21.5364 23.2713C20.7375 27.4918 18.3086 30.5612 16.1036 30.1136C13.8665 29.698 12.716 25.9251 13.515 21.7046ZM18.2128 25.2856C19.2035 25.5094 20.2901 24.2944 20.6736 22.5998C21.0571 20.9053 20.5457 19.3386 19.555 19.1468C18.8839 18.9868 18.1809 19.4984 17.6695 20.3617C18.1169 20.5855 18.3406 21.1611 18.1169 21.6406C17.9252 22.0882 17.4778 22.3121 17.0303 22.2161C16.8386 23.7189 17.3179 25.0618 18.2128 25.2856Z" fill="#05BC52"/>
</g>
<defs>
<clipPath id="clip0_1_2">
<rect width="58" height="10" fill="white" transform="translate(3 26)"/>
</clipPath>
<clipPath id="clip1_1_2">
<rect width="58" height="58" fill="white" transform="translate(3 3)"/>
</clipPath>
</defs>
</svg>
