<svg width="64" height="64" viewBox="0 0 64 64" fill="none" xmlns="http://www.w3.org/2000/svg">
<rect width="64" height="64" fill="white"/>
<path d="M50.7741 30.7329C50.7741 30.7329 50.7741 30.7329 50.7741 30.5198C50.2293 29.8805 49.6845 29.4543 49.1396 29.028C48.5948 28.6018 47.2327 27.7494 44.5085 27.5362C44.5085 27.5362 47.2327 25.8313 48.8672 23.4871C49.412 22.6346 52.681 18.3723 51.5914 14.1101C50.7741 10.4871 47.2327 5.79861 38.5153 5.15927C38.2429 4.94616 14.5426 2.38878 12.3632 29.028C11.546 39.6837 12.3632 50.3394 12.3632 52.0443C12.3632 53.7493 14.2701 48.2083 24.8944 46.2903C34.429 44.5854 46.143 44.7985 51.319 36.7001C52.1362 35.2083 52.4086 32.651 51.0465 30.5198L50.7741 30.7329ZM40.9671 39.0444C37.698 40.5362 34.7014 41.1755 29.2531 41.8149C20.5357 42.8804 17.5391 44.3722 17.5391 44.3722C17.5391 39.6837 17.5391 29.2411 19.1736 23.7002C21.0806 17.0936 25.1668 13.8969 28.9807 12.4051C33.3394 10.7002 37.698 11.5527 38.5153 11.9789C45.8706 14.7494 44.7809 20.7166 43.6913 22.6346C42.0568 25.4051 39.8774 27.5362 38.5153 28.8149C38.2429 29.028 37.9704 29.6674 39.0601 29.6674C40.1498 29.6674 39.605 29.6674 39.605 29.6674C41.2395 29.4543 43.1464 29.4543 44.7809 30.5198C48.5948 33.0772 44.2361 37.5526 40.6947 39.0444H40.9671Z" fill="#F08C25"/>
<path d="M20.2633 51.405C16.4495 52.8968 14.2702 55.4542 13.4529 57.7984C12.9081 59.0771 13.1805 59.2902 14.5426 58.6509C16.4495 57.7984 19.4461 56.7329 23.8048 56.5197C33.3394 55.8804 39.0601 54.8148 40.9671 47.3558C40.9671 46.9296 40.9671 46.7165 40.4223 46.9296C31.9773 49.487 27.6186 48.4214 20.5358 51.1919L20.2633 51.405Z" fill="#C0CE16"/>
</svg>
