<svg width="64" height="64" viewBox="0 0 64 64" fill="none" xmlns="http://www.w3.org/2000/svg">
<g clip-path="url(#clip0_1_2)">
<rect width="64" height="64" fill="white"/>
<path fill-rule="evenodd" clip-rule="evenodd" d="M31.9994 64C29.7104 64 28.534 62.3877 28.534 62.3877C26.6528 62.2993 11.9508 62.3435 11.9508 62.3435L10.5195 49.2937C10.5195 49.2937 1.46418 42.3994 0.728055 41.6043C-3.61858 20.3052 12.0925 0 32 0C51.9075 0 67.6186 20.3052 63.2719 41.6043C62.5358 42.3994 53.4805 49.2937 53.4805 49.2937L52.0492 62.3435C52.0492 62.3435 37.3472 62.2993 35.466 62.3877C35.466 62.3877 34.2895 64 31.9994 64Z" fill="#ED1C24"/>
<path fill-rule="evenodd" clip-rule="evenodd" d="M32.0182 44.1537L30.6291 6.48414C28.9537 6.11483 24.6798 6.558 22.3891 8.40455L29.0563 44.3014L19.9615 9.88178C17.7813 9.85291 13.3818 13.8348 13.055 15.0152L26.321 45.557L11.4138 17.6373C9.94359 18.2282 6.72965 24.6172 7.24252 25.3596L23.8593 47.3297L6.76384 28.5688C6.76384 28.5688 4.54144 32.225 5.99074 38.4179L15.647 45.9501L16.8559 56.2406H28.6949C28.6949 56.2406 30.6318 58.2236 32.0061 58.2236C33.3804 58.2236 35.3173 56.2406 35.3173 56.2406H47.1563L48.3652 45.9501L58.0214 38.4179C59.4707 32.225 57.2483 28.5688 57.2483 28.5688L40.1529 47.3297L56.7697 25.3596C57.2825 24.6172 54.0686 18.2282 52.5984 17.6373L37.6912 45.557L50.9572 15.0152C50.6304 13.8348 46.2309 9.85291 44.0507 9.88178L34.9559 44.3014L41.6231 8.40455C39.3323 6.558 35.0585 6.11483 33.3831 6.48414L32.0182 44.1537Z" fill="#FFD500"/>
</g>
<defs>
<clipPath id="clip0_1_2">
<rect width="64" height="64" fill="white"/>
</clipPath>
</defs>
</svg>
