<svg width="64" height="64" viewBox="0 0 64 64" fill="none" xmlns="http://www.w3.org/2000/svg">
<rect width="64" height="64" fill="#2C2E35"/>
<path fill-rule="evenodd" clip-rule="evenodd" d="M14.1834 38.7895C14.1834 39.4408 14.001 39.9671 13.6623 40.3947C13.3132 40.8092 12.8755 41.1316 12.3752 41.3684C11.8697 41.6053 11.3434 41.7697 10.7858 41.8553C10.2387 41.9539 9.76967 41.9934 9.36842 41.9934C8.26368 41.9934 7.26837 41.7368 6.37207 41.2171C5.47056 40.7105 4.69932 39.9934 4.04794 39.1053C3.40177 38.2105 2.8963 37.1579 2.53674 35.9408C2.18239 34.7303 2 33.4145 2 32C2 30.5855 2.18239 29.2697 2.53674 28.0461C2.8963 26.8224 3.39656 25.7632 4.04794 24.8684C4.69932 23.9737 5.47056 23.2697 6.37207 22.7632C7.26837 22.2632 8.26889 22.0066 9.36842 22.0066C9.75404 22.0066 10.2074 22.0461 10.7337 22.1447C11.2652 22.2303 11.7655 22.3947 12.2449 22.6316C12.7243 22.8684 13.136 23.1711 13.4643 23.5658C13.7978 23.9539 13.9698 24.4539 13.9698 25.0461C13.9698 25.5329 13.8499 25.9539 13.5998 26.3224C13.3601 26.6842 13.037 26.8618 12.6357 26.8618C12.4221 26.8618 12.2189 26.8092 12.0208 26.7105C11.8176 26.6118 11.5935 26.5066 11.3538 26.3882C11.1141 26.2697 10.8327 26.1579 10.5149 26.0658C10.197 25.9671 9.81657 25.9145 9.36321 25.9145C8.69099 25.9145 8.10735 26.0855 7.60188 26.4211C7.11725 26.7566 6.70036 27.1974 6.35644 27.7632C6.02293 28.3224 5.76238 28.9737 5.59562 29.7105C5.42366 30.4605 5.34028 31.25 5.34028 32.0724C5.34028 32.8947 5.42366 33.6645 5.59562 34.3882C5.76759 35.1053 6.03335 35.7434 6.37207 36.2829C6.71079 36.8224 7.13288 37.2566 7.63835 37.5921C8.1334 37.9145 8.71183 38.0789 9.36842 38.0789C9.82178 38.0789 10.2126 38.0132 10.5461 37.8947C10.8692 37.7763 11.161 37.6447 11.4164 37.5066C11.6821 37.3684 11.9114 37.2237 12.1251 37.1184C12.3387 37 12.5524 36.9342 12.766 36.9342C13.0109 36.9342 13.2246 37.0132 13.3966 37.1382C13.5789 37.2763 13.7196 37.4408 13.8395 37.625C13.9489 37.8224 14.0375 38.0132 14.0948 38.2237C14.1574 38.4474 14.1834 38.6316 14.1834 38.7895ZM18.8994 39.875C18.8994 40.5658 18.7483 41.0855 18.4409 41.4539C18.1334 41.8158 17.7478 41.9934 17.2944 41.9934C16.8411 41.9934 16.4502 41.8092 16.1428 41.4539C15.8353 41.0855 15.6842 40.5658 15.6842 39.875V24.125C15.6842 23.4342 15.8353 22.9145 16.1428 22.5461C16.4502 22.1842 16.8359 22.0066 17.2944 22.0066C17.753 22.0066 18.1334 22.1908 18.4409 22.5461C18.7483 22.9145 18.8994 23.4342 18.8994 24.125V39.875ZM37.9719 40.0395C37.9719 40.6382 37.8207 41.1118 37.5185 41.4671C37.2215 41.8158 36.8619 42 36.4242 42C35.8874 42 35.4914 41.8355 35.2361 41.5197C34.9911 41.2039 34.8244 40.7303 34.7566 40.0921L33.4904 28.8816H33.4487L30.8796 40.4145C30.8379 40.5789 30.7754 40.75 30.6972 40.9342C30.6139 41.1184 30.5096 41.2961 30.3794 41.4539C30.2491 41.6184 30.0928 41.75 29.8895 41.8421C29.6863 41.9408 29.4466 41.9934 29.1548 41.9934C28.8629 41.9934 28.6232 41.9408 28.4304 41.8421C28.2324 41.7434 28.0604 41.6118 27.9354 41.4539C27.8051 41.2895 27.7009 41.1184 27.6279 40.9342C27.5498 40.75 27.4924 40.5724 27.4455 40.4145L24.8765 28.8816H24.8348L23.5842 40.0921C23.506 40.7303 23.3497 41.2105 23.0943 41.5197C22.8494 41.8355 22.4534 42 21.9062 42C21.4789 42 21.1089 41.8158 20.8119 41.4671C20.5149 41.1053 20.3689 40.6316 20.3689 40.0395V39.8224C20.3689 39.7434 20.3794 39.6711 20.3846 39.5855L22.37 24.0987C22.4013 23.8618 22.4742 23.6184 22.5836 23.3618C22.7035 23.1118 22.8494 22.8816 23.037 22.6908C23.2246 22.4868 23.4382 22.3224 23.678 22.2039C23.9229 22.0724 24.1886 22.0066 24.4752 22.0066C25.0224 22.0066 25.481 22.2105 25.8666 22.625C26.2522 23.0263 26.5076 23.4803 26.617 23.9671L29.1496 34.875H29.1912L31.7186 23.9605C31.828 23.4737 32.0782 23.0197 32.469 22.6184C32.8546 22.2039 33.3132 22 33.8603 22C34.1261 22 34.3919 22.0658 34.6368 22.1974C34.8817 22.3158 35.1058 22.4803 35.2934 22.6842C35.4758 22.8816 35.6269 23.1053 35.7363 23.3553C35.8562 23.6118 35.9239 23.8487 35.95 24.0921L37.9354 39.5789C37.951 39.6645 37.9614 39.7434 37.9614 39.8158V40.0329H37.9719V40.0395ZM49.8166 39.875C49.8166 40.5132 49.6655 40.9671 49.358 41.25C49.0505 41.5329 48.691 41.6711 48.2741 41.6711H41.1245C40.6451 41.6711 40.2543 41.5329 39.9312 41.25C39.6133 40.9671 39.4518 40.5132 39.4518 39.875C39.4518 39.5789 39.5039 39.3224 39.6133 39.0855C39.7176 38.8553 39.827 38.6513 39.9468 38.4868C40.8431 37.1316 41.7551 35.8158 42.667 34.5329C43.5894 33.2632 44.4596 31.8684 45.2725 30.3618C45.4706 30 45.6477 29.6118 45.8041 29.2039C45.95 28.7829 46.0281 28.3224 46.0281 27.8421C46.0281 27.2829 45.8822 26.7895 45.5852 26.3816C45.2986 25.9605 44.9286 25.7566 44.4805 25.7566C44.0688 25.7566 43.7457 25.8618 43.5164 26.0789C43.2923 26.2961 43.1047 26.5658 42.9797 26.8947C42.8442 27.2303 42.7348 27.5789 42.6566 27.9539C42.5784 28.3289 42.4846 28.6908 42.3752 29.0132C42.271 29.3355 42.1303 29.6118 41.9375 29.8289C41.7499 30.0461 41.4841 30.1513 41.1402 30.1513C40.6295 30.1513 40.2387 29.9539 39.9729 29.5526C39.7176 29.1513 39.5821 28.6974 39.5821 28.1645C39.5821 27.3224 39.7176 26.5197 39.999 25.7632C40.2804 25.0132 40.6451 24.3618 41.1089 23.8158C41.5779 23.2632 42.1094 22.8158 42.7139 22.4934C43.3184 22.1711 43.9541 22.0066 44.6107 22.0066C45.2673 22.0066 45.8927 22.1382 46.4607 22.3947C47.0443 22.6645 47.5446 23.0329 47.9719 23.5329C48.3992 24.0197 48.7379 24.6053 48.988 25.3092C49.2329 26 49.3632 26.7829 49.3632 27.6579C49.3632 28.5987 49.1808 29.5329 48.8161 30.4605C48.4461 31.3947 48.0083 32.3026 47.4768 33.1908C46.9557 34.0789 46.3929 34.9342 45.8041 35.7566C45.21 36.5789 44.6889 37.3618 44.2251 38.0855H48.1438C48.6128 38.0855 49.0141 38.2237 49.3319 38.5066C49.655 38.7829 49.8218 39.25 49.8166 39.875ZM62 35.9934C62 36.8092 61.8541 37.5724 61.5831 38.3026C61.3017 39.0263 60.9161 39.6645 60.4367 40.2105C59.9468 40.7632 59.3788 41.2105 58.7223 41.5197C58.0657 41.8355 57.357 42 56.6066 42C55.8041 42 55.0849 41.8289 54.4648 41.4934C53.8343 41.1579 53.2976 40.7434 52.8494 40.25C52.396 39.7566 52.0521 39.1974 51.8176 38.6053C51.5831 38.0066 51.4685 37.4342 51.4685 36.8947C51.4685 36.625 51.5206 36.3882 51.6144 36.1711C51.7186 35.9539 51.8489 35.7566 52 35.5987C52.1615 35.4342 52.3335 35.3026 52.5315 35.2237C52.7191 35.125 52.9171 35.0855 53.1204 35.0855C53.3601 35.0855 53.5633 35.1645 53.7144 35.3224C53.8656 35.4737 54.0115 35.6711 54.1417 35.9079C54.272 36.1382 54.3971 36.3947 54.5169 36.6776C54.6368 36.9539 54.7931 37.2171 54.9755 37.4474C55.1631 37.6842 55.3872 37.8816 55.6529 38.0329C55.9187 38.1974 56.247 38.2697 56.6535 38.2697C57.2058 38.2697 57.6748 38.0329 58.0709 37.5461C58.4617 37.0658 58.6597 36.4671 58.6597 35.7368C58.6597 35.1118 58.5763 34.6316 58.394 34.3289C58.2116 34.0263 57.9927 33.7961 57.7165 33.6711C57.4403 33.5329 57.1537 33.4408 56.8359 33.4145C56.518 33.375 56.2314 33.3092 55.9552 33.2105C55.6894 33.1118 55.4601 32.9408 55.283 32.7171C55.111 32.4803 55.0172 32.0921 55.0172 31.5461C55.0172 31.0658 55.0954 30.7105 55.2413 30.4737C55.3924 30.2237 55.58 30.0395 55.8145 29.9342C56.0438 29.8158 56.2835 29.7171 56.5388 29.6382C56.7942 29.5724 57.0443 29.4671 57.2632 29.3224C57.4924 29.1908 57.68 29 57.8364 28.75C57.9823 28.4934 58.0605 28.1118 58.0605 27.6053C58.0605 27.0987 57.925 26.6513 57.6592 26.3092C57.383 25.9605 57.0026 25.7895 56.5232 25.7895C56.1741 25.7895 55.8927 25.8553 55.679 25.9934C55.4549 26.1316 55.2621 26.2961 55.1058 26.4803C54.9547 26.6776 54.8192 26.8816 54.6941 27.1184C54.5847 27.3553 54.4596 27.5592 54.345 27.7566C54.2251 27.9539 54.0792 28.1184 53.9177 28.2434C53.7561 28.3816 53.5477 28.4474 53.3028 28.4474C52.865 28.4474 52.5263 28.2434 52.2762 27.8224C52.0365 27.4079 51.9062 26.9408 51.9062 26.4342C51.9062 25.9276 52.0417 25.3816 52.3075 24.8618C52.5732 24.3289 52.9224 23.8618 53.3601 23.4539C53.7978 23.0329 54.2929 22.6974 54.8452 22.4276C55.3976 22.1711 55.9812 22.0395 56.5753 22.0395C57.3413 22.0395 58.0188 22.2039 58.592 22.5197C59.1652 22.8355 59.6342 23.2368 60.0146 23.7303C60.3898 24.2171 60.6712 24.7434 60.8588 25.3421C61.0412 25.9276 61.135 26.4868 61.135 27.0132C61.135 27.8816 60.9995 28.6711 60.7077 29.3882C60.4263 30.1053 59.9833 30.6974 59.3841 31.1776C60.1501 31.6184 60.7754 32.2829 61.2652 33.125C61.7551 33.9803 62 34.9408 62 36.0395V35.9934Z" fill="#FCC900"/>
</svg>
