<svg width="64" height="64" viewBox="0 0 64 64" fill="none" xmlns="http://www.w3.org/2000/svg">
<g clip-path="url(#clip0_1_2)">
<rect width="64" height="64" fill="white"/>
<g clip-path="url(#clip1_1_2)">
<rect width="64" height="64" fill="#753CBD"/>
<path d="M32 64C49.6731 64 64 49.6731 64 32C64 14.3269 49.6731 0 32 0C14.3269 0 0 14.3269 0 32C0 49.6731 14.3269 64 32 64Z" fill="#753CBD"/>
<path d="M39.5809 34.7214C39.4254 35.3123 39.1921 35.8721 38.8967 36.4008C38.2125 37.5982 37.3261 38.469 36.1909 39.06C36.0043 39.1533 35.8332 39.2466 35.6466 39.3243C34.7913 39.6975 33.8894 39.8997 32.9564 39.9464H32.4276C31.1369 39.9619 29.8618 39.6509 28.7111 39.0444C27.5759 38.4535 26.6895 37.5827 26.0052 36.3853C25.321 35.1879 24.9789 33.7106 24.9789 31.9689C24.9789 30.2272 25.3366 28.8121 26.0208 27.6147C26.705 26.4173 27.607 25.531 28.7422 24.9245C29.8618 24.3025 31.1369 23.9915 32.4121 24.007H32.6765C34.3093 24.0537 35.6777 24.4735 36.8285 25.3132L36.9684 25.4066C37.1706 25.5621 37.3572 25.7331 37.5282 25.9042C38.057 26.4018 38.5079 26.9772 38.8656 27.6147C39.0677 27.9724 39.2543 28.3456 39.3943 28.7499L53.9963 25.5154C53.8564 23.6182 52.1613 20.4926 50.684 18.5954C48.4758 15.7496 45.7545 13.6348 42.5822 12.2819C39.4721 10.929 36.1131 10.2292 32.7076 10.2292C31.2302 10.2292 29.7374 10.3536 28.2756 10.5868C28.3223 11.411 28.2134 12.2197 27.9335 12.9972C27.6536 13.7747 27.2337 14.49 26.6739 15.0965C26.1141 15.703 25.4454 16.2006 24.6834 16.5427C23.937 16.8848 23.1128 17.087 22.2887 17.1181C22.3042 17.9578 22.1643 18.7976 21.8377 19.5751C21.5111 20.3526 21.0291 21.0524 20.4226 21.6433C19.2874 22.7163 17.7945 23.3383 16.2239 23.3694C14.6533 23.4005 13.1294 22.8407 11.9475 21.8144C10.3614 24.8312 9.53718 28.2368 9.53718 31.9534C9.53718 36.152 10.5791 39.9619 12.6317 43.2586C14.6844 46.5554 17.4991 49.1679 21.0135 51.0028C24.5124 52.8222 28.4622 53.7708 32.7076 53.7708C36.1753 53.7708 39.5965 53.0711 42.7532 51.687C45.91 50.303 48.6003 48.1726 50.7462 45.3113C51.6793 44.0517 52.4412 42.6833 53.0166 41.2371C53.7008 39.5265 54.2762 37.7071 54.4317 35.6233C54.4317 35.5611 54.4473 35.4989 54.4473 35.4367V35.4056C54.4628 35.1412 54.4628 34.8458 54.4628 34.7369L39.5809 34.7214Z" fill="#FAE600"/>
</g>
</g>
<defs>
<clipPath id="clip0_1_2">
<rect width="64" height="64" fill="white"/>
</clipPath>
<clipPath id="clip1_1_2">
<rect width="64" height="64" fill="white"/>
</clipPath>
</defs>
</svg>
