<svg width="64" height="64" viewBox="0 0 64 64" fill="none" xmlns="http://www.w3.org/2000/svg">
<rect width="64" height="64" fill="white"/>
<g clip-path="url(#clip0_1_2)">
<mask id="mask0_1_2" style="mask-type:luminance" maskUnits="userSpaceOnUse" x="1" y="18" width="62" height="28">
<path d="M63 18H1V46H63V18Z" fill="white"/>
</mask>
<g mask="url(#mask0_1_2)">
<path fill-rule="evenodd" clip-rule="evenodd" d="M12.2088 34.0188C12.2088 35.0692 11.9986 35.9808 11.5775 36.7544C10.6759 38.3576 9.11303 39.1582 6.88886 39.1582C5.37084 39.1582 4.07096 38.7344 2.9889 37.8874C1.78675 36.93 1.17801 35.6402 1.16316 34.0188H4.43154C4.43154 34.7374 4.68721 35.2994 5.19789 35.7046C5.64886 36.0546 6.20506 36.2296 6.86618 36.2296C7.45224 36.2296 7.95591 36.0918 8.37653 35.8152C8.81233 35.5204 9.03047 35.1432 9.03047 34.6822C9.03047 34.0742 8.39171 33.5952 7.11418 33.2452C5.22057 32.711 4.02593 32.2964 3.52993 32.0018C2.2524 31.2466 1.61364 30.0858 1.61364 28.5202C1.61364 27.5988 1.79425 26.7606 2.15467 26.0056C2.51557 25.2504 3.12399 24.6516 3.9809 24.2094C4.83747 23.749 5.7616 23.5188 6.75327 23.5188C8.10618 23.5188 9.24062 23.9148 10.1572 24.707C11.2094 25.5912 11.7728 26.8438 11.8482 28.4652H8.71476C8.54964 27.1572 7.84317 26.5032 6.59583 26.5032C6.08465 26.5032 5.64135 26.641 5.26576 26.9176C4.89017 27.1938 4.70238 27.5438 4.70238 27.9676C4.70238 28.5204 5.34832 28.9716 6.64102 29.3216C8.51946 29.8376 9.72927 30.2522 10.2703 30.565C11.5625 31.3386 12.2088 32.49 12.2088 34.0188Z" fill="#22252A"/>
<path fill-rule="evenodd" clip-rule="evenodd" d="M27.9537 38.7164H24.775V29.8188C24.775 28.787 24.6474 28.0592 24.3918 27.636C24.076 27.1384 23.5125 26.8896 22.7011 26.8896C21.0628 26.8896 20.2438 28.0226 20.2438 30.2886V38.7164H17.0655V23.9884H20.1085V25.3702C20.1085 25.9044 20.116 26.1712 20.1312 26.1712C20.1312 26.1526 20.1384 26.1438 20.1536 26.1438C20.5292 25.333 21.0627 24.7068 21.7541 24.2646C22.4606 23.8042 23.2043 23.574 23.9858 23.574C25.5787 23.574 26.7362 24.3384 27.4575 25.8674C27.788 26.6044 27.9535 27.4886 27.9535 28.5204L27.9537 38.7164Z" fill="#22252A"/>
<path fill-rule="evenodd" clip-rule="evenodd" d="M39.7415 34.0188C39.7415 35.0692 39.5314 35.9808 39.1101 36.7544C38.2085 38.3576 36.6458 39.1582 34.4216 39.1582C32.9034 39.1582 31.6035 38.7344 30.5215 37.8874C29.3193 36.9298 28.7104 35.64 28.6957 34.0188H31.9641C31.9641 34.7374 32.2198 35.2994 32.7305 35.7046C33.1814 36.0546 33.7376 36.2296 34.3987 36.2296C34.9851 36.2296 35.4886 36.0918 35.9093 35.8152C36.3449 35.5204 36.5632 35.1432 36.5632 34.6822C36.5632 34.0742 35.9243 33.5952 34.6467 33.2452C32.7531 32.711 31.5587 32.2964 31.0625 32.0018C29.785 31.2466 29.1462 30.0858 29.1462 28.5202C29.1462 27.5988 29.3268 26.7606 29.6872 26.0056C30.0481 25.2504 30.6566 24.6516 31.5135 24.2094C32.37 23.749 33.2942 23.5188 34.2858 23.5188C35.6387 23.5188 36.7733 23.9148 37.69 24.707C38.742 25.5912 39.3056 26.8438 39.3809 28.4652H36.2473C36.0822 27.1572 35.3757 26.5032 34.1282 26.5032C33.6171 26.5032 33.1738 26.641 32.798 26.9176C32.4224 27.1938 32.2346 27.5438 32.2346 27.9676C32.2346 28.5204 32.8806 28.9716 34.1733 29.3216C36.0519 29.8376 37.2615 30.2522 37.8025 30.565C39.0951 31.3386 39.7415 32.49 39.7415 34.0188Z" fill="#22252A"/>
<path fill-rule="evenodd" clip-rule="evenodd" d="M51.219 38.7164H48.2662C48.1758 38.514 48.0779 38.1182 47.9732 37.5282C47.2367 38.5232 46.0645 39.02 44.4565 39.02C43.3444 39.02 42.4277 38.7076 41.7063 38.081C40.8647 37.3444 40.4441 36.2756 40.4441 34.8756C40.4441 32.8678 41.0823 31.486 42.3599 30.7308C42.9459 30.3804 44.1406 30.0676 45.9441 29.791C47.2217 29.5886 47.8606 29.1648 47.8606 28.5202C47.8606 27.9488 47.6651 27.4976 47.2742 27.1658C46.8986 26.8158 46.4551 26.6408 45.9441 26.6408C45.4181 26.6408 44.9671 26.8158 44.5915 27.1658C44.2398 27.4896 44.014 27.923 43.9144 28.4656H40.8428C40.9365 27.4194 41.1855 26.5624 41.5258 25.8948C41.9167 25.1578 42.5403 24.5868 43.3972 24.1816C44.1934 23.813 45.0954 23.6288 46.1021 23.6288C49.5137 23.6654 51.2193 25.6646 51.2193 29.625L51.219 38.7164ZM47.8603 31.532C47.5444 31.8454 46.9887 32.094 46.1918 32.2784C45.2902 32.4808 44.7041 32.6744 44.4336 32.8586C43.8776 33.2086 43.5999 33.8166 43.5999 34.6822C43.5999 35.7878 44.073 36.3402 45.0197 36.3402C45.4556 36.3402 45.9066 36.2204 46.3726 35.981C46.8386 35.7234 47.1916 35.4194 47.4321 35.0694C47.7473 34.5904 47.9053 33.8812 47.9053 32.9414C47.9053 32.7756 47.8978 32.5362 47.8828 32.2234C47.8678 31.9098 47.8603 31.6796 47.8603 31.532Z" fill="#22252A"/>
<path d="M16.1267 18.1822H12.9484V22.0782H16.1267V18.1822Z" fill="#22252A"/>
<path d="M16.1265 31.3506H12.9482V38.7148H16.1265V31.3506Z" fill="#22252A"/>
<path fill-rule="evenodd" clip-rule="evenodd" d="M62.9543 39.5454C62.9543 41.498 62.3833 43.0636 61.2408 44.243C60.1891 45.293 58.9266 45.8178 57.4536 45.8178C56.011 45.8178 54.7938 45.3022 53.8018 44.2704C52.7047 43.11 52.1562 41.5256 52.1562 39.5176H55.109C55.109 40.457 55.3348 41.194 55.7855 41.7282C56.1761 42.2072 56.6721 42.4468 57.2735 42.4468C57.9346 42.4468 58.5132 42.1706 59.0092 41.6178C59.5352 40.9912 59.7982 40.1716 59.7982 39.1584V36.8928C59.5727 37.556 59.1593 38.0718 58.5582 38.4402C57.9721 38.8082 57.3107 38.9926 56.5745 38.9926C55.4021 38.9926 54.4029 38.5694 53.5763 37.7218C52.6294 36.7456 52.1562 35.4006 52.1562 33.6874V23.9884H55.3348V33.1074C55.3348 34.931 56.011 35.843 57.3636 35.843C58.0847 35.843 58.6708 35.585 59.1217 35.0692C59.5727 34.553 59.7982 33.8992 59.7982 33.1072V23.9884H62.954V39.5454H62.9543Z" fill="#22252A"/>
</g>
</g>
<defs>
<clipPath id="clip0_1_2">
<rect width="62" height="28" fill="white" transform="translate(1 18)"/>
</clipPath>
</defs>
</svg>
