<svg width="64" height="64" viewBox="0 0 64 64" fill="none" xmlns="http://www.w3.org/2000/svg">
<rect width="64" height="64" fill="white"/>
<g clip-path="url(#clip0_1_2)">
<path d="M28.7149 12.9548C28.7149 27.2126 16.6219 29.8808 16.6219 43.585C16.6219 48.9351 20.0357 53.5682 24.0651 54.1218C23.7711 53.1462 23.6746 52.3929 23.6746 51.3402C23.6746 41.4477 39.7741 38.3802 39.7741 21.5086C39.7741 13.4403 34.0124 6.62 27.2905 5C27.2905 5 28.7103 9.37899 28.7103 12.9503L28.7149 12.9548Z" fill="#EF3340"/>
<path d="M27.6949 51.9392C27.6949 54.739 29.7027 57.7203 32.3216 58.6914C32.1838 58.2785 32.1195 57.9155 32.1195 57.3074C32.1195 51.7939 48.6324 50.0378 48.6324 35.6303C48.6324 31.6461 46.9462 27.3215 43.6059 24.4854C41.3454 40.8624 27.6949 43.1176 27.6949 51.9392Z" fill="#509E2F"/>
<path d="M19.0432 9.57412C19.0432 9.57412 19.8381 10.9854 19.8381 12.56C19.8381 17.6197 15 19.5482 15 24.6896C15 27.1173 16.337 29.1094 18.2254 30.2666C18.2759 29.8264 18.3219 29.4134 18.4368 29.0686C19.567 25.4973 24.8692 21.5449 24.8692 15.9407C24.8692 12.5827 22.0481 9.81916 19.0432 9.57412Z" fill="#00B5E2"/>
</g>
<defs>
<clipPath id="clip0_1_2">
<rect width="34" height="54" fill="white" transform="translate(15 5)"/>
</clipPath>
</defs>
</svg>
