<svg width="64" height="64" viewBox="0 0 64 64" fill="none" xmlns="http://www.w3.org/2000/svg">
<rect width="64" height="64" fill="white"/>
<g clip-path="url(#clip0_1_2)">
<path fill-rule="evenodd" clip-rule="evenodd" d="M34.5805 14.123C33.9722 14.6863 33.4906 15.3696 33.1669 16.1287C32.8432 16.8878 32.6847 17.7057 32.7016 18.5292C32.6998 18.8483 32.7276 19.1669 32.7849 19.481H26.6486C26.374 19.4802 26.1038 19.5489 25.8638 19.6807C25.71 19.7358 25.5694 19.8216 25.4507 19.9328C25.3321 20.044 25.2379 20.1782 25.1741 20.327V20.2447L20.7027 26.9422L20.5957 27.1655V27.2477C20.1078 28.3632 19.8336 29.5584 19.787 30.7727C19.7386 31.3194 19.826 31.8695 20.0415 32.3753C20.257 32.881 20.5942 33.3272 21.0238 33.675C21.5101 34.0945 22.0759 34.4143 22.6883 34.616C23.3007 34.8177 23.9476 34.8973 24.5914 34.85C24.2227 35.6372 23.6876 36.8122 23.5092 37.2H16.7308C16.3782 37.1889 16.0316 37.2921 15.7438 37.4937C13.8742 38.5931 12.2838 40.1002 11.0941 41.9C10.726 42.5381 10.5256 43.2572 10.5114 43.9915C10.5277 44.554 10.6681 45.1062 10.9228 45.6095C11.1775 46.1128 11.5403 46.5551 11.9859 46.9055C12.1451 47.0523 12.3322 47.1663 12.5363 47.2409C12.7405 47.3156 12.9576 47.3493 13.1751 47.3402H30.0735C30.4293 47.3472 30.777 47.2354 31.0605 47.023C31.3299 46.8453 31.544 46.5972 31.6789 46.3062C31.8454 45.9067 32.6303 44.0737 33.1297 42.934L37.6605 51.0767C37.7876 51.265 37.9489 51.4283 38.1362 51.5585C38.337 51.7008 38.5695 51.7935 38.8141 51.8287H38.7784C42.1557 52.663 44.4865 52.851 45.9135 52.381C46.4412 52.2641 46.9267 52.0078 47.3184 51.6394C47.7101 51.271 47.9931 50.8044 48.1373 50.2895V50.3717C48.2711 50.0434 48.3358 49.6916 48.3276 49.3377C48.3106 48.663 48.1527 47.9989 47.8638 47.3872V47.305H47.8043L47.733 47.1992L47.8162 47.3167C47.8162 47.3167 41.3946 35.7312 40.467 34.0745L41.1211 34.9557C41.2786 35.1956 41.5011 35.3869 41.7632 35.508C42.0071 35.6262 42.2767 35.6827 42.5481 35.6725H50.2065C50.6456 35.6765 51.0701 35.5171 51.3957 35.226C52.1075 34.6642 52.6961 33.9651 53.1254 33.1711C53.5548 32.3772 53.8159 31.5052 53.893 30.6082C53.8988 30.5693 53.8988 30.5297 53.893 30.4907C53.8987 30.4557 53.8987 30.42 53.893 30.385C53.8329 29.4882 53.5699 28.6162 53.1233 27.8332C52.6766 27.0503 52.0578 26.3764 51.3124 25.8612C50.9966 25.6144 50.6089 25.4744 50.2065 25.4617H46.0443C45.8065 25.1562 44.1892 23.1117 43.8205 22.583C44.7693 21.4648 45.28 20.047 45.2595 18.588C45.2737 17.7722 45.1221 16.9619 44.8137 16.205C44.5052 15.4482 44.0462 14.7602 43.4638 14.1817L43.2973 13.9702C42.1385 12.8878 40.5988 12.2936 39.0043 12.3135C38.1863 12.3006 37.3743 12.4546 36.6192 12.766C35.8642 13.0773 35.1823 13.5393 34.6162 14.123H34.5805Z" fill="black"/>
<path fill-rule="evenodd" clip-rule="evenodd" d="M38.9805 11.82C38.0923 11.8177 37.2119 11.9853 36.3881 12.3135C35.5741 12.6544 34.838 13.1539 34.2238 13.7823C33.5755 14.3838 33.0618 15.1127 32.7156 15.9222C32.3695 16.7316 32.1987 17.6037 32.2141 18.4823V18.9288H26.6486C26.2935 18.929 25.9447 19.0222 25.6378 19.199C25.2554 19.3437 24.9415 19.6245 24.7578 19.9863L20.2865 26.625L20.1795 26.8248V26.8952V26.9658C19.6043 28.232 19.32 29.6083 19.347 30.996C19.3748 31.5763 19.5247 32.1446 19.787 32.6645C19.9831 33.1751 20.2966 33.6336 20.7027 34.004C21.5705 34.7751 22.6874 35.2165 23.8541 35.2495L23.2238 36.6007H16.7189C16.2629 36.5862 15.815 36.7226 15.4465 36.9885C13.5085 38.1632 11.8786 39.7736 10.6897 41.6885C10.153 42.5958 9.94736 43.6575 10.107 44.6965C10.3161 45.7128 10.875 46.6263 11.6886 47.2815C11.8877 47.4703 12.1225 47.6184 12.3797 47.7172C12.6368 47.816 12.9112 47.8636 13.187 47.8572H30.0616C30.5443 47.8784 31.0194 47.7331 31.4054 47.446C31.7621 47.2174 32.0432 46.8907 32.2141 46.506L33.2486 44.0738L37.2086 51.3C37.3641 51.538 37.5713 51.7387 37.8151 51.8875C38.0547 52.0531 38.3257 52.169 38.6119 52.2282C40.3466 52.6965 42.1304 52.9646 43.9276 53.0272C44.6154 53.0404 45.3012 52.9492 45.9611 52.757C46.5554 52.6146 47.1026 52.3237 47.5503 51.9122C47.9981 51.5007 48.3312 50.9824 48.5178 50.407C48.7194 49.9477 48.8168 49.4504 48.8032 48.95C48.7188 48.3541 48.5507 47.7728 48.3038 47.2227L48.1611 46.8937V46.835L42.1081 36.1425H42.4411H50.1114C50.663 36.1408 51.1969 35.9498 51.6216 35.602C53.4292 33.863 54.2973 32.2062 54.2616 30.5142C54.246 29.5262 53.9996 28.5552 53.5417 27.6767C53.0838 26.7983 52.4267 26.0362 51.6216 25.45C51.2162 25.1389 50.7197 24.9658 50.2065 24.9565H46.3059L44.4627 22.6065C45.3283 21.4523 45.784 20.0479 45.7589 18.6115C45.7712 17.7226 45.6055 16.8401 45.2714 16.0148C44.9486 15.2033 44.4586 14.467 43.8324 13.8528L43.5351 13.559C42.2997 12.4222 40.6686 11.7994 38.9805 11.82ZM33.2011 18.5293C33.1864 17.7677 33.337 17.012 33.6426 16.3127C33.9482 15.6135 34.4019 14.987 34.973 14.4755C35.4937 13.9365 36.1218 13.51 36.8177 13.2228C37.5136 12.9356 38.2622 12.794 39.0162 12.807C39.7743 12.7928 40.5275 12.9301 41.2305 13.2108C41.9335 13.4914 42.5718 13.9096 43.107 14.4403C43.6427 14.9725 44.065 15.6055 44.3489 16.3017C44.6328 16.998 44.7726 17.7435 44.76 18.494C44.7773 19.2337 44.6464 19.9696 44.375 20.6592C44.1036 21.3488 43.6969 21.9786 43.1784 22.5125L45.8065 25.8965H50.1114C50.4086 25.9104 50.6946 26.0128 50.9319 26.1903C51.6179 26.661 52.1879 27.2782 52.5996 27.9962C53.0113 28.7142 53.2542 29.5146 53.3103 30.338V30.5495C53.23 31.3866 52.9776 32.1988 52.5687 32.9362C52.1597 33.6736 51.6028 34.3208 50.9319 34.8382C50.6925 35.0483 50.384 35.1652 50.0638 35.1673H42.453C42.2595 35.1771 42.0667 35.1366 41.8941 35.0498C41.7144 34.968 41.5618 34.8377 41.4541 34.6738L39.8962 32.5587L39.4443 33.3813V33.4635L39.9438 34.3565L47.2454 47.4225L47.3643 47.6222C47.6282 48.1708 47.7778 48.7662 47.8043 49.373C47.8021 49.6627 47.7456 49.9496 47.6378 50.219C47.5133 50.6538 47.2698 51.0461 46.9341 51.353C46.5984 51.6598 46.1835 51.8691 45.7351 51.958C45.1742 52.1127 44.593 52.184 44.0108 52.1695C42.2809 52.1152 40.564 51.8548 38.8973 51.394C38.7313 51.357 38.5739 51.2892 38.4335 51.1942C38.2879 51.0965 38.166 50.9681 38.0768 50.8182L33.0584 41.806L31.2151 46.13C31.1145 46.34 30.9531 46.5158 30.7514 46.6352C30.5568 46.7905 30.3114 46.8699 30.0616 46.8585H13.1276C12.8539 46.868 12.5866 46.7758 12.3784 46.6C11.9651 46.2953 11.6266 45.9026 11.3878 45.4511C11.149 44.9995 11.0161 44.5007 10.9989 43.9915C11.025 43.3372 11.2041 42.6977 11.5222 42.1233C12.6621 40.3548 14.2006 38.8709 16.0173 37.7875C16.215 37.6393 16.4591 37.5644 16.707 37.576H23.8422L24.9362 35.226V35.1085L25.3524 34.2038H24.4605C23.889 34.2522 23.3134 34.1867 22.7679 34.0111C22.2225 33.8355 21.7183 33.5534 21.2854 33.1815C20.892 32.8924 20.5774 32.5113 20.3698 32.0724C20.1623 31.6336 20.0683 31.1506 20.0962 30.667C20.1494 29.5305 20.4071 28.4124 20.8573 27.3653C20.8573 27.2948 20.8573 27.236 20.9881 27.1303L25.4595 20.468C25.5038 20.3762 25.5668 20.2943 25.6445 20.2276C25.7223 20.1609 25.8131 20.1107 25.9114 20.0803C26.1367 19.9599 26.398 19.9224 26.6486 19.9745H33.4508C33.3218 19.5034 33.2578 19.0173 33.2605 18.5293H33.2011Z" fill="white"/>
<path fill-rule="evenodd" clip-rule="evenodd" d="M38.9805 11.82C38.0923 11.8177 37.2119 11.9853 36.3881 12.3135C35.5741 12.6544 34.838 13.1539 34.2238 13.7823C33.5755 14.3838 33.0618 15.1127 32.7156 15.9222C32.3695 16.7316 32.1987 17.6037 32.2141 18.4823V18.9288H26.6486C26.2935 18.929 25.9447 19.0222 25.6378 19.199C25.2554 19.3437 24.9415 19.6245 24.7578 19.9863L20.2865 26.625L20.1795 26.8248V26.8952V26.9658C19.6043 28.232 19.32 29.6083 19.347 30.996C19.3748 31.5763 19.5247 32.1446 19.787 32.6645C19.9831 33.1751 20.2966 33.6336 20.7027 34.004C21.5705 34.7751 22.6874 35.2165 23.8541 35.2495L23.2238 36.6007H16.7189C16.2629 36.5862 15.815 36.7226 15.4465 36.9885C13.5085 38.1632 11.8786 39.7736 10.6897 41.6885C10.153 42.5958 9.94736 43.6575 10.107 44.6965C10.3161 45.7128 10.875 46.6263 11.6886 47.2815C11.8877 47.4703 12.1225 47.6184 12.3797 47.7172C12.6368 47.816 12.9112 47.8636 13.187 47.8572H30.0616C30.5443 47.8784 31.0194 47.7331 31.4054 47.446C31.7621 47.2174 32.0432 46.8907 32.2141 46.506L33.2486 44.0738L37.2086 51.3C37.3641 51.538 37.5713 51.7387 37.8151 51.8875C38.0547 52.0531 38.3257 52.169 38.6119 52.2282C40.3466 52.6965 42.1304 52.9646 43.9276 53.0272C44.6154 53.0404 45.3012 52.9492 45.9611 52.757C46.5554 52.6146 47.1026 52.3237 47.5503 51.9122C47.9981 51.5007 48.3312 50.9824 48.5178 50.407C48.7194 49.9477 48.8168 49.4504 48.8032 48.95C48.7188 48.3541 48.5507 47.7728 48.3038 47.2227L48.1611 46.8937V46.835L42.1081 36.1425H42.4411H50.1114C50.663 36.1408 51.1969 35.9498 51.6216 35.602C53.4292 33.863 54.2973 32.2062 54.2616 30.5142C54.246 29.5262 53.9996 28.5552 53.5417 27.6767C53.0838 26.7983 52.4267 26.0362 51.6216 25.45C51.2162 25.1389 50.7197 24.9658 50.2065 24.9565H46.3059L44.4627 22.6065C45.3283 21.4523 45.784 20.0479 45.7589 18.6115C45.7712 17.7226 45.6055 16.8401 45.2714 16.0148C44.9486 15.2033 44.4586 14.467 43.8324 13.8528L43.5351 13.559C42.2997 12.4222 40.6686 11.7994 38.9805 11.82ZM33.2011 18.5293C33.1864 17.7677 33.337 17.012 33.6426 16.3127C33.9482 15.6135 34.4019 14.987 34.973 14.4755C35.4937 13.9365 36.1218 13.51 36.8177 13.2228C37.5136 12.9356 38.2622 12.794 39.0162 12.807C39.7743 12.7928 40.5275 12.9301 41.2305 13.2108C41.9335 13.4914 42.5718 13.9096 43.107 14.4403C43.6427 14.9725 44.065 15.6055 44.3489 16.3017C44.6328 16.998 44.7726 17.7435 44.76 18.494C44.7773 19.2337 44.6464 19.9696 44.375 20.6592C44.1036 21.3488 43.6969 21.9786 43.1784 22.5125L45.8065 25.8965H50.1114C50.4086 25.9104 50.6946 26.0128 50.9319 26.1903C51.6179 26.661 52.1879 27.2782 52.5996 27.9962C53.0113 28.7142 53.2542 29.5146 53.3103 30.338V30.5495C53.23 31.3866 52.9776 32.1988 52.5687 32.9362C52.1597 33.6736 51.6028 34.3208 50.9319 34.8382C50.6925 35.0483 50.384 35.1652 50.0638 35.1673H42.453C42.2595 35.1771 42.0667 35.1366 41.8941 35.0498C41.7144 34.968 41.5618 34.8377 41.4541 34.6738L39.8962 32.5587L39.4443 33.3813V33.4635L39.9438 34.3565L47.2454 47.4225L47.3643 47.6222C47.6282 48.1708 47.7778 48.7662 47.8043 49.373C47.8021 49.6627 47.7456 49.9496 47.6378 50.219C47.5133 50.6538 47.2698 51.0461 46.9341 51.353C46.5984 51.6598 46.1835 51.8691 45.7351 51.958C45.1742 52.1127 44.593 52.184 44.0108 52.1695C42.2809 52.1152 40.564 51.8548 38.8973 51.394C38.7313 51.357 38.5739 51.2892 38.4335 51.1942C38.2879 51.0965 38.166 50.9681 38.0768 50.8182L33.0584 41.806L31.2151 46.13C31.1145 46.34 30.9531 46.5158 30.7514 46.6352C30.5568 46.7905 30.3114 46.8699 30.0616 46.8585H13.1276C12.8539 46.868 12.5866 46.7758 12.3784 46.6C11.9651 46.2953 11.6266 45.9026 11.3878 45.4511C11.149 44.9995 11.0161 44.5007 10.9989 43.9915C11.025 43.3372 11.2041 42.6977 11.5222 42.1233C12.6621 40.3548 14.2006 38.8709 16.0173 37.7875C16.215 37.6393 16.4591 37.5644 16.707 37.576H23.8422L24.9362 35.226V35.1085L25.3524 34.2038H24.4605C23.889 34.2522 23.3134 34.1867 22.7679 34.0111C22.2225 33.8355 21.7183 33.5534 21.2854 33.1815C20.892 32.8924 20.5774 32.5113 20.3698 32.0724C20.1623 31.6336 20.0683 31.1506 20.0962 30.667C20.1494 29.5305 20.4071 28.4124 20.8573 27.3653C20.8573 27.2948 20.8573 27.236 20.9881 27.1303L25.4595 20.468C25.5038 20.3762 25.5668 20.2943 25.6445 20.2276C25.7223 20.1609 25.8131 20.1107 25.9114 20.0803C26.1367 19.9599 26.398 19.9224 26.6486 19.9745H33.4508C33.3218 19.5034 33.2578 19.0173 33.2605 18.5293H33.2011Z" fill="white"/>
<path fill-rule="evenodd" clip-rule="evenodd" d="M39.1114 15.2745H38.9805C38.5543 15.2655 38.131 15.3468 37.7392 15.513C37.3474 15.6792 36.9962 15.9264 36.7092 16.238C36.3893 16.5286 36.1357 16.8833 35.9655 17.2784C35.7953 17.6735 35.7124 18.1 35.7222 18.5293C35.7076 19.1834 35.9218 19.8225 36.3286 20.3388C36.3286 20.3388 36.3287 20.3388 36.3881 20.3388C36.4384 20.3966 36.4822 20.4597 36.5189 20.5268C36.5189 20.5268 36.5784 20.6208 36.6378 20.656C36.6973 20.6913 36.6378 20.656 36.6973 20.7148C36.9926 21.0126 37.3464 21.2475 37.737 21.4051C38.1277 21.5627 38.5468 21.6397 38.9687 21.6313H39.1114V15.2745Z" fill="#0FA3D1"/>
<path fill-rule="evenodd" clip-rule="evenodd" d="M39.1114 21.737C39.6964 21.7173 40.2662 21.5472 40.7643 21.2435C40.7643 21.2435 40.8238 21.2435 40.8476 21.2435L41.3351 20.844C41.9404 20.2364 42.278 19.417 42.2746 18.5645C42.2877 18.1411 42.2133 17.7196 42.0558 17.3256C41.8984 16.9316 41.6612 16.5735 41.3589 16.2733C40.7551 15.7092 39.9654 15.3796 39.1351 15.345L39.1114 21.737Z" fill="#0FA3D1"/>
<path fill-rule="evenodd" clip-rule="evenodd" d="M31.7503 38.516L31.8216 38.3515Z" fill="#625D7B"/>
<path d="M38.8497 15.2745C39.0591 15.2508 39.2706 15.2508 39.48 15.2745C39.48 15.486 39.3492 21.6783 39.3492 21.6783C39.1834 21.699 39.0156 21.699 38.8497 21.6783C38.8259 21.5608 38.8497 15.2745 38.8497 15.2745Z" fill="#0FA3D1"/>
<path fill-rule="evenodd" clip-rule="evenodd" d="M16.9924 40.1375L17.1232 40.0317H17.4086V44.391H16.7903L16.9924 40.1375Z" fill="#E42221"/>
<path d="M37.2324 32.1592H29.1222L25.7924 39.3385C25.6658 39.5405 25.4914 39.7091 25.2842 39.8298C25.0771 39.9506 24.8434 40.0199 24.6032 40.0317H17.1351C16.2823 40.6289 15.4863 41.3014 14.7568 42.041C14.3056 42.4698 13.9422 42.9804 13.6865 43.545C13.5917 43.7829 13.5917 44.0474 13.6865 44.2852C13.6826 44.3204 13.6826 44.3559 13.6865 44.391H29.253L31.7384 38.516C31.8385 38.2824 32.0031 38.0814 32.2134 37.936C32.4237 37.7905 32.6712 37.7065 32.9276 37.6935C33.1553 37.7044 33.3759 37.7756 33.5663 37.8996C33.7567 38.0237 33.9098 38.196 34.0097 38.3985L37.3514 44.391L40.0032 49.091C41.2418 49.4041 42.5084 49.5969 43.7849 49.6667C44.2648 49.7078 44.7481 49.6436 45.2 49.4787C45.2 49.4787 45.2595 49.4787 45.2 49.3025C45.1529 48.8465 44.9892 48.4098 44.7243 48.0335C44.2605 47.258 37.1373 34.4975 37.1373 34.4975C37.1373 34.4975 36.4119 33.5105 36.7924 32.8172C36.9827 32.594 37.2324 32.1592 37.2324 32.1592Z" fill="#F2E500"/>
<path d="M27.267 22.442H39.9081L42.9168 26.2373L44.1773 27.8705C44.2875 28.0104 44.4257 28.1264 44.5832 28.2113C44.7407 28.2962 44.9143 28.3482 45.093 28.364H49.6357C50.0575 28.755 50.4005 29.2215 50.6465 29.7388C50.7397 29.9059 50.7972 30.0901 50.8156 30.2801C50.834 30.47 50.8129 30.6617 50.7535 30.8433C50.6347 31.2629 50.4458 31.6601 50.1946 32.0183C49.8854 32.4178 49.6119 32.7115 49.6119 32.7115H43.1189L40.9189 29.7035C40.7952 29.4979 40.6218 29.3259 40.4143 29.2029C40.2067 29.0799 39.9715 29.0096 39.7297 28.9985C39.4785 28.9938 39.2315 29.0628 39.0199 29.1966C38.8083 29.3304 38.6415 29.5231 38.5405 29.7505L37.2324 32.1593H29.1222L31.0843 27.9645L31.5005 27.0715C31.5936 26.8485 31.6229 26.6045 31.5851 26.3662C31.5474 26.1279 31.4441 25.9045 31.2865 25.7203C31.1286 25.5748 30.9401 25.4656 30.7345 25.4006C30.5289 25.3356 30.3113 25.3163 30.0973 25.3443C29.8939 25.3769 29.7025 25.4612 29.542 25.5889C29.3815 25.7166 29.2573 25.8833 29.1816 26.0728L26.6486 31.5718C26.0966 31.6898 25.5359 31.7644 24.9719 31.795C24.5736 31.817 24.174 31.7893 23.7827 31.7128C23.6995 31.7128 23.1524 31.5953 23.0335 31.3485C22.8865 31.0783 22.8166 30.7737 22.8314 30.4673C22.861 29.9161 22.9446 29.3692 23.0811 28.834L23.2119 28.4933L27.267 22.442Z" fill="#0FA3D1"/>
</g>
<defs>
<clipPath id="clip0_1_2">
<rect width="44" height="47" fill="white" transform="translate(10 9)"/>
</clipPath>
</defs>
</svg>
