<svg width="64" height="64" viewBox="0 0 64 64" fill="none" xmlns="http://www.w3.org/2000/svg">
<rect width="64" height="64" fill="black"/>
<g clip-path="url(#clip0_1_2)">
<path d="M31.9998 4C16.5363 4 4 16.5362 4 32.0002C4 47.4647 16.5363 60 31.9998 60C47.4651 60 60 47.4647 60 32.0002C60 16.5373 47.4651 4.00134 31.9995 4.00134L31.9998 4ZM44.8404 44.3843C44.3388 45.2068 43.2622 45.4676 42.4397 44.9627C35.8657 40.947 27.5897 40.0376 17.8433 42.2645C16.9041 42.4784 15.9679 41.89 15.7539 40.9504C15.5389 40.0108 16.125 39.0746 17.0665 38.8606C27.7324 36.4237 36.8814 37.473 44.2619 41.9836C45.0845 42.4885 45.3452 43.5617 44.8404 44.3843ZM48.2675 36.7602C47.6356 37.7873 46.2915 38.1116 45.265 37.4797C37.7387 32.8535 26.2659 31.5137 17.3638 34.216C16.2093 34.5647 14.9899 33.9141 14.6395 32.7615C14.2917 31.607 14.9428 30.3899 16.0953 30.0388C26.264 26.9533 38.9056 28.4479 47.5487 33.7593C48.5751 34.3912 48.8994 35.735 48.2675 36.7602ZM48.5617 28.821C39.5375 23.4609 24.6487 22.9681 16.0327 25.5831C14.6492 26.0028 13.186 25.2216 12.7668 23.8381C12.3475 22.4538 13.1279 20.9916 14.5124 20.571C24.403 17.5684 40.8448 18.1486 51.2346 24.3165C52.4817 25.0551 52.8897 26.6624 52.1507 27.9053C51.4151 29.1497 49.8035 29.56 48.563 28.821H48.5617Z" fill="#1ED760"/>
</g>
<defs>
<clipPath id="clip0_1_2">
<rect width="56" height="56" fill="white" transform="translate(4 4)"/>
</clipPath>
</defs>
</svg>
