<svg width="64" height="64" viewBox="0 0 64 64" fill="none" xmlns="http://www.w3.org/2000/svg">
<rect width="64" height="64" fill="black"/>
<g clip-path="url(#clip0_1_2)">
<rect y="14" width="64" height="32" fill="white"/>
<path d="M35.5076 43.5171L35.5762 43.5791" stroke="black" stroke-width="2" stroke-linecap="round"/>
<path d="M27.4289 44.9548C27.7671 45.1312 27.9775 45.1696 28.042 45.1791C28.0615 45.1819 28.0451 45.2074 28.0165 45.2243C27.8818 45.3036 27.7351 45.3031 27.4514 45.3105C27.2927 45.3146 27.1288 45.2412 27.019 45.2554C26.9779 45.2607 26.9754 45.298 26.9753 45.3244C26.975 45.431 27.0799 45.532 27.1683 45.5991C27.2451 45.6574 27.3661 45.6661 27.5117 45.6828C27.646 45.6983 27.7675 45.6994 27.95 45.7209C28.6365 45.8017 28.8031 45.6569 28.9229 45.6209C29.0557 45.581 29.2328 45.5902 29.3266 45.5327C29.4158 45.4781 29.1532 45.3802 28.9813 45.3035C28.8306 45.2364 28.7183 45.2269 28.7037 45.2222C28.5135 45.1607 29.2649 45.2839 29.5742 45.3009C29.782 45.3123 30.0112 45.2845 30.145 45.2248C30.3532 45.1319 30.4793 45.1553 30.6058 45.2075C30.6494 45.2255 30.6984 45.2644 30.7276 45.2933C30.7567 45.3222 30.7615 45.3458 30.7497 45.3674C30.6969 45.4647 30.5048 45.4463 30.3562 45.4703C30.2513 45.4873 30.1366 45.5036 30.0145 45.5252C30.0682 45.5607 30.1832 45.5992 30.3567 45.623C30.4687 45.6327 30.6294 45.6374 30.795 45.6423" stroke="black" stroke-linecap="round"/>
<path d="M30.8809 45.1983C31.0143 45.2126 31.6392 45.2315 31.9931 45.2887C32.0199 45.293 32.0265 45.3315 32.0268 45.3555C32.027 45.3795 32.0128 45.4031 31.9866 45.4176C31.872 45.4812 31.4905 45.4704 31.2632 45.506C31.2413 45.5094 31.2439 45.5463 31.2509 45.575C31.2668 45.6402 31.3152 45.6851 31.358 45.7113C31.4528 45.7693 31.8799 45.7569 32.191 45.6951C32.3209 45.6693 32.4227 45.5902 32.5088 45.5256C32.5885 45.4657 32.7135 45.3424 33.0545 45.1083C33.1207 45.0628 33.1484 45.0693 33.1724 45.0835C33.2274 45.116 33.2444 45.2309 33.2396 45.3597C33.2348 45.4916 33.1301 45.5607 33.1201 45.6563C33.1031 45.8197 33.5105 45.7569 33.809 45.6952C33.956 45.6648 34.1691 45.5853 34.429 45.5305C34.7671 45.4592 35.1145 45.3326 35.2992 45.2866C35.4166 45.2574 35.5547 45.2558 35.6265 45.2034C35.6477 45.188 35.5943 45.1604 35.2699 45.1507C34.9455 45.141 34.3404 45.141 34.0169 45.1457C33.6934 45.1504 33.6698 45.1599 33.6931 45.1813C33.7731 45.255 33.9974 45.2982 34.3776 45.3436C34.6196 45.3724 34.9658 45.3653 35.1719 45.3606C35.4354 45.3547 35.5877 45.2846 35.8515 45.1469C36.2737 44.9265 36.5433 44.7542 36.6336 44.7731C36.9017 44.8292 36.973 44.9308 37.2997 44.9404C37.5931 44.9489 38.1463 44.9499 38.4619 44.957C38.941 44.9679 39.0736 45.0166 39.1955 45.0454C39.2454 45.0571 39.2935 45.1168 39.3483 45.1811C39.392 45.2323 39.394 45.2982 39.3941 45.3507C39.3942 45.454 39.2512 45.5226 39.151 45.5753C39.0594 45.6234 38.9932 45.647 38.7235 45.6542C38.4774 45.6607 38.0093 45.6566 37.7446 45.6495C37.3225 45.6137 37.1741 45.6089 36.7342 45.6018C36.3178 45.5993 35.5095 45.5993 34.6481 45.5564" stroke="black" stroke-linecap="round"/>
<path d="M41.2944 44.8688C41.3087 44.9973 41.3276 45.1309 41.4442 45.3169C41.5422 45.4732 41.9175 45.4744 42.1485 45.5253C42.1815 45.5325 42.2105 45.5277 42.2322 45.5183C42.2539 45.5088 42.2681 45.4899 42.2778 45.466C42.2875 45.4421 42.2922 45.4137 42.2804 45.3991C42.2029 45.3027 41.8834 45.3558 41.7411 45.4009C41.6508 45.4296 41.5909 45.5463 41.5547 45.6179C41.5426 45.6418 41.6367 45.6423 41.9379 45.5667C42.2392 45.491 42.7686 45.3398 43.0579 45.2548C43.3815 45.1597 43.5325 45.141 43.7068 45.1528C43.7641 45.1567 43.7535 45.1882 43.7344 45.2075C43.5938 45.3497 43.2576 45.3701 43.1283 45.3868C43.0692 45.3943 43.023 45.4273 42.9849 45.4653C42.9632 45.487 42.9468 45.5223 42.9489 45.5488C42.9509 45.5753 42.9746 45.5942 43.0458 45.6039C43.1171 45.6137 43.2353 45.6137 43.4285 45.5829C43.6217 45.5522 43.8864 45.4908 44.1457 45.4544C44.6479 45.3839 44.9702 45.3893 45.1224 45.375C45.3117 45.3572 45.4811 45.356 45.4962 45.3439C45.831 45.0773 44.8902 45.4274 44.7731 45.4512C44.6423 45.4778 44.5367 45.5417 44.4696 45.5849C44.3747 45.6458 44.7602 45.6326 44.8867 45.6542C45.1062 45.6917 45.2515 45.5664 45.412 45.4921C45.5259 45.4394 45.6626 45.3799 45.8249 45.3678C45.9501 45.3584 46.092 45.3415 46.3915 45.3296C46.5903 45.3217 46.9592 45.3272 47.1633 45.3224C47.3674 45.3177 47.3958 45.3083 47.8618 45.301C48.3278 45.2938 49.2307 45.2891 49.7265 45.2819C50.2839 45.2739 50.3754 45.2461 50.4657 45.2318C50.6202 45.2072 50.8093 45.2175 51.0588 45.2031C51.2183 45.194 51.4454 45.1983 51.671 45.2195C52.1167 45.2615 52.3475 45.3508 52.3595 45.4055C52.3881 45.5365 52.2668 45.6228 52.1928 45.7136C52.0861 45.8446 51.8525 45.8093 51.3971 45.8855C51.1175 45.9323 50.9205 45.9096 50.5204 45.9215C50.163 45.9322 49.4916 45.9193 48.9426 45.9098C48.3936 45.9003 47.9871 45.8861 47.7564 45.867C47.4094 45.8382 47.1975 45.7855 47.0292 45.7736C46.8711 45.7625 46.5395 45.8285 46.2797 45.8047C46.1942 45.7969 46.1265 45.7951 46.0789 45.7785C46.0254 45.7598 45.9928 45.7046 45.9689 45.6546C45.9592 45.6283 45.9545 45.5999 45.9521 45.5546C45.9496 45.5092 45.9496 45.4478 45.9496 45.3845" stroke="black" stroke-linecap="round"/>
<path d="M53.1075 44.8372C53.4922 45.2808 53.9582 45.4677 54.4033 45.4861C54.9584 45.5091 55.5838 45.352 56.1197 45.299C56.4089 45.2705 56.9078 45.2931 57.141 45.2699C57.3741 45.2468 57.3279 45.2005 57.2519 45.1535C57.176 45.1065 57.0719 45.0602 56.5785 44.9323C56.0852 44.8043 55.2058 44.596 54.6833 44.4598C53.7889 44.2266 53.5409 44.171 53.3949 44.2115C53.3302 44.2294 53.3298 44.333 53.3296 44.4037C53.3295 44.4743 53.341 44.5322 53.4222 44.5793C53.854 44.8302 54.3207 44.7671 54.626 44.8136C54.7862 44.838 54.907 44.9536 54.9366 45.0469C55.0264 45.3296 54.4645 45.3162 54.3174 45.4502C54.2783 45.4857 54.3803 45.5722 54.4391 45.6137C54.6582 45.7687 55.3004 45.7138 56.2514 45.6847C56.8136 45.6675 57.8552 45.6788 58.5132 45.6383C59.4206 45.5824 59.7224 45.4218 60.0068 45.4042C61.1227 45.3354 61.4746 45.4915 61.7441 45.5326C62.0348 45.5768 62.2699 45.6318 63.4121 45.6148C63.6402 45.6114 63.65 45.528 63.6502 45.4693C63.6509 45.2362 63.4403 45.0371 63.2362 44.8495C63.0143 44.6455 62.6002 44.732 62.1266 44.8309C61.7966 44.8998 60.9451 44.9775 60.2391 44.9193C59.5627 44.8635 58.2564 44.7671 57.7313 44.802C57.3552 44.827 57.047 45.0122 56.9593 45.0995C56.9165 45.1422 56.9295 45.2215 56.9469 45.2862C56.9642 45.3509 56.999 45.4088 57.0573 45.4559C57.3626 45.7026 57.9092 45.6788 58.3879 45.6206C59.5844 45.4751 60.0839 45.7721 60.3531 45.8538C60.8049 45.9909 61.288 45.8779 61.499 45.767C61.5346 45.7261 61.5461 45.6683 61.5521 45.5806C61.558 45.4929 61.558 45.3772 61.558 45.258" stroke="black" stroke-linecap="round"/>
<path d="M-13.2311 32.225V62.7268H36.4723H86.1758V32.225V1.72327H36.4723H-13.2311V32.225ZM8.17654 14.8184C10.9913 15.1583 14.2718 16.7863 16.7099 19.0493C18.3848 20.5968 19.1678 21.8222 19.2471 22.9672C19.2768 23.4502 19.2471 23.6648 19.1083 23.9064C18.7515 24.5235 17.9388 24.7919 17.3144 24.4967C16.9477 24.3268 16.6306 23.9958 15.9566 23.1013C13.7663 20.2122 12.2797 18.9957 9.85149 18.0922C6.66017 16.9026 3.75625 17.3856 3.31026 19.1656C3.17151 19.7112 3.34991 20.1853 3.85536 20.6326C4.44011 21.1335 6.3331 22.1353 9.3163 23.5038C12.3491 24.9082 14.1925 25.8295 15.3521 26.5182C16.7198 27.3322 16.4125 27.2785 19.703 27.3412C22.369 27.3948 22.6564 27.3859 22.7159 27.2517C22.7556 27.1623 22.4186 26.4825 21.8537 25.4806C21.1599 24.2373 20.922 23.7454 20.8923 23.3965L20.8427 22.9314L21.1995 22.8777C22.042 22.7346 22.6168 23.0387 23.5583 24.1479C24.2125 24.9082 25.3522 26.4198 25.7487 27.046L26.0163 27.4574L26.8884 27.5201C27.3642 27.5469 28.2958 27.6632 28.9697 27.7616C29.6437 27.8689 30.2185 27.9315 30.2383 27.9047C30.2681 27.8778 30.2482 27.5469 30.1888 27.1712C29.8419 24.9618 30.4564 23.3607 31.725 23.155C32.9143 22.9493 33.7468 23.969 37.8599 30.615C39.3168 32.9764 40.7935 35.2036 41.6558 36.3396C43.0334 38.1554 42.7955 37.9497 43.4893 37.9497C44.4407 37.9497 45.749 37.8423 45.7192 37.7708C45.6994 37.7261 45.2237 37.252 44.6588 36.7064C42.7559 34.8637 42.3297 34.3181 40.7241 31.6794C40.0799 30.6239 39.4555 29.5863 39.3168 29.3627C38.2959 27.69 36.0263 23.6112 35.9371 23.3071C35.6993 22.5199 36.0759 22.1174 37.0571 22.1174C37.8103 22.1174 38.4743 22.2695 40.1988 22.833C40.9422 23.0745 41.8639 23.3518 42.2603 23.4502C43.0235 23.638 44.9065 23.8885 44.9957 23.808C45.0255 23.7811 44.9957 23.5307 44.9363 23.2534C44.7876 22.5915 44.8669 22.3231 45.2931 22.1442C45.5904 22.0101 45.749 22.0101 46.4824 22.0995C46.9482 22.1532 47.7213 22.3231 48.197 22.4841C51.5271 23.5665 51.983 23.647 55.1049 23.8169C56.0762 23.8706 56.8988 23.9242 56.9186 23.9511C57.0078 24.0316 56.0365 24.4878 55.3527 24.6935C54.3913 24.9797 52.3199 25.0513 50.0702 24.8903C49.2178 24.8277 48.4844 24.8008 48.4448 24.8366C48.3655 24.9082 49.0394 26.1068 49.3566 26.4556C49.5449 26.6703 49.6341 26.6792 51.7352 26.8134C52.9344 26.885 54.1336 26.9744 54.4012 27.0013L54.8869 27.0549L54.649 27.2249C54.5202 27.3143 54.1535 27.5201 53.8264 27.6811C53.5093 27.8421 53.0633 28.0657 52.8353 28.182C52.6173 28.2983 52.092 28.4593 51.6856 28.5487C51.1504 28.665 50.9522 28.7455 50.9721 28.8349C50.9919 28.9065 51.418 29.7026 51.9334 30.615C52.4389 31.5273 53.0831 32.7707 53.3606 33.3878C53.6381 34.005 53.9552 34.6848 54.0643 34.9085C54.1634 35.1321 54.5301 35.8924 54.8571 36.608C55.1941 37.3236 55.5212 37.9586 55.5906 38.0212C55.65 38.0839 56.4825 38.2538 57.434 38.3969C61.8245 39.0857 62.8156 39.3809 63.4698 40.1948C63.8662 40.6778 63.9455 41.0983 63.7473 41.4918C63.3608 42.2074 62.4291 42.2342 60.3082 41.5902C56.4925 40.4274 53.3209 40.0159 47.6519 39.9444C38.7221 39.8281 31.0015 40.7762 22.1708 43.0572C19.8814 43.6475 18.4542 44.1126 15.917 45.0966C14.7574 45.5528 13.7861 45.9016 13.7663 45.8837C13.7069 45.839 15.0647 44.7567 15.8774 44.2021C16.5711 43.728 17.9289 43.0124 18.8506 42.6368C19.0786 42.5473 19.2768 42.44 19.2768 42.4131C19.2768 42.3863 18.8606 42.3058 18.365 42.2521C12.1112 41.5008 7.52242 38.9068 6.32319 35.463C6.09524 34.8011 6.07542 34.6222 6.11506 33.6741C6.15471 32.7707 6.20426 32.5291 6.47186 31.912C6.65025 31.5184 6.97732 30.9638 7.21518 30.6865C7.62153 30.1856 7.87921 29.9978 7.72064 30.3198C7.68099 30.4092 7.49269 30.8833 7.30438 31.3753C7.00705 32.1356 6.95749 32.386 6.95749 33.03C6.95749 33.9335 7.1458 34.4344 7.80984 35.3289C9.03879 36.9926 10.3371 37.8245 13.9249 39.2646C14.7277 39.5955 17.1261 40.2574 18.2362 40.4632C19.0092 40.6063 19.6832 40.6689 20.5652 40.6689C22.3988 40.6778 23.2412 40.4542 23.7764 39.8013C24.2818 39.1841 23.8061 37.6187 22.6168 36.0266C21.5464 34.5864 19.3264 32.386 17.5919 31.0622C17.2352 30.7938 16.8387 30.4808 16.7 30.3645C16.3828 30.1051 13.9943 28.5666 13.4789 28.2983C11.913 27.4574 10.7336 26.9029 7.08634 25.3017C4.19234 24.0316 2.99311 23.3518 1.92273 22.3947C0.346886 20.9725 0.069379 19.4966 1.05056 17.7434C1.95246 16.1244 3.75625 15.051 6.01595 14.7916C6.92776 14.6843 7.03678 14.6843 8.17654 14.8184ZM27.156 45.7943C27.1858 45.9284 27.2849 46 27.4038 46C27.5822 46 27.602 45.9374 27.602 45.3113C27.602 44.8282 27.6317 44.6493 27.7011 44.712C27.7606 44.7656 27.8002 45.0787 27.7804 45.4186C27.7507 46.0895 27.5723 46.3131 27.2353 46.1252C27.0866 46.0447 27.0569 45.8927 27.047 45.3202C27.047 44.9356 27.0569 44.8372 27.0767 45.1055C27.0966 45.3739 27.1263 45.6869 27.156 45.7943ZM41.9134 44.9803C42.0026 45.0071 42.072 45.0966 42.072 45.1681C42.072 45.2844 42.0423 45.2844 41.9233 45.195C41.6558 44.9892 41.4674 45.1592 41.4972 45.5707C41.5269 45.9463 41.5368 45.9553 41.854 45.9374C42.1216 45.9284 42.1612 45.9463 42.0621 46.0537C42.0026 46.1252 41.8639 46.1789 41.7648 46.1789C41.2791 46.1789 41.071 45.3381 41.4972 45.0697C41.7549 44.8998 41.7152 44.9087 41.9134 44.9803ZM44.9363 45.2039C45.1444 45.5438 45.0057 46.0716 44.6885 46.1431C44.3317 46.2236 44.1533 46.0447 44.1533 45.5885C44.1533 44.9535 44.629 44.712 44.9363 45.2039ZM51.9235 44.9803C52.1812 45.0697 52.1019 45.186 51.8145 45.1681C51.5469 45.1502 51.537 45.1681 51.537 45.5528C51.537 45.9016 51.5667 45.9553 51.7649 45.9821C52.0325 46.0179 52.0623 45.7853 51.8145 45.6512C51.6559 45.5707 51.6658 45.5617 51.864 45.5528C52.1415 45.5528 52.2307 45.7406 52.0821 45.9911C51.9532 46.2147 51.6658 46.2326 51.4478 46.0358C51.2496 45.8569 51.2496 45.3828 51.4478 45.1234C51.6064 44.9177 51.6757 44.8908 51.9235 44.9803ZM54.8373 45.034C54.9067 45.0966 54.9563 45.1771 54.9563 45.2307C54.9563 45.2844 54.9067 45.2755 54.8373 45.2129C54.54 44.9445 54.2328 45.2755 54.3319 45.7674C54.3814 45.9911 54.4211 46.0089 54.6688 45.9642C55.0256 45.9016 55.0554 46.0626 54.7085 46.1431C54.3418 46.2236 54.1634 46.0447 54.1634 45.5885C54.1634 45.0519 54.5301 44.7567 54.8373 45.034ZM56.2843 45.0697C56.6114 45.356 56.4033 46.1789 56.0167 46.1789C55.7293 46.17 55.6005 46 55.6005 45.5975C55.6005 45.2844 55.65 45.1502 55.7888 45.0519C56.0366 44.8908 56.096 44.8908 56.2843 45.0697ZM28.6922 45.3113C28.6922 45.4901 28.712 45.4901 28.94 45.2397C29.2076 44.9445 29.277 45.034 29.0292 45.356C28.8904 45.5438 28.8904 45.5707 29.0787 45.7943C29.3662 46.1163 29.2274 46.1968 28.9301 45.8837L28.6922 45.6333V45.8569C28.6922 45.9821 28.6526 46.0894 28.5931 46.0894C28.5336 46.0894 28.494 45.8479 28.494 45.5438C28.494 45.2129 28.5336 45.025 28.5931 45.0608C28.6526 45.0876 28.6922 45.2039 28.6922 45.3113ZM30.6546 45.2665C30.6744 45.3828 30.6447 45.5259 30.5852 45.5796C30.5257 45.6512 30.5257 45.7406 30.5753 45.8211C30.6942 45.9911 30.6942 46.0894 30.5951 46.0894C30.5456 46.0894 30.4564 45.9911 30.3969 45.8658C30.3374 45.7406 30.2383 45.6422 30.1789 45.6422C30.1293 45.6422 30.0798 45.7406 30.0798 45.8658C30.0798 45.9911 30.0401 46.0894 29.9806 46.0894C29.9212 46.0894 29.8815 45.8479 29.8815 45.5438V45.0071L30.2582 45.034C30.5555 45.0519 30.6348 45.0966 30.6546 45.2665ZM31.9827 45.5438C32.1511 46 32.1214 46.4294 31.9529 46.0179C31.8538 45.7674 31.497 45.7585 31.4177 46C31.3781 46.0984 31.3186 46.161 31.2691 46.1342C31.2195 46.1073 31.2492 45.8927 31.3384 45.6601C31.4177 45.4275 31.5069 45.186 31.5268 45.1234C31.606 44.8908 31.8043 45.0787 31.9827 45.5438ZM33.2513 45.356C33.2116 45.5438 33.2215 45.7943 33.2612 45.9016C33.3603 46.1252 33.1125 46.2683 32.9242 46.0984C32.8449 46.0268 32.8449 46 32.9341 46C33.1026 46 33.0927 45.1324 32.9341 45.0787C32.8647 45.0519 32.9242 45.025 33.063 45.025C33.3107 45.0161 33.3206 45.034 33.2513 45.356ZM34.4802 45.3202C34.6784 45.7585 34.8667 45.8301 34.7875 45.4365C34.7478 45.2486 34.7577 45.1055 34.8271 45.0697C34.9064 45.025 34.9361 45.1771 34.9361 45.5438C34.9361 45.8479 34.8965 46.0894 34.837 46.0894C34.7875 46.0894 34.6388 45.9195 34.5199 45.7048L34.2919 45.3291L34.2324 45.7317C34.173 46.1163 34.173 46.1163 34.1631 45.5707C34.1432 44.9535 34.2622 44.8551 34.4802 45.3202ZM36.1453 45.1234C35.9966 45.2576 35.9867 45.839 36.1453 45.9821C36.2345 46.0626 36.2146 46.0984 36.0858 46.1431C35.9867 46.1789 35.8678 46.161 35.7984 46.0984C35.7191 46.0268 35.7191 46 35.8083 46C35.9669 46 35.9669 45.2665 35.8083 45.1234C35.7191 45.0429 35.7488 45.0161 35.9768 45.0161C36.2047 45.0161 36.2345 45.0429 36.1453 45.1234ZM37.6914 45.5528C37.8004 45.8479 37.8599 46.1073 37.8103 46.1342C37.7607 46.161 37.7013 46.0984 37.6616 46C37.5823 45.7674 37.2553 45.7674 37.1165 46.0089C36.9183 46.3399 36.8886 46.1163 37.067 45.6243C37.3544 44.8282 37.4238 44.8193 37.6914 45.5528ZM38.8212 45.3918L39.0492 45.7764L39.1086 45.3739C39.1681 44.9892 39.1681 44.9892 39.178 45.5259C39.1879 45.839 39.1582 46.0894 39.1185 46.0894C39.069 46.0894 38.9501 45.9284 38.851 45.7317C38.7518 45.5349 38.6428 45.3739 38.6131 45.3739C38.5734 45.3739 38.5635 45.5349 38.5834 45.7317C38.6131 45.9553 38.5834 46.0894 38.514 46.0894C38.4446 46.0894 38.405 45.8837 38.405 45.5528C38.405 45.2576 38.4446 45.0161 38.5041 45.0161C38.5536 45.0161 38.7023 45.186 38.8212 45.3918ZM43.3604 46.0089C43.6181 46.0447 43.6677 46.0716 43.5388 46.1252C43.4496 46.161 43.2712 46.1789 43.1424 46.161C42.9343 46.1342 42.9144 46.0895 42.9045 45.5528L42.8946 44.9713L42.9541 45.4633C43.0136 45.9463 43.0235 45.9553 43.3604 46.0089ZM46.3139 45.0787C46.1751 45.1145 46.1355 45.2129 46.1355 45.6064C46.1355 45.8748 46.0959 46.0894 46.0364 46.0894C45.9868 46.0894 45.9373 45.8748 45.9373 45.6064C45.9373 45.2129 45.8976 45.1145 45.7688 45.0787C45.6697 45.0519 45.7886 45.034 46.0364 45.034C46.2842 45.034 46.4031 45.0519 46.3139 45.0787ZM47.2257 45.2486C47.2257 45.4365 47.2654 45.4723 47.4537 45.4454C47.5924 45.4275 47.6618 45.3649 47.642 45.2665C47.6321 45.186 47.6618 45.0966 47.7213 45.0608C47.7807 45.025 47.8105 45.2039 47.8105 45.5707C47.8005 45.8837 47.7708 46.0268 47.751 45.8837C47.7213 45.6959 47.6519 45.6422 47.4636 45.6422C47.2753 45.6422 47.2257 45.6869 47.2257 45.8658C47.2257 45.9911 47.1861 46.0894 47.1266 46.0894C47.0671 46.0894 47.0275 45.8479 47.0275 45.5528C47.0275 45.2576 47.0671 45.0161 47.1266 45.0161C47.1861 45.0161 47.2257 45.1234 47.2257 45.2486ZM49.0493 45.5617C49.0295 46.17 48.9998 46.2326 48.7421 46.0984C48.643 46.0447 48.6232 46 48.6925 46C48.7718 46 48.8115 45.8479 48.8115 45.5617C48.8115 45.2934 48.7619 45.1055 48.6925 45.0787C48.6232 45.0519 48.6727 45.025 48.8115 45.025C49.0493 45.0161 49.0592 45.034 49.0493 45.5617ZM50.2486 45.3202C50.427 45.7048 50.645 45.8569 50.5657 45.5438C50.536 45.4275 50.5558 45.2486 50.5954 45.1502C50.6549 45.025 50.6846 45.1413 50.6846 45.5259C50.6945 45.839 50.6549 46.0894 50.5954 46.0894C50.5459 46.0894 50.3972 45.9195 50.2783 45.7048L50.0503 45.3291L49.9909 45.7317C49.9314 46.1163 49.9314 46.1163 49.9215 45.5707C49.9017 44.9445 50.0305 44.8461 50.2486 45.3202ZM57.3745 45.2129L57.4439 45.4186L57.5529 45.2129C57.7511 44.8461 57.9097 44.9803 57.9494 45.5528C57.9791 46.1521 57.8205 46.2505 57.7214 45.678C57.6917 45.4901 57.652 45.4007 57.6421 45.4812C57.6223 45.7227 57.4439 45.7585 57.3448 45.5349C57.2556 45.347 57.2457 45.356 57.2259 45.6422C57.216 45.8122 57.216 45.9821 57.2259 46.0179C57.2259 46.0626 57.1961 46.0894 57.1367 46.0894C57.0772 46.0894 57.0376 45.8479 57.0376 45.5528C57.0376 45.1592 57.0772 45.0161 57.1763 45.0161C57.2457 45.0161 57.3448 45.1055 57.3745 45.2129ZM59.2675 45.3291C59.2675 45.5349 59.218 45.5975 59.0197 45.6422C58.8711 45.669 58.7522 45.7764 58.7125 45.9106C58.663 46.0626 58.6431 45.9374 58.6332 45.5707L58.6233 45.0071L58.9504 45.034C59.2279 45.0608 59.2675 45.0966 59.2675 45.3291ZM60.6451 45.517C60.8136 46.0089 60.7839 46.2862 60.5956 45.9732C60.4767 45.7853 60.11 45.7674 60.11 45.9553C60.11 46.0268 60.0703 46.0894 60.0108 46.0894C59.8721 46.0894 59.882 45.9732 60.0703 45.4544C60.1595 45.2129 60.2883 45.0161 60.3478 45.0161C60.4172 45.0161 60.546 45.2397 60.6451 45.517ZM61.7651 45.3918L61.9831 45.7764V45.3918C61.993 45.186 62.0426 45.0161 62.0921 45.0161C62.1516 45.0161 62.1913 45.2576 62.1913 45.5528C62.1913 46.2057 62.0327 46.2594 61.7552 45.7048L61.557 45.3291L61.4975 45.7317C61.4281 46.1252 61.4281 46.1252 61.4182 45.5707C61.4083 45.2665 61.438 45.0161 61.4777 45.0161C61.5173 45.0161 61.6561 45.186 61.7651 45.3918ZM63.0733 45.2576L63.2022 45.508L63.3409 45.2576C63.4202 45.1234 63.5292 45.0161 63.5887 45.0161C63.6383 45.0161 63.5887 45.1771 63.4797 45.3739C63.3707 45.5617 63.2815 45.8122 63.2815 45.9106C63.2815 46.0179 63.2319 46.0716 63.1823 46.0447C63.1229 46.0089 63.1031 45.9553 63.1328 45.9106C63.1625 45.8658 63.1031 45.669 62.9841 45.4723C62.7661 45.0697 62.7463 45.0161 62.8652 45.0161C62.9148 45.0161 63.004 45.1234 63.0733 45.2576Z" fill="black"/>
<path d="M39.4952 24.944C39.4952 25.1318 40.3178 26.4198 40.5656 26.6077C40.6944 26.7061 41.3683 26.7776 43.2911 26.9029C44.6885 26.9923 45.8382 27.0997 45.8382 27.1354C45.8382 27.2249 44.3119 28.0567 43.7271 28.2893C43.4893 28.3877 43.0631 28.504 42.7955 28.5577C41.8441 28.7455 41.8242 28.6203 43.1424 30.9727C43.7866 32.1266 44.5101 33.5131 44.7381 34.0587C44.966 34.5954 45.4517 35.6598 45.8184 36.4022L46.4824 37.7708H49.1286C50.8432 37.7708 52.31 37.8245 53.2714 37.9139C54.094 37.9855 54.8274 38.0391 54.8968 38.0212C54.9761 38.0034 54.5301 37.5203 53.8462 36.8763C52.2307 35.3468 51.7848 34.8369 50.6351 33.2089C50.0305 32.3502 48.2565 29.3895 47.0572 27.2517L45.7886 25.0066L43.1127 24.944C41.6458 24.9082 40.2286 24.8635 39.9709 24.8366C39.5645 24.7919 39.4952 24.8008 39.4952 24.944Z" fill="black"/>
<path d="M32.3295 26.7419C32.2106 26.8492 32.2602 27.8331 32.4187 28.5398C32.944 30.8833 35.4019 36.116 36.4327 37.0731C36.958 37.574 37.176 37.6098 37.2652 37.2252C37.4436 36.4827 36.9381 34.9085 35.6497 32.1803C34.7082 30.2035 33.499 27.9852 32.9044 27.1891C32.5377 26.6882 32.4584 26.6256 32.3295 26.7419Z" fill="black"/>
<path d="M29.386 28.6024C28.9796 28.7276 28.3057 28.8886 27.8993 28.9602C27.493 29.0407 27.1461 29.1212 27.1164 29.148C27.0966 29.1659 27.2155 29.3627 27.3939 29.5952C29.0788 31.7062 30.0203 33.3073 31.0213 35.7582C32.1412 38.5043 32.3692 39.0231 32.4683 39.0231C32.6566 39.0231 35.3821 38.6384 35.4218 38.6116C35.4416 38.5937 35.1938 38.3522 34.8568 38.0839C33.3504 36.8405 31.8142 33.853 30.9123 30.4361C30.4167 28.5398 30.3672 28.3788 30.2383 28.3788C30.1789 28.3877 29.7923 28.4861 29.386 28.6024Z" fill="black"/>
<path d="M20.813 29.318C20.7635 29.3358 20.595 29.3716 20.4463 29.3985C20.2877 29.4342 20.1688 29.4969 20.1688 29.5416C20.1688 29.5863 20.6346 30.0604 21.2095 30.606C23.043 32.3234 24.7278 34.3986 25.6694 36.116C26.4821 37.5919 26.6506 38.1644 26.5911 39.3093C26.5515 40.0696 26.5614 40.1859 26.7001 40.1859C26.8686 40.1859 31.9827 39.1304 32.0322 39.0857C32.0421 39.0678 31.9133 38.8978 31.7349 38.701C31.0907 38.0123 27.156 33.3252 26.5614 32.5381C26.2343 32.0908 25.6694 31.3126 25.3225 30.8028C24.9657 30.284 24.5395 29.7294 24.371 29.5684L24.0638 29.2732L22.488 29.2822C21.6158 29.2822 20.8725 29.3001 20.813 29.318Z" fill="black"/>
<path d="M38.7023 34.7922C38.7023 34.8816 38.7915 35.2573 38.9005 35.624C39.1285 36.4201 39.1483 37.2967 38.9501 37.8781C38.8708 38.1196 38.841 38.3075 38.8708 38.3075C39.1681 38.3075 42.3297 38.0212 42.3594 37.9855C42.3892 37.9676 41.9432 37.5382 41.3683 37.0284C40.7935 36.5275 40.1592 35.9103 39.9412 35.6688C39.1086 34.7027 38.7023 34.4165 38.7023 34.7922Z" fill="black"/>
<path d="M44.3515 45.3202C44.2227 45.6333 44.3912 46.0268 44.629 45.9821C44.7579 45.9553 44.7975 45.8658 44.7975 45.5528C44.7975 45.2397 44.7579 45.1502 44.629 45.1234C44.5101 45.1055 44.4209 45.1771 44.3515 45.3202Z" fill="black"/>
<path d="M55.7888 45.2307C55.759 45.3023 55.7491 45.4901 55.7689 45.6601C55.7888 45.8837 55.8482 45.9553 55.987 45.9553C56.2149 45.9553 56.3537 45.5975 56.2348 45.3023C56.1456 45.0787 55.8681 45.034 55.7888 45.2307Z" fill="black"/>
<path d="M30.0798 45.3291C30.0798 45.508 30.1194 45.5617 30.2582 45.5349C30.3473 45.517 30.4266 45.4275 30.4266 45.3291C30.4266 45.2307 30.3473 45.1413 30.2582 45.1234C30.1194 45.0966 30.0798 45.1502 30.0798 45.3291Z" fill="black"/>
<path d="M31.5664 45.5528C31.5664 45.6512 31.616 45.7317 31.6655 45.7317C31.725 45.7317 31.7646 45.6512 31.7646 45.5528C31.7646 45.4544 31.725 45.3739 31.6655 45.3739C31.616 45.3739 31.5664 45.4544 31.5664 45.5528Z" fill="black"/>
<path d="M37.285 45.4991C37.2256 45.6422 37.3048 45.7495 37.4238 45.678C37.5427 45.6154 37.5328 45.3739 37.4238 45.3739C37.3742 45.3739 37.3148 45.4275 37.285 45.4991Z" fill="black"/>
<path d="M58.7918 45.1592C58.6332 45.3023 58.7323 45.4723 58.9504 45.4454C59.0693 45.4275 59.1684 45.356 59.1684 45.2844C59.1684 45.1413 58.9107 45.0608 58.7918 45.1592Z" fill="black"/>
<path d="M60.2784 45.3381C60.1793 45.4365 60.1992 45.7317 60.2983 45.7317C60.3577 45.7317 60.4271 45.6959 60.4568 45.6422C60.5361 45.5349 60.3676 45.2576 60.2784 45.3381Z" fill="black"/>
</g>
<defs>
<clipPath id="clip0_1_2">
<rect width="64" height="32" fill="white" transform="translate(0 14)"/>
</clipPath>
</defs>
</svg>
