<svg width="64" height="64" viewBox="0 0 64 64" fill="none" xmlns="http://www.w3.org/2000/svg">
<rect width="64" height="64" fill="#2C2E35"/>
<g clip-path="url(#clip0_1_2)">
<mask id="mask0_1_2" style="mask-type:luminance" maskUnits="userSpaceOnUse" x="5" y="14" width="54" height="37">
<path d="M58.2996 14.3565H5.691V50.604H58.2996V14.3565Z" fill="white"/>
</mask>
<g mask="url(#mask0_1_2)">
<path d="M30.1365 27.8847V25.7002H29.6329V25.9932H29.8026V27.8847H30.1365ZM30.5342 27.155V27.4477C30.5342 27.517 30.5555 27.6237 30.635 27.7142C30.72 27.8102 30.8524 27.8847 31.0433 27.8847C31.2343 27.8847 31.3669 27.8155 31.4516 27.7142C31.526 27.6237 31.5524 27.517 31.5524 27.4477V26.137C31.5524 26.0677 31.5312 25.9612 31.4516 25.8707C31.3669 25.7747 31.2343 25.7002 31.0433 25.7002C30.8524 25.7002 30.72 25.7695 30.635 25.8707C30.5731 25.9457 30.5377 26.0394 30.5342 26.137V26.281C30.5342 26.4515 30.5819 26.6007 30.7094 26.7125C30.8366 26.8245 31.0115 26.8617 31.2078 26.8617V27.4425C31.2078 27.4425 31.1972 27.5065 31.1705 27.5385C31.1493 27.5597 31.1177 27.5862 31.0381 27.5862C30.9586 27.5862 30.9267 27.5597 30.9055 27.5385C30.8828 27.5117 30.8697 27.4778 30.8684 27.4425V27.1495H30.5342V27.155ZM30.948 26.5047C30.9055 26.4672 30.8684 26.4035 30.8684 26.281V26.137C30.8684 26.137 30.8791 26.0732 30.9055 26.0412C30.9267 26.02 30.9586 25.9932 31.0381 25.9932C31.1177 25.9932 31.1493 26.02 31.1705 26.0412C31.1933 26.068 31.2065 26.1017 31.2078 26.137V26.574C31.0646 26.574 30.9902 26.542 30.948 26.51V26.5047ZM31.9395 27.155V27.4477C31.9395 27.517 31.9607 27.6237 32.0403 27.7142C32.1198 27.8102 32.2576 27.8847 32.4434 27.8847C32.6289 27.8847 32.7667 27.8155 32.8517 27.7142C32.9258 27.6237 32.9522 27.517 32.9522 27.4477V26.137C32.9515 26.0389 32.9158 25.9444 32.8517 25.8707C32.7667 25.7747 32.6341 25.7002 32.4434 25.7002C32.2524 25.7002 32.1198 25.7695 32.0403 25.8707C31.9783 25.9457 31.9428 26.0394 31.9395 26.137V26.281C31.9395 26.4515 31.9872 26.6007 32.1146 26.7125C32.2418 26.8245 32.4167 26.8617 32.6128 26.8617V27.4425C32.6128 27.4425 32.6025 27.5065 32.5758 27.5385C32.5545 27.5597 32.5229 27.5862 32.4434 27.5862C32.3636 27.5862 32.332 27.5597 32.3107 27.5385C32.2879 27.5117 32.2749 27.4778 32.2737 27.4425V27.1495H31.9343L31.9395 27.155ZM32.3532 26.5047C32.3107 26.4672 32.2737 26.4035 32.2737 26.281V26.137C32.2737 26.137 32.2841 26.0732 32.3107 26.0412C32.332 26.02 32.3636 25.9932 32.4434 25.9932C32.5229 25.9932 32.5545 26.02 32.5758 26.0412C32.5985 26.068 32.6116 26.1017 32.6128 26.137V26.574C32.4698 26.574 32.3955 26.542 32.3532 26.51V26.5047ZM33.3499 27.155V27.4477C33.3499 27.517 33.3712 27.6237 33.4507 27.7142C33.5302 27.8102 33.6683 27.8847 33.859 27.8847C34.05 27.8847 34.1826 27.8155 34.2673 27.7142C34.3417 27.6237 34.3681 27.517 34.3681 27.4477V26.137C34.3681 26.0677 34.3417 25.9612 34.2673 25.8707C34.1826 25.7747 34.05 25.7002 33.859 25.7002C33.6683 25.7002 33.5357 25.7695 33.4507 25.8707C33.3888 25.9457 33.3534 26.0394 33.3499 26.137V26.281C33.3499 26.4515 33.3978 26.6007 33.525 26.7125C33.6523 26.8245 33.8274 26.8617 34.0235 26.8617V27.4425C34.0235 27.4425 34.0129 27.5065 33.9865 27.5385C33.9652 27.5597 33.9334 27.5862 33.8538 27.5862C33.7743 27.5862 33.7424 27.5597 33.7212 27.5385C33.6985 27.5117 33.6854 27.4778 33.6841 27.4425V27.1495H33.3447L33.3499 27.155ZM33.7637 26.5047C33.7212 26.4672 33.6841 26.4035 33.6841 26.281V26.137C33.6841 26.137 33.6947 26.0732 33.7212 26.0412C33.7424 26.02 33.7743 25.9932 33.8538 25.9932C33.9334 25.9932 33.9652 26.02 33.9865 26.0412C34.0129 26.0732 34.0235 26.1105 34.0235 26.137V26.574C33.8803 26.574 33.8062 26.542 33.7637 26.51V26.5047ZM33.3554 37.9495H34.0075C34.1826 37.9495 34.3311 37.9387 34.4531 37.912C34.5751 37.8855 34.6756 37.8375 34.7606 37.763C34.9091 37.6297 35.0363 37.3475 35.1477 36.9212H34.8508C34.8295 36.9957 34.8031 37.0542 34.7764 37.0917C34.7287 37.161 34.628 37.1982 34.4689 37.1982H33.1432C32.8887 37.1982 32.703 37.2302 32.5864 37.2995C32.4698 37.3687 32.4115 37.4752 32.4115 37.6245C32.4115 37.7737 32.5017 37.9335 32.6872 38.104C32.7667 38.1785 32.8569 38.2532 32.9522 38.333C33.0478 38.413 33.1432 38.493 33.2333 38.5835H33.1167C32.6128 38.5835 32.1887 38.738 31.8548 39.0365C31.8229 39.0525 31.791 39.0685 31.754 39.0845C31.3985 39.239 31.0698 39.3135 30.7728 39.3135C30.6979 39.2428 30.612 39.1852 30.5184 39.143L30.7039 38.85C30.948 38.445 31.0698 38.0987 31.0698 37.8055C31.0698 37.5125 31.0008 37.3047 30.8684 37.1875C30.7358 37.0702 30.5609 37.0117 30.3487 37.0117C29.9617 37.0117 29.5956 37.2302 29.251 37.6725C28.9541 38.0507 28.71 38.509 28.5087 39.0577C28.4875 39.1162 28.4714 39.175 28.4502 39.2335C28.3124 39.2707 28.1903 39.2975 28.1004 39.2975C28.0473 39.2975 28.0103 39.2975 27.989 39.2922C27.989 38.6847 27.7025 38.381 27.1245 38.381C26.7004 38.381 26.3345 38.5035 26.0322 38.7592C25.7778 38.9672 25.5814 39.2442 25.449 39.58C25.3934 39.7218 25.3491 39.8678 25.3164 40.0167C25.2896 40.1537 25.2754 40.2929 25.2739 40.4325C25.2739 40.5655 25.3005 40.6935 25.3534 40.8055C25.5019 41.125 25.8361 41.285 26.3558 41.285C26.7747 41.285 27.1351 41.1305 27.4374 40.8212C27.7398 40.5122 27.9147 40.0967 27.9678 39.5852C28.1033 39.5653 28.2377 39.5386 28.3707 39.5052C28.2859 39.809 28.2383 40.07 28.2383 40.278C28.2383 40.5815 28.3336 40.8267 28.5191 41.0132C28.7049 41.1997 28.986 41.2902 29.357 41.2902C29.8448 41.2902 30.2373 41.141 30.5397 40.8532C30.6746 40.7233 30.7828 40.5676 30.8578 40.395C30.9319 40.2245 30.9692 40.0595 30.9692 39.905C30.9692 39.7505 30.9586 39.6437 30.9319 39.58C31.1386 39.5519 31.3415 39.5001 31.5366 39.4255C31.365 39.6975 31.2748 40.0138 31.2767 40.3365C31.2767 40.6722 31.3721 40.9012 31.5576 41.0557C31.7434 41.2102 32.0351 41.2902 32.4273 41.2902C32.6395 41.2902 32.8463 41.2317 33.0478 41.1145C33.2438 41.0012 33.4166 40.8511 33.5569 40.6722C33.8432 40.3045 33.9865 39.8995 33.9865 39.452C33.9865 39.0045 33.7849 38.5835 33.3818 38.1892C33.3077 38.1147 33.2704 38.072 33.2704 38.0507C33.2704 38.0027 33.2971 37.9815 33.3554 37.9815M27.2253 39.3615C27.2253 39.5052 27.2838 39.5852 27.4056 39.6117C27.3527 39.9422 27.2519 40.2245 27.098 40.4485C26.9496 40.6775 26.7957 40.7895 26.6421 40.7895C26.5677 40.7895 26.5094 40.784 26.4617 40.768C26.4193 40.7575 26.377 40.7255 26.3345 40.6775C26.292 40.6295 26.2762 40.5122 26.2762 40.3312C26.2762 40.0327 26.3716 39.697 26.5571 39.3135C26.748 38.9297 26.9444 38.738 27.1512 38.738C27.2571 38.738 27.326 38.7647 27.3633 38.8127C27.4004 38.8605 27.4216 38.9457 27.4323 39.0685C27.2942 39.1217 27.2201 39.2175 27.2201 39.3615H27.2253ZM30.1578 40.5442C30.0306 40.7095 29.8609 40.7895 29.6541 40.7895C29.3782 40.7895 29.2404 40.6242 29.2404 40.2992C29.2404 40.134 29.2722 39.905 29.3412 39.6012C29.5215 38.818 29.7337 38.2265 29.9829 37.827C30.1365 37.587 30.2798 37.47 30.4176 37.47C30.4917 37.47 30.5503 37.4912 30.5819 37.5392C30.6192 37.5872 30.635 37.6617 30.635 37.7737C30.635 37.8855 30.6244 37.9975 30.598 38.12C30.5184 38.4662 30.37 38.7967 30.1684 39.111C30.02 39.1217 29.9034 39.1537 29.8184 39.2015C29.7337 39.255 29.6964 39.3455 29.6964 39.468C29.6964 39.5425 29.7282 39.6012 29.792 39.6492C29.8554 39.6972 29.935 39.7237 30.0358 39.7237C30.1365 39.7237 30.2215 39.713 30.2904 39.6917C30.3327 39.7557 30.3487 39.8782 30.3487 40.0487C30.3487 40.2192 30.285 40.3845 30.1578 40.5497V40.5442ZM33.3554 39.015C33.3978 39.063 33.4191 39.159 33.4191 39.2922C33.4191 39.4255 33.3924 39.6172 33.3395 39.8517C33.2935 40.0686 33.2109 40.2759 33.0955 40.4645C33.0387 40.553 32.9669 40.6305 32.8833 40.6935C32.8038 40.752 32.7084 40.784 32.5918 40.784C32.475 40.784 32.3955 40.7575 32.3372 40.6987C32.2841 40.6402 32.2524 40.539 32.2524 40.3897C32.2524 40.2405 32.2841 40.054 32.3532 39.825C32.4221 39.596 32.5123 39.404 32.6341 39.239C32.703 39.1482 32.7773 39.079 32.8675 39.0205C32.9487 38.9644 33.0449 38.9347 33.1432 38.9352C33.2388 38.9352 33.3077 38.9617 33.3499 39.0097L33.3554 39.015ZM41.8345 38.4132H40.864L40.408 40.23C40.2119 40.4165 40.021 40.5605 39.8458 40.6562C39.671 40.7522 39.4536 40.8002 39.1937 40.8002C38.8862 40.8002 38.7271 40.6617 38.7271 40.39C38.7271 40.2407 38.7377 40.1075 38.7587 39.985C38.8331 39.5747 38.9764 39.2285 39.1831 38.9512C39.3261 38.7542 39.4642 38.6582 39.5914 38.6582C39.7186 38.6582 39.7824 38.7382 39.7824 38.8927C39.7824 38.994 39.7557 39.1057 39.7028 39.2285C39.7824 39.271 39.8671 39.2922 39.9572 39.2922C40.0474 39.2922 40.1217 39.2602 40.1959 39.191C40.2648 39.1217 40.3021 39.0205 40.3021 38.8767C40.3021 38.5358 40.0316 38.3652 39.4906 38.3652C39.3019 38.366 39.1149 38.4021 38.9391 38.4717C38.5945 38.605 38.324 38.8235 38.1279 39.1272C37.868 39.532 37.7354 39.9477 37.7354 40.3845V40.4272C37.6188 40.651 37.4649 40.7682 37.2742 40.7682C37.0833 40.7682 36.9983 40.6882 36.9983 40.5232C36.9983 40.4645 37.0089 40.406 37.0301 40.342L37.5128 38.4185H36.5423L36.468 38.7222V38.6797C36.468 38.5942 36.4257 38.5305 36.3407 38.4717C36.256 38.4185 36.1182 38.3917 35.9218 38.3917C35.5508 38.3917 35.2378 38.4985 34.978 38.7117C34.7158 38.927 34.5085 39.2028 34.3735 39.516C34.3115 39.6583 34.2636 39.8064 34.2303 39.9582C34.1987 40.1054 34.1827 40.2555 34.1826 40.406C34.1826 40.555 34.209 40.6882 34.2567 40.8002C34.3948 41.1252 34.665 41.285 35.0575 41.285C35.45 41.285 35.7946 41.1145 36.0863 40.763C36.1288 41.1092 36.3514 41.285 36.7491 41.285C37.1786 41.285 37.5286 41.1145 37.7937 40.7735C37.8416 40.9015 37.9157 41.0027 38.0165 41.0772C38.2074 41.2157 38.4618 41.285 38.7854 41.285C39.3847 41.285 39.9096 41.0452 40.3604 40.571V40.6085C40.3604 40.8482 40.4293 41.0187 40.5671 41.1252C40.7104 41.2317 40.8801 41.285 41.0814 41.285C41.4897 41.285 41.8239 41.104 42.089 40.747C42.1102 40.9175 42.1791 41.0507 42.2957 41.1412C42.4125 41.2317 42.561 41.2797 42.7465 41.2797C42.932 41.2797 43.1017 41.2317 43.2504 41.1412C43.3989 41.0507 43.4836 40.9015 43.4996 40.6937C43.3989 40.7202 43.3245 40.731 43.2768 40.731C43.0913 40.731 43.0012 40.667 43.0012 40.5392C43.0012 40.4697 43.0115 40.406 43.0328 40.342L43.5154 38.4185H42.5449L42.089 40.2355C41.9669 40.571 41.7866 40.7362 41.548 40.7362C41.4156 40.7362 41.3467 40.651 41.3467 40.4857C41.3467 40.438 41.3519 40.39 41.3679 40.342L41.8503 38.4185L41.8345 38.4132ZM36.0757 40.23C36.0332 40.3845 35.9591 40.5072 35.8477 40.5977C35.7449 40.6843 35.6153 40.7315 35.4816 40.731C35.4075 40.731 35.3492 40.7097 35.3016 40.6722C35.2166 40.6085 35.1741 40.4912 35.1741 40.3207C35.1741 40.2355 35.1795 40.1502 35.1902 40.0755C35.2643 39.5695 35.4394 39.1805 35.7257 38.9087C35.8423 38.7967 35.9643 38.7382 36.0915 38.7382C36.2187 38.7382 36.2983 38.7647 36.3356 38.8182C36.3726 38.8715 36.3938 38.9192 36.3938 38.9512L36.0703 40.23H36.0757Z" fill="white"/>
<path d="M39.0929 41.9402C38.2921 42.1055 35.0044 43.0007 33.8803 43.2405C32.2258 43.6772 25.1573 45.1745 24.6642 42.1587C24.6218 41.9085 24.5951 41.5832 24.6642 41.333C24.7332 41.024 24.8549 40.7575 24.9399 40.2407C25.0246 39.7292 25.0301 39.5692 25.0301 39.335C25.0301 39.1802 25.014 39.0472 24.977 38.9405C24.8707 38.573 24.6534 38.4025 24.0704 38.4025H23.9005C23.8422 38.4025 23.7733 38.4025 23.7044 38.413C24.1551 37.4327 24.6005 36.7295 25.1518 36.4097C25.2474 36.6387 25.4223 36.7295 25.6716 36.7295C25.8254 36.7295 25.9527 36.7027 26.0692 36.607C26.1806 36.511 26.2389 36.3405 26.2389 36.0952C26.2389 35.9462 26.2179 35.8662 26.0586 35.7382C25.9687 35.6637 25.8254 35.6317 25.6293 35.6317C25.4329 35.6317 25.2104 35.701 24.9557 35.8342C24.7065 35.9727 24.4096 36.2712 24.0756 36.7347C23.7512 37.1841 23.4905 37.6772 23.3012 38.1997L23.8634 35.6422C23.747 35.6317 23.6303 35.6264 23.5134 35.6265C23.1422 35.6265 22.7763 35.6905 22.4157 35.813C21.6628 36.074 21.0954 36.479 20.7242 37.0172C20.5386 37.2835 20.4485 37.5552 20.4485 37.843C20.4485 37.9975 20.4697 38.1305 20.5068 38.2372C20.6179 38.5302 20.9097 38.6742 21.3817 38.6742C21.3808 38.6537 21.3754 38.6336 21.3659 38.6155C21.2967 38.493 21.2597 38.3172 21.2597 38.0935C21.2597 37.6352 21.3659 37.246 21.5833 36.932C21.8006 36.6175 22.0975 36.3777 22.4849 36.218L21.3869 41.2582H22.6491L23.1792 38.8127C23.2906 38.7915 23.3862 38.7807 23.4657 38.7807C23.8158 38.7807 23.9906 38.9725 23.9906 39.3615C23.9906 39.6012 23.9111 39.985 23.7572 40.507C23.6619 40.8375 23.6139 41.0452 23.5929 41.2157C23.5611 41.3915 23.5505 41.674 23.5505 41.674C23.5505 44.663 27.5859 45.4995 32.1993 44.1942C34.2303 43.6187 36.7651 42.9632 37.9263 42.5905C41.283 41.514 42.7571 41.8177 43.5579 42.7395C43.5579 42.7395 43.6903 40.9865 39.0981 41.9402M23.9696 22.4287C23.9165 22.6737 23.8634 22.9187 23.8158 23.164C23.98 23.1427 24.1497 23.116 24.3142 23.0947C24.1974 22.871 24.0862 22.6472 23.9696 22.4287ZM32.9789 21.9065C32.8887 22.141 32.8038 22.3752 32.7136 22.6097C32.8833 22.6097 33.0478 22.6097 33.2175 22.6205C33.138 22.3805 33.0584 22.1462 32.9789 21.9065Z" fill="white"/>
<path d="M17.9932 25.1087C17.8016 25.8656 17.623 26.6258 17.4577 27.389C18.7438 27.0364 20.042 26.7308 21.3498 26.4727C20.7989 26.1978 20.2439 25.9314 19.685 25.6735C27.6977 23.8675 36.0026 23.8457 44.0245 25.6095C44.1199 25.6307 44.2155 25.647 44.3163 25.668C43.7557 25.9225 43.2006 26.189 42.6512 26.4672C43.959 26.7254 45.2572 27.0311 46.5433 27.3837C46.3773 26.6206 46.1988 25.8604 46.0078 25.1032C46.5391 24.5257 47.0801 23.9573 47.6304 23.3982C46.7449 23.1532 45.8487 22.9347 44.9578 22.7322C45.0373 22.3647 45.1223 21.997 45.2018 21.6292C36.4911 19.6694 27.461 19.6731 18.7518 21.64C18.8311 22.0075 18.916 22.3752 18.9956 22.7375C18.1174 22.9353 17.244 23.1538 16.376 23.393C16.9263 23.9521 17.4672 24.5205 17.9986 25.098M42.7836 22.1675C42.9426 22.1995 43.1017 22.226 43.2608 22.258C43.1229 22.972 42.9851 23.6805 42.8525 24.3947C42.6988 24.3627 42.5449 24.336 42.3913 24.3095C42.5237 23.5955 42.6512 22.8815 42.7836 22.1727V22.1675ZM39.5171 21.656C39.6761 21.6772 39.8352 21.6985 39.9997 21.72L39.7611 23.4675C39.9785 23.4995 40.1959 23.5262 40.4132 23.5582C40.4982 22.9775 40.5829 22.3967 40.6679 21.8107C40.827 21.8317 40.986 21.8582 41.1451 21.8852L40.8746 23.6275C41.092 23.6595 41.3094 23.6967 41.527 23.734C41.6224 23.1532 41.7231 22.5725 41.8185 21.9915C41.9776 22.0182 42.1366 22.045 42.2957 22.077C42.1685 22.791 42.0465 23.505 41.9193 24.2187C41.0299 24.0609 40.1371 23.9242 39.2414 23.8087C39.3316 23.0892 39.4217 22.37 39.5171 21.6507V21.656ZM38.5468 21.5387C38.7059 21.5547 38.865 21.5762 39.0292 21.592L38.7748 23.75C38.6209 23.734 38.4673 23.7125 38.3134 23.6967C38.3929 22.9775 38.4725 22.258 38.552 21.5335L38.5468 21.5387ZM36.3195 21.331C36.4786 21.3417 36.6431 21.3575 36.8022 21.3685C36.7809 21.656 36.7545 21.949 36.7332 22.2367C36.9877 22.258 37.2423 22.2792 37.4968 22.306C37.5234 22.0185 37.5499 21.7252 37.5763 21.4375L38.059 21.4855C37.9846 22.2047 37.9105 22.9295 37.8362 23.6487C37.6825 23.6327 37.5286 23.6167 37.3695 23.6007C37.396 23.3077 37.4227 23.0147 37.4543 22.7217C37.1998 22.7002 36.9506 22.6737 36.6962 22.6577C36.6749 22.9507 36.6483 23.2437 36.627 23.5422C36.4734 23.5315 36.3195 23.5155 36.1604 23.5047C36.2135 22.7802 36.2666 22.061 36.3195 21.3362V21.331ZM34.1614 21.2137C34.3204 21.219 34.4849 21.2245 34.644 21.235L34.6122 21.9225C34.6015 22.1942 34.6917 22.3275 34.9091 22.338C35.0733 22.3487 35.222 22.306 35.3119 22.242C35.328 21.917 35.3492 21.592 35.365 21.2722L35.8477 21.3042C35.8 22.029 35.7521 22.7535 35.7099 23.473C35.5544 23.4614 35.3988 23.4525 35.243 23.4462C35.2591 23.1797 35.2749 22.9135 35.2855 22.6417C35.1583 22.695 34.9622 22.7642 34.7712 22.7535C34.3893 22.7375 34.1137 22.5297 34.1295 22.029L34.1614 21.219V21.214V21.2137ZM32.7667 21.1657C32.9206 21.1657 33.0743 21.1657 33.2281 21.1712C33.4929 21.9046 33.7475 22.6416 33.9917 23.3822L33.509 23.3662C33.4569 23.2079 33.4039 23.0499 33.3499 22.8922C33.0903 22.8867 32.8305 22.8815 32.5652 22.8815C32.5069 23.036 32.4486 23.1957 32.3903 23.3502H31.9237C32.1937 22.6185 32.473 21.8903 32.7615 21.1657H32.7667ZM30.0834 21.2032C30.2638 21.4907 30.4441 21.7785 30.6192 22.0715C30.7822 21.7731 30.9483 21.4765 31.1177 21.1817H31.632C31.632 21.9065 31.6426 22.631 31.6426 23.3557H31.1812C31.176 22.8922 31.1653 22.4285 31.1599 21.965C30.981 22.2646 30.806 22.5665 30.635 22.8707H30.6244C30.4389 22.5783 30.2516 22.287 30.0624 21.997C30.0782 22.4552 30.0941 22.9135 30.1047 23.377C29.951 23.377 29.8026 23.3877 29.6541 23.393C29.6223 22.6682 29.5956 21.9437 29.564 21.219C29.7337 21.214 29.9034 21.203 30.0728 21.1977L30.0834 21.2032ZM28.4769 21.2457C28.8215 21.2245 29.0336 21.315 29.214 21.4535C29.145 21.576 29.0761 21.704 29.007 21.8265C28.8533 21.7145 28.6994 21.6507 28.5087 21.6615C28.18 21.6827 27.9572 21.9542 27.989 22.3752V22.4072C28.0206 22.8387 28.2647 23.0732 28.5935 23.0572C28.7896 23.0467 28.9222 22.9615 29.0707 22.8335C29.1502 22.94 29.2298 23.0412 29.3093 23.148C29.1238 23.3397 28.9222 23.457 28.5828 23.4782C28.0155 23.5102 27.5488 23.1107 27.4957 22.45V22.4232C27.4429 21.7625 27.8564 21.2832 28.4769 21.2457ZM25.8573 20.8675C25.8995 20.9847 25.9897 21.054 26.1172 21.0432C26.2389 21.0325 26.3133 20.9472 26.3397 20.8247C26.4299 20.83 26.5255 20.8407 26.6156 20.846C26.5996 21.1392 26.4193 21.3042 26.1436 21.3362C25.8625 21.363 25.6506 21.235 25.5814 20.9527C25.6716 20.926 25.7617 20.8995 25.8519 20.878L25.8573 20.8675ZM25.7405 21.5067C25.7884 21.9542 25.8361 22.3967 25.8837 22.8442C26.1128 22.3679 26.3462 21.8938 26.5838 21.4217C26.7322 21.4055 26.8859 21.395 27.0346 21.3842C27.0929 22.109 27.1563 22.8282 27.2146 23.5527C27.0624 23.564 26.9104 23.5782 26.7587 23.5952L26.6314 22.2367C26.3952 22.7132 26.1654 23.1928 25.942 23.6755L25.5125 23.7232C25.4329 23.004 25.3482 22.2847 25.2687 21.5655C25.4278 21.5495 25.5868 21.528 25.7459 21.5122L25.7405 21.5067ZM23.6779 21.7517L24.1391 21.688C24.5105 22.3732 24.8746 23.0624 25.2314 23.7555C25.0723 23.7765 24.9135 23.7925 24.7542 23.814C24.68 23.6647 24.6005 23.5155 24.5262 23.3665C24.2663 23.3982 24.0067 23.4355 23.7468 23.473C23.7147 23.638 23.6777 23.8032 23.6461 23.963C23.4922 23.9845 23.3331 24.011 23.1792 24.0325C23.3327 23.2677 23.4989 22.5056 23.6777 21.7465V21.752L23.6779 21.7517ZM21.3128 22.1517C21.3659 22.4392 21.419 22.7217 21.4667 23.0092C21.7157 22.9615 21.9703 22.9187 22.2196 22.8762L22.0763 22.013L22.5535 21.933C22.6704 22.647 22.7815 23.3662 22.8984 24.0805C22.745 24.1079 22.5911 24.1328 22.4369 24.155C22.3893 23.862 22.3362 23.5742 22.2885 23.281C22.0392 23.3235 21.79 23.3662 21.5408 23.4142C21.5939 23.702 21.647 23.995 21.6998 24.2827C21.546 24.3095 21.3923 24.3415 21.2384 24.368C21.1006 23.654 20.968 22.9455 20.8301 22.2315C20.9892 22.1995 21.1483 22.1727 21.3076 22.1407L21.3125 22.1515L21.3128 22.1517ZM10.9034 28.3587C10.2143 28.3055 9.8166 28.5932 9.62022 28.833C9.32875 29.1847 9.30726 29.6002 9.30726 29.7175V33.9055C9.30726 34.06 9.33912 34.449 9.62022 34.7897C9.80054 35.0082 10.1451 35.2695 10.7441 35.2695C10.7975 35.2695 10.8503 35.2695 10.9034 35.264C11.4338 35.2215 11.8898 34.9977 12.1761 34.6352C12.4572 34.2785 12.489 33.9107 12.489 33.7667V32.3762L11.3169 32.3922V33.8095C11.3169 33.8735 11.2905 33.98 11.227 34.06C11.1791 34.1185 11.0996 34.1877 10.8876 34.1985C10.6806 34.209 10.6011 34.1505 10.5589 34.0972C10.506 34.0266 10.4763 33.9409 10.4739 33.8522V29.76C10.4739 29.6907 10.5003 29.5895 10.5589 29.515C10.6011 29.4617 10.6806 29.403 10.8874 29.4137C11.0998 29.4245 11.1791 29.4937 11.227 29.5522C11.2853 29.6322 11.3169 29.7387 11.3169 29.8027V30.3247L12.489 30.3622V29.84C12.489 29.7015 12.4572 29.3337 12.1761 28.9715C11.8846 28.604 11.4338 28.38 10.9034 28.3427M13.5971 28.5455H13.5072V35.083H13.5971C14.0002 35.0512 14.2018 35.0405 14.6049 35.0137H14.6842V29.6112C15.0078 29.627 15.2039 29.6322 15.5275 29.6482V34.14H15.6122C16.0154 34.1187 16.2167 34.1132 16.62 34.092H16.6993V29.691C17.0229 29.7015 17.2191 29.7122 17.5424 29.723V34.8432H17.6274C18.0305 34.8167 18.2318 34.8112 18.6349 34.79H18.7145V28.8332H18.6349C16.6198 28.732 15.6283 28.6787 13.5971 28.5455ZM28.1693 29.1262V34.5075H28.2541C28.6572 34.502 28.8585 34.4967 29.2616 34.4967H29.3412V30H30.1842V34.4862H31.3563V29.1527H31.2767C30.0518 29.1527 29.4578 29.1422 28.2489 29.1262H28.1639H28.1693ZM32.3903 29.1632V34.4915H33.5621V32.179C33.8963 31.95 34.0976 31.8167 34.4054 31.6037V34.4967H34.4849C34.8878 34.4967 35.0894 34.5022 35.4923 34.5075H35.5772V29.1312H35.4923C35.0894 29.1367 34.8878 29.142 34.4849 29.142H34.4054V30.4207C34.0712 30.6552 33.8751 30.7882 33.5621 31.0015V29.1475H32.3903V29.1632ZM37.6929 29.094C37.29 29.1047 37.0884 29.1047 36.6856 29.1155H36.606V34.5235H36.6856C37.0884 34.5342 37.29 34.5342 37.6929 34.5447H37.7779V31.7262H38.6209V34.5607H38.7004L39.708 34.5875H39.793V29.0462H39.708C39.3051 29.062 39.1036 29.0675 38.7004 29.0727H38.6209V30.847H37.7779V29.094H37.6929ZM42.4125 28.9557C41.8822 28.977 41.4314 29.1527 41.1397 29.4457C40.8482 29.7442 40.8215 30.0585 40.8215 30.1757V33.442C40.8215 33.5645 40.8534 33.8735 41.1397 34.172C41.4262 34.4702 41.8822 34.6462 42.4125 34.662H42.5079C43.139 34.662 43.4996 34.433 43.6851 34.2465C43.9769 33.9535 44.0033 33.634 44.0033 33.506V32.291L42.8315 32.2805V33.4792C42.828 33.5502 42.7976 33.617 42.7465 33.6657C42.7095 33.7032 42.6351 33.7562 42.439 33.7562H42.4071C42.1897 33.7512 42.1102 33.6925 42.0677 33.6497C42.0042 33.5805 41.983 33.4952 41.983 33.458V30.1492C41.983 30.1067 42.0042 30.0212 42.0677 29.9572C42.1102 29.9147 42.1897 29.8562 42.4071 29.8507H42.439C42.6299 29.8507 42.704 29.904 42.7465 29.9415C42.8048 30 42.8315 30.0852 42.8315 30.1277V30.586H42.9162C43.3193 30.5755 43.5206 30.5755 43.9238 30.5647H44.0033V30.1065C44.0033 29.9787 43.9714 29.6537 43.6851 29.366C43.4836 29.1635 43.0913 28.929 42.4071 28.9502M21.3392 34.7635C21.8695 34.7422 22.3203 34.5717 22.6121 34.2732C22.9035 33.9747 22.9302 33.6605 22.9302 33.5432V30.1757C22.9302 30.0532 22.8981 29.739 22.6121 29.4407C22.3255 29.1422 21.8695 28.9662 21.3392 28.945H21.2384C20.6076 28.945 20.2521 29.1742 20.0614 29.3607C19.7697 29.6537 19.7378 29.9787 19.743 30.1065V33.6075C19.743 33.7352 19.7751 34.0602 20.0614 34.348C20.2521 34.54 20.6073 34.7637 21.2384 34.7637H21.334M20.9097 33.5807V30.2292C20.9097 30.1867 20.9309 30.1012 20.9946 30.0427C21.0317 30.0052 21.1058 29.952 21.3022 29.952H21.334C21.5514 29.9575 21.6309 30.016 21.6734 30.0587C21.7369 30.1225 21.7581 30.2077 21.7581 30.2452V33.5487C21.7581 33.586 21.7423 33.6712 21.6734 33.7405C21.6309 33.783 21.5514 33.8417 21.334 33.847H21.3022C21.106 33.847 21.0317 33.7937 20.9946 33.7565C20.9363 33.6977 20.9097 33.6125 20.9097 33.57V33.5807ZM46.2039 31.5877V28.7905H46.1192C45.7161 28.8172 45.5145 28.8225 45.1116 28.8437H45.0321V34.7795H45.1116C46.3205 34.838 46.9146 34.87 48.1341 34.9392H48.2191V34.4492C48.2191 33.9162 48.1289 33.1437 47.6993 32.5255C47.3548 32.0247 46.8402 31.6995 46.2039 31.5877ZM46.2039 33.8895V32.595C46.3949 32.6802 46.5539 32.8135 46.6866 33C46.8509 33.2345 46.9623 33.5542 47.0154 33.9272C46.7076 33.9165 46.5169 33.9057 46.2039 33.8952V33.8895ZM51.3954 28.492H51.321V29.009C51.321 29.6375 51.1886 30.181 50.95 30.5487C50.8067 30.762 50.6319 30.9162 50.4197 31.007V28.5612H50.3347C49.9318 28.5932 49.7303 28.6037 49.3271 28.6305H49.253V35.019H49.3271C49.7303 35.051 49.9318 35.0615 50.3347 35.0882H50.4197V32.275C50.6212 32.3975 50.7855 32.5842 50.934 32.8557C51.1832 33.3195 51.3265 33.9695 51.3265 34.6462V35.1577H51.4006C51.8037 35.1895 52.0053 35.2055 52.4081 35.2322H52.4983V34.7047C52.4983 33.8575 52.3128 33.0262 51.9946 32.4242C51.8301 32.1205 51.634 31.8647 51.3954 31.657C51.6198 31.4899 51.8136 31.2843 51.968 31.0495C52.4081 30.373 52.4983 29.5365 52.4983 28.9502V28.4175H52.4081C52.0053 28.455 51.8037 28.4655 51.4006 28.4975M54.5981 28.2525L53.5906 28.3325H53.5165V35.3122H53.5906C53.9937 35.3497 54.1953 35.3655 54.5981 35.3975H54.6883V28.247H54.5981V28.2525ZM26.4988 29.11C25.6345 29.0942 25.0513 29.0782 24.0386 29.0515H23.9536V34.609H24.0383C24.1921 34.6039 24.3459 34.5985 24.4997 34.5927L27.0291 34.5395H27.1457V34.108C27.1457 33.474 26.939 32.808 26.5783 32.291C26.4211 32.0649 26.2296 31.8654 26.0109 31.6997C26.2156 31.5747 26.3984 31.4162 26.5519 31.2307C26.9338 30.7832 27.1457 30.1865 27.1457 29.5577V29.126H27.0346V29.1155H26.4988V29.11ZM25.1308 29.9575C25.4384 29.9625 25.6293 29.968 25.9314 29.9732C25.8679 30.277 25.7405 30.5432 25.5604 30.7565C25.4423 30.898 25.2958 31.0124 25.1306 31.0922V29.9572L25.1308 29.9575ZM25.1308 33.719V32.275C25.2791 32.3762 25.4117 32.515 25.5392 32.6907C25.6503 32.8505 25.8519 33.1757 25.9102 33.4472C25.9314 33.5377 25.942 33.6285 25.942 33.6977L25.136 33.7137L25.1308 33.719Z" fill="white"/>
</g>
</g>
<defs>
<clipPath id="clip0_1_2">
<rect width="62" height="36" fill="white" transform="translate(1 14)"/>
</clipPath>
</defs>
</svg>
