<svg width="64" height="64" viewBox="0 0 64 64" fill="none" xmlns="http://www.w3.org/2000/svg">
<rect width="64" height="64" fill="#20BEC6"/>
<g clip-path="url(#clip0_1_2)">
<path d="M31.5533 11.4003C20.436 11.4003 11.3844 20.6928 11.3844 32.1995C11.3844 43.7062 20.436 53 31.5533 53C42.6705 53 51.7222 43.7062 51.7222 32.1995C51.7833 20.6941 42.7304 11.4003 31.5533 11.4003ZM38.7836 31.4422L27.9095 37.6372C26.9982 38.1425 26.2689 37.5742 26.2689 36.3719L26.148 24.9926C26.148 23.7916 26.8773 23.159 27.7885 23.6643L38.7225 29.6073C39.6338 30.1139 39.6949 30.9369 38.7836 31.4422Z" fill="#15394C"/>
<path opacity="0.5" d="M33.3758 11.021C22.1376 11.021 13.0249 20.4408 13.0249 32.0105C13.0249 43.5802 22.1364 53 33.3745 53C44.6127 53 52.8753 43.5802 52.8753 32.0105C52.9376 20.4408 44.6153 11.021 33.3758 11.021ZM40.666 31.2519L29.7307 37.4469C28.8195 37.9535 28.0902 37.3839 28.0304 36.1829L27.9082 24.7393C27.9082 23.5383 28.6375 22.9057 29.5487 23.4123L40.6049 29.4183C41.5162 29.9236 41.5773 30.7453 40.666 31.2519Z" fill="#15394C"/>
<path d="M51.4789 27.1425C50.7509 23.6013 46.9225 16.7107 44.4928 15.6358C42.1841 14.6252 40.9699 12.9176 40.0587 12.7273C39.2072 12.5383 35.1981 10.7677 33.8007 11.084C32.4032 11.399 30.3987 10.8937 29.2443 11.021C28.0899 11.21 21.9541 12.6013 18.4923 15.8891C15.2112 18.9866 14.2389 20.6928 14.2389 20.6928C14.2389 20.6928 8.10431 33.3388 12.7205 34.8547C13.9359 35.2353 13.7527 35.9927 13.815 37.3222C13.815 39.2805 13.2678 39.5338 14.6639 40.6717C16.0614 41.8097 17.5199 39.6611 18.7354 40.925C19.8885 42.189 17.581 44.9702 20.8609 46.868C24.1419 48.7003 23.6558 43.8965 25.9645 44.7182C28.333 45.5398 26.2674 48.9536 28.9414 49.1439C31.6141 49.3959 30.6418 45.6658 32.2212 45.9191C33.8007 46.1724 32.8894 48.8276 36.1705 48.195C39.4503 47.5637 37.2638 44.6552 39.0252 44.0869C40.8478 43.5172 41.4561 47.1844 44.979 43.6432C48.5019 40.1021 45.161 40.1651 45.9514 38.7752C46.6794 37.3839 47.4698 39.7858 48.5019 36.5623C49.5965 33.3388 48.6241 34.5397 48.5019 33.0225C48.381 31.5682 52.2069 30.6823 51.4789 27.1425Z" fill="white"/>
<path d="M45.1613 37.8262H42.6705C42.6141 37.8269 42.5581 37.8159 42.5059 37.7938C42.4536 37.7717 42.4063 37.7389 42.3666 37.6975C42.3269 37.6561 42.2957 37.6069 42.2749 37.5528C42.2541 37.4987 42.2441 37.4408 42.2455 37.3826V36.6869C42.2455 36.4349 42.4275 36.2446 42.6705 36.2446H45.1613C45.4044 36.2446 45.5864 36.4349 45.5864 36.6883V37.3839C45.5265 37.5729 45.3445 37.8262 45.1613 37.8262ZM45.7684 30.1126C45.7085 30.1126 45.6475 30.1126 45.5265 30.0496L44.9793 29.669C44.8571 29.6073 44.7973 29.48 44.7973 29.417C44.7973 29.291 44.7973 29.165 44.8571 29.102L46.1336 26.8248C46.2545 26.6358 46.4976 26.5098 46.6809 26.6358L47.2269 27.0151C47.3478 27.0781 47.4089 27.2041 47.4089 27.2684C47.4089 27.3944 47.4089 27.5204 47.3478 27.5834L46.0725 29.8593C46.0725 30.0496 45.8905 30.1126 45.7684 30.1126Z" fill="#D8271C"/>
<path d="M42.2455 25.3719C42.1844 25.3719 42.1233 25.3719 42.0635 25.3089L41.5162 24.9282C41.3342 24.8036 41.2744 24.5502 41.3953 24.2982L42.6705 22.0211C42.7927 21.8321 43.0358 21.7061 43.2178 21.8321L43.7651 22.2114C43.886 22.2744 43.9471 22.4004 43.9471 22.4634C43.9471 22.5907 43.9471 22.7167 43.886 22.7797L42.6095 25.1186C42.4885 25.2459 42.3676 25.3719 42.2455 25.3719Z" fill="#F6BF48"/>
<path d="M38.9045 19.9342C38.8435 19.9342 38.7824 19.9342 38.7225 19.8712C38.6135 19.8208 38.5265 19.7305 38.4782 19.6179L37.628 17.09C37.5682 16.9627 37.5682 16.8367 37.628 16.7737C37.675 16.6605 37.7619 16.57 37.8711 16.5204L38.4782 16.2671C38.7225 16.2041 38.9644 16.2671 39.0255 16.5204L39.8756 19.0496C39.9367 19.3029 39.8756 19.5549 39.6338 19.6179L39.0255 19.8712C39.0255 19.9342 38.9644 19.9342 38.9045 19.9342Z" fill="#D8271C"/>
<path d="M35.4415 20.8831L35.3193 21.0091C35.1984 21.0721 35.1373 21.0721 35.0164 21.0721L32.5256 20.3765C32.4035 20.3765 32.3436 20.2505 32.2825 20.1875C32.2215 20.0615 32.2215 19.9342 32.2215 19.8725L32.4035 19.2399C32.4645 18.9866 32.7076 18.8593 32.8896 18.9236L35.3804 19.6192C35.5025 19.6192 35.5624 19.7452 35.6235 19.8082C35.6845 19.9342 35.6845 20.0615 35.6845 20.1232L35.5025 20.7571C35.5025 20.8201 35.5025 20.8831 35.4415 20.8831Z" fill="#20BEC6"/>
<path d="M29.3655 16.3314C29.1835 16.3314 29.0015 16.2041 28.9416 15.9508L28.8182 15.2564C28.8182 15.1304 28.8182 15.0044 28.8793 14.9414C28.9404 14.8154 29.0613 14.7511 29.1211 14.7511L31.552 14.1828C31.6729 14.1828 31.7951 14.1828 31.8562 14.2458C31.9771 14.3088 32.0382 14.4348 32.0382 14.4991L32.1591 15.1948C32.2202 15.4468 32.0382 15.7001 31.8562 15.7631L29.4253 16.3327L29.3655 16.3314Z" fill="#F6BF48"/>
<path d="M36.5945 41.9356C36.5347 41.9356 36.4736 41.9356 36.4138 41.8726L35.8665 41.4933C35.6845 41.3673 35.6235 41.114 35.7444 40.8607L37.0209 38.5848C37.1418 38.3958 37.3849 38.2698 37.5682 38.3958L38.1142 38.7751C38.2364 38.8381 38.2962 38.9641 38.2962 39.0284C38.2962 39.1544 38.2962 39.2804 38.2364 39.3434L36.9598 41.6193C36.8389 41.8726 36.7167 41.9356 36.5945 41.9356Z" fill="#20BEC6"/>
<path d="M18.4925 25.5609L16.3047 24.4229C16.1227 24.2969 16.0018 24.0436 16.1227 23.8546L16.4269 23.222C16.5478 22.9687 16.7909 22.9057 16.9742 23.0317L19.1607 24.1696C19.3427 24.2969 19.4636 24.5502 19.3427 24.7392L19.0385 25.3719C18.9176 25.5609 18.6758 25.6869 18.4925 25.5609Z" fill="#F6BF48"/>
<path d="M18.7356 36.8142C18.6745 36.7512 18.6135 36.6882 18.6135 36.6252L18.3093 35.9926C18.1884 35.8036 18.3093 35.4873 18.4925 35.36L20.7402 34.0961C20.8611 34.0331 20.982 34.0331 21.0431 34.0331C21.1653 34.0961 21.2264 34.1591 21.2862 34.2221L21.5904 34.8547C21.6515 34.9807 21.6515 35.108 21.5904 35.1697C21.5444 35.2648 21.4829 35.3509 21.4084 35.4243L19.1607 36.6883C19.0385 36.7513 18.9176 36.7513 18.8565 36.7513C18.7955 36.8143 18.7356 36.8142 18.7356 36.8142Z" fill="#20BEC6"/>
<path d="M21.5891 21.1981C21.5293 21.1981 21.4682 21.1981 21.3473 21.1351L20.8 20.7558C20.618 20.6298 20.5582 20.3765 20.6791 20.1245L21.9544 17.8473C22.0765 17.6583 22.3196 17.5323 22.5016 17.6583L23.0489 18.0376C23.1698 18.1006 23.2309 18.2266 23.2309 18.2909C23.2309 18.4169 23.2309 18.5429 23.1698 18.6059L21.8945 20.8831C21.8335 21.0091 21.7724 21.0721 21.6515 21.0721C21.6515 21.1981 21.5904 21.1981 21.5904 21.1981M20.0109 31.5669C19.9768 31.5999 19.936 31.6248 19.8915 31.6397C19.847 31.6546 19.7999 31.6592 19.7535 31.6532C19.707 31.6472 19.6625 31.6307 19.6229 31.6049C19.5834 31.5791 19.5499 31.5446 19.5247 31.5039L17.5813 29.7976C17.499 29.7174 17.4476 29.6092 17.4364 29.4931C17.4252 29.3769 17.4549 29.2604 17.5202 29.165L17.9453 28.6597C18.0279 28.58 18.1363 28.5346 18.2495 28.5324C18.3704 28.5324 18.4913 28.5324 18.5524 28.6597L20.4971 30.3659C20.5569 30.4289 20.618 30.5563 20.6791 30.6823C20.6791 30.8083 20.6791 30.9356 20.618 30.9986L20.1929 31.5039C20.072 31.5682 20.072 31.5669 20.0109 31.5669ZM22.3196 43.0106C22.2259 43.009 22.1349 42.9779 22.0589 42.9213C21.9829 42.8647 21.9255 42.7855 21.8945 42.6943L21.2251 40.1021C21.1653 39.8488 21.2862 39.5954 21.5305 39.5324L22.1364 39.3434C22.2585 39.3434 22.3795 39.3434 22.4418 39.4064C22.5627 39.4694 22.6225 39.5324 22.6225 39.6598L23.2907 42.2519C23.2907 42.3779 23.2907 42.5039 23.2309 42.5669C23.1698 42.6943 23.1087 42.7572 22.9878 42.7572L22.3795 42.9463C22.4405 43.0106 22.3795 43.0106 22.3196 43.0106Z" fill="#D8271C"/>
<path d="M30.5211 44.3375C30.4273 44.3363 30.3361 44.3055 30.2599 44.2491C30.1836 44.1928 30.126 44.1137 30.0947 44.0225L29.4876 41.429C29.4265 41.177 29.5487 40.9237 29.7918 40.8607L30.3989 40.6704C30.5198 40.6704 30.642 40.6704 30.7031 40.7347C30.824 40.7977 30.8851 40.9237 30.8851 40.9867L31.5533 43.5789C31.5533 43.7062 31.5533 43.8322 31.4922 43.8952C31.4324 44.0212 31.3713 44.0855 31.2504 44.0855L30.642 44.2745C30.5809 44.3375 30.5809 44.3375 30.5211 44.3375Z" fill="#F6BF48"/>
<path d="M40.848 29.228L26.8149 21.6417C25.6605 21.0091 24.6895 21.7691 24.6895 23.348L24.8104 37.8905C24.8104 39.4708 25.7815 40.1664 26.9358 39.5337L40.848 31.6312C42.0635 30.9356 42.0024 29.8606 40.848 29.2293" fill="#20BEC6"/>
<path d="M40.848 29.228L26.8149 21.6417C25.6605 21.0091 24.6895 21.7691 24.6895 23.348V25.3089L38.7213 32.7691L40.7869 31.5682C42.0635 30.9356 42.0024 29.8619 40.848 29.228Z" fill="#15394C"/>
</g>
<defs>
<clipPath id="clip0_1_2">
<rect width="42" height="42" fill="white" transform="translate(11 11)"/>
</clipPath>
</defs>
</svg>
