<svg width="64" height="64" viewBox="0 0 64 64" fill="none" xmlns="http://www.w3.org/2000/svg">
<rect width="64" height="64" fill="white"/>
<path d="M11.8366 29.4855C12.9257 30.0821 14.1583 30.4167 15.4225 30.4592L29.0979 30.4729L22.3134 19.303L22.3066 19.3105C21.6103 18.2491 20.6261 17.3751 19.4521 16.7756C18.2783 16.1761 16.9554 15.8719 15.6151 15.8934C14.275 15.9148 12.9643 16.2611 11.8133 16.8978C10.6624 17.5345 9.71134 18.4394 9.05494 19.5224C8.02125 21.1898 7.73327 23.1662 8.25274 25.0279C8.77208 26.8898 10.0577 28.489 11.8339 29.483" fill="#00549E"/>
<path d="M24.2812 14.2529C24.2628 15.4407 24.5569 16.6148 25.138 17.6737L32.006 28.866L38.878 17.7335C39.4726 16.6806 39.7833 15.5099 39.7832 14.3215C39.7976 12.4015 38.992 10.5541 37.5423 9.18247C36.0926 7.81084 34.1164 7.02629 32.045 7C31.021 7.00277 30.0077 7.19269 29.0631 7.55887C28.1184 7.92505 27.2611 8.46031 26.5399 9.134C25.8188 9.80769 25.248 10.6066 24.8605 11.485C24.4729 12.3633 24.2761 13.3039 24.2812 14.2529Z" fill="#00549E"/>
<path d="M44.3833 16.8621C43.2831 17.4599 42.3591 18.3 41.6932 19.308L34.8441 30.4878L48.4778 30.524V30.5128C49.7394 30.4726 50.9702 30.1395 52.057 29.5441C53.84 28.5533 55.1357 26.957 55.6685 25.0945C56.2013 23.2321 55.9291 21.2504 54.9099 19.5711C54.4208 18.7431 53.7577 18.0144 52.9598 17.4279C52.1618 16.8415 51.245 16.4093 50.2637 16.1567C49.2824 15.9042 48.2565 15.8365 47.2465 15.9577C46.2365 16.0788 45.2629 16.3864 44.3833 16.8621Z" fill="#00549E"/>
<path d="M52.1592 34.512C51.07 33.9157 49.8375 33.5807 48.5733 33.5371L48.584 33.5296L34.9234 33.5034L41.7066 44.6708C42.3312 45.7033 43.2563 46.5521 44.3766 47.1204C45.2554 47.5984 46.228 47.9093 47.2379 48.0348C48.2478 48.1604 49.2744 48.0982 50.258 47.8517C51.2415 47.6054 52.1623 47.1796 52.9663 46.5997C53.7704 46.0198 54.4416 45.297 54.9408 44.4738C55.9779 42.8067 56.2675 40.8289 55.7472 38.9659C55.2271 37.103 53.9386 35.5035 52.1592 34.512Z" fill="#00549E"/>
<path d="M39.6729 49.7458C39.6749 48.5554 39.3661 47.3822 38.773 46.3263H38.7878L31.9818 35.1453L25.1353 46.2752C24.5434 47.3269 24.2294 48.4937 24.2193 49.6798C24.1996 51.5976 25.0003 53.4445 26.4462 54.8164C27.8922 56.1882 29.8656 56.9734 31.9347 57C32.9573 56.9966 33.9692 56.806 34.9123 56.4393C35.8553 56.0725 36.711 55.5368 37.4301 54.8628C38.1492 54.1888 38.7176 53.3899 39.1027 52.5117C39.4878 51.6336 39.6807 50.6936 39.6729 49.7458Z" fill="#00549E"/>
<path d="M19.6124 47.1354C20.7123 46.5373 21.6362 45.6973 22.3026 44.6895V44.7032L29.1625 33.5433L15.5248 33.5034C14.2651 33.5471 13.0361 33.8763 11.9455 34.4621C10.1614 35.4521 8.86476 37.0484 8.33157 38.9111C7.79851 40.7738 8.07103 42.7558 9.09127 44.4352C9.5806 45.2622 10.2437 45.99 11.0415 46.5755C11.8394 47.1611 12.7557 47.5925 13.7363 47.8445C14.717 48.0964 15.7423 48.1637 16.7516 48.0423C17.7608 47.921 18.7336 47.6135 19.6124 47.1379" fill="#00549E"/>
</svg>
