<svg width="64" height="64" viewBox="0 0 64 64" fill="none" xmlns="http://www.w3.org/2000/svg">
<rect width="64" height="64" fill="#010202"/>
<g clip-path="url(#clip0_1_2)">
<path d="M8.1068 36.2837C8.335 36.9298 8.65093 37.4823 9.05466 37.941C9.45839 38.3999 9.93669 38.751 10.4896 38.9944C11.0425 39.2379 11.6437 39.3596 12.2931 39.3596C12.9251 39.3596 13.5174 39.2332 14.0704 38.9803C14.6233 38.7275 15.106 38.3717 15.5184 37.9129C15.9309 37.4541 16.2513 36.9064 16.4795 36.2697C16.7077 35.633 16.8217 34.9214 16.8217 34.1349V22H19.5863V41.6629H16.8481V39.8371C16.2337 40.5299 15.5096 41.0636 14.6759 41.4382C13.8421 41.8127 12.9426 42 11.9772 42C10.9942 42 10.0771 41.8174 9.22577 41.4522C8.3745 41.0871 7.63724 40.5675 7.01417 39.8933C6.39109 39.2191 5.89957 38.4093 5.53976 37.4635C5.1799 36.5178 5 35.4645 5 34.3034V22H7.76453V34.1349C7.76453 34.9214 7.8786 35.6376 8.1068 36.2837Z" fill="white"/>
<path d="M24.3516 22V29.1629C24.9659 28.5075 25.6768 27.9879 26.4842 27.6039C27.2916 27.22 28.1693 27.0281 29.1171 27.0281C30.1001 27.0281 31.0215 27.2247 31.8816 27.6179C32.7417 28.0112 33.4876 28.5449 34.1196 29.2191C34.7515 29.8933 35.2517 30.6891 35.6203 31.6067C35.9889 32.5244 36.1732 33.4981 36.1732 34.5281C36.1732 35.558 35.9889 36.5271 35.6203 37.4353C35.2517 38.3436 34.7515 39.1348 34.1196 39.8089C33.4876 40.4831 32.7417 41.0168 31.8816 41.4101C31.0215 41.8033 30.1 41.9999 29.1171 41.9999C28.1692 41.9999 27.2873 41.808 26.4711 41.4241C25.6549 41.0402 24.9396 40.5205 24.3252 39.8651V41.6629H21.6924V22H24.3516ZM24.6543 36.4663C24.8913 37.0656 25.2204 37.5899 25.6417 38.0394C26.063 38.4888 26.5544 38.8446 27.1161 39.1068C27.6778 39.369 28.2834 39.5001 28.9328 39.5001C29.5647 39.5001 30.1615 39.369 30.7232 39.1068C31.2848 38.8446 31.7719 38.4889 32.1844 38.0394C32.5969 37.59 32.926 37.0656 33.1718 36.4663C33.4175 35.8671 33.5404 35.221 33.5404 34.5281C33.5404 33.8352 33.4175 33.1845 33.1718 32.5758C32.926 31.9672 32.5969 31.4382 32.1844 30.9888C31.7719 30.5394 31.2849 30.1882 30.7232 29.9354C30.1614 29.6826 29.5647 29.5562 28.9328 29.5562C28.3009 29.5562 27.7041 29.6826 27.1425 29.9354C26.5808 30.1883 26.0893 30.5394 25.668 30.9888C25.2468 31.4382 24.9133 31.9672 24.6675 32.5758C24.4218 33.1845 24.2989 33.8352 24.2989 34.5281C24.2989 35.221 24.4174 35.8671 24.6543 36.4663Z" fill="white"/>
<path d="M37.6737 31.6349C38.0247 30.736 38.5075 29.9448 39.1218 29.2613C39.7361 28.5778 40.4646 28.0394 41.3071 27.6461C42.1496 27.2529 43.0624 27.0563 44.0453 27.0563C45.0107 27.0563 45.9059 27.2436 46.7309 27.6181C47.5558 27.9926 48.2667 28.5123 48.8635 29.1771C49.4603 29.8418 49.9255 30.6284 50.2589 31.5366C50.5925 32.4449 50.7592 33.4327 50.7592 34.5001V35.4271H39.8327C39.9205 36.0077 40.096 36.546 40.3593 37.0422C40.6226 37.5385 40.9517 37.9692 41.3466 38.3344C41.7416 38.6996 42.1891 38.9852 42.6894 39.1911C43.1897 39.3971 43.7206 39.5001 44.2823 39.5001C45.8796 39.5001 47.1698 38.7978 48.1527 37.3933L50.0747 38.9102C49.4077 39.8652 48.5828 40.6143 47.5998 41.1574C46.6168 41.7004 45.511 41.972 44.2824 41.972C43.2818 41.972 42.3472 41.7846 41.4783 41.4101C40.6095 41.0357 39.8547 40.5113 39.2141 39.8371C38.5734 39.1629 38.0688 38.3717 37.7002 37.4635C37.3316 36.5553 37.1472 35.5674 37.1472 34.5C37.1471 33.4888 37.3227 32.5338 37.6737 31.6349ZM41.3729 30.5253C40.627 31.1901 40.1311 32.0749 39.8854 33.1798H48.0737C47.8455 32.0749 47.3584 31.1901 46.6124 30.5253C45.8664 29.8605 44.9932 29.5281 43.9927 29.5281C42.9922 29.5281 42.1189 29.8605 41.3729 30.5253Z" fill="white"/>
<path d="M55.7352 30.8483C55.1735 31.5037 54.8927 32.3932 54.8927 33.5169V41.663H52.2334V27.3371H54.8663V29.1068C55.1998 28.5263 55.6342 28.0674 56.1696 27.7304C56.7049 27.3932 57.3412 27.2247 58.0785 27.2247H58.9999V29.8651H57.8941C57.0165 29.8652 56.2969 30.1929 55.7352 30.8483Z" fill="white"/>
</g>
<defs>
<clipPath id="clip0_1_2">
<rect width="54" height="20" fill="white" transform="translate(5 22)"/>
</clipPath>
</defs>
</svg>
