<svg width="64" height="64" viewBox="0 0 64 64" fill="none" xmlns="http://www.w3.org/2000/svg">
<g clip-path="url(#clip0_1_2)">
<rect width="64" height="64" fill="black"/>
<g clip-path="url(#clip1_1_2)">
<path d="M61.512 31.6484C61.512 46.4083 47.808 58.3736 30.9033 58.3736C13.9986 58.3736 0.294605 46.4083 0.294605 31.6484C0.294605 16.8884 13.9986 4.92308 30.9033 4.92308C47.808 4.92308 61.512 16.8884 61.512 31.6484Z" fill="#FFD900"/>
<path d="M11.7841 0.129799C10.3315 0.35508 9.14282 0.744193 7.72063 1.45075C3.79941 3.39636 1.12761 6.89843 0.182857 11.3324C0.0101603 12.1516 0 13.2574 0 32.0172C0 50.951 0.0101614 51.8725 0.193016 52.702C1.43237 58.4262 5.57719 62.6245 11.1238 63.7612C12.0991 63.966 12.4954 63.966 31.6749 63.966C49.0259 63.966 51.322 63.9455 52.0737 63.8022C54.8673 63.2696 57.3258 61.9487 59.3778 59.87C61.2571 57.9858 62.3543 56.0504 63.1162 53.3266L63.3905 52.3436L63.4108 32.3448C63.4413 12.4382 63.4413 12.3461 63.2381 11.3016C62.6591 8.45489 61.4197 6.1202 59.4286 4.11316C57.854 2.52596 56.0965 1.42004 54.0648 0.73396C51.7486 -0.044282 53.7395 0.0273988 32.1016 0.00691882C15.8783 -0.0135612 12.546 0.00691923 11.7841 0.129799ZM41.8845 15.2236C45.7752 15.6434 47.0045 16.8108 47.5023 20.5484C47.6749 21.8488 47.5632 26.1599 47.2991 28.126C46.0597 37.342 42.6768 47.6024 40.2489 49.4661C39.548 50.0088 38.1866 50.0498 36.7441 49.5685C33.6661 48.5445 29.0234 44.8376 22.1968 37.9564C15.9594 31.669 12.4749 26.1496 13.1555 23.6306C13.4095 22.6783 15.1366 21.3266 17.5035 20.2207C22.8571 17.7221 30.7709 15.7356 37.4857 15.1928C38.4711 15.1109 40.9803 15.1314 41.8845 15.2236Z" fill="black"/>
</g>
</g>
<defs>
<clipPath id="clip0_1_2">
<rect width="64" height="64" fill="white"/>
</clipPath>
<clipPath id="clip1_1_2">
<rect width="64" height="64" fill="white"/>
</clipPath>
</defs>
</svg>
