<svg width="64" height="64" viewBox="0 0 64 64" fill="none" xmlns="http://www.w3.org/2000/svg">
<rect width="64" height="64" fill="white"/>
<g clip-path="url(#clip0_1_2)">
<path d="M50.1364 35.9593C50.1349 35.9589 30.9207 31.9186 30.9207 31.9186C25.1936 30.7142 21.6009 25.4236 22.8966 20.1016C24.193 14.7795 29.8866 11.4419 35.6137 12.6458C41.3411 13.8502 44.9334 19.1407 43.6377 24.4624C42.9884 27.127 41.2368 29.2921 38.9306 30.641C38.9303 30.641 38.9247 30.6454 38.9226 30.6464C38.8547 30.6917 38.8109 30.7653 38.8109 30.8481C38.8109 30.9642 38.8971 31.0617 39.0136 31.0878C39.014 31.0881 47.5612 32.8841 47.5627 32.8841C47.7661 32.927 47.9773 32.8541 48.1023 32.7007C50.457 29.8054 51.8718 26.1923 51.8718 22.2849C51.8718 13.0828 44.1348 5.56261 34.3758 5.02849C34.2888 5.02402 33.76 5.00482 33.5813 5.00245C29.2604 4.93942 24.8795 6.09069 21.0699 8.56986C11.4491 14.8295 9.11157 27.1505 15.8473 36.09L32.9423 58.7764C33.0152 58.8689 33.1328 58.9288 33.2647 58.9288C33.3977 58.9288 33.5156 58.8679 33.5883 58.7747C33.5883 58.7747 50.3752 36.5293 50.3767 36.5273C50.4194 36.4684 50.4449 36.3969 50.4449 36.3201C50.4449 36.1441 50.3133 35.9968 50.1364 35.9593Z" fill="#FABC26"/>
</g>
<defs>
<clipPath id="clip0_1_2">
<rect width="40" height="54" fill="white" transform="translate(12 5)"/>
</clipPath>
</defs>
</svg>
