<svg width="64" height="64" viewBox="0 0 64 64" fill="none" xmlns="http://www.w3.org/2000/svg">
<rect width="64" height="64" fill="white"/>
<g clip-path="url(#clip0_1_2)">
<path d="M45.487 23.1492H49.1717V22.1764C49.1717 21.6729 48.848 21.2612 48.4515 21.2612H47.5947V19.9999L46.5081 21.2612H42.4091C42.0126 21.2612 41.6882 21.6729 41.6882 22.1764V27.7798C41.6882 28.2839 42.0126 28.6959 42.4091 28.6959H44.7664L44.7663 24.0655C44.7663 23.5621 45.0902 23.1491 45.4872 23.1491" fill="#8FCE3D"/>
<path d="M45.487 23.1492C45.0901 23.1492 44.7661 23.5621 44.7661 24.0656L44.7663 28.696H48.4514C48.8479 28.696 49.1719 28.2839 49.1719 27.7799L49.1717 23.1493L45.487 23.1492Z" fill="#00A649"/>
<path d="M59 24.9802C59 22.8728 57.1375 21.164 54.8392 21.164C53.2644 21.164 51.8935 21.9665 51.1876 23.1491H54.6222C55.0178 23.1491 55.3427 23.5623 55.3427 24.0664V28.7678C55.8316 28.7145 56.2937 28.5827 56.7146 28.3865L58.0608 29.1035L57.5987 27.836C58.4585 27.1366 59 26.1169 59 24.9804" fill="#FF3D6D"/>
<path d="M54.6225 23.1492H51.188C50.8631 23.6925 50.6775 24.3173 50.6775 24.9803C50.6775 27.0881 52.5406 28.7973 54.8396 28.7973C55.01 28.7973 55.1779 28.787 55.3431 28.7688V24.0656C55.3431 23.5624 55.0183 23.1492 54.6225 23.1492Z" fill="#703E81"/>
<path d="M50.6774 24.9802C50.6774 24.317 50.8632 23.6925 51.1879 23.1491H49.1722L49.1724 27.7797C49.1724 28.2841 48.8484 28.6958 48.4519 28.6958H44.7668V29.6692C44.7668 30.1718 45.0905 30.5847 45.4874 30.5847H46.4974V31.852L47.5897 30.585L54.6223 30.5847C55.0181 30.5847 55.3428 30.1718 55.3428 29.6692V28.7676C55.1776 28.787 55.0099 28.7972 54.8393 28.7972C52.5404 28.7972 50.6772 27.088 50.6772 24.9802" fill="#00BADF"/>
<path d="M11.6741 32.6972V35.6586C11.6741 36.0057 11.6045 36.2703 11.4778 36.446C11.3509 36.6217 11.161 36.7316 10.8693 36.7316C10.64 36.7316 10.4524 36.6553 10.3248 36.5061C10.1972 36.3577 10.113 36.1305 10.1103 35.7586V32.6974H9.00252C9.00252 32.6974 9.00005 34.523 9.00005 35.6046C9.00005 36.6861 9.17334 37.0165 9.47961 37.4003C9.74133 37.7275 10.1313 37.9719 10.6949 37.9719C11.2586 37.9719 11.6148 37.5624 11.6831 37.4906C11.6999 37.8369 11.6687 38.1966 11.4093 38.4614C11.2496 38.6263 10.711 38.9868 9.85439 38.5018L9.61103 39.6637C9.92313 39.873 10.3834 40.0089 10.8928 39.9998C11.2546 39.9932 11.746 39.8243 12.123 39.4459C12.5009 39.0708 12.7853 38.4865 12.7853 37.5077L12.7868 32.6973L11.6741 32.6972ZM21.0381 36.0947C21.0712 35.8957 21.0867 35.6895 21.0867 35.4785V35.4577C21.0867 35.2467 21.0712 35.0405 21.0381 34.842C21.0068 34.6415 20.9517 34.4607 20.8742 34.3012C20.7976 34.1418 20.6929 34.015 20.5617 33.9199C20.4305 33.8245 20.2706 33.7764 20.0781 33.7764C19.8856 33.7764 19.7255 33.8245 19.5972 33.9199C19.4705 34.015 19.367 34.1418 19.2887 34.3012C19.2123 34.4607 19.157 34.6415 19.1243 34.842C19.095 35.0268 19.0805 35.2154 19.0769 35.409V35.5275C19.0805 35.7208 19.095 35.9096 19.1243 36.0947C19.157 36.2943 19.2123 36.476 19.2887 36.6352C19.367 36.7944 19.4705 36.9214 19.5972 37.0165C19.7255 37.1116 19.8855 37.16 20.0781 37.16C20.2706 37.16 20.4305 37.1116 20.5617 37.0165C20.6929 36.9214 20.7976 36.7944 20.8744 36.6352C20.9517 36.476 21.0068 36.2943 21.0381 36.0947ZM22.2238 35.4574V35.4785C22.2238 35.8982 22.1727 36.2795 22.0709 36.6184C21.9701 36.9584 21.8257 37.2495 21.6392 37.4907C21.4527 37.7307 21.2268 37.9161 20.962 38.0448C20.6989 38.1741 20.4034 38.2365 20.0781 38.2365C19.5804 38.2365 19.1172 37.8734 19.0769 37.8526V39.8728H17.9411V32.6976H19.0766V33.0838C19.1172 33.0624 19.5804 32.6973 20.0781 32.6973C20.4034 32.6973 20.6989 32.7611 20.962 32.8915C21.2268 33.0208 21.4525 33.2054 21.6392 33.4454C21.8257 33.6866 21.9701 33.9779 22.0709 34.3171C22.1727 34.6563 22.2238 35.0379 22.2238 35.4574ZM13.4999 32.6973H14.6675V34.5646L16.0775 32.6973H17.4602L15.9192 34.6064L17.7205 37.9624H16.3056L15.121 35.6118L14.6674 36.1666V37.9624H13.4999L13.4999 32.6973Z" fill="#00BADF"/>
<path d="M44.0892 35.9448C44.0562 35.7443 44.0397 35.5381 44.0397 35.3291C44.0397 35.1178 44.0562 34.9111 44.0892 34.7077C44.1209 34.503 44.1749 34.3242 44.2521 34.167C44.3303 34.0112 44.4324 33.885 44.5602 33.7857C44.6889 33.6877 44.8492 33.6382 45.0416 33.6382C45.2328 33.6382 45.3955 33.6877 45.5258 33.7857C45.6563 33.885 45.7609 34.0112 45.8379 34.167C45.9149 34.3242 45.9698 34.503 46.002 34.7077C46.034 34.9111 46.0497 35.1178 46.0497 35.3288C46.0497 35.5381 46.034 35.7443 46.002 35.9448C45.9698 36.1461 45.9149 36.3244 45.8379 36.4856C45.7609 36.6448 45.6563 36.7726 45.5258 36.8663C45.3955 36.9614 45.2328 37.0087 45.0416 37.0087C44.8492 37.0087 44.6889 36.9614 44.5604 36.8663C44.4326 36.7726 44.3303 36.645 44.2521 36.4856C44.1749 36.3244 44.121 36.1461 44.0892 35.9448ZM43.0557 34.1823C42.9549 34.5255 42.9039 34.9082 42.9039 35.3291C42.9039 35.7491 42.9549 36.1302 43.0557 36.4696C43.1564 36.8094 43.3011 37.099 43.4889 37.3393C43.6756 37.5802 43.8984 37.7653 44.161 37.8952C44.4212 38.0236 44.7149 38.088 45.0415 38.088C45.3673 38.088 45.6606 38.0236 45.9259 37.8952C46.1912 37.7653 46.4155 37.5802 46.6031 37.3393C46.7899 37.099 46.9334 36.8094 47.0343 36.4696C47.136 36.1302 47.1864 35.7491 47.1864 35.3288C47.1864 34.9082 47.136 34.5255 47.0343 34.1823C46.9334 33.8397 46.7899 33.5481 46.6031 33.3072C46.4155 33.066 46.1912 32.8789 45.9259 32.7471C45.6606 32.6149 45.3673 32.5486 45.0415 32.5486C44.7149 32.5486 44.4212 32.6149 44.161 32.7471C43.8984 32.8789 43.6756 33.066 43.4889 33.3072C43.3011 33.5481 43.1565 33.8397 43.0557 34.1823ZM48.982 34.2293L49.8377 37.9623H50.962L51.815 34.2293L52.4168 37.9623H53.5441L52.7482 33.3911C52.6373 32.9073 52.3516 32.6202 51.9128 32.5658L51.8759 32.5641C51.8591 32.5624 51.8428 32.5616 51.8253 32.5616H51.8054C51.7884 32.5616 51.7725 32.5624 51.7552 32.5641L51.7176 32.5658C51.2777 32.6211 50.9929 32.9073 50.8834 33.3911L50.4016 35.8313L49.9149 33.3911C49.8054 32.9073 49.5191 32.6202 49.0805 32.5658L49.0433 32.5641C49.0261 32.5624 49.0086 32.5616 48.9921 32.5616H48.9724C48.9551 32.5616 48.9383 32.5624 48.9213 32.5641L48.885 32.5658C48.4451 32.6219 48.1592 32.9073 48.0506 33.3911L47.2608 37.9623H48.3835L48.982 34.2293ZM31.5223 37.9623L32.3731 34.2293L33.227 37.9623H34.3536L33.3054 33.3911C33.1954 32.9073 32.9064 32.6251 32.4698 32.5658L32.434 32.5641C32.4163 32.5624 32.4002 32.5607 32.3825 32.5607H32.3635C32.3453 32.5607 32.3299 32.5624 32.3122 32.5641L32.2757 32.5658C31.8349 32.6251 31.5508 32.9073 31.4408 33.3911L30.3982 37.9623H31.5223ZM38.9416 32.6971V37.9623H40.11V36.1665L40.5632 35.6118L41.7478 37.9624H43.164L41.3612 34.6064L42.9033 32.6973H41.5206L40.1101 34.5642V32.6973L38.9416 32.6971ZM37.0521 33.9312C37.1889 34.1208 37.2832 34.3985 37.3367 34.7656H35.4868C35.4924 34.6636 35.5094 34.5483 35.5398 34.4196C35.5689 34.29 35.6186 34.167 35.6905 34.0522C35.7637 33.9392 35.8595 33.8406 35.9793 33.7626C36.0984 33.684 36.2504 33.6461 36.4318 33.6461C36.7085 33.6461 36.9167 33.7404 37.0521 33.9312ZM35.7668 36.7C35.596 36.4892 35.5036 36.1509 35.4868 35.6819H38.4743C38.4951 35.2753 38.4676 34.884 38.3928 34.5101C38.3189 34.1379 38.198 33.8047 38.0301 33.5128C37.862 33.2218 37.6459 32.9877 37.3851 32.8162C37.1227 32.6425 36.8164 32.5565 36.4631 32.5565C36.1504 32.5565 35.8609 32.6277 35.6032 32.7704C35.3446 32.9122 35.1219 33.107 34.9349 33.3547C34.7484 33.6019 34.6043 33.8967 34.5013 34.2367C34.4021 34.5753 34.3506 34.9426 34.3506 35.3368C34.3506 35.7431 34.4003 36.1173 34.4981 36.4562C34.5971 36.7959 34.7381 37.087 34.9195 37.3316C35.1006 37.5762 35.3216 37.7639 35.5835 37.8969C35.8452 38.0301 36.1392 38.0956 36.4632 38.0956C36.9338 38.0956 37.3339 37.9584 37.6652 37.6881C37.9957 37.417 38.2419 36.9657 38.4009 36.3332H37.4006C37.3632 36.4958 37.2613 36.651 37.0963 36.7968C36.9315 36.9423 36.7332 37.0163 36.5037 37.0163C36.1844 37.0163 35.9383 36.9116 35.7668 36.7ZM28.9717 33.9312C29.1069 34.1208 29.201 34.3985 29.2549 34.7658H27.4053C27.4112 34.6636 27.4286 34.5483 27.4588 34.4198C27.4866 34.29 27.5379 34.1669 27.6102 34.0522C27.6818 33.9391 27.7777 33.8406 27.8992 33.7626C28.0181 33.684 28.1695 33.6461 28.3515 33.6461C28.6277 33.6461 28.8349 33.7404 28.9717 33.9312ZM27.6859 36.7C27.5153 36.4892 27.4226 36.1509 27.4053 35.6819H30.3913C30.413 35.2752 30.3868 34.884 30.312 34.5101C30.2377 34.1379 30.115 33.8047 29.9478 33.5128C29.7799 33.2217 29.5645 32.9877 29.3037 32.8162C29.0408 32.6425 28.7346 32.5565 28.3826 32.5565C28.0678 32.5565 27.7806 32.6277 27.5224 32.7704C27.2632 32.9122 27.0395 33.107 26.8539 33.355C26.667 33.6019 26.5221 33.8966 26.4203 34.2367C26.3184 34.5753 26.268 34.9426 26.268 35.3367C26.268 35.7431 26.3184 36.1173 26.4165 36.4562C26.5163 36.7959 26.6562 37.087 26.838 37.3316C27.0176 37.5762 27.2397 37.7638 27.5021 37.8968C27.7633 38.0301 28.0569 38.0956 28.3828 38.0956C28.8508 38.0956 29.2524 37.9583 29.5842 37.6881C29.9149 37.417 30.1605 36.9656 30.3203 36.3332H29.3198C29.2813 36.4958 29.1801 36.651 29.0149 36.7968C28.8507 36.9423 28.6517 37.0163 28.4227 37.0163C28.1027 37.0163 27.8565 36.9115 27.6859 36.7ZM23.6387 37.9623L23.6434 33.9421H22.3789L22.378 32.6971H26.1006V33.9421H24.8446L24.8451 37.9623H23.6387Z" fill="#6D6E71"/>
</g>
<defs>
<clipPath id="clip0_1_2">
<rect width="50" height="20" fill="white" transform="translate(9 20)"/>
</clipPath>
</defs>
</svg>
