<svg width="64" height="64" viewBox="0 0 64 64" fill="none" xmlns="http://www.w3.org/2000/svg">
<rect width="64" height="64" fill="black"/>
<path d="M28.3637 4.17483C19.5991 5.40732 12.1174 10.4389 7.6843 18.0879C4.14034 24.2122 3.08605 31.7723 4.81357 38.6844C6.84594 46.8162 12.2698 53.525 19.7896 57.1589C23.5622 58.9886 26.8648 59.8145 31.0312 59.9797C44.3433 60.4879 56.1819 51.4158 59.2939 38.3413C60.0053 35.3935 60.1958 31.4801 59.7893 28.3544C58.608 19.2061 52.9174 11.1886 44.6481 6.98286C41.7774 5.53438 38.7161 4.58142 35.6295 4.18754C33.7241 3.94612 30.0785 3.93342 28.3637 4.17483ZM34.1433 7.40216L34.7784 7.4911L34.2703 7.65628C33.4447 7.93581 31.5393 8.92688 30.5231 9.6003C27.4873 11.6333 24.8071 14.5811 23.0287 17.8592L22.5333 18.774L20.5899 18.7995C17.8462 18.8249 15.89 19.295 13.3622 20.5656C12.3334 21.0865 10.1231 22.5223 9.20858 23.2593L8.7894 23.5896L9.09426 22.7764C9.57695 21.5058 10.6312 19.4856 11.4188 18.3166C15.4962 12.3321 22.165 8.24076 29.2021 7.42757C30.2945 7.30051 33.2922 7.2751 34.1433 7.40216ZM42.9587 10.1212C43.759 10.2991 43.7209 10.2102 44.1273 12.4973C45.1054 18.1133 44.0003 24.2249 41.0026 29.6377C40.3547 30.8066 39.0337 32.8269 38.9194 32.8269C38.8686 32.8269 38.0937 31.7596 37.1919 30.4636C33.1525 24.6696 30.231 21.76 26.9284 20.2479C26.3949 20.0065 25.963 19.7397 25.9503 19.6762C25.9503 19.4602 27.5 17.1731 28.351 16.1312C30.828 13.1072 34.2322 10.9344 37.6364 10.2102C38.894 9.93066 41.8536 9.89254 42.9587 10.1212ZM49.3099 14.4286C53.6033 18.6851 56.0294 23.8183 56.5756 29.752C56.7154 31.3657 56.7027 33.6274 56.5375 33.7926C56.4105 33.9069 55.4197 33.1064 54.3273 31.9756C51.3931 28.9643 49.2718 24.2122 48.3191 18.5326C47.8745 15.9025 47.6586 13.1326 47.8999 13.1326C47.9507 13.1326 48.5859 13.717 49.3099 14.4286ZM20.9201 22.6875C20.1453 24.8602 19.5737 28.3798 19.561 31.0735L19.5483 32.9413L19.1037 32.6109C16.2076 30.4001 12.9685 29.2692 9.41182 29.2311L7.78591 29.2057L8.90372 28.0876C12.7144 24.2249 16.5632 22.192 20.1326 22.1666L21.1107 22.1538L20.9201 22.6875ZM26.0519 23.4753C27.9445 24.479 30.0023 26.4739 32.4158 29.6504C33.6352 31.2514 36.4678 35.2792 36.5694 35.546C36.6584 35.7747 34.499 37.795 33.0509 38.8369C31.1455 40.1964 28.2621 41.5178 26.217 41.9625L25.6708 42.0769L25.0611 40.7936C22.635 35.5968 22.2793 29.7393 24.0322 24.0725L24.426 22.8019L24.7944 22.9162C25.0103 22.967 25.5692 23.2339 26.0519 23.4753ZM47.5189 27.7191C48.1159 29.0786 49.2972 31.0989 50.2372 32.3822C51.1898 33.6782 53.4128 35.8255 54.683 36.6895C55.2927 37.1088 55.7627 37.49 55.7246 37.5535C55.5849 37.7823 53.87 38.5573 52.7903 38.8877C51.8123 39.1799 51.4439 39.218 49.8307 39.2307C47.7983 39.2434 46.8456 39.0402 45.1689 38.2905C44.229 37.8585 42.5649 36.7658 41.7012 36.0161L41.1296 35.5206L41.4979 35.025C43.3144 32.5601 45.0419 29.4217 45.9565 26.9186C46.2105 26.2198 46.4519 25.5591 46.49 25.4574C46.5281 25.3431 46.6424 25.5082 46.7821 25.9021C46.9091 26.2452 47.2394 27.0711 47.5189 27.7191ZM10.5423 32.7126C13.6163 33.0556 16.3473 34.3643 18.5194 36.5625C19.7515 37.795 20.8312 39.3832 21.5807 41.0604L22.1396 42.2929L21.2885 42.331C20.8185 42.3564 19.8277 42.2802 19.091 42.1658C13.7306 41.3908 9.8564 38.6209 8.00185 34.2754C7.31593 32.6998 7.32863 32.7253 7.81132 32.6617C8.63697 32.5601 9.3356 32.5728 10.5423 32.7126ZM41.5742 40.1075C45.296 42.547 49.5258 43.2967 53.5017 42.2167C54.0098 42.0769 54.4543 41.9879 54.4798 42.0134C54.5687 42.1023 53.2222 44.3259 52.549 45.228C49.602 49.1414 45.3087 51.3777 40.7612 51.3777C37.5856 51.3777 34.4227 50.3739 31.552 48.4807C30.5866 47.8454 27.8556 45.3805 27.8556 45.1517C27.8556 45.1009 28.3891 44.8722 29.0369 44.6435C30.7137 44.0463 32.5809 43.1188 34.0925 42.115C35.3373 41.3018 37.7508 39.307 38.5764 38.443L38.9448 38.0491L39.7831 38.7606C40.2404 39.1545 41.0534 39.7644 41.5742 40.1075ZM10.5931 42.5724C13.8322 44.7452 18.7607 46.0793 22.7747 45.876L24.1084 45.8125L24.4387 46.2699C25.1881 47.3118 26.7505 48.9763 27.8048 49.8657C31.4123 52.8897 35.2865 54.4017 40.0626 54.6559L41.7647 54.7448L40.6215 55.1641C38.0302 56.117 35.2611 56.5872 32.1998 56.5872C29.1132 56.5872 26.687 56.206 23.9814 55.3039C18.8878 53.6013 14.6833 50.3739 11.622 45.787C10.7075 44.4148 9.3229 41.8482 9.48803 41.8482C9.51343 41.8482 10.0088 42.1658 10.5931 42.5724Z" fill="#02A84E"/>
</svg>
