<svg width="64" height="64" viewBox="0 0 64 64" fill="none" xmlns="http://www.w3.org/2000/svg">
<rect width="64" height="64" fill="#2B2D7F"/>
<g clip-path="url(#clip0_1_2)">
<path d="M26.373 26.9939C27.827 26.9939 28.5351 27.6242 28.5351 28.4818C28.5351 29.3394 27.8216 29.9697 26.373 29.9697H24.9351L23.1459 34.1758H26.6108C28.1676 34.1758 28.8297 34.7818 28.8297 35.6333C28.8297 36.4848 28.1676 37.0939 26.6108 37.0939H21.8919L19.7297 42.1303H26.1C31.0919 42.1303 33.5757 39.7061 33.5757 36.5333C33.5984 35.5675 33.3938 34.6119 32.9824 33.7629C32.5711 32.9138 31.9675 32.2013 31.2324 31.697C32.5541 30.7152 33.4162 29.2727 33.4162 27.5636C33.4162 24.1212 30.7622 22 26.5514 22H20.1784L16.1243 31.5152L12.0811 22H7L13.5297 37.5212L11.5946 42.1303H16.5946L23.0486 26.9939H26.373Z" fill="white"/>
<path d="M35.2405 30.5817H52.2054L50.227 25.8908C49.6484 24.7036 48.7933 23.7146 47.7528 23.0294C46.7124 22.3442 45.5256 21.9884 44.3189 21.9999H34.0676C35.2575 23.4218 35.9195 25.2986 35.9189 27.2484C35.9112 28.4016 35.6797 29.539 35.2405 30.5817Z" fill="white"/>
<path d="M35.3784 33.5485C35.8311 34.586 36.0642 35.7268 36.0595 36.8818C36.0788 37.8656 35.9106 38.8427 35.5662 39.7478C35.2217 40.6529 34.709 41.4652 34.0622 42.1303H57.0649L53.4568 33.5485H35.3784Z" fill="white"/>
</g>
<defs>
<clipPath id="clip0_1_2">
<rect width="50" height="20" fill="white" transform="translate(7 22)"/>
</clipPath>
</defs>
</svg>
