<svg width="64" height="64" viewBox="0 0 64 64" fill="none" xmlns="http://www.w3.org/2000/svg">
<rect width="64" height="64" fill="white"/>
<g clip-path="url(#clip0_1_2)">
<path d="M49.9689 21.5941C47.2175 16.7789 42.7034 13.3396 37.3724 11.9209C31.9983 10.5021 26.4095 11.233 21.6374 13.9844C11.7062 19.7024 8.30987 32.4279 14.0278 42.3161C16.7793 47.1311 21.2934 50.5704 26.6244 51.9893C28.43 52.4621 30.2357 52.7201 32.0414 52.7201C35.6526 52.7201 39.1779 51.7743 42.4023 49.9256C47.2175 47.1741 50.6568 42.66 52.0755 37.329C53.4942 31.9981 52.7204 26.4091 49.9689 21.5941ZM49.281 36.6412C49.1091 37.3291 48.8511 38.017 48.5931 38.6618C48.5072 36.6842 47.9483 34.7064 46.9166 32.9438C45.2399 30.0634 42.5744 27.9998 39.35 27.14C38.3612 26.882 37.3724 26.753 36.3836 26.7101H32.9442V37.286H35.8247V29.5905C35.9106 29.5905 35.9966 29.5905 36.1256 29.5905C36.9425 29.5905 37.8023 29.7194 38.619 29.9344C41.1126 30.5794 43.1762 32.17 44.466 34.4056C45.7557 36.6412 46.0997 39.2207 45.4118 41.7142C44.7669 44.2078 43.1762 46.2713 40.9406 47.5611C37.4153 49.5816 33.417 50.3555 29.5049 49.7966C28.7739 49.7107 28.086 49.5387 27.3552 49.3667C22.755 48.1199 18.8859 45.1535 16.4783 41.0262C13.6409 36.0822 13.4259 30.3644 15.3605 25.4203C15.4465 27.3979 16.0054 29.3326 17.0372 31.1383C19.3588 35.0504 23.5719 37.286 27.8711 37.286C27.9572 37.286 31.0095 37.286 31.0095 37.286V26.7101H25.2917V29.5905H28.1721V34.4486C27.2262 34.4915 26.3234 34.3626 25.3776 34.1046C22.884 33.4598 20.8205 31.8691 19.5307 29.6335C18.241 27.3979 17.897 24.8185 18.5849 22.3249C19.2298 19.8313 20.8205 17.7677 23.0561 16.478C26.5814 14.4574 30.5796 13.6835 34.5348 14.2424C35.2227 14.3284 35.9535 14.5004 36.6414 14.6723C41.2416 15.9191 45.1109 18.8855 47.5184 23.0128C49.883 27.1829 50.5278 31.9981 49.281 36.6412Z" fill="#5C3D32"/>
<path d="M32.0027 56.0765C19.707 56.0765 9.56094 46.8333 8.09922 34.9245H5.17578C6.6375 48.4239 18.1163 59 32.0027 59C45.8891 59 57.3678 48.4239 58.8296 34.9245H55.9061C54.4445 46.8333 44.2984 56.0765 32.0027 56.0765Z" fill="#5C3D32"/>
<path d="M32.0027 7.92344C44.2984 7.92344 54.4445 17.1667 55.9061 29.0755H58.8296C57.3678 15.576 45.8891 5 32.0027 5C18.1163 5 6.6375 15.576 5.17578 29.0755H8.09922C9.56094 17.1667 19.707 7.92344 32.0027 7.92344Z" fill="#5C3D32"/>
<path d="M5.51781 31.611H5.13088C5.13088 31.3961 5.21687 31.224 5.34584 31.095C5.47482 30.966 5.64678 30.8801 5.86174 30.8801C5.99072 30.8801 6.11969 30.9231 6.20568 30.966C6.29166 31.0091 6.37764 31.095 6.42064 31.224C6.46363 31.31 6.50661 31.439 6.50661 31.5249C6.50661 31.6539 6.46363 31.7829 6.42064 31.9119C6.37764 32.0409 6.20568 32.2128 6.03371 32.4278L5.81875 32.6858H6.54962V33.0726H5.08789V32.9007L5.73277 32.2559C5.90474 32.0839 5.99072 31.9548 6.03371 31.8689C6.0767 31.7829 6.11969 31.697 6.11969 31.611C6.11969 31.5249 6.0767 31.4821 6.03371 31.3961C5.99072 31.3531 5.90474 31.31 5.81875 31.31C5.73277 31.31 5.64678 31.3531 5.60379 31.3961C5.5608 31.439 5.51781 31.5249 5.51781 31.611Z" fill="#5C3D32"/>
<path d="M7.45059 30.8801C7.62255 30.8801 7.75152 30.9231 7.83752 31.0091C7.96649 31.095 8.05247 31.181 8.09546 31.3531C8.13845 31.525 8.18145 31.7399 8.18145 31.9979C8.18145 32.2559 8.13845 32.5137 8.09546 32.6427C8.05247 32.8148 7.96649 32.9008 7.83752 32.9867C7.75152 33.0727 7.62255 33.1157 7.45059 33.1157C7.27862 33.1157 7.14965 33.0727 7.06365 32.9867C6.97767 32.9008 6.89169 32.8148 6.80571 32.6427C6.76272 32.5137 6.71972 32.2988 6.71972 31.9979C6.71972 31.611 6.76272 31.353 6.89169 31.181C7.06365 31.0091 7.23563 30.8801 7.45059 30.8801ZM7.49358 31.2671C7.40759 31.2671 7.3646 31.31 7.32161 31.3531C7.27862 31.3961 7.23563 31.482 7.19264 31.568C7.14965 31.6539 7.14965 31.826 7.14965 32.0409C7.14965 32.2988 7.19264 32.4708 7.23563 32.5998C7.27862 32.6858 7.3646 32.7717 7.49358 32.7717C7.57956 32.7717 7.66554 32.7288 7.70853 32.6427C7.79451 32.5137 7.79451 32.3418 7.79451 32.0409C7.79451 31.7829 7.75152 31.568 7.70853 31.482C7.66554 31.31 7.57956 31.2671 7.49358 31.2671Z" fill="#5C3D32"/>
<path d="M57.0239 30.8801C57.1958 30.8801 57.3248 30.9231 57.4107 31.0091C57.5397 31.095 57.6257 31.181 57.6688 31.3531C57.7117 31.525 57.7547 31.7399 57.7547 31.9979C57.7547 32.2559 57.7117 32.5137 57.6688 32.6427C57.6257 32.8148 57.5397 32.9008 57.4107 32.9867C57.3248 33.0727 57.1958 33.1157 57.0239 33.1157C56.8518 33.1157 56.7228 33.0727 56.6369 32.9867C56.5509 32.9008 56.465 32.8148 56.3789 32.6427C56.336 32.5137 56.293 32.2988 56.293 31.9979C56.293 31.611 56.336 31.353 56.465 31.181C56.5939 31.0091 56.7659 30.8801 57.0239 30.8801ZM57.0239 31.2671C56.9378 31.2671 56.8949 31.31 56.8519 31.3531C56.8088 31.3961 56.7659 31.482 56.7229 31.568C56.68 31.6539 56.68 31.826 56.68 32.0409C56.68 32.2988 56.7229 32.4708 56.7659 32.5998C56.8088 32.6858 56.8949 32.7717 57.0239 32.7717C57.1098 32.7717 57.1958 32.7288 57.2389 32.6427C57.3248 32.5137 57.3248 32.3418 57.3248 32.0409C57.3248 31.7829 57.2818 31.568 57.2389 31.482C57.1958 31.31 57.1098 31.2671 57.0239 31.2671Z" fill="#5C3D32"/>
<path d="M58.3125 30.9657H58.9145V33.0723H58.5275V31.3527H58.0976L58.3125 30.9657Z" fill="#5C3D32"/>
</g>
<defs>
<clipPath id="clip0_1_2">
<rect width="54" height="54" fill="white" transform="translate(5 5)"/>
</clipPath>
</defs>
</svg>
