<svg width="64" height="64" viewBox="0 0 64 64" fill="none" xmlns="http://www.w3.org/2000/svg">
<rect width="64" height="64" fill="white"/>
<g clip-path="url(#clip0_1_2)">
<path d="M31.1895 3H32.8991C36.678 3.17316 40.2836 4.01962 43.7165 5.53939C36.9743 5.48727 31.0021 7.42061 25.7997 11.3394C18.6295 16.7435 14.2377 26.2227 16.4564 35.1043C17.9457 41.0732 22.4844 46.0436 28.5175 47.5415C38.8359 50.1061 48.1868 41.9785 47.7436 31.7453C47.3991 23.7968 42.2703 19.7822 35.0317 17.8051C34.9456 17.7799 34.9015 17.7227 34.9 17.6337C34.8316 12.0354 38.6257 7.32983 43.9951 5.88487C44.0675 5.8647 44.0997 5.81005 44.0914 5.72096C51.2489 8.69409 56.8083 15.4397 59.298 22.4653C64.7687 37.9034 55.8256 55.1546 40.0263 59.6156C33.0088 61.5976 26.2126 61.0714 19.6376 58.037C1.03452 49.453 -2.80767 24.3995 12.3914 10.6106C17.6071 5.87647 23.8732 3.3396 31.1895 3Z" fill="#E60000"/>
</g>
<defs>
<clipPath id="clip0_1_2">
<rect width="58" height="58" fill="white" transform="translate(3 3)"/>
</clipPath>
</defs>
</svg>
