<svg width="64" height="64" viewBox="0 0 64 64" fill="none" xmlns="http://www.w3.org/2000/svg">
<rect width="64" height="64" fill="white"/>
<path d="M46.4415 10C41.0371 10 35.8033 13.3723 33.6795 18.8998C33.0727 20.4962 32.8641 22.4318 32.5037 24.3075C32.0487 26.6222 31.4608 28.8372 31.0436 30.0744C32.7314 32.7883 35.4051 36.44 38.2685 43.9828C39.9941 47.7343 43.161 52.3438 47.4465 52.3438C47.4655 52.3438 47.4845 52.3438 47.5035 52.3438C51.827 52.3039 55.8093 45.639 57.5728 40.4309C58.4451 37.8567 59.1846 34.7238 59.5449 31.6308C59.9242 28.1986 60 25.8041 60 24.0082C60 18.4408 56.6625 13.2127 51.4667 10.9977C49.8169 10.3193 48.1292 10 46.4415 10Z" fill="#00CF41"/>
<path d="M16.9352 23.0104C15.2285 23.0104 13.4839 23.3497 11.7962 24.0681C5.31086 26.8019 2.48539 33.9655 4.79886 41.3887C5.50049 43.6436 6.42967 45.5392 7.6433 47.3951C10.0895 51.1664 13.4081 54 16.499 54C29.1662 54 38.6667 54 45.0192 54C45.114 54 45.1899 53.9202 45.1899 53.8205C45.1899 53.7207 45.133 53.6209 45.0383 53.6009C39.8613 51.9846 37.7185 45.9782 35.8791 41.5483C32.5795 33.766 28.7111 29.5156 25.1271 26.1034C22.8895 24.088 19.9692 23.0104 16.9352 23.0104Z" fill="#FF6D00"/>
</svg>
