<svg width="64" height="64" viewBox="0 0 64 64" fill="none" xmlns="http://www.w3.org/2000/svg">
<rect width="64" height="64" fill="#00A0A0"/>
<path fill-rule="evenodd" clip-rule="evenodd" d="M22.313 38.7386L23.0117 37.54C23.6262 36.1621 24.2358 34.7845 24.8447 33.408C25.7968 31.2562 26.748 29.1068 27.7144 26.9641C28.0426 26.2323 28.4344 25.5005 28.9603 24.8777C30.4827 23.0479 33.4025 23.0297 34.9615 24.8323C35.52 25.4816 35.9318 26.2505 36.2752 27.0185C37.208 29.0726 38.121 31.133 39.0344 33.194C39.6833 34.6585 40.3324 36.1235 40.9891 37.5868C41.1052 37.848 41.2659 38.0914 41.4833 38.4204C41.6072 38.6079 41.7497 38.8239 41.9123 39.086C42.0542 38.767 42.1809 38.4962 42.2939 38.255C42.4919 37.8322 42.6475 37.4998 42.7671 37.1562C43.8092 34.2194 44.8451 31.2828 45.8811 28.346L45.8849 28.3354C46.5743 26.3809 47.2638 24.4263 47.9551 22.4718L48.3048 21.5751C48.9509 20.3401 50.4581 19.7362 51.8754 20.1207C53.3883 20.5324 54.3107 21.7946 53.9037 23.1674C53.4916 24.5703 52.9936 25.9566 52.4968 27.3396C52.3589 27.7237 52.2208 28.1081 52.0849 28.492C50.76 32.2523 49.4312 36.0211 48.0905 39.7815C47.1734 42.3621 45.0822 43.8626 42.2661 43.9906C39.3209 44.1276 36.9269 42.7646 35.7597 40.2393C34.9661 38.5183 34.1933 36.7851 33.4198 35.0508C33.0297 34.1759 32.639 33.2998 32.2457 32.4257L31.9278 32.1056L31.3168 33.2491C30.9564 34.0606 30.5985 34.8733 30.2408 35.6859C29.6103 37.1179 28.9799 38.5498 28.3349 39.9744C27.1097 42.7004 24.7842 44.1094 21.7601 43.9906C18.8348 43.8801 16.8017 42.3794 15.8218 39.6074L15.741 39.3793C13.9276 34.2593 12.1139 29.1379 10.32 24.018C10.1273 23.4596 9.96166 22.8563 10.0078 22.2887C10.117 21.0719 11.296 20.1207 12.6869 20.0109C14.0907 19.9012 15.331 20.6239 15.8218 21.9686C16.5712 24.0201 17.2942 26.0719 18.0173 28.1237C18.3549 29.0817 18.6929 30.0405 19.0331 30.9985C19.308 31.7773 19.5815 32.5562 19.8549 33.3345C20.3491 34.7418 20.8429 36.1479 21.3435 37.5497L21.8804 38.7024L22.313 38.7386Z" fill="white"/>
</svg>
