<svg width="64" height="64" viewBox="0 0 64 64" fill="none" xmlns="http://www.w3.org/2000/svg">
<rect width="64" height="64" fill="#009345"/>
<g clip-path="url(#clip0_1_2)">
<path d="M52.3249 12C48.1337 12 44.7356 14.9769 44.7356 18.6487C44.7356 19.7068 45.0195 20.7077 45.522 21.5957L52.3249 33.6761L59.1288 21.5957C59.6312 20.7077 59.9151 19.7068 59.9151 18.6487C59.9141 14.9769 56.5161 12 52.3249 12Z" fill="#8BC53F"/>
<path d="M28.0673 40.9702L21.8868 51.936L4.78637 21.5984C2.92979 18.3044 4.4732 14.3163 8.23223 12.6898C11.9922 11.0633 16.5444 12.4155 18.401 15.7086L28.0664 32.8582C29.5083 35.4146 29.5083 38.4138 28.0673 40.9702Z" fill="white"/>
<path d="M48.4273 40.9702L42.2468 51.936L25.1473 21.5984C23.2907 18.3044 24.8341 14.3163 28.5932 12.6898C32.3532 11.0633 36.9054 12.4155 38.762 15.7086L48.4273 32.8582C49.8683 35.4146 49.8683 38.4138 48.4273 40.9702Z" fill="white"/>
</g>
<defs>
<clipPath id="clip0_1_2">
<rect width="56" height="40" fill="white" transform="translate(4 12)"/>
</clipPath>
</defs>
</svg>
