<svg width="64" height="64" viewBox="0 0 64 64" fill="none" xmlns="http://www.w3.org/2000/svg">
<rect width="64" height="64" fill="white"/>
<g clip-path="url(#clip0_1_2)">
<path d="M58.829 19.6218C58.1838 17.4078 56.289 15.6679 53.8781 15.0753C49.5127 14 31.9999 14 31.9999 14C31.9999 14 14.4873 14 10.1218 15.0753C7.7109 15.6679 5.81626 17.4078 5.17089 19.6218C4 23.6308 4 32 4 32C4 32 4 40.3693 5.17089 44.3782C5.81626 46.5922 7.7109 48.3321 10.1218 48.9247C14.4873 50 31.9999 50 31.9999 50C31.9999 50 49.5127 50 53.8781 48.9247C56.289 48.3321 58.1838 46.5922 58.829 44.3782C60 40.3693 60 32 60 32C60 32 59.9953 23.6308 58.829 19.6218Z" fill="#FF0000"/>
<path d="M26.3946 39.7137L40.9432 32.0007L26.3946 24.2876V39.7137Z" fill="white"/>
</g>
<defs>
<clipPath id="clip0_1_2">
<rect width="56" height="36" fill="white" transform="translate(4 14)"/>
</clipPath>
</defs>
</svg>
