<svg width="201" height="25" viewBox="0 0 201 25" fill="none" xmlns="http://www.w3.org/2000/svg">
<g clip-path="url(#clip0_19_208)">
<path d="M100.772 0H0.544708V24.7283H100.772V0Z" fill="black"/>
<path d="M16.8671 8.0219C14.068 8.0219 12.6981 9.96114 12.6981 12.352C12.6981 14.7428 14.068 16.6821 16.8671 16.6821C19.6661 16.6821 21.036 14.7428 21.036 12.352C21.036 9.96114 19.6661 8.0219 16.8671 8.0219ZM16.8671 16.2029C15.1995 16.2029 14.4825 14.4244 14.4825 12.3536C14.4825 10.2828 15.1732 8.52538 16.8408 8.52538C18.5084 8.52538 19.2533 10.2828 19.2533 12.3536C19.2533 14.4244 18.5363 16.2029 16.8671 16.2029Z" fill="white"/>
<path d="M33.1529 15.9025V8.23473L31.5182 8.23793L31.51 15.9025H29.03V8.23793H27.3838L27.3821 15.8943H24.8594V9.30505C24.8594 8.76744 24.4137 8.23793 23.8644 8.23793H22.4764V8.59364C22.8432 8.59364 23.2099 8.94935 23.2099 9.30668V16.484H33.1891V18.6035H33.9226L34.3649 15.9025H33.1529Z" fill="white"/>
<path d="M43.0599 15.779C42.4975 15.0091 39.8991 8.24272 39.8991 8.24272L39.9007 8.23946H39.09L35.2565 16.4839H36.1577L37.1132 14.3822H40.6342L41.3003 15.8326C41.4877 16.2289 41.7525 16.4887 42.4218 16.4887H43.4168V16.047C43.3494 16.047 43.1586 15.9137 43.0599 15.779ZM37.3763 13.8007L39.0324 9.97087L40.3974 13.8007H37.3763Z" fill="white"/>
<path d="M69.5852 15.779C69.0225 15.0091 66.4242 8.24272 66.4242 8.24272L66.4259 8.23946H65.6148L61.7816 16.4839H62.6826L63.6386 14.3822H67.1591L67.8252 15.8326C68.0126 16.2289 68.2774 16.4887 68.9468 16.4887H69.942V16.047C69.8761 16.047 69.6838 15.9137 69.5852 15.779ZM63.9017 13.8007L65.5576 9.97087L66.9226 13.8007H63.9017Z" fill="white"/>
<path d="M52.7365 15.9592C52.4833 15.9592 52.1231 15.6181 51.8978 15.1585C51.0772 13.4807 49.0905 8.23946 49.0905 8.23946H49.0889L48.2732 8.22804L44.7144 15.904H44.2177L44.6535 18.605H45.387V16.4854H51.564V18.605H52.2974L52.7365 15.9592ZM48.2321 10.052L48.2584 10.0504L50.1151 15.0967C50.3174 15.5743 50.564 15.8358 50.888 15.9592H45.6107L48.2321 10.052Z" fill="white"/>
<path d="M57.5868 12.0856H55.7892V8.8194H59.088L59.0896 10.9178H59.7705L60.2853 8.23957L53.4044 8.23631V8.59848C53.7712 8.59848 54.1379 8.95419 54.1379 9.31152V16.4872L57.5868 16.4839C59.9579 16.4839 60.537 15.2365 60.537 14.2084C60.537 13.1072 59.9579 12.0856 57.5868 12.0856ZM57.261 15.9463H55.7892V12.6671H57.2757C58.5504 12.6671 58.9088 13.4532 58.9088 14.1678C58.9088 14.8305 58.534 15.9463 57.261 15.9463Z" fill="white"/>
<path d="M76.709 8.23788V12.0856H73.5006V9.31309C73.5006 8.77549 72.945 8.23788 72.3954 8.23788H71.0472V8.59358C71.4138 8.59358 71.7804 8.94929 71.7804 9.30657V16.4839H73.5006V12.6671H76.709V16.4839H78.3933V8.23788H76.709Z" fill="white"/>
<path d="M87.5505 15.3585C86.7579 14.5529 84.5654 12.1377 84.5654 12.1377V12.0727L87.9928 8.23315L86.9072 8.23152L83.4717 12.0711H82.916V9.31321C82.916 8.7756 82.3604 8.23804 81.8108 8.23804H80.5776V8.5937C80.9605 8.5937 81.3108 8.9494 81.3108 9.30674C81.3108 11.1015 81.3108 16.484 81.3108 16.484H82.916V12.7159H83.3916C83.7778 13.2032 85.8352 15.7158 85.8352 15.7158C86.4649 16.4336 87.2035 16.6042 87.9519 16.6042H88.6159L88.6208 16.1413C88.4237 16.1413 88.0157 15.8311 87.5505 15.3585Z" fill="white"/>
<path d="M113.822 9.72397H114.447L115.621 12.5029L116.85 9.72397H117.475L118.218 14.0963H117.341L116.943 11.4017L115.754 14.0963H115.463L114.329 11.4017L113.876 14.0963H113L113.822 9.72397Z" fill="black"/>
<path d="M119.995 9.72397V14.0963H119.132V9.72397H119.995Z" fill="black"/>
<path d="M122 9.72386V12.6344L124.429 9.72386H125.039V14.0961H124.176V11.1726L121.747 14.0961H121.137V9.72386H122ZM122.492 8.32707C122.632 8.69414 123.004 8.70713 123.091 8.70713C123.176 8.70713 123.548 8.69414 123.688 8.32707L124.285 8.56256C124.112 9.00762 123.701 9.29669 123.091 9.29669C122.481 9.29669 122.068 9.00762 121.895 8.56256L122.492 8.32707Z" fill="black"/>
<path d="M127.862 9.72397H130.424V10.4581H128.725V11.4618H129.322C129.654 11.4618 130.085 11.5138 130.431 11.8159C130.684 12.0384 130.848 12.373 130.848 12.7855C130.848 13.0811 130.756 13.3491 130.603 13.5652C130.265 14.0378 129.714 14.0963 129.329 14.0963H127.862V9.72397ZM128.725 13.3622H129.138C129.829 13.3622 129.96 13.0405 129.96 12.7921C129.96 12.5159 129.807 12.196 129.15 12.196H128.725V13.3622Z" fill="black"/>
<path d="M134.261 13.1786H132.475L132.083 14.0963H131.148L133.054 9.72397H133.731L135.583 14.0963H134.654L134.261 13.1786ZM134.009 12.4835L133.379 10.9096L132.748 12.4835H134.009Z" fill="black"/>
<path d="M137.096 11.4148H138.967V9.72239H139.831V14.0947H138.967V12.1473H137.096V14.0947H136.233V9.72239H137.096V11.4148Z" fill="black"/>
<path d="M141.836 11.5723L143.462 9.72397H144.551L142.679 11.7428L144.651 14.0963H143.51L141.936 12.1359L141.836 12.2349V14.0963H140.972V9.72397H141.836V11.5723Z" fill="black"/>
<path d="M145.659 13.1592C145.952 13.1592 146.177 13.3817 146.177 13.6708C146.177 13.9599 145.952 14.1824 145.659 14.1824C145.366 14.1824 145.141 13.9599 145.141 13.6708C145.141 13.3817 145.366 13.1592 145.659 13.1592Z" fill="black"/>
<path d="M149.408 9.72397H150.032L151.206 12.5029L152.434 9.72397H153.059L153.803 14.0963H152.926L152.528 11.4017L151.339 14.0963H151.048L149.913 11.4017L149.461 14.0963H148.584L149.408 9.72397Z" fill="black"/>
<path d="M159.233 11.9135C159.233 13.2437 158.264 14.1954 156.87 14.1954C155.475 14.1954 154.507 13.2453 154.507 11.9135C154.507 10.5816 155.475 9.62499 156.87 9.62499C158.264 9.62499 159.233 10.5816 159.233 11.9135ZM158.343 11.9135C158.343 11.0283 157.733 10.3981 156.87 10.3981C156.007 10.3981 155.396 11.0283 155.396 11.9135C155.396 12.7986 156.007 13.4207 156.87 13.4207C157.733 13.4207 158.343 12.7986 158.343 11.9135Z" fill="black"/>
<path d="M162.925 14.0963H162.062V12.4039H161.903L160.774 14.0963H159.738L161.052 12.3259C160.886 12.2999 160.707 12.2268 160.567 12.1294C160.303 11.9394 160.069 11.5788 160.069 11.0737C160.069 10.5946 160.274 10.26 160.508 10.057C160.853 9.75484 161.271 9.72239 161.643 9.72239H162.924V14.0963H162.925ZM161.796 10.4191C161.636 10.4191 160.96 10.4257 160.96 11.0753C160.96 11.738 161.638 11.738 161.81 11.738H162.064V10.4208H161.796V10.4191Z" fill="black"/>
<path d="M166.607 11.5723L168.234 9.72397H169.323L167.451 11.7428L169.423 14.0963H168.282L166.708 12.1359L166.607 12.2349V14.0963H165.744V9.72397H166.607V11.5723Z" fill="black"/>
<path d="M171.388 9.72397C171.886 9.72397 172.231 9.77592 172.556 10.0585C172.914 10.3736 173.006 10.7992 173.006 11.1143C173.006 11.2848 172.98 11.7574 172.641 12.0904C172.396 12.3324 172.031 12.477 171.519 12.477H170.962V14.0963H170.099V9.72397H171.388ZM170.962 11.7428H171.314C171.48 11.7428 171.692 11.7428 171.878 11.6048C172.037 11.4797 172.116 11.2832 172.116 11.0932C172.116 10.8511 171.997 10.6871 171.871 10.5945C171.692 10.4695 171.467 10.4565 171.26 10.4565H170.962V11.7428Z" fill="black"/>
<path d="M176.115 13.1786H174.329L173.937 14.0963H173.002L174.908 9.72397H175.585L177.437 14.0963H176.507L176.115 13.1786ZM175.861 12.4835L175.23 10.9096L174.6 12.4835H175.861Z" fill="black"/>
<path d="M178.006 8.30766C178.218 8.30766 178.39 8.53022 178.39 8.78033C178.39 9.03044 178.218 9.25293 178.006 9.25293C177.793 9.25293 177.621 9.03044 177.621 8.78033C177.621 8.53022 177.793 8.30766 178.006 8.30766ZM178.948 9.72397V14.0963H178.084V9.72397H178.948ZM179.002 8.30766C179.215 8.30766 179.387 8.53022 179.387 8.78033C179.387 9.03044 179.215 9.25293 179.002 9.25293C178.79 9.25293 178.618 9.03044 178.618 8.78033C178.618 8.53022 178.789 8.30766 179.002 8.30766Z" fill="black"/>
<path d="M180.953 11.4148H182.826V9.72239H183.689V14.0947H182.826V12.1473H180.953V14.0947H180.091V9.72239H180.953V11.4148Z" fill="black"/>
<path d="M187.452 13.1786H185.666L185.275 14.0963H184.339L186.245 9.72397H186.921L188.773 14.0963H187.843L187.452 13.1786ZM187.199 12.4835L186.569 10.9096L185.938 12.4835H187.199Z" fill="black"/>
</g>
<defs>
<clipPath id="clip0_19_208">
<rect width="201" height="25" fill="white"/>
</clipPath>
</defs>
</svg>
