<svg width="92" height="25" viewBox="0 0 92 25" fill="none" xmlns="http://www.w3.org/2000/svg">
<path fill-rule="evenodd" clip-rule="evenodd" d="M10.5804 15.9226L17.7976 23.0655L20.625 20.2381L13.4077 13.0952L14.8214 11.6815V8.92857L15.8631 7.8869V10.1934L16.8304 11.1607L20.3274 7.66368L21.2946 8.55654C21.2946 7.9613 21.1458 5.87797 19.4345 4.24107C17.5744 2.38095 15.7143 3.49702 15.0446 4.16666L11.6964 7.51488L12.5149 8.33333L10.6399 10.1934L8.77976 8.33333L9.59821 7.51488L6.1756 4.16666C5.50595 3.49702 3.64583 2.45535 1.78571 4.24107C0.14881 5.87797 0 7.9613 0 8.55654L0.892857 7.66368L4.38988 11.1607L5.35714 10.1934V7.8869L6.39881 8.92857V11.6815L7.8125 13.0952L0.744048 20.2381L3.57143 23.0655L10.5804 15.9226Z" fill="black"/>
<path fill-rule="evenodd" clip-rule="evenodd" d="M29.1071 3.05058H29.3304C30.1488 3.05058 31.1161 3.19939 31.1161 4.24106C31.1161 5.28273 30.2232 5.43154 29.3304 5.43154H29.1071V3.05058ZM31.6369 6.91963C33.0506 6.69642 33.7946 5.50594 33.7946 4.16665C33.7946 2.08332 32.3065 1.11606 30.372 1.11606H26.5774V10.8631H29.1071V7.06844L31.4881 10.8631H34.6875L31.6369 6.91963Z" fill="black"/>
<path fill-rule="evenodd" clip-rule="evenodd" d="M38.8542 6.02678C39.8214 6.02678 40.3423 6.69643 40.3423 7.51488C40.3423 8.33333 39.747 9.00298 38.8542 9.00298C37.8869 9.00298 37.3661 8.33333 37.3661 7.51488C37.2917 6.77083 37.8869 6.02678 38.8542 6.02678ZM42.6488 4.24107H40.2678V4.83631C39.747 4.24107 39.003 3.94345 38.1845 3.94345C36.25 3.94345 34.8363 5.58036 34.8363 7.44048C34.8363 9.375 36.25 11.0119 38.1845 11.0119C38.9286 11.0119 39.747 10.7143 40.1934 10.0446V10.7887H42.5744V4.24107H42.6488Z" fill="black"/>
<path fill-rule="evenodd" clip-rule="evenodd" d="M46.5923 10.8631H44.2113V4.24106H46.5923V10.8631ZM46.6667 1.7113C46.6667 2.45534 46.0714 3.05058 45.3274 3.05058C44.5833 3.05058 43.9881 2.45534 43.9881 1.7113C44.0625 0.967247 44.6577 0.372009 45.4018 0.372009C46.0714 0.372009 46.6667 0.967247 46.6667 1.7113Z" fill="black"/>
<path fill-rule="evenodd" clip-rule="evenodd" d="M50.6845 10.8631H48.378V6.1756H47.5595V4.24107H48.378V3.42262C48.378 2.52976 48.378 1.86012 49.0476 1.11607C49.5684 0.372024 50.4613 0 51.3542 0C51.7262 0 52.0238 0.0744048 52.3958 0.223214V2.23214C52.0982 2.08333 51.875 2.00893 51.5774 2.00893C50.9821 2.00893 50.7589 2.38095 50.7589 3.125V4.24107H52.3958V6.1756H50.7589V10.8631H50.6845Z" fill="black"/>
<path fill-rule="evenodd" clip-rule="evenodd" d="M55.744 10.8631H53.3631V6.17559H52.5446V4.24107H53.3631V3.42262C53.3631 2.52976 53.3631 1.86012 54.0327 1.11607C54.628 0.446426 55.4464 0.0744019 56.3393 0.0744019C56.7113 0.0744019 57.0089 0.148807 57.3809 0.297616V2.30655C57.0833 2.15774 56.8601 2.08333 56.5625 2.08333C55.9673 2.08333 55.744 2.45535 55.744 3.1994V4.31547H57.3809V6.25H55.744V10.8631Z" fill="black"/>
<path fill-rule="evenodd" clip-rule="evenodd" d="M60.0595 6.62205C60.2083 5.95241 60.8036 5.58038 61.4732 5.58038C62.1428 5.58038 62.6637 6.02681 62.8125 6.62205H60.0595ZM64.9554 7.73812C64.9554 5.50598 63.6161 4.01788 61.3095 4.01788C59.1518 4.01788 57.5893 5.35717 57.5893 7.58931C57.5893 9.89586 59.2262 11.0863 61.4583 11.0863C62.9464 11.0863 64.5089 10.3423 64.8065 8.85419H62.5744C62.3512 9.30062 61.9792 9.44943 61.4583 9.44943C60.4911 9.44943 59.9702 8.9286 59.9702 7.96134H64.9554V7.73812Z" fill="black"/>
<path fill-rule="evenodd" clip-rule="evenodd" d="M68.3929 10.8631H66.0119V4.24106H68.3929V10.8631ZM68.5417 1.7113C68.5417 2.45534 67.9464 3.05058 67.2024 3.05058C66.4583 3.05058 65.8631 2.45534 65.8631 1.7113C65.8631 0.967247 66.4583 0.372009 67.2024 0.372009C67.9464 0.372009 68.5417 0.967247 68.5417 1.7113Z" fill="black"/>
<path fill-rule="evenodd" clip-rule="evenodd" d="M74.3452 5.95238C73.9732 5.72917 73.4524 5.58036 73.0804 5.58036C72.7827 5.58036 72.3363 5.72917 72.3363 6.02679C72.3363 6.47322 73.0804 6.54762 73.378 6.62203C74.4941 6.84524 75.3125 7.36607 75.3125 8.55655C75.3125 10.3423 73.75 11.0119 72.1875 11.0119C71.2202 11.0119 70.3274 10.7143 69.5089 10.2679L70.3274 8.63095C70.8482 9.00298 71.5923 9.3006 72.1875 9.3006C72.4851 9.3006 72.9316 9.15179 72.9316 8.77976C72.9316 8.25893 72.1875 8.25893 71.4435 8.03572C70.6994 7.8125 69.9554 7.44048 69.9554 6.25C69.9554 4.6131 71.4435 3.86905 72.8571 3.86905C73.6012 3.86905 74.3452 4.01786 75.0149 4.31548L74.3452 5.95238Z" fill="black"/>
<path fill-rule="evenodd" clip-rule="evenodd" d="M78.5119 6.62205C78.6607 5.95241 79.2559 5.58038 79.9256 5.58038C80.5952 5.58038 81.1161 6.02681 81.2649 6.62205H78.5119ZM83.4226 7.73812C83.4226 5.50598 82.0833 4.01788 79.7768 4.01788C77.619 4.01788 76.0565 5.35717 76.0565 7.58931C76.0565 9.89586 77.6934 11.0863 79.9256 11.0863C81.4137 11.0863 82.9762 10.3423 83.2738 8.85419H81.0417C80.8184 9.30062 80.4464 9.44943 79.9256 9.44943C78.9583 9.44943 78.4375 8.9286 78.4375 7.96134H83.4226C83.4077 7.96134 83.4077 7.73812 83.4226 7.73812Z" fill="black"/>
<path fill-rule="evenodd" clip-rule="evenodd" d="M86.8452 5.13395C87.4405 4.3155 88.1101 4.01788 89.003 4.01788C90.7887 4.01788 91.5327 5.13395 91.5327 6.77086V10.8631H89.1518V7.66372C89.1518 6.99407 89.2262 5.878 88.1101 5.878C87.1429 5.878 86.8452 6.62205 86.8452 7.4405V10.8631H84.4643V4.16669H86.8452V5.13395Z" fill="black"/>
<path fill-rule="evenodd" clip-rule="evenodd" d="M29.8512 20.9821H30.0744C30.8929 20.9821 32.1577 20.8333 32.0089 22.0238C31.8601 23.1399 30.5952 23.0655 29.8512 23.0655H29.4792L29.8512 20.9821ZM30.5952 25C32.3809 25 34.2411 24.3303 34.5387 22.247C34.7619 20.9077 34.3155 19.9405 32.9762 19.7172C33.7946 19.2708 34.2411 18.6012 34.3899 17.7083C34.6875 15.8482 33.6458 15.1786 31.8601 15.1786H28.2143L26.6518 25H30.5952ZM30.4315 17.1875H30.5803C31.25 17.1875 32.0684 17.2619 31.9196 18.1547C31.7708 18.9732 31.1012 19.122 30.4315 19.122H30.1339L30.4315 17.1875Z" fill="black"/>
<path fill-rule="evenodd" clip-rule="evenodd" d="M41.3095 21.3542H39.2262L40.7887 18.2292L41.3095 21.3542ZM41.6816 23.2887L42.0536 25H44.7321L42.5744 15.1786H39.8214L34.5387 25H37.2173L38.1845 23.2887H41.6816Z" fill="black"/>
<path fill-rule="evenodd" clip-rule="evenodd" d="M47.0982 15.1786H49.628L53.3482 21.1309L54.3155 15.1786H56.8452L55.2827 25H52.8274L49.1071 18.9732L48.1399 25H45.6101L47.0982 15.1786Z" fill="black"/>
<path fill-rule="evenodd" clip-rule="evenodd" d="M64.2113 15.1786H67.3363L62.7232 19.7917L66.1458 24.9256H62.872L60.2679 20.6845L59.5982 24.9256H57.0685L58.631 15.1042H61.1607L60.5655 19.122L64.2113 15.1786Z" fill="black"/>
</svg>
