<svg width="107" height="22" viewBox="0 0 107 22" fill="none" xmlns="http://www.w3.org/2000/svg">
<mask id="mask0_20_339" style="mask-type:luminance" maskUnits="userSpaceOnUse" x="0" y="-1" width="23" height="23">
<path d="M21.5068 21.5V0.493164H0.5V21.5H21.5068Z" fill="white" stroke="white"/>
</mask>
<g mask="url(#mask0_20_339)">
<path d="M21.5068 21.5V0.493164H0.5V21.5H21.5068Z" stroke="#231F20"/>
</g>
<path d="M17.8741 9.36197C17.945 9.16237 18.0194 8.91236 18.0889 8.63052C18.1979 8.18888 18.2992 7.67508 18.38 7.16959C18.4608 6.66383 18.5204 6.16714 18.546 5.76041C18.5587 5.55708 18.5636 5.37713 18.5577 5.23013C18.5518 5.08144 18.535 4.97282 18.5108 4.90787L18.4923 4.85806L18.5372 4.82877C18.9413 4.56087 19.1406 4.37776 19.2647 4.22037C19.3658 4.09227 19.4175 3.98406 19.4903 3.8483C18.7316 3.91306 18.3037 3.92567 17.8887 4.05533L17.8594 4.06412L17.8341 4.04849C16.786 3.40758 14.6864 2.74415 12.8624 2.53873C13.2362 2.72326 13.7739 3.00785 14.2901 3.30338C14.6488 3.50876 14.9989 3.72029 15.2784 3.90591C15.4181 3.99869 15.541 4.08552 15.6387 4.16275C15.7351 4.2389 15.8115 4.30939 15.8546 4.3688L15.92 4.45865L15.8096 4.4733C15.1714 4.55963 14.2445 4.78518 13.3223 5.07095C12.6113 5.29131 11.9067 5.54776 11.3419 5.8024C12.6982 5.55425 14.3905 5.41698 15.5958 5.35318L15.7296 5.34634L15.6544 5.4567C15.1845 6.14639 14.8929 6.53733 14.2423 7.25943C14.782 6.94851 15.1705 6.7516 15.5489 6.56412C16.0071 6.33715 16.4484 6.12104 17.1251 5.7233L17.1788 5.69205L17.2139 5.7438C17.4827 6.13833 17.6449 6.78032 17.7423 7.48795C17.8253 8.09157 17.8598 8.75116 17.8741 9.36197Z" fill="#231F20" stroke="#231F20" stroke-width="0.133333"/>
<path d="M5.04745 18.5036C4.95941 18.1111 4.94139 17.7624 4.98885 17.3268L4.99764 17.2477L5.07381 17.2692C5.66948 17.4428 6.19314 17.5476 6.81991 17.5924C6.21483 17.3301 5.73047 17.012 5.2076 16.5231L5.17538 16.4928L5.191 16.4518C5.36318 15.977 5.5594 15.5984 5.85897 15.1403C5.29707 15.2245 4.86073 15.2914 4.35799 15.3864L4.3121 15.3952L4.28768 15.3541C3.89701 14.6704 3.69506 14.0068 3.4996 13.1588C3.41235 14.0602 3.39289 14.7546 3.52792 15.5163L3.53768 15.5758L3.48006 15.5924C3.029 15.7177 2.69851 15.8299 2.33749 15.986C2.86514 16.307 3.31067 16.562 3.91171 16.8424L3.93417 16.8522L3.94393 16.8746C4.25254 17.536 4.56901 18.004 5.04745 18.5036Z" fill="#231F20" stroke="#231F20" stroke-width="0.133333"/>
<path d="M3.96034 11.602C4.16583 11.4143 4.44904 11.1591 4.76015 10.8891C5.38004 10.351 6.11807 9.7469 6.56972 9.50528L6.64198 9.46622L6.66542 9.54532L6.6664 9.54922L6.68593 9.6127C6.69915 9.65632 6.71855 9.71929 6.74257 9.79727C6.79084 9.954 6.85826 10.1715 6.93593 10.4125C7.06386 10.8095 7.21863 11.2701 7.3578 11.6342C7.3613 11.615 7.36559 11.5948 7.36952 11.5736C7.40374 11.3894 7.45444 11.1323 7.51991 10.8432C7.65056 10.2662 7.84125 9.55403 8.08144 9.02774L8.0912 9.00821L8.10976 8.99747L8.11366 8.99551C8.11577 8.99445 8.1191 8.99311 8.12245 8.99161C8.12909 8.98863 8.1382 8.9844 8.15077 8.97989C8.17638 8.97071 8.21631 8.95864 8.27577 8.94473C8.39459 8.91695 8.59428 8.88197 8.92226 8.85098C9.53737 8.7959 10.3866 8.76105 11.9203 9.00723C11.7407 8.90892 11.4908 8.77851 11.185 8.642C10.5337 8.35133 9.63348 8.02705 8.63612 7.892L8.56093 7.88223L8.58144 7.80801C8.62129 7.66519 8.71262 7.44501 8.82362 7.22305C8.90459 7.06117 8.99753 6.89532 9.09023 6.7543C8.90478 6.8091 8.64227 6.91221 8.3539 7.05118C7.96536 7.23842 7.53792 7.48627 7.1996 7.75333L7.17812 7.76993L7.15175 7.767H7.14687C7.14341 7.7667 7.13817 7.76561 7.13124 7.76505C7.11729 7.76392 7.09623 7.76299 7.06874 7.76114C7.01367 7.75743 6.93211 7.7525 6.82655 7.74844C6.61536 7.74032 6.30819 7.73467 5.92519 7.74551H5.92616C5.54517 7.76316 5.10526 7.81859 4.7123 7.88907C4.48839 7.92923 4.28136 7.97457 4.10976 8.01993C4.40138 8.04923 4.71169 8.09892 4.9994 8.17325C5.40126 8.27706 5.77152 8.42897 5.98085 8.64102L6.02968 8.69083L5.97792 8.7377L5.97499 8.74063C5.97303 8.74243 5.96999 8.74491 5.9662 8.74844C5.95791 8.75618 5.94541 8.76874 5.92909 8.78458C5.8964 8.8163 5.84801 8.86431 5.78651 8.92911C5.66348 9.05873 5.48699 9.25522 5.27577 9.52188C4.8968 10.0004 4.40533 10.7047 3.90468 11.6527C3.9225 11.6364 3.94113 11.6195 3.96034 11.602Z" fill="#231F20" stroke="#231F20" stroke-width="0.133333"/>
<path d="M8.84268 19.0223C9.45718 18.8522 10.1629 18.5991 10.7108 18.2752L10.7274 18.2655H10.747C11.0606 18.2776 11.3541 18.2591 11.581 18.2215C11.5298 18.0493 11.4935 17.9017 11.4482 17.6668L11.4403 17.6268L11.4726 17.6014C11.9063 17.2656 12.2575 16.9509 12.6064 16.6141C12.2523 16.8362 11.896 17.0337 11.4677 17.2362L11.3817 17.2772L11.373 17.1825C11.3502 16.9382 11.3362 16.7243 11.3232 16.4715C11.0119 16.8873 10.7302 17.2347 10.3759 17.6307L10.3622 17.6454L10.3437 17.6502L10.0937 17.7166C9.61917 17.8347 9.19984 17.8919 8.73721 17.9081C9.04717 18.0432 9.35479 18.1353 9.68253 18.2039L9.81143 18.2313L9.71378 18.3192C9.40429 18.5992 9.12906 18.8208 8.84268 19.0223Z" fill="#231F20" stroke="#231F20" stroke-width="0.133333"/>
<path d="M29.2603 15.3094C29.0702 15.3094 28.8797 15.3236 28.785 15.3378C28.7628 15.8505 28.7552 16.0988 28.7552 16.6835C28.7552 17.3943 28.7552 17.6568 28.785 18.2207H29.3555C30.0283 18.2207 30.3505 18.0226 30.3505 17.6132C30.3505 17.1593 29.9332 16.947 29.3845 16.947H29.0556L29.2821 16.3547H29.5238C29.8014 16.3547 30.1749 16.2088 30.1749 15.8505C30.1749 15.4695 29.8312 15.3094 29.2603 15.3094ZM29.8602 14.8109C30.5918 14.8109 31.3892 15.0744 31.3892 15.7472C31.3892 16.113 31.0746 16.4428 30.6064 16.6039C31.2281 16.8304 31.5869 17.1886 31.5869 17.6568C31.5869 18.4765 30.5918 18.7542 29.655 18.7542H27.5119C27.5631 18.2425 27.5776 17.5033 27.5776 16.6835C27.5776 16.1434 27.57 15.3236 27.5189 14.8109H29.8602Z" fill="#231F20"/>
<path d="M35.9324 14.8109C35.896 15.2573 35.8736 16.2959 35.8736 16.6835C35.8736 17.0427 35.8812 18.2131 35.9324 18.7542H35.0032L33.5107 16.5527C33.3865 16.3765 33.2987 16.2088 33.2618 16.0107V17.2616C33.2618 17.7373 33.2766 18.4112 33.3206 18.7542H32.2597C32.3255 18.1553 32.3331 17.0276 32.3331 16.6835C32.3331 16.3111 32.3109 15.2573 32.2819 14.8109H33.4888L34.7474 16.8598C34.8131 16.9622 34.835 17.0133 34.8643 17.1015V14.8109H35.9324Z" fill="#231F20"/>
<path d="M38.0978 15.3596C38.0978 15.6155 38.0836 15.8799 38.0836 16.1358C38.0836 16.3253 38.0908 16.4713 38.0978 16.6115C38.1414 16.6181 38.3467 16.6181 38.4784 16.6181C38.8954 16.6181 39.4734 16.5016 39.4734 15.9671C39.4734 15.4478 38.8806 15.352 38.4342 15.352C38.376 15.352 38.1566 15.352 38.0978 15.3596ZM38.8072 14.8109C39.6634 14.8109 40.695 15.0526 40.695 15.9671C40.695 16.7717 39.9634 17.1744 38.4784 17.1744C38.3906 17.1744 38.149 17.1744 38.0836 17.1668C38.1126 17.7156 38.1054 18.3808 38.1414 18.7542H36.8468C36.898 18.2131 36.9128 17.3204 36.9128 16.6835C36.9128 16.1206 36.898 15.1843 36.8468 14.8109H38.8072Z" fill="#231F20"/>
<path d="M44.0678 15.3596C44.0678 15.6155 44.053 15.8799 44.053 16.1358C44.053 16.3253 44.0606 16.4713 44.0678 16.6115C44.1114 16.6181 44.3165 16.6181 44.4478 16.6181C44.8652 16.6181 45.4429 16.5016 45.4429 15.9671C45.4429 15.4478 44.8506 15.352 44.4042 15.352C44.3458 15.352 44.126 15.352 44.0678 15.3596ZM44.777 14.8109C45.6333 14.8109 46.6648 15.0526 46.6648 15.9671C46.6648 16.7717 45.9332 17.1744 44.4478 17.1744C44.3601 17.1744 44.119 17.1744 44.053 17.1668C44.0824 17.7156 44.0748 18.3808 44.1114 18.7542H42.8169C42.868 18.2131 42.8822 17.3204 42.8822 16.6835C42.8822 16.1206 42.868 15.1843 42.8169 14.8109H44.777Z" fill="#231F20"/>
<path d="M48.8564 17.2919C48.7031 16.911 48.4906 16.4352 48.3883 16.1064C48.2783 16.4428 48.0443 16.9622 47.9277 17.2919C48.0736 17.2986 48.2711 17.3062 48.4029 17.3062C48.5857 17.3062 48.6812 17.2986 48.8564 17.2919ZM48.9661 14.8109C49.1126 15.2791 50.4149 18.1183 50.7148 18.7542H49.4197C49.3688 18.6007 49.2664 18.3884 49.0757 17.8909C48.8787 17.8842 48.6735 17.8842 48.4029 17.8842C48.1394 17.8842 47.9489 17.8909 47.7372 17.8985C47.6201 18.2207 47.5174 18.4765 47.4226 18.7542H46.2958C46.5151 18.2643 47.8102 15.4402 48.0443 14.8109H48.9661Z" fill="#231F20"/>
<path d="M53.1365 14.8109C53.9996 14.8109 55.0312 15.1189 55.0312 16.0334C55.0312 16.5234 54.6654 16.874 54.0947 17.1015C54.2117 17.3062 55.1705 18.5495 55.3602 18.7542H53.9487C53.6993 18.2785 53.2243 17.4597 52.7561 16.7641C53.3189 16.838 53.8094 16.567 53.8094 16.0258C53.8094 15.5065 53.2097 15.352 52.9167 15.352C52.7852 15.352 52.5362 15.352 52.4484 15.3596C52.4266 15.8429 52.4193 16.421 52.4193 16.6835C52.4193 17.0276 52.4193 18.1553 52.4848 18.7542H51.1684C51.2339 18.1695 51.249 17.4748 51.249 16.6835C51.249 16.0183 51.2417 15.2137 51.183 14.8109H53.1365Z" fill="#231F20"/>
<path d="M57.1744 14.8109C57.1453 15.2573 57.1234 16.3111 57.1234 16.6911C57.1234 17.0427 57.1234 18.2131 57.1744 18.7542H55.8726C55.9386 18.1553 55.9453 17.0276 55.9453 16.6911C55.9453 16.3187 55.9235 15.2573 55.8944 14.8109H57.1744Z" fill="#231F20"/>
<path d="M59.7717 15.3094C59.5815 15.3094 59.3913 15.3236 59.2967 15.3378C59.2744 15.8505 59.2671 16.0988 59.2671 16.6835C59.2671 17.3943 59.2671 17.6568 59.2967 18.2207H59.8668C60.5403 18.2207 60.862 18.0226 60.862 17.6132C60.862 17.1593 60.4452 16.947 59.8959 16.947H59.567L59.7935 16.3547H60.0352C60.3132 16.3547 60.6863 16.2088 60.6863 15.8505C60.6863 15.4695 60.3428 15.3094 59.7717 15.3094ZM60.3714 14.8109C61.1031 14.8109 61.9008 15.0744 61.9008 15.7472C61.9008 16.113 61.5859 16.4428 61.1177 16.6039C61.7397 16.8304 62.0983 17.1886 62.0983 17.6568C62.0983 18.4765 61.1031 18.7542 60.1667 18.7542H58.023C58.0749 18.2425 58.089 17.5033 58.089 16.6835C58.089 16.1434 58.0822 15.3236 58.0308 14.8109H60.3714Z" fill="#231F20"/>
<path d="M64.8053 17.2919C64.6515 16.911 64.439 16.4352 64.3371 16.1064C64.2274 16.4428 63.9931 16.9622 63.8761 17.2919C64.0222 17.2986 64.2197 17.3062 64.3511 17.3062C64.5341 17.3062 64.6297 17.2986 64.8053 17.2919ZM64.915 14.8109C65.061 15.2791 66.3633 18.1183 66.6632 18.7542H65.3686C65.3177 18.6007 65.2148 18.3884 65.0246 17.8909C64.8271 17.8842 64.6224 17.8842 64.3511 17.8842C64.0882 17.8842 63.898 17.8909 63.6854 17.8985C63.569 18.2207 63.4661 18.4765 63.3715 18.7542H62.2448C62.4642 18.2643 63.7592 15.4402 63.9931 14.8109H64.915Z" fill="#231F20"/>
<path d="M68.6977 14.7086C69.2023 14.7086 69.6924 14.7815 69.9995 14.8772V15.8799C69.5677 15.6306 69.1431 15.4184 68.5798 15.4184C68.1339 15.4184 68.1047 15.5946 68.1047 15.7254C68.1047 16.3916 70.3508 16.3983 70.3508 17.5914C70.3508 18.3666 69.6264 18.8566 68.4192 18.8566C67.8781 18.8566 67.3658 18.7466 67.0145 18.6234V17.6644C67.8418 18.052 68.2799 18.1761 68.6603 18.1761C68.9679 18.1761 69.1945 18.0378 69.1945 17.7743C69.1945 17.0209 66.9562 17.0939 66.9562 15.8136C66.9562 15.1113 67.6583 14.7086 68.6977 14.7086Z" fill="#231F20"/>
<path d="M76.7269 16.838C76.7046 17.2256 76.6833 18.0453 76.6682 18.5135C76.2437 18.7324 75.578 18.8566 74.9346 18.8566C73.4712 18.8566 72.5347 17.9354 72.5347 16.8011C72.5347 15.6088 73.5153 14.7086 75.1175 14.7086C75.4833 14.7086 76.0321 14.7673 76.4198 14.8621L76.1345 15.6383C75.8638 15.4695 75.4101 15.3302 75.1029 15.3302C74.181 15.3302 73.8521 16.15 73.8521 16.8086C73.8521 17.9127 74.444 18.2718 75.1097 18.2718C75.1903 18.2718 75.447 18.2643 75.527 18.2425C75.527 17.7667 75.5197 17.1593 75.4834 16.838H76.7269Z" fill="#231F20"/>
<path d="M79.4553 14.8109C80.319 14.8109 81.3505 15.1189 81.3505 16.0334C81.3505 16.5234 80.9847 16.874 80.4141 17.1015C80.5315 17.3062 81.4898 18.5495 81.6795 18.7542H80.2675C80.0191 18.2785 79.5436 17.4597 79.0749 16.7641C79.6387 16.838 80.1288 16.567 80.1288 16.0258C80.1288 15.5065 79.529 15.352 79.236 15.352C79.105 15.352 78.8561 15.352 78.7677 15.3596C78.7459 15.8429 78.7391 16.421 78.7391 16.6835C78.7391 17.0276 78.7391 18.1553 78.8046 18.7542H77.4882C77.5533 18.1695 77.5683 17.4748 77.5683 16.6835C77.5683 16.0183 77.5605 15.2137 77.5023 14.8109H79.4553Z" fill="#231F20"/>
<path d="M84.0357 15.2137C83.4651 15.2137 83.1065 15.77 83.1065 16.7868C83.1065 17.8027 83.4651 18.3448 84.0357 18.3448C84.599 18.3448 84.9503 17.8027 84.9503 16.7868C84.9503 15.77 84.599 15.2137 84.0357 15.2137ZM84.0357 18.8641C82.8066 18.8641 81.8847 18.0226 81.8847 16.7868C81.8847 15.5425 82.8066 14.7086 84.0357 14.7086C85.257 14.7086 86.1794 15.5425 86.1794 16.7868C86.1794 18.0226 85.257 18.8641 84.0357 18.8641Z" fill="#231F20"/>
<path d="M88.0081 14.8109C87.9858 15.0744 87.979 15.3454 87.979 15.6231V17.5033C87.979 18.016 88.1396 18.3154 88.6447 18.3154C89.0833 18.3154 89.5152 18.1401 89.5152 17.3346V15.426C89.5152 15.0241 89.5074 14.9796 89.4788 14.8109H90.5686C90.5249 15.1549 90.5249 15.7984 90.5249 16.4352V17.5544C90.5249 18.4614 89.8878 18.8566 88.6301 18.8566C87.4889 18.8566 86.7868 18.6158 86.7868 17.4966V16.0552C86.7868 15.6894 86.7718 15.0895 86.7281 14.8109H88.0081Z" fill="#231F20"/>
<path d="M92.588 15.3596C92.588 15.6155 92.5735 15.8799 92.5735 16.1358C92.5735 16.3253 92.5807 16.4713 92.588 16.6115C92.6322 16.6181 92.8369 16.6181 92.9684 16.6181C93.3852 16.6181 93.9631 16.5016 93.9631 15.9671C93.9631 15.4478 93.3707 15.352 92.9243 15.352C92.866 15.352 92.6462 15.352 92.588 15.3596ZM93.2974 14.8109C94.1533 14.8109 95.1849 15.0526 95.1849 15.9671C95.1849 16.7717 94.4537 17.1744 92.9684 17.1744C92.8801 17.1744 92.639 17.1744 92.5735 17.1668C92.6026 17.7156 92.5948 18.3808 92.6322 18.7542H91.3371C91.3881 18.2131 91.4022 17.3204 91.4022 16.6835C91.4022 16.1206 91.3881 15.1843 91.3371 14.8109H93.2974Z" fill="#231F20"/>
<path d="M29.5715 3.28167C29.528 3.79493 29.5171 4.29664 29.5171 4.81028V8.8271C29.5171 9.5473 29.888 10.1476 31.0448 10.1476C32.0384 10.1476 32.7042 9.83105 32.7042 8.18303V4.41697C32.7042 3.60919 32.6824 3.53277 32.6496 3.28167H34.32C34.2322 3.8385 34.2322 5.13722 34.2322 6.41468V8.63035C34.2322 10.3551 33.2173 11.0754 30.8812 11.0754C28.7638 11.0754 27.5956 10.5187 27.5956 8.24844V5.66183C27.5956 4.91926 27.5738 3.75131 27.5081 3.28167H29.5715Z" fill="#231F20"/>
<path d="M42.9628 3.28167C42.5591 3.70715 40.4632 6.05417 39.9065 6.61143C40.3428 7.20028 42.8751 10.4641 43.3337 10.9228H40.9215C40.4192 10.0932 38.9564 8.17226 38.2579 7.28806C38.2579 8.20482 38.269 10.006 38.3675 10.9228H36.2495C36.3584 9.86385 36.3698 7.59321 36.3698 6.92735C36.3698 6.18532 36.3262 4.1664 36.2603 3.28167H38.3561C38.3016 4.08964 38.2579 5.82524 38.2579 6.69804C39.6226 5.32295 40.2775 4.35156 41.0744 3.28167H42.9628Z" fill="#231F20"/>
<path d="M48.1129 3.28167C49.7172 3.28167 51.6275 3.72952 51.6275 5.49734C51.6275 6.49105 51.0491 7.15729 49.903 7.5064C50.0665 7.83334 51.9113 10.639 52.217 10.9228H49.9355C49.4333 9.97322 48.2982 8.05188 47.4685 6.8076C47.6106 6.84016 47.8182 6.86199 48.0585 6.86199C48.7239 6.86199 49.6628 6.38207 49.6628 5.49734C49.6628 4.39518 48.3308 4.19862 47.6652 4.19862C47.3269 4.19862 46.9994 4.22079 46.8354 4.24224C46.7918 5.19219 46.77 6.38207 46.77 6.91697C46.77 7.59321 46.77 9.85284 46.89 10.9228H44.7619C44.8709 9.86385 44.8927 8.49919 44.8927 6.91697C44.8927 5.58506 44.8818 3.99148 44.7833 3.28167H48.1129Z" fill="#231F20"/>
<path d="M56.3733 3.12907C57.3127 3.12907 58.1744 3.27085 58.7203 3.42379V5.10461C58.0546 4.73352 57.3345 4.38436 56.1229 4.38436C55.0312 4.38436 54.9657 4.78811 54.9657 5.07181C54.9657 6.45825 59.3976 6.27251 59.3976 8.69576C59.3976 10.1912 58.0652 11.0754 55.8172 11.0754C54.7799 11.0754 53.874 10.8896 53.2733 10.6826V9.01284C54.6382 9.65667 55.5004 9.87467 56.2753 9.87467C57.138 9.87467 57.5854 9.62353 57.5854 9.05641C57.5854 7.56099 53.1534 7.77895 53.1534 5.23576C53.1534 3.89289 54.4417 3.12907 56.3733 3.12907Z" fill="#231F20"/>
<path d="M63.2483 3.28167C63.1828 4.1664 63.1391 6.17455 63.1391 6.92735C63.1391 7.59321 63.1503 9.86385 63.2483 10.9228H61.1313C61.24 9.86385 61.2511 7.59321 61.2511 6.92735C61.2511 6.18532 61.207 4.1664 61.1526 3.28167H63.2483Z" fill="#231F20"/>
<path d="M67.9956 4.13321C67.7447 4.13321 67.4609 4.15505 67.3192 4.17683C67.2755 5.19219 67.2532 5.73766 67.2532 6.91697C67.2532 8.30302 67.2532 8.88149 67.3075 10.006C67.5589 10.0168 67.9631 10.0168 68.1926 10.0168C69.6662 10.0168 70.3969 9.59092 70.3969 8.73932C70.3969 7.73537 69.1853 7.37525 68.2687 7.37525H67.8427L68.2687 6.2943H68.5308C69.1528 6.2943 70.0369 6.01098 70.0369 5.24677C70.0369 4.43875 69.491 4.13321 67.9956 4.13321ZM69.1746 3.28167C70.5386 3.28167 71.9796 3.78391 71.9796 5.05002C71.9796 5.81442 71.3358 6.49105 70.3644 6.7422C71.6851 7.14589 72.3731 7.85571 72.3731 8.8271C72.3731 10.3769 70.5386 10.9228 68.7928 10.9228H65.2449C65.3429 9.91824 65.3648 8.47775 65.3648 6.91697C65.3648 5.86881 65.3541 4.2862 65.2561 3.28167H69.1746Z" fill="#231F20"/>
<path d="M76.497 4.13321C76.2456 4.13321 75.9618 4.15505 75.8201 4.17683C75.7764 5.19219 75.7541 5.73766 75.7541 6.91697C75.7541 8.30302 75.7541 8.88149 75.8089 10.006C76.0598 10.0168 76.464 10.0168 76.693 10.0168C78.1671 10.0168 78.8983 9.59092 78.8983 8.73932C78.8983 7.73537 77.6867 7.37525 76.7696 7.37525H76.3436L76.7696 6.2943H77.0317C77.6537 6.2943 78.5382 6.01098 78.5382 5.24677C78.5382 4.43875 77.9924 4.13321 76.497 4.13321ZM77.6755 3.28167C79.0399 3.28167 80.481 3.78391 80.481 5.05002C80.481 5.81442 79.8371 6.49105 78.8658 6.7422C80.186 7.14589 80.8736 7.85571 80.8736 8.8271C80.8736 10.3769 79.0399 10.9228 77.2932 10.9228H73.7463C73.8443 9.91824 73.8661 8.47775 73.8661 6.91697C73.8661 5.86881 73.855 4.2862 73.7565 3.28167H77.6755Z" fill="#231F20"/>
<path d="M86.4491 8.11767C85.9474 6.91697 85.5112 5.8906 85.3574 5.53048C85.0085 6.27251 84.6267 7.14589 84.223 8.11767C84.55 8.12806 84.9974 8.13907 85.3574 8.13907C85.7072 8.13907 86.0784 8.12806 86.4491 8.11767ZM86.2643 3.28167C86.5588 4.06786 89.0693 9.65667 89.6588 10.9228H87.552C87.4322 10.5737 87.1808 9.94003 86.8528 9.12182C86.4171 9.1108 85.9693 9.09945 85.3472 9.09945C84.7688 9.09945 84.3317 9.1108 83.83 9.12182C83.5898 9.76564 83.3933 10.3551 83.2186 10.9228H81.385C81.8212 9.97322 84.3865 4.40615 84.7907 3.28167H86.2643Z" fill="#231F20"/>
<path d="M97.5377 3.28167C97.4615 4.15505 97.4178 6.17455 97.4178 6.91697C97.4178 7.59321 97.428 9.86385 97.5483 10.9228H96.1184L92.8437 6.10914C92.5604 5.68308 92.4837 5.46512 92.4294 5.26856C92.4294 6.43646 92.4182 7.01513 92.4182 8.05188C92.4182 8.99047 92.44 10.3333 92.5162 10.9228H90.7369C90.8461 9.86385 90.8573 7.59321 90.8573 6.91697C90.8573 6.17455 90.8141 4.15505 90.7593 3.28167H92.7675L95.2125 6.87296C95.7366 7.63717 95.8462 7.80073 95.9326 8.08448H95.9442C95.8782 7.13493 95.8569 6.15276 95.8127 5.20257L95.7365 3.28167H97.5377Z" fill="#231F20"/>
<path d="M106.192 3.28167C105.788 3.70715 103.692 6.05417 103.135 6.61143C103.572 7.20028 106.104 10.4641 106.563 10.9228H104.151C103.648 10.0932 102.186 8.17226 101.487 7.28806C101.487 8.20482 101.497 10.006 101.596 10.9228H99.4785C99.5877 9.86385 99.5983 7.59321 99.5983 6.92735C99.5983 6.18532 99.5552 4.1664 99.4892 3.28167H101.585C101.53 4.08964 101.487 5.82524 101.487 6.69804C102.851 5.32295 103.507 4.35156 104.303 3.28167H106.192Z" fill="#231F20"/>
</svg>
