<svg width="64" height="64" viewBox="0 0 64 64" fill="none" xmlns="http://www.w3.org/2000/svg">
<rect width="64" height="64" fill="#2722FF"/>
<path d="M19.6122 35.9714C17.5776 35.9714 16.0654 34.5639 15.8703 32.571H23.8768C24.7617 29.0451 22.7967 26.4041 19.2638 26.4041C16.2744 26.4041 13.8286 28.9823 13.8286 32.1389C13.8286 35.4071 16.3163 37.8738 19.6053 37.8738C22.0929 37.8738 24.0022 36.5986 24.8663 34.6475L23.2078 33.6093C22.6852 35.0168 21.4309 35.9714 19.6122 35.9714ZM19.2638 28.2437C21.1034 28.2437 22.1835 29.3238 22.1417 30.9265H15.9749C16.3442 29.2402 17.5566 28.2437 19.2638 28.2437Z" fill="white"/>
<path d="M31.8832 26.4041C30.4338 26.4041 29.2213 27.0731 28.3573 28.0068V26.7246H26.4062V37.5463H28.3573V31.8533C28.3573 29.9509 29.6534 28.3064 31.7787 28.3064C33.5556 28.3064 34.6147 29.4353 34.6147 31.0589V37.5532H36.5658V30.8846C36.5589 27.9998 34.761 26.4041 31.8832 26.4041Z" fill="white"/>
<path d="M54.739 37.8738C57.2267 37.8738 59.136 36.5986 60 34.6475L58.3346 33.6093C57.812 35.0168 56.5577 35.9714 54.739 35.9714C52.7043 35.9714 51.1922 34.5639 50.997 32.571H59.0036C59.8885 29.0451 57.9235 26.4041 54.3906 26.4041C51.4013 26.4041 48.9554 28.9823 48.9554 32.1389C48.9624 35.4071 51.45 37.8738 54.739 37.8738ZM54.3906 28.2437C56.2302 28.2437 57.3103 29.3238 57.2685 30.9265H51.1016C51.4709 29.2402 52.6833 28.2437 54.3906 28.2437Z" fill="white"/>
<path d="M42.8652 28.2577C44.1195 28.2577 45.1995 28.5852 46.4399 29.5538L46.4956 29.3656L47.5339 26.5295L45.9312 26.0069L45.6385 27.1636C44.8511 26.7525 43.9104 26.418 42.8861 26.418C40.266 26.418 38.8166 27.6305 38.8166 29.4492C38.8166 31.247 40.3984 32.132 42.8443 32.9124C44.8372 33.5186 45.4016 34.104 45.4016 34.6684C45.4016 35.5743 44.5167 36.0969 43.2554 36.0969C41.6318 36.0969 40.2452 35.2747 39.5135 34.0204L38.0223 35.2537C38.9281 36.724 40.7468 37.8947 43.1718 37.8947C46.0287 37.8947 47.4154 36.3826 47.4154 34.4733C47.4154 33.219 46.5723 32.1808 43.346 31.1146C41.8966 30.6199 40.8374 30.3342 40.8374 29.4074C40.8305 28.7385 41.2834 28.2577 42.8652 28.2577Z" fill="white"/>
<path d="M7.84987 28.2507C9.10415 28.2507 10.1842 28.5782 11.4246 29.5468L11.4803 29.3587L12.5186 26.5226L10.9159 26L10.6232 27.1567C9.83581 26.7456 8.89511 26.4111 7.87078 26.4111C5.25073 26.4111 3.80134 27.6236 3.80134 29.4423C3.80134 31.2401 5.38313 32.125 7.82897 32.9055C9.82189 33.5117 10.3863 34.0971 10.3863 34.6615C10.3863 35.5674 9.50135 36.09 8.24009 36.09C6.6165 36.09 5.22983 35.2677 4.49816 34.0135L3 35.2468C3.90587 36.7171 5.72457 37.8878 8.14951 37.8878C11.0065 37.8878 12.3932 36.3756 12.3932 34.4664C12.3932 33.2121 11.55 32.1738 8.32371 31.1077C6.87432 30.613 5.81516 30.3273 5.81516 29.4005C5.81516 28.7315 6.26809 28.2507 7.84987 28.2507Z" fill="white"/>
</svg>
