<svg width="64" height="64" viewBox="0 0 64 64" fill="none" xmlns="http://www.w3.org/2000/svg">
<rect width="64" height="64" fill="#024B45"/>
<rect y="58" width="64" height="6" fill="#D7E530"/>
<path d="M11.728 25.856C11.728 26.1333 11.776 26.3893 11.872 26.624C11.9787 26.848 12.112 27.0453 12.272 27.216C12.4427 27.3867 12.64 27.52 12.864 27.616C13.0987 27.712 13.344 27.76 13.6 27.76C13.856 27.76 14.096 27.712 14.32 27.616C14.5547 27.52 14.752 27.3867 14.912 27.216C15.0827 27.0453 15.216 26.848 15.312 26.624C15.4187 26.3893 15.472 26.1387 15.472 25.872C15.472 25.616 15.4187 25.376 15.312 25.152C15.216 24.9173 15.0827 24.7147 14.912 24.544C14.752 24.3733 14.5547 24.24 14.32 24.144C14.096 24.048 13.856 24 13.6 24C13.344 24 13.0987 24.048 12.864 24.144C12.64 24.24 12.4427 24.3733 12.272 24.544C12.112 24.7147 11.9787 24.912 11.872 25.136C11.776 25.36 11.728 25.6 11.728 25.856ZM8.672 25.824C8.672 25.216 8.79467 24.6507 9.04 24.128C9.28533 23.5947 9.62667 23.136 10.064 22.752C10.5013 22.3573 11.0187 22.048 11.616 21.824C12.224 21.6 12.8853 21.488 13.6 21.488C14.304 21.488 14.9547 21.6 15.552 21.824C16.16 22.0373 16.6827 22.3413 17.12 22.736C17.568 23.12 17.9147 23.584 18.16 24.128C18.4053 24.6613 18.528 25.2533 18.528 25.904C18.528 26.5547 18.4 27.152 18.144 27.696C17.8987 28.2293 17.5573 28.6933 17.12 29.088C16.6827 29.472 16.1547 29.7707 15.536 29.984C14.928 30.1973 14.2667 30.304 13.552 30.304C12.848 30.304 12.1973 30.1973 11.6 29.984C11.0027 29.7707 10.4853 29.4667 10.048 29.072C9.62133 28.6773 9.28533 28.208 9.04 27.664C8.79467 27.1093 8.672 26.496 8.672 25.824ZM20.1951 30V21.792H23.0911V27.584H25.0111V21.792H27.9071V27.584H29.8271V21.792H32.7231V27.584H33.6991V31.68H30.8031V30H20.1951ZM38.0394 25.872C38.0394 26.1387 38.0874 26.3893 38.1834 26.624C38.2794 26.848 38.4074 27.0453 38.5674 27.216C38.738 27.3867 38.9354 27.52 39.1594 27.616C39.394 27.712 39.6447 27.76 39.9114 27.76C40.1674 27.76 40.4074 27.712 40.6314 27.616C40.866 27.52 41.0634 27.3867 41.2234 27.216C41.394 27.0453 41.5274 26.848 41.6234 26.624C41.73 26.4 41.7834 26.16 41.7834 25.904C41.7834 25.648 41.73 25.408 41.6234 25.184C41.5274 24.9493 41.394 24.7467 41.2234 24.576C41.0634 24.4053 40.866 24.272 40.6314 24.176C40.4074 24.08 40.1674 24.032 39.9114 24.032C39.6447 24.032 39.394 24.08 39.1594 24.176C38.9354 24.272 38.738 24.4053 38.5674 24.576C38.4074 24.7467 38.2794 24.944 38.1834 25.168C38.0874 25.3813 38.0394 25.616 38.0394 25.872ZM41.6874 21.792H44.5994V30H41.6874V29.088C41.0687 29.8667 40.2314 30.256 39.1754 30.256C38.578 30.256 38.0287 30.1493 37.5274 29.936C37.026 29.712 36.5887 29.4027 36.2154 29.008C35.842 28.6133 35.5487 28.1493 35.3354 27.616C35.1327 27.0827 35.0314 26.5013 35.0314 25.872C35.0314 25.2853 35.1327 24.7307 35.3354 24.208C35.538 23.6747 35.8207 23.2107 36.1834 22.816C36.546 22.4213 36.978 22.112 37.4794 21.888C37.9807 21.6533 38.5354 21.536 39.1434 21.536C40.1674 21.536 41.0154 21.8933 41.6874 22.608V21.792ZM52.6821 24.208H50.4901V26.672C50.4901 26.8853 50.4848 27.056 50.4741 27.184C50.4635 27.312 50.4475 27.4453 50.4261 27.584H52.6821V24.208ZM46.8261 27.584C47.1141 27.584 47.3115 27.488 47.4181 27.296C47.5248 27.104 47.5781 26.8053 47.5781 26.4V21.792H55.5781V27.584H56.5541V31.68H53.6581V30H49.3221V31.68H46.4261V27.584H46.8261Z" fill="white"/>
</svg>
