<svg width="64" height="64" viewBox="0 0 64 64" fill="none" xmlns="http://www.w3.org/2000/svg">
<rect width="64" height="64" fill="#E60C2A"/>
<path d="M47.7406 32.6732C47.7406 34.1773 48.963 35.1159 50.2574 35.1159C51.5998 35.1159 52.7742 34.1773 52.738 32.7935C52.7742 31.3616 51.5636 30.4231 50.1735 30.4231C48.8791 30.4351 47.7885 31.2894 47.7406 32.6732ZM34.4618 37.5706H31.3697V26.4401H34.4977L37.3021 30.76L40.0705 26.4401H43.1985V37.5826H40.1064V31.5902L37.3021 35.7055L34.4618 31.5902V37.5706ZM23.8914 36.1868L19.0617 26.4401H22.4773L25.4494 32.3604L25.5693 32.0716L27.319 26.4401H30.7705L27.271 36.0665C26.1685 39.2913 24.3468 40.9639 21.0991 41V37.7752C22.7289 37.7752 23.6158 37.3299 23.9034 36.2229V36.1868H23.8914ZM11.2118 37.5706H8V26.4401H18.4385V37.5826H15.1907V29.4243H11.2118V37.5706ZM50.4253 38.1482C47.1294 38.1482 44.3729 35.537 44.3729 31.9513C44.3729 28.3654 45.9189 25.8265 49.5383 24.202C50.1015 23.9132 51.0004 23.5883 51.7314 22.9386C52.019 22.6979 52.3427 22.2888 52.4982 22L55.1829 23.6726C54.5716 25.3091 53.0256 25.9107 51.5278 26.5244C50.1015 27.0538 48.7593 27.6314 48.2319 28.931L48.3158 28.9671C49.0828 28.2692 50.1496 27.9443 51.204 27.9443C53.7208 27.9443 56.0817 29.9418 55.9978 32.8417C55.9139 36.4756 53.0618 38.1482 50.4253 38.1482Z" fill="white"/>
</svg>
