<svg width="64" height="64" viewBox="0 0 64 64" fill="none" xmlns="http://www.w3.org/2000/svg">
<rect width="64" height="64" fill="url(#paint0_linear_19_65)"/>
<path d="M20.266 37.716V29.4556C20.266 27.1124 19.0073 26 16.8936 26C15.1361 26 13.6162 27.0414 12.9511 28.0828C12.5237 26.7811 11.4549 26 9.76867 26C8.01116 26 6.49122 27.0887 6.01617 27.7751V26.284H3V37.716H6.01617V30.0236C6.46742 29.3846 7.34613 28.6746 8.39112 28.6746C9.62619 28.6746 10.1011 29.432 10.1011 30.497V37.716H13.1411V30C13.5686 29.3846 14.4474 28.6746 15.516 28.6746C16.7511 28.6746 17.2261 29.432 17.2261 30.497V37.716H20.266Z" fill="white"/>
<path d="M28.5444 38C32.3442 38 34.6243 35.2544 34.6243 31.9882C34.6243 28.7456 32.3442 26 28.5444 26C24.7681 26 22.4881 28.7456 22.4881 31.9882C22.4881 35.2544 24.7681 38 28.5444 38ZM28.5444 35.3254C26.6681 35.3254 25.6231 33.787 25.6231 31.9882C25.6231 30.213 26.6681 28.6746 28.5444 28.6746C30.4206 28.6746 31.4892 30.213 31.4892 31.9882C31.4892 33.787 30.4206 35.3254 28.5444 35.3254Z" fill="white"/>
<path d="M47.6205 37.716V29.6449C47.6205 27.4201 46.4094 26 43.8919 26C42.0157 26 40.6144 26.8994 39.8782 27.7751V26.284H36.8619V37.716H39.8782V30.0236C40.3769 29.3373 41.3031 28.6746 42.4906 28.6746C43.7731 28.6746 44.6044 29.2189 44.6044 30.8047V37.716H47.6205Z" fill="white"/>
<path d="M55.9353 38C59.7352 38 62.015 35.2544 62.015 31.9882C62.015 28.7456 59.7352 26 55.9353 26C52.1592 26 49.8791 28.7456 49.8791 31.9882C49.8791 35.2544 52.1592 38 55.9353 38ZM55.9353 35.3254C54.0592 35.3254 53.0141 33.787 53.0141 31.9882C53.0141 30.213 54.0592 28.6746 55.9353 28.6746C57.8118 28.6746 58.8803 30.213 58.8803 31.9882C58.8803 33.787 57.8118 35.3254 55.9353 35.3254Z" fill="white"/>
<defs>
<linearGradient id="paint0_linear_19_65" x1="32" y1="0" x2="32" y2="64" gradientUnits="userSpaceOnUse">
<stop stop-color="#363845"/>
<stop offset="1" stop-color="#1B1C20"/>
</linearGradient>
</defs>
</svg>
