<svg width="64" height="64" viewBox="0 0 64 64" fill="none" xmlns="http://www.w3.org/2000/svg">
<mask id="mask0_19_263" style="mask-type:luminance" maskUnits="userSpaceOnUse" x="0" y="0" width="65" height="65">
<path d="M64.4729 64.4735H0V-7.24902e-07H64.4729V64.4735Z" fill="white"/>
</mask>
<g mask="url(#mask0_19_263)">
<path d="M64.4729 64.4735H0V-7.24902e-07H64.4729V64.4735Z" fill="url(#paint0_linear_19_263)"/>
</g>
<mask id="mask1_19_263" style="mask-type:luminance" maskUnits="userSpaceOnUse" x="1" y="1" width="63" height="62">
<path d="M62.4805 32.6107C62.4805 46.067 63.1024 59.8463 63.1024 59.8463C63.0786 61.3917 62.088 62.3801 60.8408 62.3801H5.03643C3.78703 62.3801 2.92357 61.2678 2.77643 59.8463C2.77643 59.8463 1.1661 48.0826 1.1661 30.1037C1.1661 12.1319 2.77643 3.66939 2.77643 3.66939C2.96965 2.19057 3.78703 1.13452 5.03643 1.13452H60.8408C62.088 1.13452 63.1313 2.29221 63.1024 3.66939C63.1024 3.66939 62.4805 19.1534 62.4805 32.6107Z" fill="white"/>
</mask>
<g mask="url(#mask1_19_263)">
<path d="M62.4805 32.6107C62.4805 46.067 63.1024 59.8463 63.1024 59.8463C63.0786 61.3917 62.088 62.3801 60.8408 62.3801H5.03643C3.78703 62.3801 2.92357 61.2678 2.77643 59.8463C2.77643 59.8463 1.1661 48.0826 1.1661 30.1037C1.1661 12.1319 2.77643 3.66939 2.77643 3.66939C2.96965 2.19057 3.78703 1.13452 5.03643 1.13452H60.8408C62.088 1.13452 63.1313 2.29221 63.1024 3.66939C63.1024 3.66939 62.4805 19.1534 62.4805 32.6107Z" fill="url(#paint1_linear_19_263)"/>
</g>
<mask id="mask2_19_263" style="mask-type:luminance" maskUnits="userSpaceOnUse" x="31" y="7" width="27" height="22">
<path d="M50.0655 17.411C46.0785 19.7459 44.8614 19.9337 40.5357 22.5306L40.7468 22.0503C43.0161 19.5739 44.0052 18.5299 45.4973 16.342C41.4992 16.5587 35.7048 17.0361 31.5585 17.9496L31.7778 17.5054C35.5382 15.6757 42.5192 13.8588 46.0785 13.3879C45.2112 12.1663 38.1369 8.34038 36.3766 7.6019L36.5821 7.15483C41.9434 7.76012 49.0455 10.2673 52.1429 12.1663C53.4506 11.7543 54.7871 11.7138 57.2126 11.5027C57.2126 11.5027 56.8538 12.9659 54.2096 14.7806C54.8648 16.5363 53.2889 26.2594 51.9929 28.8387C51.9346 24.7712 51.572 19.6393 50.0655 17.411Z" fill="white"/>
</mask>
<g mask="url(#mask2_19_263)">
<path d="M50.0655 17.411C46.0785 19.7459 44.8614 19.9337 40.5357 22.5306L40.7468 22.0503C43.0161 19.5739 44.0052 18.5299 45.4973 16.342C41.4992 16.5587 35.7048 17.0361 31.5585 17.9496L31.7778 17.5054C35.5382 15.6757 42.5192 13.8588 46.0785 13.3879C45.2112 12.1663 38.1369 8.34038 36.3766 7.6019L36.5821 7.15483C41.9434 7.76012 49.0455 10.2673 52.1429 12.1663C53.4506 11.7543 54.7871 11.7138 57.2126 11.5027C57.2126 11.5027 56.8538 12.9659 54.2096 14.7806C54.8648 16.5363 53.2889 26.2594 51.9929 28.8387C51.9346 24.7712 51.572 19.6393 50.0655 17.411Z" fill="url(#paint2_linear_19_263)"/>
</g>
<mask id="mask3_19_263" style="mask-type:luminance" maskUnits="userSpaceOnUse" x="6" y="37" width="16" height="19">
<path d="M20.9343 52.2656L21.1368 51.8158C19.0202 50.994 16.9028 50.3454 15.1887 48.7312C15.7285 47.2319 16.3447 46.0575 17.3516 44.5721L17.5637 44.1168C15.7451 44.3906 14.0948 45.0563 12.5216 45.3633C11.2806 43.1823 10.7992 40.1992 10.1745 37.359L9.96735 37.8115C9.6164 41.0516 9.4748 43.3682 9.93792 45.9575C8.628 46.3213 7.47801 46.3723 6.42186 46.8221L6.22084 47.2663C7.90168 48.3036 9.27046 49.0977 11.1723 49.9861C12.1885 52.1712 13.2407 53.6438 14.9444 55.3263L15.1526 54.8765C14.8456 53.6344 14.4485 52.6082 14.5984 51.2505C16.7113 51.8669 18.5253 52.1917 20.9343 52.2656Z" fill="white"/>
</mask>
<g mask="url(#mask3_19_263)">
<path d="M20.9343 52.2656L21.1368 51.8158C19.0202 50.994 16.9028 50.3454 15.1887 48.7312C15.7285 47.2319 16.3447 46.0575 17.3516 44.5721L17.5637 44.1168C15.7451 44.3906 14.0948 45.0563 12.5216 45.3633C11.2806 43.1823 10.7992 40.1992 10.1745 37.359L9.96735 37.8115C9.6164 41.0516 9.4748 43.3682 9.93792 45.9575C8.628 46.3213 7.47801 46.3723 6.42186 46.8221L6.22084 47.2663C7.90168 48.3036 9.27046 49.0977 11.1723 49.9861C12.1885 52.1712 13.2407 53.6438 14.9444 55.3263L15.1526 54.8765C14.8456 53.6344 14.4485 52.6082 14.5984 51.2505C16.7113 51.8669 18.5253 52.1917 20.9343 52.2656Z" fill="url(#paint3_linear_19_263)"/>
</g>
<mask id="mask4_19_263" style="mask-type:luminance" maskUnits="userSpaceOnUse" x="10" y="19" width="26" height="17">
<path d="M26.813 19.8848C26.813 19.8848 25.9623 21.3951 25.281 23.3998H25.1182C30.0825 24.0689 34.7718 26.0789 35.9491 26.773L35.7392 27.2173C30.5861 26.3122 27.8724 26.4138 25.9522 26.586C24.0383 26.7703 23.6468 27.009 23.6468 27.009C22.5417 29.4245 21.8938 33.3726 21.6311 34.8268L21.4245 35.2795C20.4799 33.0144 19.1224 28.4905 19.1224 28.4905C16.527 29.8826 10.5393 35.5015 10.5393 35.5015C13.8405 28.922 17.1749 25.9152 17.1749 25.9152C16.0227 24.7602 13.0159 24.1715 10.8197 24.0771L11.0224 23.6329C12.4023 23.2276 15.2426 23.0582 17.1472 22.971C19.4006 22.9027 20.7621 23.0322 20.7621 23.0322C22.7666 21.4339 25.7613 20.0336 26.813 19.8848Z" fill="white"/>
</mask>
<g mask="url(#mask4_19_263)">
<path d="M26.813 19.8848C26.813 19.8848 25.9623 21.3951 25.281 23.3998H25.1182C30.0825 24.0689 34.7718 26.0789 35.9491 26.773L35.7392 27.2173C30.5861 26.3122 27.8724 26.4138 25.9522 26.586C24.0383 26.7703 23.6468 27.009 23.6468 27.009C22.5417 29.4245 21.8938 33.3726 21.6311 34.8268L21.4245 35.2795C20.4799 33.0144 19.1224 28.4905 19.1224 28.4905C16.527 29.8826 10.5393 35.5015 10.5393 35.5015C13.8405 28.922 17.1749 25.9152 17.1749 25.9152C16.0227 24.7602 13.0159 24.1715 10.8197 24.0771L11.0224 23.6329C12.4023 23.2276 15.2426 23.0582 17.1472 22.971C19.4006 22.9027 20.7621 23.0322 20.7621 23.0322C22.7666 21.4339 25.7613 20.0336 26.813 19.8848Z" fill="url(#paint4_linear_19_263)"/>
</g>
<mask id="mask5_19_263" style="mask-type:luminance" maskUnits="userSpaceOnUse" x="24" y="47" width="15" height="10">
<path d="M33.131 48.177C32.0898 49.5891 31.1997 50.7008 30.0519 51.9918C28.3556 52.4627 26.3204 52.2489 24.7535 52.3056L24.5481 52.7553C25.7274 53.3623 26.8824 53.7343 28.1185 53.9881C27.1173 54.8987 25.7791 55.5928 24.8406 56.2275L24.6324 56.6701C26.6464 56.1942 29.2984 55.3391 31.2736 54.173C32.3009 54.2185 33.2615 54.1508 33.9667 54.0103C33.9667 54.0103 34.1778 53.5511 34.1778 53.5622C34.0484 53.1068 33.6447 52.8292 33.5253 52.1917C35.3771 50.7552 36.7182 49.4458 38.2674 47.8883L38.4812 47.4374C36.9513 48.4924 35.0957 49.9428 33.306 50.7913C33.232 49.9122 33.1755 49.1654 33.131 48.177Z" fill="white"/>
</mask>
<g mask="url(#mask5_19_263)">
<path d="M33.131 48.177C32.0898 49.5891 31.1997 50.7008 30.0519 51.9918C28.3556 52.4627 26.3204 52.2489 24.7535 52.3056L24.5481 52.7553C25.7274 53.3623 26.8824 53.7343 28.1185 53.9881C27.1173 54.8987 25.7791 55.5928 24.8406 56.2275L24.6324 56.6701C26.6464 56.1942 29.2984 55.3391 31.2736 54.173C32.3009 54.2185 33.2615 54.1508 33.9667 54.0103C33.9667 54.0103 34.1778 53.5511 34.1778 53.5622C34.0484 53.1068 33.6447 52.8292 33.5253 52.1917C35.3771 50.7552 36.7182 49.4458 38.2674 47.8883L38.4812 47.4374C36.9513 48.4924 35.0957 49.9428 33.306 50.7913C33.232 49.9122 33.1755 49.1654 33.131 48.177Z" fill="url(#paint5_linear_19_263)"/>
</g>
<path d="M50.2716 16.9572C46.2923 19.2961 45.0735 19.4933 40.7468 22.0826C43.266 19.3488 44.1423 18.1856 45.701 15.8978C41.713 16.1089 35.9157 16.5891 31.7778 17.5054C35.38 15.5814 42.5226 13.4424 46.2923 12.9326C45.4184 11.7265 38.3424 7.89345 36.5821 7.15482C42.1832 7.59081 49.0316 9.68415 52.3506 11.7138C53.6571 11.3055 55.0148 11.2862 57.4452 11.0696C56.8267 12.133 56.8 12.7482 54.4151 14.3291C55.0758 16.0967 53.4977 25.8124 52.1939 28.3862C52.1467 24.3215 51.7913 19.1879 50.2716 16.9572Z" fill="white"/>
<path d="M21.1368 51.8158C18.8502 50.9673 17.2037 49.9806 15.3909 48.2853C15.9339 46.7877 16.553 45.6172 17.5637 44.1168C15.705 44.3944 14.3347 44.6038 12.7327 44.9065C11.4294 42.6259 10.8375 40.4241 10.1745 37.359C9.81908 40.6073 9.68415 42.9274 10.1423 45.5116C8.67242 45.9197 7.63071 46.2768 6.42186 46.8221C8.11659 47.8594 9.48536 48.6573 11.3778 49.5402C12.3956 51.7214 13.4462 53.1957 15.1526 54.8765C14.7522 53.4439 14.6467 52.3056 14.8106 50.8024C16.9251 51.4188 18.7353 51.742 21.1368 51.8158Z" fill="white"/>
<path d="M27.0895 19.4988C26.3777 20.4234 25.5514 22.1475 25.3282 22.9488C31.2209 23.7467 35.9491 26.773 35.9491 26.773C30.7961 25.8596 28.0807 25.9734 26.1584 26.1456C24.2476 26.3261 23.8551 26.551 23.8551 26.551C22.4651 29.5966 21.6311 34.8268 21.6311 34.8268C20.6937 32.5663 19.3395 28.0391 19.3395 28.0391C16.7391 29.43 10.7586 35.0546 10.7586 35.0546C14.0459 28.4695 17.3831 25.4736 17.3831 25.4736C16.2354 24.3104 13.2241 23.7301 11.0224 23.6329C12.1652 23.1665 15.0982 22.6212 17.3516 22.5168C19.6071 22.4529 20.9714 22.5807 20.9714 22.5807C22.9833 20.9925 26.0373 19.6543 27.0895 19.4988Z" fill="white"/>
<path d="M33.3404 47.7327C32.3009 49.1449 31.4058 50.2527 30.2519 51.542C28.2695 52.099 26.6869 52.3056 24.7535 52.3056C25.94 52.918 27.0895 53.2845 28.3278 53.5438C27.0895 54.6644 26.0428 55.4624 24.8406 56.2275C26.8563 55.75 29.5051 54.8949 31.478 53.7288C32.508 53.7687 33.4714 53.7021 34.1778 53.5622C33.9934 52.9652 33.8807 52.5193 33.7307 51.7419C35.5882 50.3038 36.9364 49.0016 38.4812 47.4373C36.8365 48.5851 35.4171 49.442 33.5142 50.3415C33.4326 49.4642 33.3853 48.7211 33.3404 47.7327Z" fill="white"/>
<defs>
<linearGradient id="paint0_linear_19_263" x1="32.2363" y1="-1.58586" x2="32.2362" y2="66.4729" gradientUnits="userSpaceOnUse">
<stop stop-color="#007A50"/>
<stop offset="0.6" stop-color="#7FD2A4"/>
<stop offset="1" stop-color="#00A770"/>
</linearGradient>
<linearGradient id="paint1_linear_19_263" x1="32.1343" y1="-16.0149" x2="32.1343" y2="60.4635" gradientUnits="userSpaceOnUse">
<stop stop-color="#00A770"/>
<stop offset="0.3" stop-color="#7FD2A4"/>
<stop offset="0.55" stop-color="#00A770"/>
<stop offset="0.835165" stop-color="#007A50"/>
<stop offset="1" stop-color="#19B07B"/>
</linearGradient>
<linearGradient id="paint2_linear_19_263" x1="44.3852" y1="56.2414" x2="44.3852" y2="6.75027" gradientUnits="userSpaceOnUse">
<stop stop-color="#33B880"/>
<stop offset="1" stop-color="#00A770"/>
</linearGradient>
<linearGradient id="paint3_linear_19_263" x1="13.6787" y1="56.2427" x2="13.6787" y2="6.73661" gradientUnits="userSpaceOnUse">
<stop stop-color="#33B880"/>
<stop offset="1" stop-color="#00A770"/>
</linearGradient>
<linearGradient id="paint4_linear_19_263" x1="23.2442" y1="56.2304" x2="23.2442" y2="6.75894" gradientUnits="userSpaceOnUse">
<stop stop-color="#33B880"/>
<stop offset="1" stop-color="#00A770"/>
</linearGradient>
<linearGradient id="paint5_linear_19_263" x1="31.5144" y1="56.2386" x2="31.5144" y2="6.748" gradientUnits="userSpaceOnUse">
<stop stop-color="#33B880"/>
<stop offset="1" stop-color="#00A770"/>
</linearGradient>
</defs>
</svg>
