<svg width="64" height="64" viewBox="0 0 64 64" fill="none" xmlns="http://www.w3.org/2000/svg">
<path d="M0 0V64H64V0H0ZM62.0062 62.2056H1.79439V1.79439H62.0062V62.2056Z" fill="black"/>
<path d="M62.0062 1.79439H1.79439V62.0062H62.0062V1.79439Z" fill="#FFF000"/>
<path fill-rule="evenodd" clip-rule="evenodd" d="M31.7408 39.676L51.0804 58.8162L58.6567 51.2399L39.3171 32.0997L43.1053 28.3115V20.9346L45.8966 18.1433V24.324L48.4885 26.9159L57.8592 17.5452L60.4511 19.9377C60.4511 18.3427 60.0523 12.7601 55.4667 8.37383C50.4822 3.38941 45.4978 6.38006 43.7034 8.17445L34.7315 17.1464L36.9246 19.3396L31.9003 24.324L26.9159 19.3396L29.109 17.1464L19.9377 8.17445C18.1433 6.38006 13.1589 3.58878 8.17446 8.37383C3.78816 12.7601 3.38941 18.3427 3.38941 19.9377L5.78193 17.5452L15.1526 26.9159L17.7445 24.324V18.1433L20.5358 20.9346V28.3115L24.324 32.0997L5.38318 51.2399L12.9595 58.8162L31.7408 39.676Z" fill="black"/>
</svg>
