<svg width="999" height="324" viewBox="0 0 999 324" fill="none" xmlns="http://www.w3.org/2000/svg">
<path d="M650.69 0C579.76 0 516.37 36.77 516.37 104.69C516.37 182.59 628.79 187.97 628.79 227.11C628.79 243.59 609.91 258.34 577.65 258.34C531.88 258.34 497.67 237.73 497.67 237.73L483.03 306.28C483.03 306.28 522.44 323.69 574.76 323.69C652.31 323.69 713.34 285.12 713.34 216.03C713.34 133.71 600.45 128.49 600.45 92.17C600.45 79.26 615.95 65.12 648.11 65.12C684.4 65.12 714 80.11 714 80.11L728.33 13.91C728.33 13.91 696.11 0 650.68 0H650.69ZM1.72 5L0 14.99C0 14.99 29.84 20.45 56.72 31.35C91.33 43.84 93.79 51.12 99.62 73.7L163.13 318.53H248.27L379.43 5H294.49L210.21 218.17L175.82 37.47C172.67 16.79 156.69 4.99 137.14 4.99H1.73L1.72 5ZM413.59 5L346.96 318.53H427.96L494.35 5H413.59ZM865.35 5C845.82 5 835.47 15.46 827.88 33.73L709.21 318.53H794.15L810.58 271.06H914.06L924.05 318.53H999L933.62 5H865.35ZM876.4 89.71L901.58 207.36H834.13L876.41 89.71H876.4Z" fill="#1434CB"/>
</svg>
